<svg width="1216" height="788" viewBox="0 0 1216 788" fill="none" xmlns="http://www.w3.org/2000/svg">
<g clip-path="url(#clip0)">
<rect width="1216" height="788" fill="white"/>
<g clip-path="url(#clip1)" filter="url(#filter0_f)">
<rect width="1415.16" height="1006.33" transform="translate(-96 -112)" fill="white"/>
<path d="M-93.543 -114.457C591.276 -112.511 796.108 -114.417 798.297 -114.456C798.298 -114.457 798.299 -114.457 798.3 -114.457C798.32 -114.457 798.319 -114.457 798.297 -114.456C796.992 -113.974 955.279 175.247 1034.65 319.917L27.8263 162.187L-93.543 23.6191V-114.457Z" fill="#F44E77"/>
<path d="M-116.638 -176.861C-116.634 -176.37 -116.63 -175.878 -116.626 -175.387C-112.761 74.5449 872.872 254.708 1366.17 313.634C1367.03 508.225 1368.23 896.987 1366.17 895.311C1364.11 893.634 376.773 506.827 -116.638 313.634C-115.952 238.87 -114.993 36.6249 -116.626 -175.387C-116.634 -175.878 -116.638 -176.37 -116.638 -176.861Z" fill="#554DDE"/>
<path d="M22.5912 1167.62L-143.727 292.825C-10.2113 213.496 403.954 61.1779 760.28 460.954C979.093 706.449 1603.91 845.447 1773.99 834.636L22.5912 1167.62Z" fill="#F44E77"/>
<path d="M-200.853 947.237V517.021C-85.0526 491.417 260.268 456.496 478.717 678.398C612.862 814.664 1079.18 937.02 1213.32 947.237H-200.853Z" fill="#16194F"/>
<path d="M495.728 -78.5866C1158.06 95.4556 1356.8 145.104 1358.93 145.617C1358.93 145.617 1358.93 145.617 1358.93 145.617C1358.95 145.622 1358.95 145.622 1358.93 145.617C1357.54 145.756 1438.04 465.48 1478.49 625.459L543.653 219.684L461.017 55.0551L495.728 -78.5866Z" fill="#4EF4E0"/>
<path d="M1366.38 345.833C1366.38 341.628 1368.47 300.1 1366.38 -139.364C317.017 -490.515 414.944 121.721 848.222 252.263C1020.94 284.855 1366.38 349.198 1366.38 345.833Z" fill="#0631BC"/>
</g>
</g>
<defs>
<filter id="filter0_f" x="-317" y="-333" width="1857.16" height="1448.33" filterUnits="userSpaceOnUse" color-interpolation-filters="sRGB">
<feFlood flood-opacity="0" result="BackgroundImageFix"/>
<feBlend mode="normal" in="SourceGraphic" in2="BackgroundImageFix" result="shape"/>
<feGaussianBlur stdDeviation="110.5" result="effect1_foregroundBlur"/>
</filter>
<clipPath id="clip0">
<rect width="1216" height="788" fill="white"/>
</clipPath>
<clipPath id="clip1">
<rect width="1415.16" height="1006.33" fill="white" transform="translate(-96 -112)"/>
</clipPath>
</defs>
</svg>
