<svg width="414" height="896" viewBox="0 0 414 896" fill="none" xmlns="http://www.w3.org/2000/svg">
<g clip-path="url(#clip0)">
<rect width="414" height="896" rx="30" fill="white"/>
<path d="M279 168.935H266.839V164.305C266.835 162.896 266.272 161.546 265.274 160.552C264.276 159.557 262.923 158.999 261.514 159H260.719C259.31 158.999 257.958 159.557 256.96 160.552C255.962 161.546 255.398 162.896 255.394 164.305V168.935H231.073V164.305C231.069 162.896 230.506 161.546 229.508 160.552C228.509 159.557 227.157 158.999 225.748 159H224.953C223.544 158.999 222.192 159.557 221.194 160.552C220.195 161.546 219.632 162.896 219.628 164.305V168.935H195.307V164.305C195.303 162.896 194.74 161.546 193.741 160.552C192.743 159.557 191.391 158.999 189.982 159H189.187C187.778 158.999 186.426 159.557 185.427 160.552C184.429 161.546 183.866 162.896 183.862 164.305V168.935H159.541V164.305C159.537 162.896 158.974 161.546 157.975 160.552C156.977 159.557 155.625 158.999 154.216 159H153.421C152.012 158.999 150.659 159.557 149.661 160.552C148.663 161.546 148.1 162.896 148.096 164.305V168.935H135.935C133.301 168.938 130.776 169.986 128.913 171.848C127.051 173.711 126.003 176.236 126 178.87V297.167C126.005 301.1 127.569 304.87 130.35 307.651C133.131 310.432 136.901 311.996 140.834 312H274.101C278.034 311.996 281.804 310.432 284.585 307.651C287.366 304.87 288.93 301.1 288.935 297.167V178.87C288.932 176.236 287.884 173.711 286.022 171.848C284.159 169.986 281.634 168.938 279 168.935V168.935ZM266.578 183.156C266.58 183.218 266.581 183.279 266.581 183.341C266.581 184.79 266.005 186.18 264.981 187.205C263.956 188.229 262.566 188.805 261.117 188.805C259.668 188.805 258.278 188.229 257.253 187.205C256.228 186.18 255.653 184.79 255.653 183.341C255.653 183.279 255.654 183.218 255.656 183.156C255.684 183.244 255.729 183.324 255.762 183.41C255.802 183.513 255.843 183.614 255.888 183.713C255.983 183.915 256.09 184.111 256.209 184.3C256.258 184.38 256.301 184.46 256.354 184.536C256.532 184.793 256.731 185.034 256.95 185.256C256.968 185.273 256.989 185.287 257.007 185.304C257.213 185.504 257.435 185.686 257.67 185.85C257.752 185.908 257.84 185.956 257.925 186.009C258.109 186.124 258.3 186.227 258.497 186.318C258.598 186.365 258.7 186.408 258.804 186.449C259.012 186.528 259.224 186.594 259.44 186.646C259.54 186.671 259.635 186.7 259.736 186.719C260.06 186.783 260.389 186.816 260.719 186.818H261.514C261.844 186.816 262.174 186.782 262.498 186.719C262.598 186.7 262.694 186.67 262.793 186.646C263.009 186.594 263.221 186.528 263.429 186.449C263.533 186.409 263.635 186.365 263.736 186.318C263.932 186.227 264.123 186.124 264.307 186.009C264.393 185.956 264.48 185.907 264.563 185.85C264.798 185.686 265.02 185.503 265.226 185.304C265.244 185.287 265.265 185.273 265.282 185.256C265.502 185.033 265.701 184.793 265.879 184.536C265.931 184.46 265.974 184.379 266.023 184.301C266.142 184.112 266.249 183.916 266.344 183.713C266.39 183.614 266.431 183.513 266.47 183.41C266.505 183.324 266.549 183.244 266.578 183.156ZM259.368 164.305C259.375 163.951 259.521 163.614 259.773 163.365C260.025 163.116 260.365 162.976 260.719 162.974H261.514C261.869 162.976 262.208 163.116 262.461 163.365C262.713 163.614 262.858 163.951 262.865 164.305V181.513C262.858 181.867 262.713 182.205 262.461 182.453C262.208 182.702 261.869 182.842 261.514 182.844H260.719C260.365 182.842 260.025 182.702 259.773 182.453C259.521 182.205 259.375 181.867 259.368 181.513V164.305V164.305ZM230.812 183.156C230.814 183.218 230.815 183.279 230.815 183.341C230.815 184.79 230.239 186.18 229.214 187.205C228.19 188.229 226.8 188.805 225.351 188.805C223.901 188.805 222.512 188.229 221.487 187.205C220.462 186.18 219.886 184.79 219.886 183.341C219.886 183.279 219.887 183.218 219.889 183.156C219.918 183.244 219.962 183.324 219.996 183.41C220.035 183.513 220.076 183.614 220.122 183.713C220.217 183.915 220.324 184.111 220.443 184.3C220.492 184.38 220.535 184.46 220.588 184.536C220.765 184.793 220.965 185.034 221.184 185.256C221.202 185.273 221.223 185.287 221.24 185.304C221.447 185.504 221.669 185.686 221.904 185.85C221.986 185.908 222.074 185.956 222.159 186.009C222.343 186.124 222.534 186.227 222.731 186.318C222.832 186.365 222.934 186.408 223.038 186.449C223.246 186.528 223.458 186.594 223.674 186.646C223.773 186.671 223.869 186.7 223.969 186.719C224.294 186.783 224.623 186.816 224.953 186.818H225.748C226.078 186.816 226.407 186.782 226.731 186.719C226.832 186.7 226.928 186.67 227.026 186.646C227.242 186.594 227.455 186.528 227.662 186.449C227.767 186.409 227.868 186.365 227.97 186.318C228.166 186.227 228.357 186.124 228.541 186.009C228.627 185.956 228.714 185.907 228.796 185.85C229.032 185.686 229.254 185.503 229.46 185.304C229.478 185.287 229.499 185.273 229.516 185.256C229.736 185.033 229.935 184.793 230.112 184.536C230.165 184.46 230.208 184.379 230.257 184.301C230.376 184.112 230.483 183.916 230.578 183.713C230.624 183.614 230.665 183.513 230.704 183.41C230.739 183.324 230.783 183.244 230.812 183.156ZM223.602 164.305C223.609 163.951 223.754 163.614 224.007 163.365C224.259 163.116 224.599 162.976 224.953 162.974H225.748C226.102 162.976 226.442 163.116 226.694 163.365C226.947 163.614 227.092 163.951 227.099 164.305V181.513C227.092 181.867 226.947 182.205 226.694 182.453C226.442 182.702 226.102 182.842 225.748 182.844H224.953C224.599 182.842 224.259 182.702 224.007 182.453C223.754 182.205 223.609 181.867 223.602 181.513V164.305ZM195.046 183.156C195.048 183.218 195.049 183.279 195.049 183.341C195.049 184.79 194.473 186.18 193.448 187.205C192.423 188.229 191.034 188.805 189.584 188.805C188.135 188.805 186.745 188.229 185.721 187.205C184.696 186.18 184.12 184.79 184.12 183.341C184.12 183.279 184.121 183.218 184.123 183.156C184.152 183.244 184.196 183.324 184.229 183.41C184.269 183.513 184.31 183.614 184.356 183.713C184.45 183.915 184.557 184.111 184.676 184.3C184.725 184.38 184.769 184.46 184.822 184.536C184.999 184.793 185.199 185.034 185.418 185.256C185.435 185.273 185.456 185.287 185.474 185.304C185.68 185.504 185.902 185.686 186.138 185.85C186.22 185.908 186.307 185.956 186.393 186.009C186.577 186.124 186.768 186.227 186.965 186.318C187.066 186.365 187.167 186.408 187.272 186.449C187.48 186.528 187.692 186.594 187.908 186.646C188.007 186.671 188.102 186.7 188.203 186.719C188.527 186.783 188.857 186.816 189.187 186.818H189.982C190.312 186.816 190.641 186.782 190.965 186.719C191.066 186.7 191.162 186.67 191.26 186.646C191.476 186.594 191.688 186.528 191.896 186.449C192.001 186.409 192.102 186.365 192.203 186.318C192.4 186.227 192.591 186.124 192.775 186.009C192.86 185.956 192.948 185.907 193.03 185.85C193.265 185.686 193.487 185.503 193.694 185.304C193.711 185.287 193.733 185.273 193.75 185.256C193.969 185.033 194.169 184.793 194.346 184.536C194.399 184.46 194.442 184.379 194.491 184.301C194.61 184.112 194.717 183.916 194.811 183.713C194.857 183.614 194.898 183.513 194.938 183.41C194.973 183.324 195.017 183.244 195.046 183.156ZM187.836 164.305C187.843 163.951 187.988 163.614 188.241 163.365C188.493 163.116 188.833 162.976 189.187 162.974H189.982C190.336 162.976 190.676 163.116 190.928 163.365C191.181 163.614 191.326 163.951 191.333 164.305V181.513C191.326 181.867 191.181 182.205 190.928 182.453C190.676 182.702 190.336 182.842 189.982 182.844H189.187C188.833 182.842 188.493 182.702 188.241 182.453C187.988 182.205 187.843 181.867 187.836 181.513V164.305ZM159.279 183.156C159.281 183.218 159.282 183.279 159.282 183.341C159.282 184.79 158.707 186.18 157.682 187.205C156.657 188.229 155.267 188.805 153.818 188.805C152.369 188.805 150.979 188.229 149.954 187.205C148.93 186.18 148.354 184.79 148.354 183.341C148.354 183.279 148.354 183.218 148.357 183.156C148.386 183.244 148.43 183.324 148.463 183.41C148.503 183.513 148.544 183.614 148.59 183.713C148.684 183.915 148.791 184.111 148.91 184.3C148.959 184.38 149.002 184.46 149.056 184.536C149.233 184.793 149.432 185.034 149.652 185.256C149.669 185.273 149.69 185.287 149.708 185.304C149.914 185.504 150.136 185.686 150.372 185.85C150.454 185.908 150.541 185.956 150.627 186.009C150.811 186.124 151.002 186.227 151.198 186.318C151.3 186.365 151.401 186.408 151.506 186.449C151.713 186.528 151.926 186.594 152.142 186.646C152.241 186.671 152.336 186.7 152.437 186.719C152.761 186.783 153.09 186.816 153.421 186.818H154.216C154.546 186.816 154.875 186.782 155.199 186.719C155.3 186.7 155.395 186.67 155.494 186.646C155.71 186.594 155.922 186.528 156.13 186.449C156.234 186.409 156.336 186.365 156.437 186.318C156.634 186.227 156.825 186.124 157.009 186.009C157.094 185.956 157.182 185.907 157.264 185.85C157.499 185.686 157.721 185.503 157.928 185.304C157.945 185.287 157.967 185.273 157.984 185.256C158.203 185.033 158.403 184.793 158.58 184.536C158.633 184.46 158.676 184.379 158.724 184.301C158.844 184.112 158.951 183.916 159.045 183.713C159.091 183.614 159.132 183.513 159.172 183.41C159.206 183.324 159.251 183.244 159.279 183.156ZM152.07 164.305C152.077 163.951 152.222 163.614 152.474 163.365C152.727 163.116 153.066 162.976 153.421 162.974H154.216C154.57 162.976 154.91 163.116 155.162 163.365C155.414 163.614 155.56 163.951 155.567 164.305V181.513C155.56 181.867 155.414 182.205 155.162 182.453C154.91 182.702 154.57 182.842 154.216 182.844H153.421C153.066 182.842 152.727 182.702 152.474 182.453C152.222 182.205 152.077 181.867 152.07 181.513V164.305ZM129.974 178.87C129.976 177.29 130.604 175.774 131.722 174.657C132.839 173.539 134.355 172.911 135.935 172.909H148.096V175.83C146.525 177.027 145.37 178.687 144.793 180.575C144.215 182.463 144.244 184.485 144.876 186.356C145.508 188.226 146.711 189.852 148.315 191.003C149.919 192.155 151.844 192.774 153.818 192.774C155.793 192.774 157.718 192.155 159.322 191.003C160.926 189.852 162.128 188.226 162.76 186.356C163.392 184.485 163.421 182.463 162.844 180.575C162.266 178.687 161.111 177.027 159.541 175.83V172.909H183.862V175.83C182.292 177.027 181.136 178.687 180.559 180.575C179.981 182.463 180.011 184.485 180.642 186.356C181.274 188.226 182.477 189.852 184.081 191.003C185.685 192.155 187.61 192.774 189.584 192.774C191.559 192.774 193.484 192.155 195.088 191.003C196.692 189.852 197.895 188.226 198.526 186.356C199.158 184.485 199.188 182.463 198.61 180.575C198.032 178.687 196.877 177.027 195.307 175.83V172.909H219.628V175.83C218.058 177.027 216.903 178.687 216.325 180.575C215.748 182.463 215.777 184.485 216.409 186.356C217.04 188.226 218.243 189.852 219.847 191.003C221.451 192.155 223.376 192.774 225.351 192.774C227.325 192.774 229.25 192.155 230.854 191.003C232.458 189.852 233.661 188.226 234.293 186.356C234.925 184.485 234.954 182.463 234.376 180.575C233.799 178.687 232.643 177.027 231.073 175.83V172.909H255.394V175.83C253.824 177.027 252.669 178.687 252.091 180.575C251.514 182.463 251.543 184.485 252.175 186.356C252.807 188.226 254.009 189.852 255.613 191.003C257.217 192.155 259.142 192.774 261.117 192.774C263.091 192.774 265.016 192.155 266.62 191.003C268.225 189.852 269.427 188.226 270.059 186.356C270.691 184.485 270.72 182.463 270.142 180.575C269.565 178.687 268.41 177.027 266.839 175.83V172.909H279C280.58 172.911 282.096 173.539 283.213 174.657C284.331 175.774 284.959 177.29 284.961 178.87V200.727H129.974V178.87ZM140.843 308.026C137.961 308.023 135.199 306.877 133.161 304.839C131.123 302.801 129.977 300.039 129.974 297.157V204.701H284.961V258.351C285.052 259.346 284.9 260.349 284.518 261.273C284.136 262.197 283.534 263.014 282.766 263.654C279.255 266.312 272.076 265.082 269.606 264.387C269.103 264.247 268.565 264.309 268.107 264.562C267.65 264.814 267.309 265.235 267.159 265.736C267.069 266.039 257.84 296.18 228.423 306.914C226.421 307.65 224.305 308.026 222.171 308.026H140.843ZM284.266 267.365C280.91 288.186 265.369 298.183 241.402 304.955C260.308 293.232 268.275 274.523 270.379 268.643C273.502 269.259 279.849 270.003 284.266 267.365ZM284.961 297.167C284.958 300.046 283.813 302.807 281.777 304.842C279.741 306.878 276.98 308.023 274.101 308.026H245.089C264.604 302.201 278.543 294.029 284.961 279.469V297.167ZM224.447 269.968C224.432 272.4 225.295 274.755 226.879 276.6C228.462 278.445 230.659 279.656 233.065 280.01C235.471 280.363 237.923 279.835 239.97 278.523C242.018 277.211 243.522 275.204 244.206 272.871C245.713 274.034 247.562 274.669 249.465 274.676C251.792 274.669 254.021 273.74 255.663 272.093C257.305 270.445 258.227 268.214 258.227 265.887V263.792H259.672C260.642 263.799 261.603 263.611 262.497 263.238C263.392 262.865 264.203 262.316 264.88 261.622C265.581 260.938 266.137 260.12 266.514 259.217C266.892 258.313 267.084 257.343 267.078 256.364C267.079 254.397 266.299 252.511 264.911 251.118C263.523 249.726 261.639 248.941 259.672 248.936H258.227V246.84C258.231 245.687 258.008 244.544 257.57 243.478C257.131 242.411 256.487 241.442 255.672 240.625C254.858 239.808 253.891 239.161 252.826 238.719C251.76 238.277 250.619 238.051 249.465 238.052C247.559 238.059 245.708 238.695 244.2 239.861C243.518 237.527 242.014 235.519 239.968 234.206C237.921 232.893 235.469 232.364 233.063 232.717C230.657 233.07 228.46 234.281 226.876 236.126C225.293 237.972 224.43 240.328 224.447 242.759V248.936H190.488V242.759C190.515 240.295 189.639 237.907 188.025 236.045C186.41 234.184 184.17 232.978 181.728 232.656C179.285 232.334 176.809 232.918 174.767 234.298C172.726 235.677 171.26 237.757 170.648 240.143C169.345 239.182 167.8 238.602 166.186 238.466C164.572 238.331 162.952 238.647 161.507 239.378C160.062 240.109 158.848 241.227 158.001 242.607C157.153 243.987 156.706 245.575 156.708 247.195V248.936H155.262C154.293 248.928 153.332 249.116 152.437 249.489C151.542 249.862 150.732 250.412 150.054 251.105C149.353 251.789 148.798 252.607 148.42 253.511C148.043 254.414 147.851 255.384 147.857 256.364C147.856 258.33 148.636 260.217 150.024 261.609C151.412 263.002 153.297 263.787 155.263 263.792H156.708V265.532C156.707 267.859 157.629 270.091 159.271 271.739C160.914 273.387 163.143 274.316 165.47 274.322C167.335 274.317 169.15 273.709 170.642 272.589C171.266 274.966 172.736 277.033 174.775 278.403C176.815 279.773 179.285 280.351 181.721 280.029C184.156 279.707 186.391 278.508 188.005 276.655C189.62 274.803 190.502 272.425 190.488 269.968V263.792H224.447V269.968ZM258.227 252.91H259.672C260.585 252.914 261.459 253.28 262.102 253.927C262.745 254.575 263.106 255.451 263.104 256.364C263.106 256.822 263.015 257.276 262.837 257.698C262.658 258.12 262.395 258.501 262.065 258.818C261.754 259.138 261.382 259.391 260.971 259.563C260.56 259.735 260.118 259.821 259.672 259.818H258.227V252.91ZM244.679 246.84C244.674 245.891 244.951 244.961 245.475 244.17C245.999 243.379 246.747 242.761 247.623 242.395C248.499 242.03 249.464 241.933 250.395 242.116C251.326 242.3 252.182 242.756 252.853 243.427C253.75 244.337 254.252 245.563 254.253 246.84V265.887C254.257 266.519 254.136 267.144 253.897 267.729C253.658 268.313 253.306 268.845 252.861 269.292C252.416 269.74 251.887 270.095 251.305 270.338C250.722 270.58 250.097 270.705 249.466 270.705C248.834 270.705 248.209 270.58 247.626 270.338C247.044 270.095 246.515 269.74 246.07 269.292C245.625 268.845 245.273 268.313 245.034 267.729C244.795 267.144 244.674 266.519 244.679 265.887V246.84ZM228.421 261.805V242.759C228.413 241.542 228.767 240.349 229.439 239.333C230.11 238.318 231.069 237.525 232.193 237.057C233.317 236.588 234.555 236.465 235.749 236.703C236.944 236.94 238.04 237.528 238.899 238.391C240.05 239.554 240.699 241.123 240.704 242.759V269.968C240.709 270.778 240.554 271.58 240.247 272.329C239.94 273.078 239.489 273.759 238.918 274.333C238.347 274.908 237.669 275.363 236.921 275.674C236.174 275.985 235.372 276.145 234.563 276.145C233.753 276.145 232.952 275.985 232.205 275.674C231.457 275.363 230.779 274.908 230.208 274.333C229.637 273.759 229.185 273.078 228.879 272.329C228.572 271.58 228.417 270.778 228.421 269.968V261.805ZM156.708 259.818H155.263C154.35 259.813 153.476 259.447 152.833 258.8C152.19 258.153 151.829 257.276 151.831 256.364C151.829 255.905 151.92 255.451 152.098 255.029C152.277 254.607 152.54 254.226 152.87 253.909C153.181 253.589 153.553 253.336 153.964 253.164C154.375 252.993 154.817 252.906 155.263 252.91H156.708V259.818ZM170.257 265.532C170.244 266.801 169.736 268.014 168.842 268.913C167.948 269.813 166.738 270.328 165.47 270.348C164.197 270.343 162.977 269.833 162.08 268.93C161.183 268.028 160.68 266.805 160.683 265.532V247.195C160.682 246.562 160.806 245.936 161.049 245.352C161.292 244.767 161.648 244.237 162.097 243.792C162.535 243.341 163.06 242.984 163.639 242.741C164.219 242.499 164.841 242.375 165.47 242.379C166.738 242.399 167.948 242.914 168.842 243.814C169.736 244.714 170.244 245.927 170.257 247.195V265.532ZM186.514 250.923V269.968C186.518 270.778 186.363 271.58 186.056 272.329C185.75 273.078 185.298 273.759 184.727 274.333C184.157 274.908 183.478 275.363 182.73 275.674C181.983 275.985 181.182 276.145 180.372 276.145C179.563 276.145 178.761 275.985 178.014 275.674C177.266 275.363 176.588 274.908 176.017 274.333C175.446 273.759 174.995 273.078 174.688 272.329C174.381 271.58 174.226 270.778 174.231 269.968V242.759C174.236 241.123 174.884 239.556 176.035 238.393C176.894 237.53 177.99 236.941 179.185 236.703C180.379 236.465 181.617 236.588 182.741 237.056C183.865 237.525 184.824 238.317 185.496 239.333C186.168 240.349 186.522 241.541 186.514 242.759V250.923ZM190.488 259.818V252.91H224.447V259.818H190.488ZM211.442 256.364C211.442 256.891 211.232 257.396 210.86 257.769C210.487 258.141 209.982 258.351 209.455 258.351H205.481C204.954 258.351 204.448 258.141 204.075 257.769C203.703 257.396 203.494 256.891 203.494 256.364C203.494 255.837 203.703 255.331 204.075 254.959C204.448 254.586 204.954 254.377 205.481 254.377H209.455C209.982 254.377 210.487 254.586 210.86 254.959C211.232 255.331 211.442 255.837 211.442 256.364Z" fill="url(#paint0_linear)"/>
<g clip-path="url(#clip1)" filter="url(#filter0_b)">
<rect width="414" height="44" fill="white" fill-opacity="0.85"/>
<path opacity="0.35" d="M375.5 20C375.5 18.8034 376.47 17.8334 377.667 17.8334H394.333C395.53 17.8334 396.5 18.8034 396.5 20V26C396.5 27.1967 395.53 28.1667 394.333 28.1667H377.667C376.47 28.1667 375.5 27.1967 375.5 26V20Z" stroke="#000407"/>
<path opacity="0.4" d="M398 21.0001V25.0001C398.805 24.6613 399.328 23.8732 399.328 23.0001C399.328 22.1269 398.805 21.3388 398 21.0001Z" fill="#000407"/>
<path d="M377 20.6667C377 19.9303 377.597 19.3334 378.333 19.3334H393.667C394.403 19.3334 395 19.9303 395 20.6667V25.3334C395 26.0698 394.403 26.6667 393.667 26.6667H378.333C377.597 26.6667 377 26.0698 377 25.3334V20.6667Z" fill="#000407"/>
<path fill-rule="evenodd" clip-rule="evenodd" d="M362.33 19.608C364.546 19.6081 366.677 20.4596 368.283 21.9863C368.404 22.1042 368.598 22.1027 368.717 21.983L369.873 20.8163C369.933 20.7556 369.967 20.6734 369.966 20.5878C369.966 20.5022 369.931 20.4204 369.87 20.3603C365.655 16.3208 359.005 16.3208 354.79 20.3603C354.729 20.4203 354.694 20.5021 354.694 20.5877C354.693 20.6733 354.727 20.7556 354.787 20.8163L355.943 21.983C356.062 22.1029 356.256 22.1044 356.377 21.9863C357.983 20.4595 360.114 19.608 362.33 19.608ZM362.33 23.4037C363.548 23.4036 364.722 23.8561 365.624 24.6733C365.746 24.7893 365.939 24.7868 366.058 24.6677L367.212 23.501C367.273 23.4398 367.307 23.3568 367.306 23.2705C367.305 23.1843 367.27 23.102 367.208 23.042C364.459 20.4856 360.204 20.4856 357.455 23.042C357.393 23.102 357.358 23.1843 357.357 23.2706C357.356 23.3569 357.39 23.4399 357.451 23.501L358.605 24.6677C358.724 24.7868 358.917 24.7893 359.039 24.6733C359.941 23.8567 361.114 23.4042 362.33 23.4037ZM364.643 25.9575C364.645 26.044 364.611 26.1274 364.549 26.188L362.552 28.2037C362.493 28.2629 362.414 28.2963 362.33 28.2963C362.247 28.2963 362.167 28.2629 362.109 28.2037L360.111 26.188C360.049 26.1274 360.015 26.0439 360.017 25.9574C360.019 25.8709 360.056 25.789 360.121 25.731C361.396 24.6521 363.264 24.6521 364.54 25.731C364.604 25.789 364.642 25.871 364.643 25.9575Z" fill="#000407"/>
<path fill-rule="evenodd" clip-rule="evenodd" d="M348.667 17.6666H347.667C347.114 17.6666 346.667 18.1143 346.667 18.6666V27.3333C346.667 27.8856 347.114 28.3333 347.667 28.3333H348.667C349.219 28.3333 349.667 27.8856 349.667 27.3333V18.6666C349.667 18.1143 349.219 17.6666 348.667 17.6666ZM343 20H344C344.552 20 345 20.4477 345 21V27.3333C345 27.8856 344.552 28.3333 344 28.3333H343C342.448 28.3333 342 27.8856 342 27.3333V21C342 20.4477 342.448 20 343 20ZM339.333 22.3333H338.333C337.781 22.3333 337.333 22.781 337.333 23.3333V27.3333C337.333 27.8856 337.781 28.3333 338.333 28.3333H339.333C339.886 28.3333 340.333 27.8856 340.333 27.3333V23.3333C340.333 22.781 339.886 22.3333 339.333 22.3333ZM334.667 24.3333H333.667C333.114 24.3333 332.667 24.781 332.667 25.3333V27.3333C332.667 27.8856 333.114 28.3333 333.667 28.3333H334.667C335.219 28.3333 335.667 27.8856 335.667 27.3333V25.3333C335.667 24.781 335.219 24.3333 334.667 24.3333Z" fill="#000407"/>
<path d="M37.3207 28.2563C40.0087 28.2563 41.6053 26.1543 41.6053 22.5947C41.6053 21.2544 41.349 20.1265 40.8583 19.2549C40.1478 17.8999 38.9247 17.1675 37.3793 17.1675C35.0795 17.1675 33.4535 18.7129 33.4535 20.8809C33.4535 22.917 34.9183 24.3965 36.9325 24.3965C38.1703 24.3965 39.1737 23.8179 39.6718 22.8145H39.6937C39.6937 22.8145 39.723 22.8145 39.7303 22.8145C39.745 22.8145 39.7963 22.8145 39.7963 22.8145C39.7963 25.2314 38.8807 26.6743 37.3353 26.6743C36.4271 26.6743 35.724 26.1763 35.4823 25.3779H33.6C33.9149 27.1138 35.3871 28.2563 37.3207 28.2563ZM37.3866 22.895C36.1708 22.895 35.3065 22.0308 35.3065 20.8223C35.3065 19.6431 36.2147 18.7422 37.3939 18.7422C38.5731 18.7422 39.4813 19.6577 39.4813 20.8516C39.4813 22.0308 38.5951 22.895 37.3866 22.895Z" fill="black"/>
<path d="M44.6965 28.1538C45.3923 28.1538 45.8683 27.6558 45.8683 26.9966C45.8683 26.3301 45.3923 25.8394 44.6965 25.8394C44.008 25.8394 43.5246 26.3301 43.5246 26.9966C43.5246 27.6558 44.008 28.1538 44.6965 28.1538ZM44.6965 22.6606C45.3923 22.6606 45.8683 22.1699 45.8683 21.5107C45.8683 20.8442 45.3923 20.3535 44.6965 20.3535C44.008 20.3535 43.5246 20.8442 43.5246 21.5107C43.5246 22.1699 44.008 22.6606 44.6965 22.6606Z" fill="black"/>
<path d="M52.7241 28H54.5332V26.0298H55.9614V24.4331H54.5332V17.4312H51.8672C49.9995 20.2437 48.5127 22.5947 47.5605 24.3452V26.0298H52.7241V28ZM49.311 24.3672C50.5415 22.1992 51.6401 20.4634 52.6509 18.9692H52.7534V24.4771H49.311V24.3672Z" fill="black"/>
<path d="M59.99 28H61.8797V17.4312H59.9973L57.2361 19.3647V21.1812L59.8655 19.3354H59.99V28Z" fill="black"/>
</g>
<circle cx="166" cy="728" r="240" fill="#79031D"/>
<path d="M32.76 606C32.3733 606 32.0667 605.893 31.84 605.68C31.6267 605.467 31.52 605.167 31.52 604.78V593.12C31.52 592.733 31.6267 592.433 31.84 592.22C32.0667 592.007 32.3733 591.9 32.76 591.9H36.72C39.0267 591.9 40.8133 592.52 42.08 593.76C43.36 594.987 44 596.713 44 598.94C44 601.18 43.36 602.92 42.08 604.16C40.8133 605.387 39.0267 606 36.72 606H32.76ZM36.56 603.9C39.8 603.9 41.42 602.247 41.42 598.94C41.42 595.647 39.8 594 36.56 594H34.1V603.9H36.56ZM50.6181 595.98C51.9781 595.98 52.9848 596.32 53.6381 597C54.3048 597.667 54.6381 598.687 54.6381 600.06V604.94C54.6381 605.3 54.5315 605.587 54.3181 605.8C54.1048 606 53.8115 606.1 53.4381 606.1C53.0915 606.1 52.8048 605.993 52.5781 605.78C52.3648 605.567 52.2581 605.287 52.2581 604.94V604.5C52.0315 605.02 51.6715 605.427 51.1781 605.72C50.6981 606.013 50.1381 606.16 49.4981 606.16C48.8448 606.16 48.2515 606.027 47.7181 605.76C47.1848 605.493 46.7648 605.127 46.4581 604.66C46.1515 604.193 45.9981 603.673 45.9981 603.1C45.9981 602.38 46.1781 601.813 46.5381 601.4C46.9115 600.987 47.5115 600.687 48.3381 600.5C49.1648 600.313 50.3048 600.22 51.7581 600.22H52.2581V599.76C52.2581 599.107 52.1181 598.633 51.8381 598.34C51.5581 598.033 51.1048 597.88 50.4781 597.88C50.0915 597.88 49.6981 597.94 49.2981 598.06C48.8981 598.167 48.4248 598.327 47.8781 598.54C47.5315 598.713 47.2781 598.8 47.1181 598.8C46.8781 598.8 46.6781 598.713 46.5181 598.54C46.3715 598.367 46.2981 598.14 46.2981 597.86C46.2981 597.633 46.3515 597.44 46.4581 597.28C46.5781 597.107 46.7715 596.947 47.0381 596.8C47.5048 596.547 48.0581 596.347 48.6981 596.2C49.3515 596.053 49.9915 595.98 50.6181 595.98ZM49.9981 604.36C50.6648 604.36 51.2048 604.14 51.6181 603.7C52.0448 603.247 52.2581 602.667 52.2581 601.96V601.54H51.8981C51.0048 601.54 50.3115 601.58 49.8181 601.66C49.3248 601.74 48.9715 601.88 48.7581 602.08C48.5448 602.28 48.4381 602.553 48.4381 602.9C48.4381 603.327 48.5848 603.68 48.8781 603.96C49.1848 604.227 49.5581 604.36 49.9981 604.36ZM58.4189 606.12C58.0589 606.12 57.7589 606.02 57.5189 605.82C57.2922 605.607 57.1789 605.307 57.1789 604.92V597.2C57.1789 596.813 57.2922 596.52 57.5189 596.32C57.7589 596.12 58.0589 596.02 58.4189 596.02C58.7789 596.02 59.0789 596.12 59.3189 596.32C59.5589 596.52 59.6789 596.813 59.6789 597.2V604.92C59.6789 605.307 59.5589 605.607 59.3189 605.82C59.0789 606.02 58.7789 606.12 58.4189 606.12ZM58.4189 594.24C57.9656 594.24 57.6056 594.12 57.3389 593.88C57.0722 593.627 56.9389 593.3 56.9389 592.9C56.9389 592.5 57.0722 592.18 57.3389 591.94C57.6056 591.7 57.9656 591.58 58.4189 591.58C58.8589 591.58 59.2122 591.7 59.4789 591.94C59.7589 592.18 59.8989 592.5 59.8989 592.9C59.8989 593.3 59.7656 593.627 59.4989 593.88C59.2322 594.12 58.8722 594.24 58.4189 594.24ZM63.497 606.12C63.137 606.12 62.837 606.02 62.597 605.82C62.3704 605.607 62.257 605.307 62.257 604.92V592.98C62.257 592.593 62.3704 592.3 62.597 592.1C62.837 591.9 63.137 591.8 63.497 591.8C63.857 591.8 64.157 591.9 64.397 592.1C64.637 592.3 64.757 592.593 64.757 592.98V604.92C64.757 605.307 64.637 605.607 64.397 605.82C64.157 606.02 63.857 606.12 63.497 606.12ZM74.1552 596.74C74.2618 596.5 74.4018 596.327 74.5752 596.22C74.7618 596.1 74.9618 596.04 75.1752 596.04C75.4818 596.04 75.7552 596.147 75.9952 596.36C76.2485 596.56 76.3752 596.813 76.3752 597.12C76.3752 597.267 76.3352 597.42 76.2552 597.58L70.7952 609.02C70.5685 609.473 70.2152 609.7 69.7352 609.7C69.4285 609.7 69.1552 609.6 68.9152 609.4C68.6885 609.213 68.5752 608.973 68.5752 608.68C68.5752 608.533 68.6152 608.367 68.6952 608.18L70.0552 605.32L66.3352 597.58C66.2685 597.447 66.2352 597.293 66.2352 597.12C66.2352 596.813 66.3618 596.553 66.6152 596.34C66.8818 596.127 67.1818 596.02 67.5152 596.02C67.7418 596.02 67.9485 596.08 68.1352 596.2C68.3218 596.307 68.4685 596.48 68.5752 596.72L71.3752 602.9L74.1552 596.74ZM94.7922 604.38C94.9522 604.62 95.0322 604.853 95.0322 605.08C95.0322 605.387 94.9055 605.64 94.6522 605.84C94.4122 606.04 94.1255 606.14 93.7922 606.14C93.5789 606.14 93.3722 606.093 93.1722 606C92.9855 605.893 92.8255 605.74 92.6922 605.54L90.0322 601.5C89.7655 601.073 89.4789 600.773 89.1722 600.6C88.8789 600.427 88.4922 600.34 88.0122 600.34H86.0522V604.82C86.0522 605.22 85.9389 605.54 85.7122 605.78C85.4855 606.007 85.1789 606.12 84.7922 606.12C84.4055 606.12 84.0922 606.007 83.8522 605.78C83.6255 605.54 83.5122 605.22 83.5122 604.82V593.12C83.5122 592.733 83.6189 592.433 83.8322 592.22C84.0589 592.007 84.3655 591.9 84.7522 591.9H89.7522C91.3522 591.9 92.5655 592.26 93.3922 592.98C94.2322 593.687 94.6522 594.713 94.6522 596.06C94.6522 597.153 94.3389 598.053 93.7122 598.76C93.0989 599.453 92.2255 599.9 91.0922 600.1C91.4789 600.193 91.8189 600.36 92.1122 600.6C92.4055 600.84 92.6922 601.173 92.9722 601.6L94.7922 604.38ZM89.3922 598.36C90.3655 598.36 91.0789 598.18 91.5322 597.82C91.9855 597.447 92.2122 596.88 92.2122 596.12C92.2122 595.347 91.9855 594.787 91.5322 594.44C91.0789 594.08 90.3655 593.9 89.3922 593.9H86.0322V598.36H89.3922ZM104.938 603.32C105.165 603.32 105.345 603.407 105.478 603.58C105.625 603.753 105.698 603.987 105.698 604.28C105.698 604.693 105.452 605.04 104.958 605.32C104.505 605.573 103.992 605.78 103.418 605.94C102.845 606.087 102.298 606.16 101.778 606.16C100.205 606.16 98.9584 605.707 98.0384 604.8C97.1184 603.893 96.6584 602.653 96.6584 601.08C96.6584 600.08 96.8584 599.193 97.2584 598.42C97.6584 597.647 98.2184 597.047 98.9384 596.62C99.6718 596.193 100.498 595.98 101.418 595.98C102.298 595.98 103.065 596.173 103.718 596.56C104.372 596.947 104.878 597.493 105.238 598.2C105.598 598.907 105.778 599.74 105.778 600.7C105.778 601.273 105.525 601.56 105.018 601.56H99.1184C99.1984 602.48 99.4584 603.16 99.8984 603.6C100.338 604.027 100.978 604.24 101.818 604.24C102.245 604.24 102.618 604.187 102.938 604.08C103.272 603.973 103.645 603.827 104.058 603.64C104.458 603.427 104.752 603.32 104.938 603.32ZM101.478 597.74C100.798 597.74 100.252 597.953 99.8384 598.38C99.4384 598.807 99.1984 599.42 99.1184 600.22H103.638C103.612 599.407 103.412 598.793 103.038 598.38C102.665 597.953 102.145 597.74 101.478 597.74ZM119.443 595.98C120.51 595.98 121.323 596.3 121.883 596.94C122.457 597.567 122.743 598.587 122.743 600V604.92C122.743 605.307 122.623 605.607 122.383 605.82C122.157 606.02 121.857 606.12 121.483 606.12C121.123 606.12 120.823 606.02 120.583 605.82C120.357 605.607 120.243 605.307 120.243 604.92V600C120.243 599.267 120.11 598.747 119.843 598.44C119.59 598.12 119.197 597.96 118.663 597.96C118.01 597.96 117.49 598.187 117.103 598.64C116.717 599.08 116.523 599.687 116.523 600.46V604.92C116.523 605.307 116.403 605.607 116.163 605.82C115.937 606.02 115.643 606.12 115.283 606.12C114.923 606.12 114.623 606.02 114.383 605.82C114.143 605.607 114.023 605.307 114.023 604.92V600C114.023 599.267 113.89 598.747 113.623 598.44C113.37 598.12 112.977 597.96 112.443 597.96C111.79 597.96 111.27 598.187 110.883 598.64C110.51 599.08 110.323 599.687 110.323 600.46V604.92C110.323 605.307 110.203 605.607 109.963 605.82C109.723 606.02 109.423 606.12 109.063 606.12C108.703 606.12 108.403 606.02 108.163 605.82C107.937 605.607 107.823 605.307 107.823 604.92V597.18C107.823 596.807 107.943 596.52 108.183 596.32C108.423 596.12 108.723 596.02 109.083 596.02C109.43 596.02 109.71 596.12 109.923 596.32C110.15 596.507 110.263 596.78 110.263 597.14V597.62C110.57 597.087 110.977 596.68 111.483 596.4C112.003 596.12 112.597 595.98 113.263 595.98C114.73 595.98 115.71 596.593 116.203 597.82C116.497 597.26 116.93 596.813 117.503 596.48C118.077 596.147 118.723 595.98 119.443 595.98ZM126.524 606.12C126.164 606.12 125.864 606.02 125.624 605.82C125.398 605.607 125.284 605.307 125.284 604.92V597.2C125.284 596.813 125.398 596.52 125.624 596.32C125.864 596.12 126.164 596.02 126.524 596.02C126.884 596.02 127.184 596.12 127.424 596.32C127.664 596.52 127.784 596.813 127.784 597.2V604.92C127.784 605.307 127.664 605.607 127.424 605.82C127.184 606.02 126.884 606.12 126.524 606.12ZM126.524 594.24C126.071 594.24 125.711 594.12 125.444 593.88C125.178 593.627 125.044 593.3 125.044 592.9C125.044 592.5 125.178 592.18 125.444 591.94C125.711 591.7 126.071 591.58 126.524 591.58C126.964 591.58 127.318 591.7 127.584 591.94C127.864 592.18 128.004 592.5 128.004 592.9C128.004 593.3 127.871 593.627 127.604 593.88C127.338 594.12 126.978 594.24 126.524 594.24ZM136.043 595.98C137.216 595.98 138.089 596.313 138.663 596.98C139.236 597.647 139.523 598.653 139.523 600V604.92C139.523 605.293 139.409 605.587 139.183 605.8C138.969 606.013 138.669 606.12 138.283 606.12C137.896 606.12 137.589 606.013 137.363 605.8C137.136 605.587 137.023 605.293 137.023 604.92V600.14C137.023 599.38 136.876 598.827 136.583 598.48C136.303 598.133 135.856 597.96 135.243 597.96C134.523 597.96 133.943 598.187 133.503 598.64C133.076 599.093 132.863 599.7 132.863 600.46V604.92C132.863 605.293 132.749 605.587 132.523 605.8C132.296 606.013 131.989 606.12 131.603 606.12C131.216 606.12 130.909 606.013 130.683 605.8C130.469 605.587 130.363 605.293 130.363 604.92V597.18C130.363 596.833 130.476 596.553 130.703 596.34C130.929 596.127 131.236 596.02 131.623 596.02C131.969 596.02 132.249 596.127 132.463 596.34C132.689 596.54 132.803 596.807 132.803 597.14V597.68C133.136 597.133 133.583 596.713 134.143 596.42C134.703 596.127 135.336 595.98 136.043 595.98ZM150.222 591.8C150.595 591.8 150.902 591.907 151.142 592.12C151.382 592.333 151.502 592.613 151.502 592.96V604.92C151.502 605.28 151.388 605.567 151.162 605.78C150.935 605.993 150.635 606.1 150.262 606.1C149.888 606.1 149.588 605.993 149.362 605.78C149.135 605.567 149.022 605.28 149.022 604.92V604.42C148.728 604.967 148.302 605.393 147.742 605.7C147.195 606.007 146.568 606.16 145.862 606.16C145.022 606.16 144.268 605.947 143.602 605.52C142.948 605.093 142.435 604.493 142.062 603.72C141.702 602.933 141.522 602.033 141.522 601.02C141.522 600.007 141.702 599.12 142.062 598.36C142.435 597.6 142.948 597.013 143.602 596.6C144.255 596.187 145.008 595.98 145.862 595.98C146.568 595.98 147.195 596.127 147.742 596.42C148.288 596.713 148.708 597.127 149.002 597.66V592.92C149.002 592.587 149.108 592.32 149.322 592.12C149.548 591.907 149.848 591.8 150.222 591.8ZM146.522 604.22C147.322 604.22 147.935 603.947 148.362 603.4C148.802 602.853 149.022 602.073 149.022 601.06C149.022 600.047 148.802 599.273 148.362 598.74C147.935 598.193 147.328 597.92 146.542 597.92C145.742 597.92 145.122 598.187 144.682 598.72C144.242 599.253 144.022 600.02 144.022 601.02C144.022 602.033 144.242 602.82 144.682 603.38C145.122 603.94 145.735 604.22 146.522 604.22ZM161.813 603.32C162.04 603.32 162.22 603.407 162.353 603.58C162.5 603.753 162.573 603.987 162.573 604.28C162.573 604.693 162.327 605.04 161.833 605.32C161.38 605.573 160.867 605.78 160.293 605.94C159.72 606.087 159.173 606.16 158.653 606.16C157.08 606.16 155.833 605.707 154.913 604.8C153.993 603.893 153.533 602.653 153.533 601.08C153.533 600.08 153.733 599.193 154.133 598.42C154.533 597.647 155.093 597.047 155.813 596.62C156.547 596.193 157.373 595.98 158.293 595.98C159.173 595.98 159.94 596.173 160.593 596.56C161.247 596.947 161.753 597.493 162.113 598.2C162.473 598.907 162.653 599.74 162.653 600.7C162.653 601.273 162.4 601.56 161.893 601.56H155.993C156.073 602.48 156.333 603.16 156.773 603.6C157.213 604.027 157.853 604.24 158.693 604.24C159.12 604.24 159.493 604.187 159.813 604.08C160.147 603.973 160.52 603.827 160.933 603.64C161.333 603.427 161.627 603.32 161.813 603.32ZM158.353 597.74C157.673 597.74 157.127 597.953 156.713 598.38C156.313 598.807 156.073 599.42 155.993 600.22H160.513C160.487 599.407 160.287 598.793 159.913 598.38C159.54 597.953 159.02 597.74 158.353 597.74ZM170.158 596.02C170.505 595.993 170.778 596.067 170.978 596.24C171.178 596.413 171.278 596.673 171.278 597.02C171.278 597.38 171.192 597.647 171.018 597.82C170.845 597.993 170.532 598.107 170.078 598.16L169.478 598.22C168.692 598.3 168.112 598.567 167.738 599.02C167.378 599.473 167.198 600.04 167.198 600.72V604.92C167.198 605.307 167.078 605.607 166.838 605.82C166.598 606.02 166.298 606.12 165.938 606.12C165.578 606.12 165.278 606.02 165.038 605.82C164.812 605.607 164.698 605.307 164.698 604.92V597.18C164.698 596.807 164.812 596.52 165.038 596.32C165.278 596.12 165.572 596.02 165.918 596.02C166.265 596.02 166.545 596.12 166.758 596.32C166.972 596.507 167.078 596.78 167.078 597.14V597.94C167.332 597.353 167.705 596.9 168.198 596.58C168.705 596.26 169.265 596.08 169.878 596.04L170.158 596.02Z" fill="white"/>
<path d="M40.998 649.394C41.178 649.394 41.322 649.448 41.43 649.556C41.55 649.664 41.61 649.814 41.61 650.006V654.488C41.61 654.776 41.562 654.992 41.466 655.136C41.382 655.28 41.22 655.394 40.98 655.478C40.5 655.682 39.918 655.844 39.234 655.964C38.55 656.084 37.866 656.144 37.182 656.144C35.922 656.144 34.836 655.886 33.924 655.37C33.012 654.854 32.31 654.11 31.818 653.138C31.338 652.166 31.098 651.002 31.098 649.646C31.098 648.314 31.338 647.162 31.818 646.19C32.298 645.218 32.988 644.474 33.888 643.958C34.788 643.43 35.844 643.166 37.056 643.166C37.896 643.166 38.676 643.298 39.396 643.562C40.116 643.814 40.722 644.18 41.214 644.66C41.418 644.864 41.52 645.074 41.52 645.29C41.52 645.458 41.472 645.608 41.376 645.74C41.28 645.86 41.16 645.92 41.016 645.92C40.872 645.92 40.704 645.848 40.512 645.704C39.888 645.224 39.324 644.894 38.82 644.714C38.316 644.522 37.734 644.426 37.074 644.426C35.646 644.426 34.548 644.876 33.78 645.776C33.024 646.676 32.646 647.966 32.646 649.646C32.646 651.362 33.03 652.67 33.798 653.57C34.578 654.458 35.718 654.902 37.218 654.902C38.334 654.902 39.348 654.734 40.26 654.398V650.546H37.632C37.428 650.546 37.266 650.492 37.146 650.384C37.026 650.276 36.966 650.138 36.966 649.97C36.966 649.79 37.026 649.652 37.146 649.556C37.266 649.448 37.428 649.394 37.632 649.394H40.998ZM51.1614 653.966C51.2934 653.966 51.4074 654.02 51.5034 654.128C51.5994 654.236 51.6474 654.374 51.6474 654.542C51.6474 654.842 51.4374 655.118 51.0174 655.37C50.5854 655.622 50.1294 655.814 49.6494 655.946C49.1694 656.066 48.7014 656.126 48.2454 656.126C46.8894 656.126 45.8154 655.724 45.0234 654.92C44.2434 654.116 43.8534 653.006 43.8534 651.59C43.8534 650.69 44.0274 649.898 44.3754 649.214C44.7234 648.518 45.2094 647.978 45.8334 647.594C46.4694 647.21 47.1894 647.018 47.9934 647.018C49.1334 647.018 50.0394 647.39 50.7114 648.134C51.3834 648.878 51.7194 649.886 51.7194 651.158C51.7194 651.398 51.6714 651.572 51.5754 651.68C51.4794 651.788 51.3234 651.842 51.1074 651.842H45.3114C45.4194 653.906 46.3974 654.938 48.2454 654.938C48.7134 654.938 49.1154 654.878 49.4514 654.758C49.7874 654.626 50.1474 654.452 50.5314 654.236C50.8434 654.056 51.0534 653.966 51.1614 653.966ZM48.0114 648.152C47.2434 648.152 46.6254 648.392 46.1574 648.872C45.7014 649.352 45.4314 650.03 45.3474 650.906H50.4414C50.4174 650.018 50.1954 649.34 49.7754 648.872C49.3554 648.392 48.7674 648.152 48.0114 648.152ZM57.8648 654.938C58.2848 654.974 58.4948 655.166 58.4948 655.514C58.4948 655.718 58.4168 655.874 58.2608 655.982C58.1168 656.078 57.8948 656.114 57.5948 656.09L57.1088 656.054C56.1488 655.982 55.4408 655.694 54.9848 655.19C54.5288 654.686 54.3008 653.924 54.3008 652.904V648.386H53.0948C52.8908 648.386 52.7288 648.338 52.6088 648.242C52.5008 648.134 52.4468 647.996 52.4468 647.828C52.4468 647.648 52.5008 647.504 52.6088 647.396C52.7288 647.288 52.8908 647.234 53.0948 647.234H54.3008V645.2C54.3008 644.972 54.3668 644.798 54.4988 644.678C54.6308 644.546 54.8108 644.48 55.0388 644.48C55.2548 644.48 55.4288 644.546 55.5608 644.678C55.6928 644.798 55.7588 644.972 55.7588 645.2V647.234H57.7568C57.9488 647.234 58.0988 647.288 58.2068 647.396C58.3268 647.504 58.3868 647.648 58.3868 647.828C58.3868 647.996 58.3268 648.134 58.2068 648.242C58.0988 648.338 57.9488 648.386 57.7568 648.386H55.7588V652.976C55.7588 653.636 55.8908 654.116 56.1548 654.416C56.4308 654.704 56.8388 654.866 57.3788 654.902L57.8648 654.938ZM71.6107 643.22C71.8387 643.22 72.0187 643.286 72.1507 643.418C72.2827 643.55 72.3487 643.718 72.3487 643.922V655.37C72.3487 655.586 72.2827 655.76 72.1507 655.892C72.0187 656.024 71.8387 656.09 71.6107 656.09C71.3827 656.09 71.2027 656.024 71.0707 655.892C70.9507 655.76 70.8907 655.586 70.8907 655.37V654.398C70.6267 654.95 70.2367 655.376 69.7207 655.676C69.2167 655.976 68.6227 656.126 67.9387 656.126C67.1707 656.126 66.4927 655.934 65.9047 655.55C65.3167 655.166 64.8607 654.632 64.5367 653.948C64.2127 653.252 64.0507 652.448 64.0507 651.536C64.0507 650.636 64.2127 649.844 64.5367 649.16C64.8607 648.476 65.3167 647.948 65.9047 647.576C66.4927 647.204 67.1707 647.018 67.9387 647.018C68.6227 647.018 69.2167 647.168 69.7207 647.468C70.2367 647.768 70.6267 648.194 70.8907 648.746V643.922C70.8907 643.706 70.9507 643.538 71.0707 643.418C71.2027 643.286 71.3827 643.22 71.6107 643.22ZM68.2267 654.92C69.0787 654.92 69.7327 654.632 70.1887 654.056C70.6567 653.468 70.8907 652.64 70.8907 651.572C70.8907 650.504 70.6567 649.682 70.1887 649.106C69.7327 648.53 69.0787 648.242 68.2267 648.242C67.3747 648.242 66.7087 648.53 66.2287 649.106C65.7607 649.682 65.5267 650.492 65.5267 651.536C65.5267 652.604 65.7607 653.438 66.2287 654.038C66.7087 654.626 67.3747 654.92 68.2267 654.92ZM78.6312 647.018C80.8272 647.018 81.9252 648.17 81.9252 650.474V655.37C81.9252 655.586 81.8592 655.76 81.7272 655.892C81.6072 656.024 81.4392 656.09 81.2232 656.09C81.0072 656.09 80.8332 656.024 80.7012 655.892C80.5692 655.76 80.5032 655.586 80.5032 655.37V654.506C80.2752 655.022 79.9272 655.424 79.4592 655.712C78.9912 655.988 78.4512 656.126 77.8392 656.126C77.2752 656.126 76.7532 656.012 76.2732 655.784C75.8052 655.556 75.4332 655.238 75.1572 654.83C74.8812 654.422 74.7432 653.972 74.7432 653.48C74.7432 652.82 74.9112 652.31 75.2472 651.95C75.5832 651.578 76.1352 651.314 76.9032 651.158C77.6712 650.99 78.7392 650.906 80.1072 650.906H80.5032V650.312C80.5032 649.592 80.3532 649.064 80.0532 648.728C79.7652 648.392 79.2912 648.224 78.6312 648.224C77.8152 648.224 76.9872 648.446 76.1472 648.89C75.8232 649.094 75.5952 649.196 75.4632 649.196C75.3192 649.196 75.1992 649.142 75.1032 649.034C75.0072 648.926 74.9592 648.788 74.9592 648.62C74.9592 648.452 75.0072 648.308 75.1032 648.188C75.2112 648.056 75.3792 647.924 75.6072 647.792C76.0272 647.552 76.5012 647.366 77.0292 647.234C77.5692 647.09 78.1032 647.018 78.6312 647.018ZM78.0372 654.974C78.7572 654.974 79.3452 654.734 79.8012 654.254C80.2692 653.762 80.5032 653.132 80.5032 652.364V651.842H80.1792C79.1232 651.842 78.3192 651.89 77.7672 651.986C77.2152 652.07 76.8192 652.22 76.5792 652.436C76.3512 652.64 76.2372 652.946 76.2372 653.354C76.2372 653.822 76.4052 654.212 76.7412 654.524C77.0892 654.824 77.5212 654.974 78.0372 654.974ZM85.3321 656.09C85.1161 656.09 84.9361 656.03 84.7921 655.91C84.6601 655.778 84.5941 655.598 84.5941 655.37V647.774C84.5941 647.546 84.6601 647.372 84.7921 647.252C84.9361 647.12 85.1161 647.054 85.3321 647.054C85.5481 647.054 85.7221 647.12 85.8541 647.252C85.9861 647.372 86.0521 647.546 86.0521 647.774V655.37C86.0521 655.61 85.9861 655.79 85.8541 655.91C85.7221 656.03 85.5481 656.09 85.3321 656.09ZM85.3321 645.164C85.0441 645.164 84.8101 645.08 84.6301 644.912C84.4501 644.744 84.3601 644.522 84.3601 644.246C84.3601 643.982 84.4501 643.766 84.6301 643.598C84.8101 643.43 85.0441 643.346 85.3321 643.346C85.6201 643.346 85.8541 643.43 86.0341 643.598C86.2141 643.766 86.3041 643.982 86.3041 644.246C86.3041 644.522 86.2141 644.744 86.0341 644.912C85.8541 645.08 85.6201 645.164 85.3321 645.164ZM89.5157 656.09C89.2997 656.09 89.1197 656.03 88.9757 655.91C88.8437 655.778 88.7777 655.598 88.7777 655.37V643.94C88.7777 643.712 88.8437 643.538 88.9757 643.418C89.1197 643.286 89.2997 643.22 89.5157 643.22C89.7197 643.22 89.8877 643.286 90.0197 643.418C90.1637 643.538 90.2357 643.712 90.2357 643.94V655.37C90.2357 655.598 90.1637 655.778 90.0197 655.91C89.8877 656.03 89.7197 656.09 89.5157 656.09ZM99.2793 647.504C99.4113 647.216 99.6213 647.072 99.9093 647.072C100.089 647.072 100.251 647.132 100.395 647.252C100.539 647.372 100.611 647.522 100.611 647.702C100.611 647.81 100.587 647.906 100.539 647.99L95.4813 658.898C95.4213 659.03 95.3313 659.132 95.2113 659.204C95.1033 659.276 94.9893 659.312 94.8693 659.312C94.6893 659.312 94.5273 659.252 94.3833 659.132C94.2513 659.024 94.1853 658.88 94.1853 658.7C94.1853 658.604 94.2093 658.508 94.2573 658.412L95.5173 655.694L91.9533 647.99C91.9053 647.906 91.8813 647.816 91.8813 647.72C91.8813 647.54 91.9593 647.384 92.1153 647.252C92.2833 647.12 92.4633 647.054 92.6553 647.054C92.7753 647.054 92.8893 647.09 92.9973 647.162C93.1173 647.234 93.2073 647.336 93.2673 647.468L96.2733 654.218L99.2793 647.504ZM111.186 647.054C111.69 647.018 111.942 647.222 111.942 647.666C111.942 647.858 111.888 648.014 111.78 648.134C111.672 648.242 111.486 648.308 111.222 648.332L110.682 648.386C109.878 648.458 109.278 648.746 108.882 649.25C108.498 649.742 108.306 650.324 108.306 650.996V655.37C108.306 655.61 108.24 655.79 108.108 655.91C107.976 656.03 107.802 656.09 107.586 656.09C107.37 656.09 107.19 656.03 107.046 655.91C106.914 655.778 106.848 655.598 106.848 655.37V647.774C106.848 647.546 106.92 647.372 107.064 647.252C107.208 647.12 107.382 647.054 107.586 647.054C107.778 647.054 107.94 647.12 108.072 647.252C108.204 647.372 108.27 647.54 108.27 647.756V648.764C108.522 648.236 108.876 647.834 109.332 647.558C109.8 647.282 110.334 647.12 110.934 647.072L111.186 647.054ZM119.804 653.966C119.936 653.966 120.05 654.02 120.146 654.128C120.242 654.236 120.29 654.374 120.29 654.542C120.29 654.842 120.08 655.118 119.66 655.37C119.228 655.622 118.772 655.814 118.292 655.946C117.812 656.066 117.344 656.126 116.888 656.126C115.532 656.126 114.458 655.724 113.666 654.92C112.886 654.116 112.496 653.006 112.496 651.59C112.496 650.69 112.67 649.898 113.018 649.214C113.366 648.518 113.852 647.978 114.476 647.594C115.112 647.21 115.832 647.018 116.636 647.018C117.776 647.018 118.682 647.39 119.354 648.134C120.026 648.878 120.362 649.886 120.362 651.158C120.362 651.398 120.314 651.572 120.218 651.68C120.122 651.788 119.966 651.842 119.75 651.842H113.954C114.062 653.906 115.04 654.938 116.888 654.938C117.356 654.938 117.758 654.878 118.094 654.758C118.43 654.626 118.79 654.452 119.174 654.236C119.486 654.056 119.696 653.966 119.804 653.966ZM116.654 648.152C115.886 648.152 115.268 648.392 114.8 648.872C114.344 649.352 114.074 650.03 113.99 650.906H119.084C119.06 650.018 118.838 649.34 118.418 648.872C117.998 648.392 117.41 648.152 116.654 648.152ZM132.266 647.018C134.21 647.018 135.182 648.176 135.182 650.492V655.37C135.182 655.598 135.116 655.778 134.984 655.91C134.852 656.03 134.678 656.09 134.462 656.09C134.246 656.09 134.066 656.03 133.922 655.91C133.79 655.778 133.724 655.598 133.724 655.37V650.528C133.724 649.724 133.58 649.142 133.292 648.782C133.004 648.422 132.554 648.242 131.942 648.242C131.21 648.242 130.634 648.488 130.214 648.98C129.794 649.472 129.584 650.138 129.584 650.978V655.37C129.584 655.598 129.512 655.778 129.368 655.91C129.236 656.03 129.062 656.09 128.846 656.09C128.63 656.09 128.456 656.03 128.324 655.91C128.192 655.778 128.126 655.598 128.126 655.37V650.528C128.126 649.724 127.982 649.142 127.694 648.782C127.406 648.422 126.95 648.242 126.326 648.242C125.606 648.242 125.03 648.488 124.598 648.98C124.178 649.472 123.968 650.138 123.968 650.978V655.37C123.968 655.598 123.902 655.778 123.77 655.91C123.638 656.03 123.464 656.09 123.248 656.09C123.032 656.09 122.852 656.03 122.708 655.91C122.576 655.778 122.51 655.598 122.51 655.37V647.774C122.51 647.558 122.576 647.384 122.708 647.252C122.852 647.12 123.032 647.054 123.248 647.054C123.452 647.054 123.62 647.12 123.752 647.252C123.884 647.372 123.95 647.54 123.95 647.756V648.62C124.214 648.104 124.58 647.708 125.048 647.432C125.516 647.156 126.056 647.018 126.668 647.018C128.036 647.018 128.93 647.594 129.35 648.746C129.602 648.218 129.986 647.798 130.502 647.486C131.018 647.174 131.606 647.018 132.266 647.018ZM138.576 656.09C138.36 656.09 138.18 656.03 138.036 655.91C137.904 655.778 137.838 655.598 137.838 655.37V647.774C137.838 647.546 137.904 647.372 138.036 647.252C138.18 647.12 138.36 647.054 138.576 647.054C138.792 647.054 138.966 647.12 139.098 647.252C139.23 647.372 139.296 647.546 139.296 647.774V655.37C139.296 655.61 139.23 655.79 139.098 655.91C138.966 656.03 138.792 656.09 138.576 656.09ZM138.576 645.164C138.288 645.164 138.054 645.08 137.874 644.912C137.694 644.744 137.604 644.522 137.604 644.246C137.604 643.982 137.694 643.766 137.874 643.598C138.054 643.43 138.288 643.346 138.576 643.346C138.864 643.346 139.098 643.43 139.278 643.598C139.458 643.766 139.548 643.982 139.548 644.246C139.548 644.522 139.458 644.744 139.278 644.912C139.098 645.08 138.864 645.164 138.576 645.164ZM146.432 647.018C148.532 647.018 149.582 648.176 149.582 650.492V655.37C149.582 655.598 149.516 655.778 149.384 655.91C149.264 656.03 149.09 656.09 148.862 656.09C148.634 656.09 148.454 656.03 148.322 655.91C148.19 655.778 148.124 655.598 148.124 655.37V650.582C148.124 649.766 147.962 649.172 147.638 648.8C147.326 648.428 146.822 648.242 146.126 648.242C145.322 648.242 144.68 648.488 144.2 648.98C143.72 649.472 143.48 650.138 143.48 650.978V655.37C143.48 655.598 143.414 655.778 143.282 655.91C143.162 656.03 142.988 656.09 142.76 656.09C142.532 656.09 142.352 656.03 142.22 655.91C142.088 655.778 142.022 655.598 142.022 655.37V647.774C142.022 647.558 142.088 647.384 142.22 647.252C142.352 647.12 142.532 647.054 142.76 647.054C142.976 647.054 143.144 647.12 143.264 647.252C143.396 647.384 143.462 647.552 143.462 647.756V648.674C143.75 648.134 144.152 647.726 144.668 647.45C145.184 647.162 145.772 647.018 146.432 647.018ZM159.29 643.22C159.518 643.22 159.698 643.286 159.83 643.418C159.962 643.55 160.028 643.718 160.028 643.922V655.37C160.028 655.586 159.962 655.76 159.83 655.892C159.698 656.024 159.518 656.09 159.29 656.09C159.062 656.09 158.882 656.024 158.75 655.892C158.63 655.76 158.57 655.586 158.57 655.37V654.398C158.306 654.95 157.916 655.376 157.4 655.676C156.896 655.976 156.302 656.126 155.618 656.126C154.85 656.126 154.172 655.934 153.584 655.55C152.996 655.166 152.54 654.632 152.216 653.948C151.892 653.252 151.73 652.448 151.73 651.536C151.73 650.636 151.892 649.844 152.216 649.16C152.54 648.476 152.996 647.948 153.584 647.576C154.172 647.204 154.85 647.018 155.618 647.018C156.302 647.018 156.896 647.168 157.4 647.468C157.916 647.768 158.306 648.194 158.57 648.746V643.922C158.57 643.706 158.63 643.538 158.75 643.418C158.882 643.286 159.062 643.22 159.29 643.22ZM155.906 654.92C156.758 654.92 157.412 654.632 157.868 654.056C158.336 653.468 158.57 652.64 158.57 651.572C158.57 650.504 158.336 649.682 157.868 649.106C157.412 648.53 156.758 648.242 155.906 648.242C155.054 648.242 154.388 648.53 153.908 649.106C153.44 649.682 153.206 650.492 153.206 651.536C153.206 652.604 153.44 653.438 153.908 654.038C154.388 654.626 155.054 654.92 155.906 654.92ZM169.515 653.966C169.647 653.966 169.761 654.02 169.857 654.128C169.953 654.236 170.001 654.374 170.001 654.542C170.001 654.842 169.791 655.118 169.371 655.37C168.939 655.622 168.483 655.814 168.003 655.946C167.523 656.066 167.055 656.126 166.599 656.126C165.243 656.126 164.169 655.724 163.377 654.92C162.597 654.116 162.207 653.006 162.207 651.59C162.207 650.69 162.381 649.898 162.729 649.214C163.077 648.518 163.563 647.978 164.187 647.594C164.823 647.21 165.543 647.018 166.347 647.018C167.487 647.018 168.393 647.39 169.065 648.134C169.737 648.878 170.073 649.886 170.073 651.158C170.073 651.398 170.025 651.572 169.929 651.68C169.833 651.788 169.677 651.842 169.461 651.842H163.665C163.773 653.906 164.751 654.938 166.599 654.938C167.067 654.938 167.469 654.878 167.805 654.758C168.141 654.626 168.501 654.452 168.885 654.236C169.197 654.056 169.407 653.966 169.515 653.966ZM166.365 648.152C165.597 648.152 164.979 648.392 164.511 648.872C164.055 649.352 163.785 650.03 163.701 650.906H168.795C168.771 650.018 168.549 649.34 168.129 648.872C167.709 648.392 167.121 648.152 166.365 648.152ZM176.559 647.054C177.063 647.018 177.315 647.222 177.315 647.666C177.315 647.858 177.261 648.014 177.153 648.134C177.045 648.242 176.859 648.308 176.595 648.332L176.055 648.386C175.251 648.458 174.651 648.746 174.255 649.25C173.871 649.742 173.679 650.324 173.679 650.996V655.37C173.679 655.61 173.613 655.79 173.481 655.91C173.349 656.03 173.175 656.09 172.959 656.09C172.743 656.09 172.563 656.03 172.419 655.91C172.287 655.778 172.221 655.598 172.221 655.37V647.774C172.221 647.546 172.293 647.372 172.437 647.252C172.581 647.12 172.755 647.054 172.959 647.054C173.151 647.054 173.313 647.12 173.445 647.252C173.577 647.372 173.643 647.54 173.643 647.756V648.764C173.895 648.236 174.249 647.834 174.705 647.558C175.173 647.282 175.707 647.12 176.307 647.072L176.559 647.054ZM181.431 656.126C180.879 656.126 180.351 656.06 179.847 655.928C179.355 655.796 178.917 655.61 178.533 655.37C178.317 655.226 178.161 655.094 178.065 654.974C177.981 654.842 177.939 654.686 177.939 654.506C177.939 654.35 177.981 654.224 178.065 654.128C178.161 654.02 178.281 653.966 178.425 653.966C178.569 653.966 178.779 654.056 179.055 654.236C179.415 654.452 179.769 654.626 180.117 654.758C180.477 654.878 180.921 654.938 181.449 654.938C182.097 654.938 182.601 654.824 182.961 654.596C183.321 654.368 183.501 654.038 183.501 653.606C183.501 653.342 183.435 653.132 183.303 652.976C183.171 652.808 182.943 652.664 182.619 652.544C182.295 652.412 181.821 652.28 181.197 652.148C180.141 651.92 179.385 651.614 178.929 651.23C178.473 650.846 178.245 650.324 178.245 649.664C178.245 649.148 178.389 648.692 178.677 648.296C178.965 647.9 179.361 647.588 179.865 647.36C180.381 647.132 180.963 647.018 181.611 647.018C182.079 647.018 182.529 647.084 182.961 647.216C183.405 647.336 183.795 647.51 184.131 647.738C184.539 648.026 184.743 648.326 184.743 648.638C184.743 648.794 184.695 648.926 184.599 649.034C184.503 649.142 184.389 649.196 184.257 649.196C184.113 649.196 183.897 649.094 183.609 648.89C183.273 648.674 182.955 648.506 182.655 648.386C182.355 648.266 181.983 648.206 181.539 648.206C180.975 648.206 180.519 648.332 180.171 648.584C179.835 648.836 179.667 649.172 179.667 649.592C179.667 649.856 179.727 650.072 179.847 650.24C179.979 650.396 180.189 650.54 180.477 650.672C180.777 650.792 181.203 650.912 181.755 651.032C182.571 651.212 183.201 651.41 183.645 651.626C184.101 651.842 184.425 652.106 184.617 652.418C184.809 652.73 184.905 653.126 184.905 653.606C184.905 654.362 184.587 654.974 183.951 655.442C183.315 655.898 182.475 656.126 181.431 656.126ZM195.35 647.018C197.546 647.018 198.644 648.17 198.644 650.474V655.37C198.644 655.586 198.578 655.76 198.446 655.892C198.326 656.024 198.158 656.09 197.942 656.09C197.726 656.09 197.552 656.024 197.42 655.892C197.288 655.76 197.222 655.586 197.222 655.37V654.506C196.994 655.022 196.646 655.424 196.178 655.712C195.71 655.988 195.17 656.126 194.558 656.126C193.994 656.126 193.472 656.012 192.992 655.784C192.524 655.556 192.152 655.238 191.876 654.83C191.6 654.422 191.462 653.972 191.462 653.48C191.462 652.82 191.63 652.31 191.966 651.95C192.302 651.578 192.854 651.314 193.622 651.158C194.39 650.99 195.458 650.906 196.826 650.906H197.222V650.312C197.222 649.592 197.072 649.064 196.772 648.728C196.484 648.392 196.01 648.224 195.35 648.224C194.534 648.224 193.706 648.446 192.866 648.89C192.542 649.094 192.314 649.196 192.182 649.196C192.038 649.196 191.918 649.142 191.822 649.034C191.726 648.926 191.678 648.788 191.678 648.62C191.678 648.452 191.726 648.308 191.822 648.188C191.93 648.056 192.098 647.924 192.326 647.792C192.746 647.552 193.22 647.366 193.748 647.234C194.288 647.09 194.822 647.018 195.35 647.018ZM194.756 654.974C195.476 654.974 196.064 654.734 196.52 654.254C196.988 653.762 197.222 653.132 197.222 652.364V651.842H196.898C195.842 651.842 195.038 651.89 194.486 651.986C193.934 652.07 193.538 652.22 193.298 652.436C193.07 652.64 192.956 652.946 192.956 653.354C192.956 653.822 193.124 654.212 193.46 654.524C193.808 654.824 194.24 654.974 194.756 654.974ZM205.741 647.018C206.773 647.018 207.553 647.312 208.081 647.9C208.609 648.476 208.873 649.34 208.873 650.492V655.37C208.873 655.598 208.807 655.778 208.675 655.91C208.543 656.03 208.369 656.09 208.153 656.09C207.925 656.09 207.745 656.03 207.613 655.91C207.481 655.778 207.415 655.598 207.415 655.37V650.528C207.415 649.748 207.253 649.172 206.929 648.8C206.617 648.428 206.113 648.242 205.417 648.242C204.613 648.242 203.971 648.488 203.491 648.98C203.011 649.472 202.771 650.138 202.771 650.978V655.37C202.771 655.598 202.705 655.778 202.573 655.91C202.453 656.03 202.279 656.09 202.051 656.09C201.823 656.09 201.643 656.03 201.511 655.91C201.379 655.778 201.313 655.598 201.313 655.37V643.922C201.313 643.718 201.379 643.55 201.511 643.418C201.655 643.286 201.835 643.22 202.051 643.22C202.279 643.22 202.453 643.286 202.573 643.418C202.705 643.538 202.771 643.706 202.771 643.922V648.638C203.059 648.11 203.461 647.708 203.977 647.432C204.493 647.156 205.081 647.018 205.741 647.018ZM218.329 653.966C218.461 653.966 218.575 654.02 218.671 654.128C218.767 654.236 218.815 654.374 218.815 654.542C218.815 654.842 218.605 655.118 218.185 655.37C217.753 655.622 217.297 655.814 216.817 655.946C216.337 656.066 215.869 656.126 215.413 656.126C214.057 656.126 212.983 655.724 212.191 654.92C211.411 654.116 211.021 653.006 211.021 651.59C211.021 650.69 211.195 649.898 211.543 649.214C211.891 648.518 212.377 647.978 213.001 647.594C213.637 647.21 214.357 647.018 215.161 647.018C216.301 647.018 217.207 647.39 217.879 648.134C218.551 648.878 218.887 649.886 218.887 651.158C218.887 651.398 218.839 651.572 218.743 651.68C218.647 651.788 218.491 651.842 218.275 651.842H212.479C212.587 653.906 213.565 654.938 215.413 654.938C215.881 654.938 216.283 654.878 216.619 654.758C216.955 654.626 217.315 654.452 217.699 654.236C218.011 654.056 218.221 653.966 218.329 653.966ZM215.179 648.152C214.411 648.152 213.793 648.392 213.325 648.872C212.869 649.352 212.599 650.03 212.515 650.906H217.609C217.585 650.018 217.363 649.34 216.943 648.872C216.523 648.392 215.935 648.152 215.179 648.152ZM224.618 647.018C226.814 647.018 227.912 648.17 227.912 650.474V655.37C227.912 655.586 227.846 655.76 227.714 655.892C227.594 656.024 227.426 656.09 227.21 656.09C226.994 656.09 226.82 656.024 226.688 655.892C226.556 655.76 226.49 655.586 226.49 655.37V654.506C226.262 655.022 225.914 655.424 225.446 655.712C224.978 655.988 224.438 656.126 223.826 656.126C223.262 656.126 222.74 656.012 222.26 655.784C221.792 655.556 221.42 655.238 221.144 654.83C220.868 654.422 220.73 653.972 220.73 653.48C220.73 652.82 220.898 652.31 221.234 651.95C221.57 651.578 222.122 651.314 222.89 651.158C223.658 650.99 224.726 650.906 226.094 650.906H226.49V650.312C226.49 649.592 226.34 649.064 226.04 648.728C225.752 648.392 225.278 648.224 224.618 648.224C223.802 648.224 222.974 648.446 222.134 648.89C221.81 649.094 221.582 649.196 221.45 649.196C221.306 649.196 221.186 649.142 221.09 649.034C220.994 648.926 220.946 648.788 220.946 648.62C220.946 648.452 220.994 648.308 221.09 648.188C221.198 648.056 221.366 647.924 221.594 647.792C222.014 647.552 222.488 647.366 223.016 647.234C223.556 647.09 224.09 647.018 224.618 647.018ZM224.024 654.974C224.744 654.974 225.332 654.734 225.788 654.254C226.256 653.762 226.49 653.132 226.49 652.364V651.842H226.166C225.11 651.842 224.306 651.89 223.754 651.986C223.202 652.07 222.806 652.22 222.566 652.436C222.338 652.64 222.224 652.946 222.224 653.354C222.224 653.822 222.392 654.212 222.728 654.524C223.076 654.824 223.508 654.974 224.024 654.974ZM237.618 643.22C237.846 643.22 238.026 643.286 238.158 643.418C238.29 643.55 238.356 643.718 238.356 643.922V655.37C238.356 655.586 238.29 655.76 238.158 655.892C238.026 656.024 237.846 656.09 237.618 656.09C237.39 656.09 237.21 656.024 237.078 655.892C236.958 655.76 236.898 655.586 236.898 655.37V654.398C236.634 654.95 236.244 655.376 235.728 655.676C235.224 655.976 234.63 656.126 233.946 656.126C233.178 656.126 232.5 655.934 231.912 655.55C231.324 655.166 230.868 654.632 230.544 653.948C230.22 653.252 230.058 652.448 230.058 651.536C230.058 650.636 230.22 649.844 230.544 649.16C230.868 648.476 231.324 647.948 231.912 647.576C232.5 647.204 233.178 647.018 233.946 647.018C234.63 647.018 235.224 647.168 235.728 647.468C236.244 647.768 236.634 648.194 236.898 648.746V643.922C236.898 643.706 236.958 643.538 237.078 643.418C237.21 643.286 237.39 643.22 237.618 643.22ZM234.234 654.92C235.086 654.92 235.74 654.632 236.196 654.056C236.664 653.468 236.898 652.64 236.898 651.572C236.898 650.504 236.664 649.682 236.196 649.106C235.74 648.53 235.086 648.242 234.234 648.242C233.382 648.242 232.716 648.53 232.236 649.106C231.768 649.682 231.534 650.492 231.534 651.536C231.534 652.604 231.768 653.438 232.236 654.038C232.716 654.626 233.382 654.92 234.234 654.92ZM249.334 656.126C248.506 656.126 247.774 655.94 247.138 655.568C246.514 655.196 246.028 654.668 245.68 653.984C245.344 653.288 245.176 652.484 245.176 651.572C245.176 650.66 245.344 649.862 245.68 649.178C246.028 648.482 246.514 647.948 247.138 647.576C247.774 647.204 248.506 647.018 249.334 647.018C250.162 647.018 250.894 647.204 251.53 647.576C252.166 647.948 252.652 648.482 252.988 649.178C253.336 649.862 253.51 650.66 253.51 651.572C253.51 652.484 253.336 653.288 252.988 653.984C252.652 654.668 252.166 655.196 251.53 655.568C250.894 655.94 250.162 656.126 249.334 656.126ZM249.334 654.92C250.198 654.92 250.858 654.638 251.314 654.074C251.782 653.498 252.016 652.664 252.016 651.572C252.016 650.504 251.782 649.682 251.314 649.106C250.846 648.518 250.186 648.224 249.334 648.224C248.482 648.224 247.822 648.518 247.354 649.106C246.886 649.682 246.652 650.504 246.652 651.572C246.652 652.652 246.88 653.48 247.336 654.056C247.804 654.632 248.47 654.92 249.334 654.92ZM259.534 644.462C258.898 644.51 258.418 644.714 258.094 645.074C257.77 645.422 257.608 645.95 257.608 646.658V647.234H259.606C259.81 647.234 259.966 647.288 260.074 647.396C260.182 647.504 260.236 647.648 260.236 647.828C260.236 648.008 260.182 648.146 260.074 648.242C259.966 648.338 259.81 648.386 259.606 648.386H257.608V655.37C257.608 655.598 257.536 655.778 257.392 655.91C257.26 656.03 257.092 656.09 256.888 656.09C256.672 656.09 256.492 656.03 256.348 655.91C256.216 655.778 256.15 655.598 256.15 655.37V648.386H254.944C254.74 648.386 254.578 648.338 254.458 648.242C254.35 648.134 254.296 647.996 254.296 647.828C254.296 647.648 254.35 647.504 254.458 647.396C254.578 647.288 254.74 647.234 254.944 647.234H256.15V646.91C256.15 645.83 256.42 644.984 256.96 644.372C257.5 643.748 258.274 643.4 259.282 643.328L259.75 643.292C260.062 643.268 260.284 643.298 260.416 643.382C260.56 643.466 260.632 643.616 260.632 643.832C260.632 644.18 260.422 644.378 260.002 644.426L259.534 644.462ZM270.261 654.938C270.681 654.974 270.891 655.166 270.891 655.514C270.891 655.718 270.813 655.874 270.657 655.982C270.513 656.078 270.291 656.114 269.991 656.09L269.505 656.054C268.545 655.982 267.837 655.694 267.381 655.19C266.925 654.686 266.697 653.924 266.697 652.904V648.386H265.491C265.287 648.386 265.125 648.338 265.005 648.242C264.897 648.134 264.843 647.996 264.843 647.828C264.843 647.648 264.897 647.504 265.005 647.396C265.125 647.288 265.287 647.234 265.491 647.234H266.697V645.2C266.697 644.972 266.763 644.798 266.895 644.678C267.027 644.546 267.207 644.48 267.435 644.48C267.651 644.48 267.825 644.546 267.957 644.678C268.089 644.798 268.155 644.972 268.155 645.2V647.234H270.153C270.345 647.234 270.495 647.288 270.603 647.396C270.723 647.504 270.783 647.648 270.783 647.828C270.783 647.996 270.723 648.134 270.603 648.242C270.495 648.338 270.345 648.386 270.153 648.386H268.155V652.976C268.155 653.636 268.287 654.116 268.551 654.416C268.827 654.704 269.235 654.866 269.775 654.902L270.261 654.938ZM273.067 656.09C272.851 656.09 272.671 656.03 272.527 655.91C272.395 655.778 272.329 655.598 272.329 655.37V647.774C272.329 647.546 272.395 647.372 272.527 647.252C272.671 647.12 272.851 647.054 273.067 647.054C273.283 647.054 273.457 647.12 273.589 647.252C273.721 647.372 273.787 647.546 273.787 647.774V655.37C273.787 655.61 273.721 655.79 273.589 655.91C273.457 656.03 273.283 656.09 273.067 656.09ZM273.067 645.164C272.779 645.164 272.545 645.08 272.365 644.912C272.185 644.744 272.095 644.522 272.095 644.246C272.095 643.982 272.185 643.766 272.365 643.598C272.545 643.43 272.779 643.346 273.067 643.346C273.355 643.346 273.589 643.43 273.769 643.598C273.949 643.766 274.039 643.982 274.039 644.246C274.039 644.522 273.949 644.744 273.769 644.912C273.589 645.08 273.355 645.164 273.067 645.164ZM286.268 647.018C288.212 647.018 289.184 648.176 289.184 650.492V655.37C289.184 655.598 289.118 655.778 288.986 655.91C288.854 656.03 288.68 656.09 288.464 656.09C288.248 656.09 288.068 656.03 287.924 655.91C287.792 655.778 287.726 655.598 287.726 655.37V650.528C287.726 649.724 287.582 649.142 287.294 648.782C287.006 648.422 286.556 648.242 285.944 648.242C285.212 648.242 284.636 648.488 284.216 648.98C283.796 649.472 283.586 650.138 283.586 650.978V655.37C283.586 655.598 283.514 655.778 283.37 655.91C283.238 656.03 283.064 656.09 282.848 656.09C282.632 656.09 282.458 656.03 282.326 655.91C282.194 655.778 282.128 655.598 282.128 655.37V650.528C282.128 649.724 281.984 649.142 281.696 648.782C281.408 648.422 280.952 648.242 280.328 648.242C279.608 648.242 279.032 648.488 278.6 648.98C278.18 649.472 277.97 650.138 277.97 650.978V655.37C277.97 655.598 277.904 655.778 277.772 655.91C277.64 656.03 277.466 656.09 277.25 656.09C277.034 656.09 276.854 656.03 276.71 655.91C276.578 655.778 276.512 655.598 276.512 655.37V647.774C276.512 647.558 276.578 647.384 276.71 647.252C276.854 647.12 277.034 647.054 277.25 647.054C277.454 647.054 277.622 647.12 277.754 647.252C277.886 647.372 277.952 647.54 277.952 647.756V648.62C278.216 648.104 278.582 647.708 279.05 647.432C279.518 647.156 280.058 647.018 280.67 647.018C282.038 647.018 282.932 647.594 283.352 648.746C283.604 648.218 283.988 647.798 284.504 647.486C285.02 647.174 285.608 647.018 286.268 647.018ZM298.626 653.966C298.758 653.966 298.872 654.02 298.968 654.128C299.064 654.236 299.112 654.374 299.112 654.542C299.112 654.842 298.902 655.118 298.482 655.37C298.05 655.622 297.594 655.814 297.114 655.946C296.634 656.066 296.166 656.126 295.71 656.126C294.354 656.126 293.28 655.724 292.488 654.92C291.708 654.116 291.318 653.006 291.318 651.59C291.318 650.69 291.492 649.898 291.84 649.214C292.188 648.518 292.674 647.978 293.298 647.594C293.934 647.21 294.654 647.018 295.458 647.018C296.598 647.018 297.504 647.39 298.176 648.134C298.848 648.878 299.184 649.886 299.184 651.158C299.184 651.398 299.136 651.572 299.04 651.68C298.944 651.788 298.788 651.842 298.572 651.842H292.776C292.884 653.906 293.862 654.938 295.71 654.938C296.178 654.938 296.58 654.878 296.916 654.758C297.252 654.626 297.612 654.452 297.996 654.236C298.308 654.056 298.518 653.966 298.626 653.966ZM295.476 648.152C294.708 648.152 294.09 648.392 293.622 648.872C293.166 649.352 292.896 650.03 292.812 650.906H297.906C297.882 650.018 297.66 649.34 297.24 648.872C296.82 648.392 296.232 648.152 295.476 648.152ZM310.023 654.938C310.443 654.974 310.653 655.166 310.653 655.514C310.653 655.718 310.575 655.874 310.419 655.982C310.275 656.078 310.053 656.114 309.753 656.09L309.267 656.054C308.307 655.982 307.599 655.694 307.143 655.19C306.687 654.686 306.459 653.924 306.459 652.904V648.386H305.253C305.049 648.386 304.887 648.338 304.767 648.242C304.659 648.134 304.605 647.996 304.605 647.828C304.605 647.648 304.659 647.504 304.767 647.396C304.887 647.288 305.049 647.234 305.253 647.234H306.459V645.2C306.459 644.972 306.525 644.798 306.657 644.678C306.789 644.546 306.969 644.48 307.197 644.48C307.413 644.48 307.587 644.546 307.719 644.678C307.851 644.798 307.917 644.972 307.917 645.2V647.234H309.915C310.107 647.234 310.257 647.288 310.365 647.396C310.485 647.504 310.545 647.648 310.545 647.828C310.545 647.996 310.485 648.134 310.365 648.242C310.257 648.338 310.107 648.386 309.915 648.386H307.917V652.976C307.917 653.636 308.049 654.116 308.313 654.416C308.589 654.704 308.997 654.866 309.537 654.902L310.023 654.938ZM315.726 656.126C314.898 656.126 314.166 655.94 313.53 655.568C312.906 655.196 312.42 654.668 312.072 653.984C311.736 653.288 311.568 652.484 311.568 651.572C311.568 650.66 311.736 649.862 312.072 649.178C312.42 648.482 312.906 647.948 313.53 647.576C314.166 647.204 314.898 647.018 315.726 647.018C316.554 647.018 317.286 647.204 317.922 647.576C318.558 647.948 319.044 648.482 319.38 649.178C319.728 649.862 319.902 650.66 319.902 651.572C319.902 652.484 319.728 653.288 319.38 653.984C319.044 654.668 318.558 655.196 317.922 655.568C317.286 655.94 316.554 656.126 315.726 656.126ZM315.726 654.92C316.59 654.92 317.25 654.638 317.706 654.074C318.174 653.498 318.408 652.664 318.408 651.572C318.408 650.504 318.174 649.682 317.706 649.106C317.238 648.518 316.578 648.224 315.726 648.224C314.874 648.224 314.214 648.518 313.746 649.106C313.278 649.682 313.044 650.504 313.044 651.572C313.044 652.652 313.272 653.48 313.728 654.056C314.196 654.632 314.862 654.92 315.726 654.92ZM38.352 679.848C38.544 680.028 38.64 680.22 38.64 680.424C38.64 680.604 38.574 680.76 38.442 680.892C38.322 681.024 38.172 681.09 37.992 681.09C37.836 681.09 37.674 681.018 37.506 680.874L32.808 676.824V680.37C32.808 680.598 32.736 680.778 32.592 680.91C32.46 681.03 32.292 681.09 32.088 681.09C31.872 681.09 31.692 681.03 31.548 680.91C31.416 680.778 31.35 680.598 31.35 680.37V668.94C31.35 668.712 31.416 668.538 31.548 668.418C31.692 668.286 31.872 668.22 32.088 668.22C32.292 668.22 32.46 668.286 32.592 668.418C32.736 668.538 32.808 668.712 32.808 668.94V676.248L37.11 672.306C37.254 672.162 37.416 672.09 37.596 672.09C37.776 672.09 37.932 672.156 38.064 672.288C38.196 672.42 38.262 672.576 38.262 672.756C38.262 672.96 38.178 673.14 38.01 673.296L34.464 676.464L38.352 679.848ZM46.9778 678.966C47.1098 678.966 47.2238 679.02 47.3198 679.128C47.4158 679.236 47.4638 679.374 47.4638 679.542C47.4638 679.842 47.2538 680.118 46.8338 680.37C46.4018 680.622 45.9458 680.814 45.4658 680.946C44.9858 681.066 44.5178 681.126 44.0618 681.126C42.7058 681.126 41.6318 680.724 40.8398 679.92C40.0598 679.116 39.6698 678.006 39.6698 676.59C39.6698 675.69 39.8438 674.898 40.1918 674.214C40.5398 673.518 41.0258 672.978 41.6498 672.594C42.2858 672.21 43.0058 672.018 43.8098 672.018C44.9498 672.018 45.8558 672.39 46.5278 673.134C47.1998 673.878 47.5358 674.886 47.5358 676.158C47.5358 676.398 47.4878 676.572 47.3918 676.68C47.2958 676.788 47.1398 676.842 46.9238 676.842H41.1278C41.2358 678.906 42.2138 679.938 44.0618 679.938C44.5298 679.938 44.9318 679.878 45.2678 679.758C45.6038 679.626 45.9638 679.452 46.3478 679.236C46.6598 679.056 46.8698 678.966 46.9778 678.966ZM43.8278 673.152C43.0598 673.152 42.4418 673.392 41.9738 673.872C41.5178 674.352 41.2478 675.03 41.1638 675.906H46.2578C46.2338 675.018 46.0118 674.34 45.5918 673.872C45.1718 673.392 44.5838 673.152 43.8278 673.152ZM56.47 678.966C56.602 678.966 56.716 679.02 56.812 679.128C56.908 679.236 56.956 679.374 56.956 679.542C56.956 679.842 56.746 680.118 56.326 680.37C55.894 680.622 55.438 680.814 54.958 680.946C54.478 681.066 54.01 681.126 53.554 681.126C52.198 681.126 51.124 680.724 50.332 679.92C49.552 679.116 49.162 678.006 49.162 676.59C49.162 675.69 49.336 674.898 49.684 674.214C50.032 673.518 50.518 672.978 51.142 672.594C51.778 672.21 52.498 672.018 53.302 672.018C54.442 672.018 55.348 672.39 56.02 673.134C56.692 673.878 57.028 674.886 57.028 676.158C57.028 676.398 56.98 676.572 56.884 676.68C56.788 676.788 56.632 676.842 56.416 676.842H50.62C50.728 678.906 51.706 679.938 53.554 679.938C54.022 679.938 54.424 679.878 54.76 679.758C55.096 679.626 55.456 679.452 55.84 679.236C56.152 679.056 56.362 678.966 56.47 678.966ZM53.32 673.152C52.552 673.152 51.934 673.392 51.466 673.872C51.01 674.352 50.74 675.03 50.656 675.906H55.75C55.726 675.018 55.504 674.34 55.084 673.872C54.664 673.392 54.076 673.152 53.32 673.152ZM63.5862 672.018C64.3542 672.018 65.0322 672.21 65.6202 672.594C66.2082 672.978 66.6642 673.518 66.9882 674.214C67.3122 674.898 67.4742 675.696 67.4742 676.608C67.4742 677.52 67.3122 678.318 66.9882 679.002C66.6642 679.674 66.2082 680.196 65.6202 680.568C65.0442 680.94 64.3662 681.126 63.5862 681.126C62.9022 681.126 62.3022 680.976 61.7862 680.676C61.2822 680.376 60.8982 679.95 60.6342 679.398V683.628C60.6342 683.844 60.5682 684.012 60.4362 684.132C60.3162 684.264 60.1422 684.33 59.9142 684.33C59.6862 684.33 59.5062 684.264 59.3742 684.132C59.2422 684 59.1762 683.832 59.1762 683.628V672.774C59.1762 672.558 59.2422 672.384 59.3742 672.252C59.5062 672.12 59.6862 672.054 59.9142 672.054C60.1422 672.054 60.3162 672.12 60.4362 672.252C60.5682 672.384 60.6342 672.558 60.6342 672.774V673.746C60.8982 673.194 61.2822 672.768 61.7862 672.468C62.3022 672.168 62.9022 672.018 63.5862 672.018ZM63.2982 679.92C64.1502 679.92 64.8102 679.632 65.2782 679.056C65.7462 678.48 65.9802 677.664 65.9802 676.608C65.9802 675.552 65.7462 674.73 65.2782 674.142C64.8102 673.542 64.1502 673.242 63.2982 673.242C62.4462 673.242 61.7862 673.53 61.3182 674.106C60.8622 674.682 60.6342 675.504 60.6342 676.572C60.6342 677.64 60.8622 678.468 61.3182 679.056C61.7862 679.632 62.4462 679.92 63.2982 679.92ZM80.9534 672.054C81.1814 672.054 81.3554 672.12 81.4754 672.252C81.6074 672.384 81.6734 672.558 81.6734 672.774V680.388C81.6734 680.592 81.6074 680.76 81.4754 680.892C81.3554 681.024 81.1814 681.09 80.9534 681.09C80.7374 681.09 80.5634 681.03 80.4314 680.91C80.3114 680.778 80.2514 680.61 80.2514 680.406V679.506C79.9754 680.034 79.5854 680.436 79.0814 680.712C78.5894 680.988 78.0314 681.126 77.4074 681.126C76.3634 681.126 75.5774 680.838 75.0494 680.262C74.5214 679.674 74.2574 678.81 74.2574 677.67V672.774C74.2574 672.558 74.3234 672.384 74.4554 672.252C74.5874 672.12 74.7674 672.054 74.9954 672.054C75.2234 672.054 75.3974 672.12 75.5174 672.252C75.6494 672.384 75.7154 672.558 75.7154 672.774V677.634C75.7154 678.414 75.8714 678.99 76.1834 679.362C76.4954 679.722 76.9874 679.902 77.6594 679.902C78.4274 679.902 79.0454 679.656 79.5134 679.164C79.9814 678.66 80.2154 678 80.2154 677.184V672.774C80.2154 672.558 80.2814 672.384 80.4134 672.252C80.5454 672.12 80.7254 672.054 80.9534 672.054ZM88.7932 672.018C89.5612 672.018 90.2392 672.21 90.8272 672.594C91.4152 672.978 91.8712 673.518 92.1952 674.214C92.5192 674.898 92.6812 675.696 92.6812 676.608C92.6812 677.52 92.5192 678.318 92.1952 679.002C91.8712 679.674 91.4152 680.196 90.8272 680.568C90.2512 680.94 89.5732 681.126 88.7932 681.126C88.1092 681.126 87.5092 680.976 86.9932 680.676C86.4892 680.376 86.1052 679.95 85.8412 679.398V683.628C85.8412 683.844 85.7752 684.012 85.6432 684.132C85.5232 684.264 85.3492 684.33 85.1212 684.33C84.8932 684.33 84.7132 684.264 84.5812 684.132C84.4492 684 84.3832 683.832 84.3832 683.628V672.774C84.3832 672.558 84.4492 672.384 84.5812 672.252C84.7132 672.12 84.8932 672.054 85.1212 672.054C85.3492 672.054 85.5232 672.12 85.6432 672.252C85.7752 672.384 85.8412 672.558 85.8412 672.774V673.746C86.1052 673.194 86.4892 672.768 86.9932 672.468C87.5092 672.168 88.1092 672.018 88.7932 672.018ZM88.5052 679.92C89.3572 679.92 90.0172 679.632 90.4852 679.056C90.9532 678.48 91.1872 677.664 91.1872 676.608C91.1872 675.552 90.9532 674.73 90.4852 674.142C90.0172 673.542 89.3572 673.242 88.5052 673.242C87.6532 673.242 86.9932 673.53 86.5252 674.106C86.0692 674.682 85.8412 675.504 85.8412 676.572C85.8412 677.64 86.0692 678.468 86.5252 679.056C86.9932 679.632 87.6532 679.92 88.5052 679.92ZM111.488 672.522C111.608 672.234 111.806 672.09 112.082 672.09C112.262 672.09 112.424 672.15 112.568 672.27C112.712 672.39 112.784 672.54 112.784 672.72C112.784 672.804 112.766 672.894 112.73 672.99L109.742 680.55C109.67 680.706 109.562 680.832 109.418 680.928C109.286 681.012 109.136 681.054 108.968 681.054C108.812 681.054 108.662 681.012 108.518 680.928C108.386 680.832 108.284 680.706 108.212 680.55L105.728 674.232L103.262 680.55C103.202 680.706 103.1 680.832 102.956 680.928C102.812 681.012 102.656 681.054 102.488 681.054C102.332 681.054 102.182 681.012 102.038 680.928C101.894 680.832 101.786 680.706 101.714 680.55L98.7264 673.008C98.6904 672.912 98.6724 672.828 98.6724 672.756C98.6724 672.564 98.7504 672.402 98.9064 672.27C99.0744 672.138 99.2544 672.072 99.4464 672.072C99.7344 672.072 99.9384 672.216 100.058 672.504L102.524 679.146L105.062 672.558C105.134 672.402 105.23 672.282 105.35 672.198C105.482 672.114 105.62 672.072 105.764 672.072C105.92 672.072 106.058 672.114 106.178 672.198C106.31 672.282 106.406 672.402 106.466 672.558L109.004 679.128L111.488 672.522ZM115.619 681.09C115.403 681.09 115.223 681.03 115.079 680.91C114.947 680.778 114.881 680.598 114.881 680.37V672.774C114.881 672.546 114.947 672.372 115.079 672.252C115.223 672.12 115.403 672.054 115.619 672.054C115.835 672.054 116.009 672.12 116.141 672.252C116.273 672.372 116.339 672.546 116.339 672.774V680.37C116.339 680.61 116.273 680.79 116.141 680.91C116.009 681.03 115.835 681.09 115.619 681.09ZM115.619 670.164C115.331 670.164 115.097 670.08 114.917 669.912C114.737 669.744 114.647 669.522 114.647 669.246C114.647 668.982 114.737 668.766 114.917 668.598C115.097 668.43 115.331 668.346 115.619 668.346C115.907 668.346 116.141 668.43 116.321 668.598C116.501 668.766 116.591 668.982 116.591 669.246C116.591 669.522 116.501 669.744 116.321 669.912C116.141 670.08 115.907 670.164 115.619 670.164ZM123.255 679.938C123.675 679.974 123.885 680.166 123.885 680.514C123.885 680.718 123.807 680.874 123.651 680.982C123.507 681.078 123.285 681.114 122.985 681.09L122.499 681.054C121.539 680.982 120.831 680.694 120.375 680.19C119.919 679.686 119.691 678.924 119.691 677.904V673.386H118.485C118.281 673.386 118.119 673.338 117.999 673.242C117.891 673.134 117.837 672.996 117.837 672.828C117.837 672.648 117.891 672.504 117.999 672.396C118.119 672.288 118.281 672.234 118.485 672.234H119.691V670.2C119.691 669.972 119.757 669.798 119.889 669.678C120.021 669.546 120.201 669.48 120.429 669.48C120.645 669.48 120.819 669.546 120.951 669.678C121.083 669.798 121.149 669.972 121.149 670.2V672.234H123.147C123.339 672.234 123.489 672.288 123.597 672.396C123.717 672.504 123.777 672.648 123.777 672.828C123.777 672.996 123.717 673.134 123.597 673.242C123.489 673.338 123.339 673.386 123.147 673.386H121.149V677.976C121.149 678.636 121.281 679.116 121.545 679.416C121.821 679.704 122.229 679.866 122.769 679.902L123.255 679.938ZM129.751 672.018C130.783 672.018 131.563 672.312 132.091 672.9C132.619 673.476 132.883 674.34 132.883 675.492V680.37C132.883 680.598 132.817 680.778 132.685 680.91C132.553 681.03 132.379 681.09 132.163 681.09C131.935 681.09 131.755 681.03 131.623 680.91C131.491 680.778 131.425 680.598 131.425 680.37V675.528C131.425 674.748 131.263 674.172 130.939 673.8C130.627 673.428 130.123 673.242 129.427 673.242C128.623 673.242 127.981 673.488 127.501 673.98C127.021 674.472 126.781 675.138 126.781 675.978V680.37C126.781 680.598 126.715 680.778 126.583 680.91C126.463 681.03 126.289 681.09 126.061 681.09C125.833 681.09 125.653 681.03 125.521 680.91C125.389 680.778 125.323 680.598 125.323 680.37V668.922C125.323 668.718 125.389 668.55 125.521 668.418C125.665 668.286 125.845 668.22 126.061 668.22C126.289 668.22 126.463 668.286 126.583 668.418C126.715 668.538 126.781 668.706 126.781 668.922V673.638C127.069 673.11 127.471 672.708 127.987 672.432C128.503 672.156 129.091 672.018 129.751 672.018ZM146.512 672.504C146.644 672.216 146.854 672.072 147.142 672.072C147.322 672.072 147.484 672.132 147.628 672.252C147.772 672.372 147.844 672.522 147.844 672.702C147.844 672.81 147.82 672.906 147.772 672.99L142.714 683.898C142.654 684.03 142.564 684.132 142.444 684.204C142.336 684.276 142.222 684.312 142.102 684.312C141.922 684.312 141.76 684.252 141.616 684.132C141.484 684.024 141.418 683.88 141.418 683.7C141.418 683.604 141.442 683.508 141.49 683.412L142.75 680.694L139.186 672.99C139.138 672.906 139.114 672.816 139.114 672.72C139.114 672.54 139.192 672.384 139.348 672.252C139.516 672.12 139.696 672.054 139.888 672.054C140.008 672.054 140.122 672.09 140.23 672.162C140.35 672.234 140.44 672.336 140.5 672.468L143.506 679.218L146.512 672.504ZM152.97 681.126C152.142 681.126 151.41 680.94 150.774 680.568C150.15 680.196 149.664 679.668 149.316 678.984C148.98 678.288 148.812 677.484 148.812 676.572C148.812 675.66 148.98 674.862 149.316 674.178C149.664 673.482 150.15 672.948 150.774 672.576C151.41 672.204 152.142 672.018 152.97 672.018C153.798 672.018 154.53 672.204 155.166 672.576C155.802 672.948 156.288 673.482 156.624 674.178C156.972 674.862 157.146 675.66 157.146 676.572C157.146 677.484 156.972 678.288 156.624 678.984C156.288 679.668 155.802 680.196 155.166 680.568C154.53 680.94 153.798 681.126 152.97 681.126ZM152.97 679.92C153.834 679.92 154.494 679.638 154.95 679.074C155.418 678.498 155.652 677.664 155.652 676.572C155.652 675.504 155.418 674.682 154.95 674.106C154.482 673.518 153.822 673.224 152.97 673.224C152.118 673.224 151.458 673.518 150.99 674.106C150.522 674.682 150.288 675.504 150.288 676.572C150.288 677.652 150.516 678.48 150.972 679.056C151.44 679.632 152.106 679.92 152.97 679.92ZM165.979 672.054C166.207 672.054 166.381 672.12 166.501 672.252C166.633 672.384 166.699 672.558 166.699 672.774V680.388C166.699 680.592 166.633 680.76 166.501 680.892C166.381 681.024 166.207 681.09 165.979 681.09C165.763 681.09 165.589 681.03 165.457 680.91C165.337 680.778 165.277 680.61 165.277 680.406V679.506C165.001 680.034 164.611 680.436 164.107 680.712C163.615 680.988 163.057 681.126 162.433 681.126C161.389 681.126 160.603 680.838 160.075 680.262C159.547 679.674 159.283 678.81 159.283 677.67V672.774C159.283 672.558 159.349 672.384 159.481 672.252C159.613 672.12 159.793 672.054 160.021 672.054C160.249 672.054 160.423 672.12 160.543 672.252C160.675 672.384 160.741 672.558 160.741 672.774V677.634C160.741 678.414 160.897 678.99 161.209 679.362C161.521 679.722 162.013 679.902 162.685 679.902C163.453 679.902 164.071 679.656 164.539 679.164C165.007 678.66 165.241 678 165.241 677.184V672.774C165.241 672.558 165.307 672.384 165.439 672.252C165.571 672.12 165.751 672.054 165.979 672.054ZM173.747 672.054C174.251 672.018 174.503 672.222 174.503 672.666C174.503 672.858 174.449 673.014 174.341 673.134C174.233 673.242 174.047 673.308 173.783 673.332L173.243 673.386C172.439 673.458 171.839 673.746 171.443 674.25C171.059 674.742 170.867 675.324 170.867 675.996V680.37C170.867 680.61 170.801 680.79 170.669 680.91C170.537 681.03 170.363 681.09 170.147 681.09C169.931 681.09 169.751 681.03 169.607 680.91C169.475 680.778 169.409 680.598 169.409 680.37V672.774C169.409 672.546 169.481 672.372 169.625 672.252C169.769 672.12 169.943 672.054 170.147 672.054C170.339 672.054 170.501 672.12 170.633 672.252C170.765 672.372 170.831 672.54 170.831 672.756V673.764C171.083 673.236 171.437 672.834 171.893 672.558C172.361 672.282 172.895 672.12 173.495 672.072L173.747 672.054ZM183.347 681.126C182.795 681.126 182.267 681.06 181.763 680.928C181.271 680.796 180.833 680.61 180.449 680.37C180.233 680.226 180.077 680.094 179.981 679.974C179.897 679.842 179.855 679.686 179.855 679.506C179.855 679.35 179.897 679.224 179.981 679.128C180.077 679.02 180.197 678.966 180.341 678.966C180.485 678.966 180.695 679.056 180.971 679.236C181.331 679.452 181.685 679.626 182.033 679.758C182.393 679.878 182.837 679.938 183.365 679.938C184.013 679.938 184.517 679.824 184.877 679.596C185.237 679.368 185.417 679.038 185.417 678.606C185.417 678.342 185.351 678.132 185.219 677.976C185.087 677.808 184.859 677.664 184.535 677.544C184.211 677.412 183.737 677.28 183.113 677.148C182.057 676.92 181.301 676.614 180.845 676.23C180.389 675.846 180.161 675.324 180.161 674.664C180.161 674.148 180.305 673.692 180.593 673.296C180.881 672.9 181.277 672.588 181.781 672.36C182.297 672.132 182.879 672.018 183.527 672.018C183.995 672.018 184.445 672.084 184.877 672.216C185.321 672.336 185.711 672.51 186.047 672.738C186.455 673.026 186.659 673.326 186.659 673.638C186.659 673.794 186.611 673.926 186.515 674.034C186.419 674.142 186.305 674.196 186.173 674.196C186.029 674.196 185.813 674.094 185.525 673.89C185.189 673.674 184.871 673.506 184.571 673.386C184.271 673.266 183.899 673.206 183.455 673.206C182.891 673.206 182.435 673.332 182.087 673.584C181.751 673.836 181.583 674.172 181.583 674.592C181.583 674.856 181.643 675.072 181.763 675.24C181.895 675.396 182.105 675.54 182.393 675.672C182.693 675.792 183.119 675.912 183.671 676.032C184.487 676.212 185.117 676.41 185.561 676.626C186.017 676.842 186.341 677.106 186.533 677.418C186.725 677.73 186.821 678.126 186.821 678.606C186.821 679.362 186.503 679.974 185.867 680.442C185.231 680.898 184.391 681.126 183.347 681.126ZM192.661 681.126C191.845 681.126 191.119 680.94 190.483 680.568C189.859 680.196 189.373 679.668 189.025 678.984C188.689 678.3 188.521 677.508 188.521 676.608C188.521 675.708 188.695 674.91 189.043 674.214C189.403 673.518 189.901 672.978 190.537 672.594C191.173 672.21 191.905 672.018 192.733 672.018C193.189 672.018 193.639 672.084 194.083 672.216C194.539 672.336 194.935 672.516 195.271 672.756C195.487 672.9 195.637 673.044 195.721 673.188C195.817 673.32 195.865 673.47 195.865 673.638C195.865 673.806 195.817 673.944 195.721 674.052C195.637 674.16 195.523 674.214 195.379 674.214C195.295 674.214 195.205 674.19 195.109 674.142C195.013 674.094 194.929 674.046 194.857 673.998C194.797 673.95 194.755 673.92 194.731 673.908C194.419 673.704 194.119 673.542 193.831 673.422C193.555 673.302 193.213 673.242 192.805 673.242C191.929 673.242 191.245 673.542 190.753 674.142C190.273 674.73 190.033 675.552 190.033 676.608C190.033 677.664 190.273 678.48 190.753 679.056C191.245 679.632 191.929 679.92 192.805 679.92C193.213 679.92 193.561 679.86 193.849 679.74C194.149 679.62 194.449 679.458 194.749 679.254C194.881 679.17 195.007 679.098 195.127 679.038C195.247 678.978 195.349 678.948 195.433 678.948C195.565 678.948 195.673 679.002 195.757 679.11C195.853 679.218 195.901 679.356 195.901 679.524C195.901 679.68 195.859 679.824 195.775 679.956C195.691 680.076 195.535 680.214 195.307 680.37C194.971 680.598 194.563 680.784 194.083 680.928C193.615 681.06 193.141 681.126 192.661 681.126ZM202.085 672.018C203.117 672.018 203.897 672.312 204.425 672.9C204.953 673.476 205.217 674.34 205.217 675.492V680.37C205.217 680.598 205.151 680.778 205.019 680.91C204.887 681.03 204.713 681.09 204.497 681.09C204.269 681.09 204.089 681.03 203.957 680.91C203.825 680.778 203.759 680.598 203.759 680.37V675.528C203.759 674.748 203.597 674.172 203.273 673.8C202.961 673.428 202.457 673.242 201.761 673.242C200.957 673.242 200.315 673.488 199.835 673.98C199.355 674.472 199.115 675.138 199.115 675.978V680.37C199.115 680.598 199.049 680.778 198.917 680.91C198.797 681.03 198.623 681.09 198.395 681.09C198.167 681.09 197.987 681.03 197.855 680.91C197.723 680.778 197.657 680.598 197.657 680.37V668.922C197.657 668.718 197.723 668.55 197.855 668.418C197.999 668.286 198.179 668.22 198.395 668.22C198.623 668.22 198.797 668.286 198.917 668.418C199.049 668.538 199.115 668.706 199.115 668.922V673.638C199.403 673.11 199.805 672.708 200.321 672.432C200.837 672.156 201.425 672.018 202.085 672.018ZM214.673 678.966C214.805 678.966 214.919 679.02 215.015 679.128C215.111 679.236 215.159 679.374 215.159 679.542C215.159 679.842 214.949 680.118 214.529 680.37C214.097 680.622 213.641 680.814 213.161 680.946C212.681 681.066 212.213 681.126 211.757 681.126C210.401 681.126 209.327 680.724 208.535 679.92C207.755 679.116 207.365 678.006 207.365 676.59C207.365 675.69 207.539 674.898 207.887 674.214C208.235 673.518 208.721 672.978 209.345 672.594C209.981 672.21 210.701 672.018 211.505 672.018C212.645 672.018 213.551 672.39 214.223 673.134C214.895 673.878 215.231 674.886 215.231 676.158C215.231 676.398 215.183 676.572 215.087 676.68C214.991 676.788 214.835 676.842 214.619 676.842H208.823C208.931 678.906 209.909 679.938 211.757 679.938C212.225 679.938 212.627 679.878 212.963 679.758C213.299 679.626 213.659 679.452 214.043 679.236C214.355 679.056 214.565 678.966 214.673 678.966ZM211.523 673.152C210.755 673.152 210.137 673.392 209.669 673.872C209.213 674.352 208.943 675.03 208.859 675.906H213.953C213.929 675.018 213.707 674.34 213.287 673.872C212.867 673.392 212.279 673.152 211.523 673.152ZM224.417 668.22C224.645 668.22 224.825 668.286 224.957 668.418C225.089 668.55 225.155 668.718 225.155 668.922V680.37C225.155 680.586 225.089 680.76 224.957 680.892C224.825 681.024 224.645 681.09 224.417 681.09C224.189 681.09 224.009 681.024 223.877 680.892C223.757 680.76 223.697 680.586 223.697 680.37V679.398C223.433 679.95 223.043 680.376 222.527 680.676C222.023 680.976 221.429 681.126 220.745 681.126C219.977 681.126 219.299 680.934 218.711 680.55C218.123 680.166 217.667 679.632 217.343 678.948C217.019 678.252 216.857 677.448 216.857 676.536C216.857 675.636 217.019 674.844 217.343 674.16C217.667 673.476 218.123 672.948 218.711 672.576C219.299 672.204 219.977 672.018 220.745 672.018C221.429 672.018 222.023 672.168 222.527 672.468C223.043 672.768 223.433 673.194 223.697 673.746V668.922C223.697 668.706 223.757 668.538 223.877 668.418C224.009 668.286 224.189 668.22 224.417 668.22ZM221.033 679.92C221.885 679.92 222.539 679.632 222.995 679.056C223.463 678.468 223.697 677.64 223.697 676.572C223.697 675.504 223.463 674.682 222.995 674.106C222.539 673.53 221.885 673.242 221.033 673.242C220.181 673.242 219.515 673.53 219.035 674.106C218.567 674.682 218.333 675.492 218.333 676.536C218.333 677.604 218.567 678.438 219.035 679.038C219.515 679.626 220.181 679.92 221.033 679.92ZM234.516 672.054C234.744 672.054 234.918 672.12 235.038 672.252C235.17 672.384 235.236 672.558 235.236 672.774V680.388C235.236 680.592 235.17 680.76 235.038 680.892C234.918 681.024 234.744 681.09 234.516 681.09C234.3 681.09 234.126 681.03 233.994 680.91C233.874 680.778 233.814 680.61 233.814 680.406V679.506C233.538 680.034 233.148 680.436 232.644 680.712C232.152 680.988 231.594 681.126 230.97 681.126C229.926 681.126 229.14 680.838 228.612 680.262C228.084 679.674 227.82 678.81 227.82 677.67V672.774C227.82 672.558 227.886 672.384 228.018 672.252C228.15 672.12 228.33 672.054 228.558 672.054C228.786 672.054 228.96 672.12 229.08 672.252C229.212 672.384 229.278 672.558 229.278 672.774V677.634C229.278 678.414 229.434 678.99 229.746 679.362C230.058 679.722 230.55 679.902 231.222 679.902C231.99 679.902 232.608 679.656 233.076 679.164C233.544 678.66 233.778 678 233.778 677.184V672.774C233.778 672.558 233.844 672.384 233.976 672.252C234.108 672.12 234.288 672.054 234.516 672.054ZM238.684 681.09C238.468 681.09 238.288 681.03 238.144 680.91C238.012 680.778 237.946 680.598 237.946 680.37V668.94C237.946 668.712 238.012 668.538 238.144 668.418C238.288 668.286 238.468 668.22 238.684 668.22C238.888 668.22 239.056 668.286 239.188 668.418C239.332 668.538 239.404 668.712 239.404 668.94V680.37C239.404 680.598 239.332 680.778 239.188 680.91C239.056 681.03 238.888 681.09 238.684 681.09ZM248.915 678.966C249.047 678.966 249.161 679.02 249.257 679.128C249.353 679.236 249.401 679.374 249.401 679.542C249.401 679.842 249.191 680.118 248.771 680.37C248.339 680.622 247.883 680.814 247.403 680.946C246.923 681.066 246.455 681.126 245.999 681.126C244.643 681.126 243.569 680.724 242.777 679.92C241.997 679.116 241.607 678.006 241.607 676.59C241.607 675.69 241.781 674.898 242.129 674.214C242.477 673.518 242.963 672.978 243.587 672.594C244.223 672.21 244.943 672.018 245.747 672.018C246.887 672.018 247.793 672.39 248.465 673.134C249.137 673.878 249.473 674.886 249.473 676.158C249.473 676.398 249.425 676.572 249.329 676.68C249.233 676.788 249.077 676.842 248.861 676.842H243.065C243.173 678.906 244.151 679.938 245.999 679.938C246.467 679.938 246.869 679.878 247.205 679.758C247.541 679.626 247.901 679.452 248.285 679.236C248.597 679.056 248.807 678.966 248.915 678.966ZM245.765 673.152C244.997 673.152 244.379 673.392 243.911 673.872C243.455 674.352 243.185 675.03 243.101 675.906H248.195C248.171 675.018 247.949 674.34 247.529 673.872C247.109 673.392 246.521 673.152 245.765 673.152Z" fill="white"/>
<rect x="30" y="779" width="35" height="10" rx="5" fill="#EDB518"/>
<rect x="69" y="779" width="10" height="10" rx="5" fill="#EE6785"/>
<rect x="83" y="779" width="10" height="10" rx="5" fill="#EE6785"/>
<rect x="97" y="779" width="10" height="10" rx="5" fill="#EE6785"/>
<rect x="197" y="759" width="151" height="50" rx="10" fill="#EDB518"/>
<path d="M301 776L299.59 777.41L305.17 783H293V785H305.17L299.59 790.59L301 792L309 784L301 776Z" fill="white"/>
<path d="M224.76 777.64C225.059 777.64 225.293 777.736 225.464 777.928C225.645 778.109 225.736 778.355 225.736 778.664V788.056C225.736 788.365 225.645 788.616 225.464 788.808C225.283 789 225.048 789.096 224.76 789.096C224.419 789.096 224.157 788.973 223.976 788.728L218.136 781.128V788.056C218.136 788.365 218.051 788.616 217.88 788.808C217.709 789 217.475 789.096 217.176 789.096C216.877 789.096 216.643 789 216.472 788.808C216.301 788.616 216.216 788.365 216.216 788.056V778.664C216.216 778.355 216.307 778.109 216.488 777.928C216.669 777.736 216.909 777.64 217.208 777.64C217.539 777.64 217.795 777.763 217.976 778.008L223.8 785.576V778.664C223.8 778.355 223.885 778.109 224.056 777.928C224.237 777.736 224.472 777.64 224.76 777.64ZM234.185 786.856C234.366 786.856 234.51 786.925 234.617 787.064C234.734 787.203 234.793 787.389 234.793 787.624C234.793 787.955 234.596 788.232 234.201 788.456C233.838 788.659 233.428 788.824 232.969 788.952C232.51 789.069 232.073 789.128 231.657 789.128C230.398 789.128 229.401 788.765 228.665 788.04C227.929 787.315 227.561 786.323 227.561 785.064C227.561 784.264 227.721 783.555 228.041 782.936C228.361 782.317 228.809 781.837 229.385 781.496C229.972 781.155 230.633 780.984 231.369 780.984C232.073 780.984 232.686 781.139 233.209 781.448C233.732 781.757 234.137 782.195 234.425 782.76C234.713 783.325 234.857 783.992 234.857 784.76C234.857 785.219 234.654 785.448 234.249 785.448H229.529C229.593 786.184 229.801 786.728 230.153 787.08C230.505 787.421 231.017 787.592 231.689 787.592C232.03 787.592 232.329 787.549 232.585 787.464C232.852 787.379 233.15 787.261 233.481 787.112C233.801 786.941 234.036 786.856 234.185 786.856ZM231.417 782.392C230.873 782.392 230.436 782.563 230.105 782.904C229.785 783.245 229.593 783.736 229.529 784.376H233.145C233.124 783.725 232.964 783.235 232.665 782.904C232.366 782.563 231.95 782.392 231.417 782.392ZM243.121 787.528C243.313 787.72 243.409 787.939 243.409 788.184C243.409 788.419 243.318 788.632 243.137 788.824C242.956 789.005 242.742 789.096 242.497 789.096C242.23 789.096 242.001 788.984 241.809 788.76L239.553 786.264L237.297 788.76C237.094 788.973 236.865 789.08 236.609 789.08C236.374 789.08 236.166 788.989 235.985 788.808C235.804 788.627 235.713 788.419 235.713 788.184C235.713 787.939 235.809 787.72 236.001 787.528L238.337 784.984L236.129 782.584C235.937 782.392 235.841 782.173 235.841 781.928C235.841 781.683 235.932 781.475 236.113 781.304C236.294 781.123 236.502 781.032 236.737 781.032C236.993 781.032 237.222 781.139 237.425 781.352L239.553 783.688L241.681 781.352C241.884 781.139 242.113 781.032 242.369 781.032C242.614 781.032 242.822 781.123 242.993 781.304C243.174 781.475 243.265 781.683 243.265 781.928C243.265 782.173 243.169 782.392 242.977 782.584L240.769 784.984L243.121 787.528ZM248.917 787.608C249.45 787.64 249.717 787.88 249.717 788.328C249.717 788.584 249.61 788.781 249.397 788.92C249.194 789.048 248.901 789.101 248.516 789.08L248.085 789.048C246.293 788.92 245.397 787.96 245.397 786.168V782.68H244.597C244.309 782.68 244.085 782.616 243.925 782.488C243.775 782.36 243.7 782.173 243.7 781.928C243.7 781.683 243.775 781.496 243.925 781.368C244.085 781.24 244.309 781.176 244.597 781.176H245.397V779.704C245.397 779.416 245.487 779.187 245.669 779.016C245.85 778.845 246.095 778.76 246.405 778.76C246.703 778.76 246.943 778.845 247.125 779.016C247.306 779.187 247.397 779.416 247.397 779.704V781.176H248.757C249.045 781.176 249.263 781.24 249.413 781.368C249.573 781.496 249.653 781.683 249.653 781.928C249.653 782.173 249.573 782.36 249.413 782.488C249.263 782.616 249.045 782.68 248.757 782.68H247.397V786.312C247.397 787.101 247.759 787.523 248.485 787.576L248.917 787.608Z" fill="white"/>
</g>
<defs>
<filter id="filter0_b" x="-16" y="-16" width="446" height="76" filterUnits="userSpaceOnUse" color-interpolation-filters="sRGB">
<feFlood flood-opacity="0" result="BackgroundImageFix"/>
<feGaussianBlur in="BackgroundImage" stdDeviation="8"/>
<feComposite in2="SourceAlpha" operator="in" result="effect1_backgroundBlur"/>
<feBlend mode="normal" in="SourceGraphic" in2="effect1_backgroundBlur" result="shape"/>
</filter>
<linearGradient id="paint0_linear" x1="207.468" y1="159" x2="207.468" y2="312" gradientUnits="userSpaceOnUse">
<stop stop-color="#79031D"/>
<stop offset="1" stop-color="#FBBC04"/>
</linearGradient>
<clipPath id="clip0">
<rect width="414" height="896" rx="30" fill="white"/>
</clipPath>
<clipPath id="clip1">
<rect width="414" height="44" fill="white"/>
</clipPath>
</defs>
</svg>
