<svg width="422" height="904" viewBox="0 0 422 904" fill="none" xmlns="http://www.w3.org/2000/svg">
<g filter="url(#filter0_d)">
<g clip-path="url(#clip0)">
<rect x="4" width="414" height="896" rx="30" fill="white"/>
<line x1="36" y1="536.5" x2="386" y2="536.5" stroke="#BFBFBF"/>
<path d="M38.352 476.278V479.54H41.908V480.59H38.352V483.95H42.328V485H37.078V475.228H42.328V476.278H38.352ZM53.4817 477.188C54.0791 477.188 54.6111 477.314 55.0777 477.566C55.5444 477.809 55.9131 478.177 56.1837 478.672C56.4544 479.167 56.5897 479.769 56.5897 480.478V485H55.3297V480.66C55.3297 479.895 55.1384 479.311 54.7557 478.91C54.3824 478.499 53.8737 478.294 53.2297 478.294C52.5671 478.294 52.0397 478.509 51.6477 478.938C51.2557 479.358 51.0597 479.969 51.0597 480.772V485H49.7997V480.66C49.7997 479.895 49.6084 479.311 49.2257 478.91C48.8524 478.499 48.3437 478.294 47.6997 478.294C47.0371 478.294 46.5097 478.509 46.1177 478.938C45.7257 479.358 45.5297 479.969 45.5297 480.772V485H44.2557V477.328H45.5297V478.434C45.7817 478.033 46.1177 477.725 46.5377 477.51C46.9671 477.295 47.4384 477.188 47.9517 477.188C48.5957 477.188 49.1651 477.333 49.6597 477.622C50.1544 477.911 50.5231 478.336 50.7657 478.896C50.9804 478.355 51.3351 477.935 51.8297 477.636C52.3244 477.337 52.8751 477.188 53.4817 477.188ZM58.2036 481.136C58.2036 480.352 58.3622 479.666 58.6796 479.078C58.9969 478.481 59.4309 478.019 59.9816 477.692C60.5416 477.365 61.1622 477.202 61.8436 477.202C62.5156 477.202 63.0989 477.347 63.5936 477.636C64.0882 477.925 64.4569 478.289 64.6996 478.728V477.328H65.9876V485H64.6996V483.572C64.4476 484.02 64.0696 484.393 63.5656 484.692C63.0709 484.981 62.4922 485.126 61.8296 485.126C61.1482 485.126 60.5322 484.958 59.9816 484.622C59.4309 484.286 58.9969 483.815 58.6796 483.208C58.3622 482.601 58.2036 481.911 58.2036 481.136ZM64.6996 481.15C64.6996 480.571 64.5829 480.067 64.3496 479.638C64.1162 479.209 63.7989 478.882 63.3976 478.658C63.0056 478.425 62.5716 478.308 62.0956 478.308C61.6196 478.308 61.1856 478.42 60.7936 478.644C60.4016 478.868 60.0889 479.195 59.8556 479.624C59.6222 480.053 59.5056 480.557 59.5056 481.136C59.5056 481.724 59.6222 482.237 59.8556 482.676C60.0889 483.105 60.4016 483.437 60.7936 483.67C61.1856 483.894 61.6196 484.006 62.0956 484.006C62.5716 484.006 63.0056 483.894 63.3976 483.67C63.7989 483.437 64.1162 483.105 64.3496 482.676C64.5829 482.237 64.6996 481.729 64.6996 481.15ZM68.7985 476.082C68.5558 476.082 68.3505 475.998 68.1825 475.83C68.0145 475.662 67.9305 475.457 67.9305 475.214C67.9305 474.971 68.0145 474.766 68.1825 474.598C68.3505 474.43 68.5558 474.346 68.7985 474.346C69.0318 474.346 69.2278 474.43 69.3865 474.598C69.5545 474.766 69.6385 474.971 69.6385 475.214C69.6385 475.457 69.5545 475.662 69.3865 475.83C69.2278 475.998 69.0318 476.082 68.7985 476.082ZM69.4145 477.328V485H68.1405V477.328H69.4145ZM72.8598 474.64V485H71.5858V474.64H72.8598ZM84.5315 482.83H80.2755L79.4915 485H78.1475L81.6755 475.298H83.1455L86.6595 485H85.3155L84.5315 482.83ZM84.1675 481.794L82.4035 476.866L80.6395 481.794H84.1675ZM87.7211 481.136C87.7211 480.352 87.8798 479.666 88.1971 479.078C88.5145 478.481 88.9485 478.019 89.4991 477.692C90.0591 477.365 90.6845 477.202 91.3751 477.202C91.9725 477.202 92.5278 477.342 93.0411 477.622C93.5545 477.893 93.9465 478.252 94.2171 478.7V474.64H95.5051V485H94.2171V483.558C93.9651 484.015 93.5918 484.393 93.0971 484.692C92.6025 484.981 92.0238 485.126 91.3611 485.126C90.6798 485.126 90.0591 484.958 89.4991 484.622C88.9485 484.286 88.5145 483.815 88.1971 483.208C87.8798 482.601 87.7211 481.911 87.7211 481.136ZM94.2171 481.15C94.2171 480.571 94.1005 480.067 93.8671 479.638C93.6338 479.209 93.3165 478.882 92.9151 478.658C92.5231 478.425 92.0891 478.308 91.6131 478.308C91.1371 478.308 90.7031 478.42 90.3111 478.644C89.9191 478.868 89.6065 479.195 89.3731 479.624C89.1398 480.053 89.0231 480.557 89.0231 481.136C89.0231 481.724 89.1398 482.237 89.3731 482.676C89.6065 483.105 89.9191 483.437 90.3111 483.67C90.7031 483.894 91.1371 484.006 91.6131 484.006C92.0891 484.006 92.5231 483.894 92.9151 483.67C93.3165 483.437 93.6338 483.105 93.8671 482.676C94.1005 482.237 94.2171 481.729 94.2171 481.15ZM97.1821 481.136C97.1821 480.352 97.3407 479.666 97.6581 479.078C97.9754 478.481 98.4094 478.019 98.9601 477.692C99.5201 477.365 100.145 477.202 100.836 477.202C101.433 477.202 101.989 477.342 102.502 477.622C103.015 477.893 103.407 478.252 103.678 478.7V474.64H104.966V485H103.678V483.558C103.426 484.015 103.053 484.393 102.558 484.692C102.063 484.981 101.485 485.126 100.822 485.126C100.141 485.126 99.5201 484.958 98.9601 484.622C98.4094 484.286 97.9754 483.815 97.6581 483.208C97.3407 482.601 97.1821 481.911 97.1821 481.136ZM103.678 481.15C103.678 480.571 103.561 480.067 103.328 479.638C103.095 479.209 102.777 478.882 102.376 478.658C101.984 478.425 101.55 478.308 101.074 478.308C100.598 478.308 100.164 478.42 99.7721 478.644C99.3801 478.868 99.0674 479.195 98.8341 479.624C98.6007 480.053 98.4841 480.557 98.4841 481.136C98.4841 481.724 98.6007 482.237 98.8341 482.676C99.0674 483.105 99.3801 483.437 99.7721 483.67C100.164 483.894 100.598 484.006 101.074 484.006C101.55 484.006 101.984 483.894 102.376 483.67C102.777 483.437 103.095 483.105 103.328 482.676C103.561 482.237 103.678 481.729 103.678 481.15ZM108.393 478.574C108.617 478.135 108.934 477.795 109.345 477.552C109.765 477.309 110.274 477.188 110.871 477.188V478.504H110.535C109.107 478.504 108.393 479.279 108.393 480.828V485H107.119V477.328H108.393V478.574ZM119.342 480.87C119.342 481.113 119.328 481.369 119.3 481.64H113.168C113.214 482.396 113.471 482.989 113.938 483.418C114.414 483.838 114.988 484.048 115.66 484.048C116.21 484.048 116.668 483.922 117.032 483.67C117.405 483.409 117.666 483.063 117.816 482.634H119.188C118.982 483.371 118.572 483.973 117.956 484.44C117.34 484.897 116.574 485.126 115.66 485.126C114.932 485.126 114.278 484.963 113.7 484.636C113.13 484.309 112.682 483.847 112.356 483.25C112.029 482.643 111.866 481.943 111.866 481.15C111.866 480.357 112.024 479.661 112.342 479.064C112.659 478.467 113.102 478.009 113.672 477.692C114.25 477.365 114.913 477.202 115.66 477.202C116.388 477.202 117.032 477.361 117.592 477.678C118.152 477.995 118.581 478.434 118.88 478.994C119.188 479.545 119.342 480.17 119.342 480.87ZM118.026 480.604C118.026 480.119 117.918 479.703 117.704 479.358C117.489 479.003 117.195 478.737 116.822 478.56C116.458 478.373 116.052 478.28 115.604 478.28C114.96 478.28 114.409 478.485 113.952 478.896C113.504 479.307 113.247 479.876 113.182 480.604H118.026ZM123.739 485.126C123.151 485.126 122.624 485.028 122.157 484.832C121.691 484.627 121.322 484.347 121.051 483.992C120.781 483.628 120.631 483.213 120.603 482.746H121.919C121.957 483.129 122.134 483.441 122.451 483.684C122.778 483.927 123.203 484.048 123.725 484.048C124.211 484.048 124.593 483.941 124.873 483.726C125.153 483.511 125.293 483.241 125.293 482.914C125.293 482.578 125.144 482.331 124.845 482.172C124.547 482.004 124.085 481.841 123.459 481.682C122.89 481.533 122.423 481.383 122.059 481.234C121.705 481.075 121.397 480.847 121.135 480.548C120.883 480.24 120.757 479.839 120.757 479.344C120.757 478.952 120.874 478.593 121.107 478.266C121.341 477.939 121.672 477.683 122.101 477.496C122.531 477.3 123.021 477.202 123.571 477.202C124.421 477.202 125.107 477.417 125.629 477.846C126.152 478.275 126.432 478.863 126.469 479.61H125.195C125.167 479.209 125.004 478.887 124.705 478.644C124.416 478.401 124.024 478.28 123.529 478.28C123.072 478.28 122.708 478.378 122.437 478.574C122.167 478.77 122.031 479.027 122.031 479.344C122.031 479.596 122.111 479.806 122.269 479.974C122.437 480.133 122.643 480.263 122.885 480.366C123.137 480.459 123.483 480.567 123.921 480.688C124.472 480.837 124.92 480.987 125.265 481.136C125.611 481.276 125.905 481.491 126.147 481.78C126.399 482.069 126.53 482.447 126.539 482.914C126.539 483.334 126.423 483.712 126.189 484.048C125.956 484.384 125.625 484.65 125.195 484.846C124.775 485.033 124.29 485.126 123.739 485.126ZM131.054 485.126C130.466 485.126 129.938 485.028 129.472 484.832C129.005 484.627 128.636 484.347 128.366 483.992C128.095 483.628 127.946 483.213 127.918 482.746H129.234C129.271 483.129 129.448 483.441 129.766 483.684C130.092 483.927 130.517 484.048 131.04 484.048C131.525 484.048 131.908 483.941 132.188 483.726C132.468 483.511 132.608 483.241 132.608 482.914C132.608 482.578 132.458 482.331 132.16 482.172C131.861 482.004 131.399 481.841 130.774 481.682C130.204 481.533 129.738 481.383 129.374 481.234C129.019 481.075 128.711 480.847 128.45 480.548C128.198 480.24 128.072 479.839 128.072 479.344C128.072 478.952 128.188 478.593 128.422 478.266C128.655 477.939 128.986 477.683 129.416 477.496C129.845 477.3 130.335 477.202 130.886 477.202C131.735 477.202 132.421 477.417 132.944 477.846C133.466 478.275 133.746 478.863 133.784 479.61H132.51C132.482 479.209 132.318 478.887 132.02 478.644C131.73 478.401 131.338 478.28 130.844 478.28C130.386 478.28 130.022 478.378 129.752 478.574C129.481 478.77 129.346 479.027 129.346 479.344C129.346 479.596 129.425 479.806 129.584 479.974C129.752 480.133 129.957 480.263 130.2 480.366C130.452 480.459 130.797 480.567 131.236 480.688C131.786 480.837 132.234 480.987 132.58 481.136C132.925 481.276 133.219 481.491 133.462 481.78C133.714 482.069 133.844 482.447 133.854 482.914C133.854 483.334 133.737 483.712 133.504 484.048C133.27 484.384 132.939 484.65 132.51 484.846C132.09 485.033 131.604 485.126 131.054 485.126Z" fill="#BFBFBF"/>
<path d="M36.602 517.136C36.602 516.352 36.7607 515.666 37.078 515.078C37.3953 514.481 37.8293 514.019 38.38 513.692C38.94 513.365 39.5653 513.202 40.256 513.202C40.8533 513.202 41.4087 513.342 41.922 513.622C42.4353 513.893 42.8273 514.252 43.098 514.7V510.64H44.386V521H43.098V519.558C42.846 520.015 42.4727 520.393 41.978 520.692C41.4833 520.981 40.9047 521.126 40.242 521.126C39.5607 521.126 38.94 520.958 38.38 520.622C37.8293 520.286 37.3953 519.815 37.078 519.208C36.7607 518.601 36.602 517.911 36.602 517.136ZM43.098 517.15C43.098 516.571 42.9813 516.067 42.748 515.638C42.5147 515.209 42.1973 514.882 41.796 514.658C41.404 514.425 40.97 514.308 40.494 514.308C40.018 514.308 39.584 514.42 39.192 514.644C38.8 514.868 38.4873 515.195 38.254 515.624C38.0207 516.053 37.904 516.557 37.904 517.136C37.904 517.724 38.0207 518.237 38.254 518.676C38.4873 519.105 38.8 519.437 39.192 519.67C39.584 519.894 40.018 520.006 40.494 520.006C40.97 520.006 41.404 519.894 41.796 519.67C42.1973 519.437 42.5147 519.105 42.748 518.676C42.9813 518.237 43.098 517.729 43.098 517.15ZM53.3429 513.328V521H52.0689V519.866C51.8263 520.258 51.4856 520.566 51.0469 520.79C50.6176 521.005 50.1416 521.112 49.6189 521.112C49.0216 521.112 48.4849 520.991 48.0089 520.748C47.5329 520.496 47.1549 520.123 46.8749 519.628C46.6043 519.133 46.4689 518.531 46.4689 517.822V513.328H47.7289V517.654C47.7289 518.41 47.9203 518.993 48.3029 519.404C48.6856 519.805 49.2083 520.006 49.8709 520.006C50.5523 520.006 51.0889 519.796 51.4809 519.376C51.8729 518.956 52.0689 518.345 52.0689 517.542V513.328H53.3429ZM64.72 513.188C65.3173 513.188 65.8493 513.314 66.316 513.566C66.7827 513.809 67.1513 514.177 67.422 514.672C67.6927 515.167 67.828 515.769 67.828 516.478V521H66.568V516.66C66.568 515.895 66.3767 515.311 65.994 514.91C65.6207 514.499 65.112 514.294 64.468 514.294C63.8053 514.294 63.278 514.509 62.886 514.938C62.494 515.358 62.298 515.969 62.298 516.772V521H61.038V516.66C61.038 515.895 60.8467 515.311 60.464 514.91C60.0907 514.499 59.582 514.294 58.938 514.294C58.2753 514.294 57.748 514.509 57.356 514.938C56.964 515.358 56.768 515.969 56.768 516.772V521H55.494V513.328H56.768V514.434C57.02 514.033 57.356 513.725 57.776 513.51C58.2053 513.295 58.6767 513.188 59.19 513.188C59.834 513.188 60.4033 513.333 60.898 513.622C61.3927 513.911 61.7613 514.336 62.004 514.896C62.2187 514.355 62.5733 513.935 63.068 513.636C63.5627 513.337 64.1133 513.188 64.72 513.188ZM79.1438 513.188C79.7412 513.188 80.2732 513.314 80.7398 513.566C81.2065 513.809 81.5752 514.177 81.8458 514.672C82.1165 515.167 82.2518 515.769 82.2518 516.478V521H80.9918V516.66C80.9918 515.895 80.8005 515.311 80.4178 514.91C80.0445 514.499 79.5358 514.294 78.8918 514.294C78.2292 514.294 77.7018 514.509 77.3098 514.938C76.9178 515.358 76.7218 515.969 76.7218 516.772V521H75.4618V516.66C75.4618 515.895 75.2705 515.311 74.8878 514.91C74.5145 514.499 74.0058 514.294 73.3618 514.294C72.6992 514.294 72.1718 514.509 71.7798 514.938C71.3878 515.358 71.1918 515.969 71.1918 516.772V521H69.9178V513.328H71.1918V514.434C71.4438 514.033 71.7798 513.725 72.1998 513.51C72.6292 513.295 73.1005 513.188 73.6138 513.188C74.2578 513.188 74.8272 513.333 75.3218 513.622C75.8165 513.911 76.1852 514.336 76.4278 514.896C76.6425 514.355 76.9972 513.935 77.4918 513.636C77.9865 513.337 78.5372 513.188 79.1438 513.188ZM90.9497 513.328L86.3297 524.612H85.0137L86.5257 520.916L83.4317 513.328H84.8457L87.2537 519.544L89.6337 513.328H90.9497ZM101.456 513.188C102.054 513.188 102.586 513.314 103.052 513.566C103.519 513.809 103.888 514.177 104.158 514.672C104.429 515.167 104.564 515.769 104.564 516.478V521H103.304V516.66C103.304 515.895 103.113 515.311 102.73 514.91C102.357 514.499 101.848 514.294 101.204 514.294C100.542 514.294 100.014 514.509 99.6223 514.938C99.2303 515.358 99.0343 515.969 99.0343 516.772V521H97.7743V516.66C97.7743 515.895 97.583 515.311 97.2003 514.91C96.827 514.499 96.3183 514.294 95.6743 514.294C95.0117 514.294 94.4843 514.509 94.0923 514.938C93.7003 515.358 93.5043 515.969 93.5043 516.772V521H92.2303V513.328H93.5043V514.434C93.7563 514.033 94.0923 513.725 94.5123 513.51C94.9417 513.295 95.413 513.188 95.9263 513.188C96.5703 513.188 97.1397 513.333 97.6343 513.622C98.129 513.911 98.4977 514.336 98.7403 514.896C98.955 514.355 99.3097 513.935 99.8043 513.636C100.299 513.337 100.85 513.188 101.456 513.188ZM106.178 517.136C106.178 516.352 106.337 515.666 106.654 515.078C106.972 514.481 107.406 514.019 107.956 513.692C108.516 513.365 109.137 513.202 109.818 513.202C110.49 513.202 111.074 513.347 111.568 513.636C112.063 513.925 112.432 514.289 112.674 514.728V513.328H113.962V521H112.674V519.572C112.422 520.02 112.044 520.393 111.54 520.692C111.046 520.981 110.467 521.126 109.804 521.126C109.123 521.126 108.507 520.958 107.956 520.622C107.406 520.286 106.972 519.815 106.654 519.208C106.337 518.601 106.178 517.911 106.178 517.136ZM112.674 517.15C112.674 516.571 112.558 516.067 112.324 515.638C112.091 515.209 111.774 514.882 111.372 514.658C110.98 514.425 110.546 514.308 110.07 514.308C109.594 514.308 109.16 514.42 108.768 514.644C108.376 514.868 108.064 515.195 107.83 515.624C107.597 516.053 107.48 516.557 107.48 517.136C107.48 517.724 107.597 518.237 107.83 518.676C108.064 519.105 108.376 519.437 108.768 519.67C109.16 519.894 109.594 520.006 110.07 520.006C110.546 520.006 110.98 519.894 111.372 519.67C111.774 519.437 112.091 519.105 112.324 518.676C112.558 518.237 112.674 517.729 112.674 517.15ZM116.773 512.082C116.53 512.082 116.325 511.998 116.157 511.83C115.989 511.662 115.905 511.457 115.905 511.214C115.905 510.971 115.989 510.766 116.157 510.598C116.325 510.43 116.53 510.346 116.773 510.346C117.006 510.346 117.202 510.43 117.361 510.598C117.529 510.766 117.613 510.971 117.613 511.214C117.613 511.457 117.529 511.662 117.361 511.83C117.202 511.998 117.006 512.082 116.773 512.082ZM117.389 513.328V521H116.115V513.328H117.389ZM120.834 510.64V521H119.56V510.64H120.834ZM130.006 512.026C131.042 512.026 131.942 512.222 132.708 512.614C133.473 513.006 134.061 513.557 134.472 514.266C134.882 514.966 135.088 515.778 135.088 516.702C135.088 517.439 134.966 518.149 134.724 518.83C134.481 519.502 134.126 520.048 133.66 520.468C133.202 520.888 132.666 521.098 132.05 521.098C131.583 521.098 131.224 520.981 130.972 520.748C130.72 520.515 130.575 520.197 130.538 519.796C130.248 520.197 129.88 520.515 129.432 520.748C128.993 520.981 128.526 521.098 128.032 521.098C127.322 521.098 126.762 520.883 126.352 520.454C125.95 520.015 125.75 519.427 125.75 518.69C125.75 517.99 125.894 517.337 126.184 516.73C126.482 516.123 126.893 515.638 127.416 515.274C127.938 514.901 128.531 514.714 129.194 514.714C130.08 514.714 130.678 515.05 130.986 515.722L131.14 514.854H132.246L131.546 518.9C131.518 519.077 131.504 519.241 131.504 519.39C131.504 519.95 131.751 520.23 132.246 520.23C132.619 520.23 132.941 520.053 133.212 519.698C133.492 519.343 133.702 518.9 133.842 518.368C133.982 517.827 134.052 517.295 134.052 516.772C134.052 515.549 133.683 514.602 132.946 513.93C132.218 513.258 131.186 512.922 129.852 512.922C128.741 512.922 127.738 513.193 126.842 513.734C125.955 514.266 125.26 514.999 124.756 515.932C124.252 516.865 124 517.897 124 519.026C123.99 520.258 124.359 521.205 125.106 521.868C125.852 522.54 126.888 522.876 128.214 522.876C129.091 522.876 129.866 522.717 130.538 522.4L130.706 523.268C129.875 523.613 128.96 523.786 127.962 523.786C126.963 523.786 126.081 523.595 125.316 523.212C124.56 522.839 123.972 522.297 123.552 521.588C123.141 520.888 122.936 520.071 122.936 519.138C122.936 517.822 123.239 516.623 123.846 515.54C124.452 514.448 125.292 513.589 126.366 512.964C127.448 512.339 128.662 512.026 130.006 512.026ZM128.41 520.104C128.83 520.104 129.217 519.983 129.572 519.74C129.926 519.488 130.206 519.152 130.412 518.732C130.617 518.303 130.72 517.836 130.72 517.332C130.72 516.847 130.584 516.455 130.314 516.156C130.052 515.848 129.679 515.694 129.194 515.694C128.746 515.694 128.349 515.829 128.004 516.1C127.668 516.361 127.406 516.711 127.22 517.15C127.033 517.579 126.94 518.027 126.94 518.494C126.94 518.989 127.066 519.381 127.318 519.67C127.57 519.959 127.934 520.104 128.41 520.104ZM140.347 513.202C141.01 513.202 141.589 513.347 142.083 513.636C142.587 513.925 142.961 514.289 143.203 514.728V513.328H144.491V521.168C144.491 521.868 144.342 522.489 144.043 523.03C143.745 523.581 143.315 524.01 142.755 524.318C142.205 524.626 141.561 524.78 140.823 524.78C139.815 524.78 138.975 524.542 138.303 524.066C137.631 523.59 137.235 522.941 137.113 522.12H138.373C138.513 522.587 138.803 522.96 139.241 523.24C139.68 523.529 140.207 523.674 140.823 523.674C141.523 523.674 142.093 523.455 142.531 523.016C142.979 522.577 143.203 521.961 143.203 521.168V519.558C142.951 520.006 142.578 520.379 142.083 520.678C141.589 520.977 141.01 521.126 140.347 521.126C139.666 521.126 139.045 520.958 138.485 520.622C137.935 520.286 137.501 519.815 137.183 519.208C136.866 518.601 136.707 517.911 136.707 517.136C136.707 516.352 136.866 515.666 137.183 515.078C137.501 514.481 137.935 514.019 138.485 513.692C139.045 513.365 139.666 513.202 140.347 513.202ZM143.203 517.15C143.203 516.571 143.087 516.067 142.853 515.638C142.62 515.209 142.303 514.882 141.901 514.658C141.509 514.425 141.075 514.308 140.599 514.308C140.123 514.308 139.689 514.42 139.297 514.644C138.905 514.868 138.593 515.195 138.359 515.624C138.126 516.053 138.009 516.557 138.009 517.136C138.009 517.724 138.126 518.237 138.359 518.676C138.593 519.105 138.905 519.437 139.297 519.67C139.689 519.894 140.123 520.006 140.599 520.006C141.075 520.006 141.509 519.894 141.901 519.67C142.303 519.437 142.62 519.105 142.853 518.676C143.087 518.237 143.203 517.729 143.203 517.15ZM155.87 513.188C156.468 513.188 157 513.314 157.466 513.566C157.933 513.809 158.302 514.177 158.572 514.672C158.843 515.167 158.978 515.769 158.978 516.478V521H157.718V516.66C157.718 515.895 157.527 515.311 157.144 514.91C156.771 514.499 156.262 514.294 155.618 514.294C154.956 514.294 154.428 514.509 154.036 514.938C153.644 515.358 153.448 515.969 153.448 516.772V521H152.188V516.66C152.188 515.895 151.997 515.311 151.614 514.91C151.241 514.499 150.732 514.294 150.088 514.294C149.426 514.294 148.898 514.509 148.506 514.938C148.114 515.358 147.918 515.969 147.918 516.772V521H146.644V513.328H147.918V514.434C148.17 514.033 148.506 513.725 148.926 513.51C149.356 513.295 149.827 513.188 150.34 513.188C150.984 513.188 151.554 513.333 152.048 513.622C152.543 513.911 152.912 514.336 153.154 514.896C153.369 514.355 153.724 513.935 154.218 513.636C154.713 513.337 155.264 513.188 155.87 513.188ZM160.592 517.136C160.592 516.352 160.751 515.666 161.068 515.078C161.386 514.481 161.82 514.019 162.37 513.692C162.93 513.365 163.551 513.202 164.232 513.202C164.904 513.202 165.488 513.347 165.982 513.636C166.477 513.925 166.846 514.289 167.088 514.728V513.328H168.376V521H167.088V519.572C166.836 520.02 166.458 520.393 165.954 520.692C165.46 520.981 164.881 521.126 164.218 521.126C163.537 521.126 162.921 520.958 162.37 520.622C161.82 520.286 161.386 519.815 161.068 519.208C160.751 518.601 160.592 517.911 160.592 517.136ZM167.088 517.15C167.088 516.571 166.972 516.067 166.738 515.638C166.505 515.209 166.188 514.882 165.786 514.658C165.394 514.425 164.96 514.308 164.484 514.308C164.008 514.308 163.574 514.42 163.182 514.644C162.79 514.868 162.478 515.195 162.244 515.624C162.011 516.053 161.894 516.557 161.894 517.136C161.894 517.724 162.011 518.237 162.244 518.676C162.478 519.105 162.79 519.437 163.182 519.67C163.574 519.894 164.008 520.006 164.484 520.006C164.96 520.006 165.394 519.894 165.786 519.67C166.188 519.437 166.505 519.105 166.738 518.676C166.972 518.237 167.088 517.729 167.088 517.15ZM171.187 512.082C170.945 512.082 170.739 511.998 170.571 511.83C170.403 511.662 170.319 511.457 170.319 511.214C170.319 510.971 170.403 510.766 170.571 510.598C170.739 510.43 170.945 510.346 171.187 510.346C171.421 510.346 171.617 510.43 171.775 510.598C171.943 510.766 172.027 510.971 172.027 511.214C172.027 511.457 171.943 511.662 171.775 511.83C171.617 511.998 171.421 512.082 171.187 512.082ZM171.803 513.328V521H170.529V513.328H171.803ZM175.248 510.64V521H173.974V510.64H175.248ZM177.826 521.084C177.583 521.084 177.378 521 177.21 520.832C177.042 520.664 176.958 520.459 176.958 520.216C176.958 519.973 177.042 519.768 177.21 519.6C177.378 519.432 177.583 519.348 177.826 519.348C178.059 519.348 178.255 519.432 178.414 519.6C178.582 519.768 178.666 519.973 178.666 520.216C178.666 520.459 178.582 520.664 178.414 520.832C178.255 521 178.059 521.084 177.826 521.084ZM179.883 517.15C179.883 516.357 180.042 515.666 180.359 515.078C180.677 514.481 181.115 514.019 181.675 513.692C182.245 513.365 182.893 513.202 183.621 513.202C184.564 513.202 185.339 513.431 185.945 513.888C186.561 514.345 186.967 514.98 187.163 515.792H185.791C185.661 515.325 185.404 514.957 185.021 514.686C184.648 514.415 184.181 514.28 183.621 514.28C182.893 514.28 182.305 514.532 181.857 515.036C181.409 515.531 181.185 516.235 181.185 517.15C181.185 518.074 181.409 518.788 181.857 519.292C182.305 519.796 182.893 520.048 183.621 520.048C184.181 520.048 184.648 519.917 185.021 519.656C185.395 519.395 185.651 519.021 185.791 518.536H187.163C186.958 519.32 186.547 519.95 185.931 520.426C185.315 520.893 184.545 521.126 183.621 521.126C182.893 521.126 182.245 520.963 181.675 520.636C181.115 520.309 180.677 519.847 180.359 519.25C180.042 518.653 179.883 517.953 179.883 517.15ZM192.209 521.126C191.49 521.126 190.837 520.963 190.249 520.636C189.67 520.309 189.213 519.847 188.877 519.25C188.55 518.643 188.387 517.943 188.387 517.15C188.387 516.366 188.555 515.675 188.891 515.078C189.236 514.471 189.703 514.009 190.291 513.692C190.879 513.365 191.537 513.202 192.265 513.202C192.993 513.202 193.651 513.365 194.239 513.692C194.827 514.009 195.289 514.467 195.625 515.064C195.97 515.661 196.143 516.357 196.143 517.15C196.143 517.943 195.966 518.643 195.611 519.25C195.266 519.847 194.794 520.309 194.197 520.636C193.6 520.963 192.937 521.126 192.209 521.126ZM192.209 520.006C192.666 520.006 193.096 519.899 193.497 519.684C193.898 519.469 194.22 519.147 194.463 518.718C194.715 518.289 194.841 517.766 194.841 517.15C194.841 516.534 194.72 516.011 194.477 515.582C194.234 515.153 193.917 514.835 193.525 514.63C193.133 514.415 192.708 514.308 192.251 514.308C191.784 514.308 191.355 514.415 190.963 514.63C190.58 514.835 190.272 515.153 190.039 515.582C189.806 516.011 189.689 516.534 189.689 517.15C189.689 517.775 189.801 518.303 190.025 518.732C190.258 519.161 190.566 519.483 190.949 519.698C191.332 519.903 191.752 520.006 192.209 520.006ZM207.044 513.188C207.642 513.188 208.174 513.314 208.64 513.566C209.107 513.809 209.476 514.177 209.746 514.672C210.017 515.167 210.152 515.769 210.152 516.478V521H208.892V516.66C208.892 515.895 208.701 515.311 208.318 514.91C207.945 514.499 207.436 514.294 206.792 514.294C206.13 514.294 205.602 514.509 205.21 514.938C204.818 515.358 204.622 515.969 204.622 516.772V521H203.362V516.66C203.362 515.895 203.171 515.311 202.788 514.91C202.415 514.499 201.906 514.294 201.262 514.294C200.6 514.294 200.072 514.509 199.68 514.938C199.288 515.358 199.092 515.969 199.092 516.772V521H197.818V513.328H199.092V514.434C199.344 514.033 199.68 513.725 200.1 513.51C200.53 513.295 201.001 513.188 201.514 513.188C202.158 513.188 202.728 513.333 203.222 513.622C203.717 513.911 204.086 514.336 204.328 514.896C204.543 514.355 204.898 513.935 205.392 513.636C205.887 513.337 206.438 513.188 207.044 513.188Z" fill="#000407"/>
<g clip-path="url(#clip1)">
<path d="M368.736 507.259C368.385 506.914 367.815 506.914 367.464 507.259L356.681 517.863L352.536 513.787C352.185 513.442 351.615 513.442 351.264 513.787C350.912 514.133 350.912 514.693 351.264 515.039L356.045 519.741C356.396 520.087 356.966 520.086 357.317 519.741L368.736 508.511C369.088 508.165 369.088 507.605 368.736 507.259Z" fill="#000407"/>
</g>
<line x1="34" y1="624.5" x2="384" y2="624.5" stroke="#BFBFBF"/>
<path d="M41.602 566.098C41.602 566.91 41.322 567.587 40.762 568.128C40.2113 568.66 39.3667 568.926 38.228 568.926H36.352V573H35.078V563.242H38.228C39.3293 563.242 40.1647 563.508 40.734 564.04C41.3127 564.572 41.602 565.258 41.602 566.098ZM38.228 567.876C38.9373 567.876 39.46 567.722 39.796 567.414C40.132 567.106 40.3 566.667 40.3 566.098C40.3 564.894 39.6093 564.292 38.228 564.292H36.352V567.876H38.228ZM42.7094 569.136C42.7094 568.352 42.8681 567.666 43.1854 567.078C43.5028 566.481 43.9368 566.019 44.4874 565.692C45.0474 565.365 45.6681 565.202 46.3494 565.202C47.0214 565.202 47.6048 565.347 48.0994 565.636C48.5941 565.925 48.9628 566.289 49.2054 566.728V565.328H50.4934V573H49.2054V571.572C48.9534 572.02 48.5754 572.393 48.0714 572.692C47.5768 572.981 46.9981 573.126 46.3354 573.126C45.6541 573.126 45.0381 572.958 44.4874 572.622C43.9368 572.286 43.5028 571.815 43.1854 571.208C42.8681 570.601 42.7094 569.911 42.7094 569.136ZM49.2054 569.15C49.2054 568.571 49.0888 568.067 48.8554 567.638C48.6221 567.209 48.3048 566.882 47.9034 566.658C47.5114 566.425 47.0774 566.308 46.6014 566.308C46.1254 566.308 45.6914 566.42 45.2994 566.644C44.9074 566.868 44.5948 567.195 44.3614 567.624C44.1281 568.053 44.0114 568.557 44.0114 569.136C44.0114 569.724 44.1281 570.237 44.3614 570.676C44.5948 571.105 44.9074 571.437 45.2994 571.67C45.6914 571.894 46.1254 572.006 46.6014 572.006C47.0774 572.006 47.5114 571.894 47.9034 571.67C48.3048 571.437 48.6221 571.105 48.8554 570.676C49.0888 570.237 49.2054 569.729 49.2054 569.15ZM55.3624 573.126C54.7744 573.126 54.247 573.028 53.7804 572.832C53.3137 572.627 52.945 572.347 52.6744 571.992C52.4037 571.628 52.2544 571.213 52.2264 570.746H53.5424C53.5797 571.129 53.757 571.441 54.0744 571.684C54.401 571.927 54.8257 572.048 55.3484 572.048C55.8337 572.048 56.2164 571.941 56.4964 571.726C56.7764 571.511 56.9164 571.241 56.9164 570.914C56.9164 570.578 56.767 570.331 56.4684 570.172C56.1697 570.004 55.7077 569.841 55.0824 569.682C54.513 569.533 54.0464 569.383 53.6824 569.234C53.3277 569.075 53.0197 568.847 52.7584 568.548C52.5064 568.24 52.3804 567.839 52.3804 567.344C52.3804 566.952 52.497 566.593 52.7304 566.266C52.9637 565.939 53.295 565.683 53.7244 565.496C54.1537 565.3 54.6437 565.202 55.1944 565.202C56.0437 565.202 56.7297 565.417 57.2524 565.846C57.775 566.275 58.055 566.863 58.0924 567.61H56.8184C56.7904 567.209 56.627 566.887 56.3284 566.644C56.039 566.401 55.647 566.28 55.1524 566.28C54.695 566.28 54.331 566.378 54.0604 566.574C53.7897 566.77 53.6544 567.027 53.6544 567.344C53.6544 567.596 53.7337 567.806 53.8924 567.974C54.0604 568.133 54.2657 568.263 54.5084 568.366C54.7604 568.459 55.1057 568.567 55.5444 568.688C56.095 568.837 56.543 568.987 56.8884 569.136C57.2337 569.276 57.5277 569.491 57.7704 569.78C58.0224 570.069 58.153 570.447 58.1624 570.914C58.1624 571.334 58.0457 571.712 57.8124 572.048C57.579 572.384 57.2477 572.65 56.8184 572.846C56.3984 573.033 55.913 573.126 55.3624 573.126ZM62.6768 573.126C62.0888 573.126 61.5615 573.028 61.0948 572.832C60.6281 572.627 60.2595 572.347 59.9888 571.992C59.7181 571.628 59.5688 571.213 59.5408 570.746H60.8568C60.8941 571.129 61.0715 571.441 61.3888 571.684C61.7155 571.927 62.1401 572.048 62.6628 572.048C63.1481 572.048 63.5308 571.941 63.8108 571.726C64.0908 571.511 64.2308 571.241 64.2308 570.914C64.2308 570.578 64.0815 570.331 63.7828 570.172C63.4841 570.004 63.0221 569.841 62.3968 569.682C61.8275 569.533 61.3608 569.383 60.9968 569.234C60.6421 569.075 60.3341 568.847 60.0728 568.548C59.8208 568.24 59.6948 567.839 59.6948 567.344C59.6948 566.952 59.8115 566.593 60.0448 566.266C60.2781 565.939 60.6095 565.683 61.0388 565.496C61.4681 565.3 61.9581 565.202 62.5088 565.202C63.3581 565.202 64.0441 565.417 64.5668 565.846C65.0895 566.275 65.3695 566.863 65.4068 567.61H64.1328C64.1048 567.209 63.9415 566.887 63.6428 566.644C63.3535 566.401 62.9615 566.28 62.4668 566.28C62.0095 566.28 61.6455 566.378 61.3748 566.574C61.1041 566.77 60.9688 567.027 60.9688 567.344C60.9688 567.596 61.0481 567.806 61.2068 567.974C61.3748 568.133 61.5801 568.263 61.8228 568.366C62.0748 568.459 62.4201 568.567 62.8588 568.688C63.4095 568.837 63.8575 568.987 64.2028 569.136C64.5481 569.276 64.8421 569.491 65.0848 569.78C65.3368 570.069 65.4675 570.447 65.4768 570.914C65.4768 571.334 65.3601 571.712 65.1268 572.048C64.8935 572.384 64.5621 572.65 64.1328 572.846C63.7128 573.033 63.2275 573.126 62.6768 573.126ZM77.4953 565.328L75.1013 573H73.7853L71.9373 566.91L70.0893 573H68.7733L66.3653 565.328H67.6673L69.4313 571.768L71.3353 565.328H72.6373L74.4993 571.782L76.2353 565.328H77.4953ZM82.1056 573.126C81.387 573.126 80.7336 572.963 80.1456 572.636C79.567 572.309 79.1096 571.847 78.7736 571.25C78.447 570.643 78.2836 569.943 78.2836 569.15C78.2836 568.366 78.4516 567.675 78.7876 567.078C79.133 566.471 79.5996 566.009 80.1876 565.692C80.7756 565.365 81.4336 565.202 82.1616 565.202C82.8896 565.202 83.5476 565.365 84.1356 565.692C84.7236 566.009 85.1856 566.467 85.5216 567.064C85.867 567.661 86.0396 568.357 86.0396 569.15C86.0396 569.943 85.8623 570.643 85.5076 571.25C85.1623 571.847 84.691 572.309 84.0936 572.636C83.4963 572.963 82.8336 573.126 82.1056 573.126ZM82.1056 572.006C82.563 572.006 82.9923 571.899 83.3936 571.684C83.795 571.469 84.117 571.147 84.3596 570.718C84.6116 570.289 84.7376 569.766 84.7376 569.15C84.7376 568.534 84.6163 568.011 84.3736 567.582C84.131 567.153 83.8136 566.835 83.4216 566.63C83.0296 566.415 82.605 566.308 82.1476 566.308C81.681 566.308 81.2516 566.415 80.8596 566.63C80.477 566.835 80.169 567.153 79.9356 567.582C79.7023 568.011 79.5856 568.534 79.5856 569.15C79.5856 569.775 79.6976 570.303 79.9216 570.732C80.155 571.161 80.463 571.483 80.8456 571.698C81.2283 571.903 81.6483 572.006 82.1056 572.006ZM88.9887 566.574C89.2127 566.135 89.5301 565.795 89.9407 565.552C90.3607 565.309 90.8694 565.188 91.4667 565.188V566.504H91.1307C89.7027 566.504 88.9887 567.279 88.9887 568.828V573H87.7147V565.328H88.9887V566.574ZM92.4614 569.136C92.4614 568.352 92.62 567.666 92.9374 567.078C93.2547 566.481 93.6887 566.019 94.2394 565.692C94.7994 565.365 95.4247 565.202 96.1154 565.202C96.7127 565.202 97.268 565.342 97.7814 565.622C98.2947 565.893 98.6867 566.252 98.9574 566.7V562.64H100.245V573H98.9574V571.558C98.7054 572.015 98.332 572.393 97.8374 572.692C97.3427 572.981 96.764 573.126 96.1014 573.126C95.42 573.126 94.7994 572.958 94.2394 572.622C93.6887 572.286 93.2547 571.815 92.9374 571.208C92.62 570.601 92.4614 569.911 92.4614 569.136ZM98.9574 569.15C98.9574 568.571 98.8407 568.067 98.6074 567.638C98.374 567.209 98.0567 566.882 97.6554 566.658C97.2634 566.425 96.8294 566.308 96.3534 566.308C95.8774 566.308 95.4434 566.42 95.0514 566.644C94.6594 566.868 94.3467 567.195 94.1134 567.624C93.88 568.053 93.7634 568.557 93.7634 569.136C93.7634 569.724 93.88 570.237 94.1134 570.676C94.3467 571.105 94.6594 571.437 95.0514 571.67C95.4434 571.894 95.8774 572.006 96.3534 572.006C96.8294 572.006 97.2634 571.894 97.6554 571.67C98.0567 571.437 98.374 571.105 98.6074 570.676C98.8407 570.237 98.9574 569.729 98.9574 569.15Z" fill="#BFBFBF"/>
<path d="M39.418 599.62L39.922 600.53L37.976 601.342L39.936 602.14L39.404 603.078L37.71 601.846L37.934 603.96H36.884L37.094 601.846L35.4 603.092L34.854 602.14L36.8 601.328L34.854 600.544L35.372 599.606L37.108 600.852L36.884 598.724H37.948L37.71 600.852L39.418 599.62ZM46.2266 599.62L46.7306 600.53L44.7846 601.342L46.7446 602.14L46.2126 603.078L44.5186 601.846L44.7426 603.96H43.6926L43.9026 601.846L42.2086 603.092L41.6626 602.14L43.6086 601.328L41.6626 600.544L42.1806 599.606L43.9166 600.852L43.6926 598.724H44.7566L44.5186 600.852L46.2266 599.62ZM53.0352 599.62L53.5392 600.53L51.5932 601.342L53.5532 602.14L53.0212 603.078L51.3272 601.846L51.5512 603.96H50.5012L50.7112 601.846L49.0172 603.092L48.4712 602.14L50.4172 601.328L48.4712 600.544L48.9892 599.606L50.7252 600.852L50.5012 598.724H51.5652L51.3272 600.852L53.0352 599.62ZM59.8438 599.62L60.3478 600.53L58.4018 601.342L60.3618 602.14L59.8298 603.078L58.1358 601.846L58.3598 603.96H57.3098L57.5198 601.846L55.8258 603.092L55.2798 602.14L57.2258 601.328L55.2798 600.544L55.7978 599.606L57.5338 600.852L57.3098 598.724H58.3738L58.1358 600.852L59.8438 599.62ZM66.6524 599.62L67.1564 600.53L65.2104 601.342L67.1704 602.14L66.6384 603.078L64.9444 601.846L65.1684 603.96H64.1184L64.3284 601.846L62.6344 603.092L62.0884 602.14L64.0344 601.328L62.0884 600.544L62.6064 599.606L64.3424 600.852L64.1184 598.724H65.1824L64.9444 600.852L66.6524 599.62ZM73.461 599.62L73.965 600.53L72.019 601.342L73.979 602.14L73.447 603.078L71.753 601.846L71.977 603.96H70.927L71.137 601.846L69.443 603.092L68.897 602.14L70.843 601.328L68.897 600.544L69.415 599.606L71.151 600.852L70.927 598.724H71.991L71.753 600.852L73.461 599.62ZM80.2696 599.62L80.7736 600.53L78.8276 601.342L80.7876 602.14L80.2556 603.078L78.5616 601.846L78.7856 603.96H77.7356L77.9456 601.846L76.2516 603.092L75.7056 602.14L77.6516 601.328L75.7056 600.544L76.2236 599.606L77.9596 600.852L77.7356 598.724H78.7996L78.5616 600.852L80.2696 599.62ZM87.0782 599.62L87.5822 600.53L85.6362 601.342L87.5962 602.14L87.0642 603.078L85.3702 601.846L85.5942 603.96H84.5442L84.7542 601.846L83.0602 603.092L82.5142 602.14L84.4602 601.328L82.5142 600.544L83.0322 599.606L84.7682 600.852L84.5442 598.724H85.6082L85.3702 600.852L87.0782 599.62Z" fill="#000407"/>
<g clip-path="url(#clip2)">
<path d="M356 597C352.561 597 349.442 599.104 347.141 602.522C346.953 602.802 346.953 603.194 347.141 603.474C349.442 606.896 352.561 609 356 609C359.439 609 362.558 606.896 364.859 603.478C365.047 603.198 365.047 602.806 364.859 602.526C362.558 599.104 359.439 597 356 597ZM356.247 607.225C353.964 607.386 352.079 605.281 352.222 602.724C352.34 600.616 353.868 598.907 355.753 598.775C358.036 598.614 359.921 600.719 359.778 603.276C359.656 605.38 358.128 607.089 356.247 607.225ZM356.133 605.273C354.903 605.36 353.886 604.227 353.967 602.852C354.03 601.715 354.855 600.797 355.871 600.723C357.101 600.636 358.117 601.769 358.036 603.144C357.97 604.285 357.145 605.203 356.133 605.273Z" fill="#8C8C8C"/>
</g>
<path d="M41.536 651.848V653.032H36.688V656.792H40.624V657.976H36.688V663H35.232V651.848H41.536ZM47.1185 663.144C46.2972 663.144 45.5505 662.957 44.8785 662.584C44.2172 662.211 43.6945 661.683 43.3105 661C42.9372 660.307 42.7505 659.507 42.7505 658.6C42.7505 657.704 42.9425 656.915 43.3265 656.232C43.7212 655.539 44.2545 655.011 44.9265 654.648C45.5985 654.275 46.3505 654.088 47.1825 654.088C48.0145 654.088 48.7665 654.275 49.4385 654.648C50.1105 655.011 50.6385 655.533 51.0225 656.216C51.4172 656.899 51.6145 657.693 51.6145 658.6C51.6145 659.507 51.4118 660.307 51.0065 661C50.6118 661.683 50.0732 662.211 49.3905 662.584C48.7078 662.957 47.9505 663.144 47.1185 663.144ZM47.1185 661.864C47.6412 661.864 48.1318 661.741 48.5905 661.496C49.0492 661.251 49.4172 660.883 49.6945 660.392C49.9825 659.901 50.1265 659.304 50.1265 658.6C50.1265 657.896 49.9878 657.299 49.7105 656.808C49.4332 656.317 49.0705 655.955 48.6225 655.72C48.1745 655.475 47.6892 655.352 47.1665 655.352C46.6332 655.352 46.1425 655.475 45.6945 655.72C45.2572 655.955 44.9052 656.317 44.6385 656.808C44.3718 657.299 44.2385 657.896 44.2385 658.6C44.2385 659.315 44.3665 659.917 44.6225 660.408C44.8892 660.899 45.2412 661.267 45.6785 661.512C46.1158 661.747 46.5958 661.864 47.1185 661.864ZM54.9849 655.656C55.2409 655.155 55.6035 654.765 56.0729 654.488C56.5529 654.211 57.1342 654.072 57.8169 654.072V655.576H57.4329C55.8009 655.576 54.9849 656.461 54.9849 658.232V663H53.5289V654.232H54.9849V655.656ZM63.1136 654.088C63.871 654.088 64.5323 654.253 65.0976 654.584C65.6736 654.915 66.1003 655.331 66.3776 655.832V654.232H67.8496V663.192C67.8496 663.992 67.679 664.701 67.3376 665.32C66.9963 665.949 66.5056 666.44 65.8656 666.792C65.2363 667.144 64.5003 667.32 63.6576 667.32C62.5056 667.32 61.5456 667.048 60.7776 666.504C60.0096 665.96 59.5563 665.219 59.4176 664.28H60.8576C61.0176 664.813 61.3483 665.24 61.8496 665.56C62.351 665.891 62.9536 666.056 63.6576 666.056C64.4576 666.056 65.1083 665.805 65.6096 665.304C66.1216 664.803 66.3776 664.099 66.3776 663.192V661.352C66.0896 661.864 65.663 662.291 65.0976 662.632C64.5323 662.973 63.871 663.144 63.1136 663.144C62.335 663.144 61.6256 662.952 60.9856 662.568C60.3563 662.184 59.8603 661.645 59.4976 660.952C59.135 660.259 58.9536 659.469 58.9536 658.584C58.9536 657.688 59.135 656.904 59.4976 656.232C59.8603 655.549 60.3563 655.021 60.9856 654.648C61.6256 654.275 62.335 654.088 63.1136 654.088ZM66.3776 658.6C66.3776 657.939 66.2443 657.363 65.9776 656.872C65.711 656.381 65.3483 656.008 64.8896 655.752C64.4416 655.485 63.9456 655.352 63.4016 655.352C62.8576 655.352 62.3616 655.48 61.9136 655.736C61.4656 655.992 61.1083 656.365 60.8416 656.856C60.575 657.347 60.4416 657.923 60.4416 658.584C60.4416 659.256 60.575 659.843 60.8416 660.344C61.1083 660.835 61.4656 661.213 61.9136 661.48C62.3616 661.736 62.8576 661.864 63.4016 661.864C63.9456 661.864 64.4416 661.736 64.8896 661.48C65.3483 661.213 65.711 660.835 65.9776 660.344C66.2443 659.843 66.3776 659.261 66.3776 658.6ZM74.1341 663.144C73.3128 663.144 72.5661 662.957 71.8941 662.584C71.2328 662.211 70.7101 661.683 70.3261 661C69.9528 660.307 69.7661 659.507 69.7661 658.6C69.7661 657.704 69.9581 656.915 70.3421 656.232C70.7368 655.539 71.2701 655.011 71.9421 654.648C72.6141 654.275 73.3661 654.088 74.1981 654.088C75.0301 654.088 75.7821 654.275 76.4541 654.648C77.1261 655.011 77.6541 655.533 78.0381 656.216C78.4328 656.899 78.6301 657.693 78.6301 658.6C78.6301 659.507 78.4275 660.307 78.0221 661C77.6275 661.683 77.0888 662.211 76.4061 662.584C75.7235 662.957 74.9661 663.144 74.1341 663.144ZM74.1341 661.864C74.6568 661.864 75.1475 661.741 75.6061 661.496C76.0648 661.251 76.4328 660.883 76.7101 660.392C76.9981 659.901 77.1421 659.304 77.1421 658.6C77.1421 657.896 77.0035 657.299 76.7261 656.808C76.4488 656.317 76.0861 655.955 75.6381 655.72C75.1901 655.475 74.7048 655.352 74.1821 655.352C73.6488 655.352 73.1581 655.475 72.7101 655.72C72.2728 655.955 71.9208 656.317 71.6541 656.808C71.3875 657.299 71.2541 657.896 71.2541 658.6C71.2541 659.315 71.3821 659.917 71.6381 660.408C71.9048 660.899 72.2568 661.267 72.6941 661.512C73.1315 661.747 73.6115 661.864 74.1341 661.864ZM82.3205 655.432V660.6C82.3205 661.027 82.4112 661.331 82.5925 661.512C82.7738 661.683 83.0885 661.768 83.5365 661.768H84.6085V663H83.2965C82.4858 663 81.8778 662.813 81.4725 662.44C81.0672 662.067 80.8645 661.453 80.8645 660.6V655.432H79.7285V654.232H80.8645V652.024H82.3205V654.232H84.6085V655.432H82.3205ZM98.0943 655.112C98.0943 656.04 97.7743 656.813 97.1343 657.432C96.5049 658.04 95.5396 658.344 94.2383 658.344H92.0943V663H90.6383V651.848H94.2383C95.4969 651.848 96.4516 652.152 97.1023 652.76C97.7636 653.368 98.0943 654.152 98.0943 655.112ZM94.2383 657.144C95.0489 657.144 95.6463 656.968 96.0303 656.616C96.4143 656.264 96.6063 655.763 96.6063 655.112C96.6063 653.736 95.8169 653.048 94.2383 653.048H92.0943V657.144H94.2383ZM99.3599 658.584C99.3599 657.688 99.5412 656.904 99.9039 656.232C100.267 655.549 100.763 655.021 101.392 654.648C102.032 654.275 102.741 654.088 103.52 654.088C104.288 654.088 104.955 654.253 105.52 654.584C106.085 654.915 106.507 655.331 106.784 655.832V654.232H108.256V663H106.784V661.368C106.496 661.88 106.064 662.307 105.488 662.648C104.923 662.979 104.261 663.144 103.504 663.144C102.725 663.144 102.021 662.952 101.392 662.568C100.763 662.184 100.267 661.645 99.9039 660.952C99.5412 660.259 99.3599 659.469 99.3599 658.584ZM106.784 658.6C106.784 657.939 106.651 657.363 106.384 656.872C106.117 656.381 105.755 656.008 105.296 655.752C104.848 655.485 104.352 655.352 103.808 655.352C103.264 655.352 102.768 655.48 102.32 655.736C101.872 655.992 101.515 656.365 101.248 656.856C100.981 657.347 100.848 657.923 100.848 658.584C100.848 659.256 100.981 659.843 101.248 660.344C101.515 660.835 101.872 661.213 102.32 661.48C102.768 661.736 103.264 661.864 103.808 661.864C104.352 661.864 104.848 661.736 105.296 661.48C105.755 661.213 106.117 660.835 106.384 660.344C106.651 659.843 106.784 659.261 106.784 658.6ZM113.82 663.144C113.148 663.144 112.546 663.032 112.012 662.808C111.479 662.573 111.058 662.253 110.748 661.848C110.439 661.432 110.268 660.957 110.236 660.424H111.74C111.783 660.861 111.986 661.219 112.348 661.496C112.722 661.773 113.207 661.912 113.804 661.912C114.359 661.912 114.796 661.789 115.116 661.544C115.436 661.299 115.596 660.989 115.596 660.616C115.596 660.232 115.426 659.949 115.084 659.768C114.743 659.576 114.215 659.389 113.5 659.208C112.85 659.037 112.316 658.867 111.9 658.696C111.495 658.515 111.143 658.253 110.844 657.912C110.556 657.56 110.412 657.101 110.412 656.536C110.412 656.088 110.546 655.677 110.812 655.304C111.079 654.931 111.458 654.637 111.948 654.424C112.439 654.2 112.999 654.088 113.628 654.088C114.599 654.088 115.383 654.333 115.98 654.824C116.578 655.315 116.898 655.987 116.94 656.84H115.484C115.452 656.381 115.266 656.013 114.924 655.736C114.594 655.459 114.146 655.32 113.58 655.32C113.058 655.32 112.642 655.432 112.332 655.656C112.023 655.88 111.868 656.173 111.868 656.536C111.868 656.824 111.959 657.064 112.14 657.256C112.332 657.437 112.567 657.587 112.844 657.704C113.132 657.811 113.527 657.933 114.028 658.072C114.658 658.243 115.17 658.413 115.564 658.584C115.959 658.744 116.295 658.989 116.572 659.32C116.86 659.651 117.01 660.083 117.02 660.616C117.02 661.096 116.887 661.528 116.62 661.912C116.354 662.296 115.975 662.6 115.484 662.824C115.004 663.037 114.45 663.144 113.82 663.144ZM122.18 663.144C121.508 663.144 120.905 663.032 120.372 662.808C119.838 662.573 119.417 662.253 119.108 661.848C118.798 661.432 118.628 660.957 118.596 660.424H120.1C120.142 660.861 120.345 661.219 120.708 661.496C121.081 661.773 121.566 661.912 122.164 661.912C122.718 661.912 123.156 661.789 123.476 661.544C123.796 661.299 123.956 660.989 123.956 660.616C123.956 660.232 123.785 659.949 123.444 659.768C123.102 659.576 122.574 659.389 121.86 659.208C121.209 659.037 120.676 658.867 120.26 658.696C119.854 658.515 119.502 658.253 119.204 657.912C118.916 657.56 118.772 657.101 118.772 656.536C118.772 656.088 118.905 655.677 119.172 655.304C119.438 654.931 119.817 654.637 120.308 654.424C120.798 654.2 121.358 654.088 121.988 654.088C122.958 654.088 123.742 654.333 124.34 654.824C124.937 655.315 125.257 655.987 125.3 656.84H123.844C123.812 656.381 123.625 656.013 123.284 655.736C122.953 655.459 122.505 655.32 121.94 655.32C121.417 655.32 121.001 655.432 120.692 655.656C120.382 655.88 120.228 656.173 120.228 656.536C120.228 656.824 120.318 657.064 120.5 657.256C120.692 657.437 120.926 657.587 121.204 657.704C121.492 657.811 121.886 657.933 122.388 658.072C123.017 658.243 123.529 658.413 123.924 658.584C124.318 658.744 124.654 658.989 124.932 659.32C125.22 659.651 125.369 660.083 125.38 660.616C125.38 661.096 125.246 661.528 124.98 661.912C124.713 662.296 124.334 662.6 123.844 662.824C123.364 663.037 122.809 663.144 122.18 663.144ZM139.115 654.232L136.379 663H134.875L132.763 656.04L130.651 663H129.147L126.395 654.232H127.883L129.899 661.592L132.075 654.232H133.563L135.691 661.608L137.675 654.232H139.115ZM144.384 663.144C143.563 663.144 142.816 662.957 142.144 662.584C141.483 662.211 140.96 661.683 140.576 661C140.203 660.307 140.016 659.507 140.016 658.6C140.016 657.704 140.208 656.915 140.592 656.232C140.987 655.539 141.52 655.011 142.192 654.648C142.864 654.275 143.616 654.088 144.448 654.088C145.28 654.088 146.032 654.275 146.704 654.648C147.376 655.011 147.904 655.533 148.288 656.216C148.683 656.899 148.88 657.693 148.88 658.6C148.88 659.507 148.677 660.307 148.272 661C147.877 661.683 147.339 662.211 146.656 662.584C145.973 662.957 145.216 663.144 144.384 663.144ZM144.384 661.864C144.907 661.864 145.397 661.741 145.856 661.496C146.315 661.251 146.683 660.883 146.96 660.392C147.248 659.901 147.392 659.304 147.392 658.6C147.392 657.896 147.253 657.299 146.976 656.808C146.699 656.317 146.336 655.955 145.888 655.72C145.44 655.475 144.955 655.352 144.432 655.352C143.899 655.352 143.408 655.475 142.96 655.72C142.523 655.955 142.171 656.317 141.904 656.808C141.637 657.299 141.504 657.896 141.504 658.6C141.504 659.315 141.632 659.917 141.888 660.408C142.155 660.899 142.507 661.267 142.944 661.512C143.381 661.747 143.861 661.864 144.384 661.864ZM152.251 655.656C152.507 655.155 152.869 654.765 153.339 654.488C153.819 654.211 154.4 654.072 155.083 654.072V655.576H154.699C153.067 655.576 152.251 656.461 152.251 658.232V663H150.795V654.232H152.251V655.656ZM156.219 658.584C156.219 657.688 156.401 656.904 156.763 656.232C157.126 655.549 157.622 655.021 158.251 654.648C158.891 654.275 159.606 654.088 160.395 654.088C161.078 654.088 161.713 654.248 162.299 654.568C162.886 654.877 163.334 655.288 163.643 655.8V651.16H165.115V663H163.643V661.352C163.355 661.875 162.929 662.307 162.363 662.648C161.798 662.979 161.137 663.144 160.379 663.144C159.601 663.144 158.891 662.952 158.251 662.568C157.622 662.184 157.126 661.645 156.763 660.952C156.401 660.259 156.219 659.469 156.219 658.584ZM163.643 658.6C163.643 657.939 163.51 657.363 163.243 656.872C162.977 656.381 162.614 656.008 162.155 655.752C161.707 655.485 161.211 655.352 160.667 655.352C160.123 655.352 159.627 655.48 159.179 655.736C158.731 655.992 158.374 656.365 158.107 656.856C157.841 657.347 157.707 657.923 157.707 658.584C157.707 659.256 157.841 659.843 158.107 660.344C158.374 660.835 158.731 661.213 159.179 661.48C159.627 661.736 160.123 661.864 160.667 661.864C161.211 661.864 161.707 661.736 162.155 661.48C162.614 661.213 162.977 660.835 163.243 660.344C163.51 659.843 163.643 659.261 163.643 658.6ZM170.424 651.704C171.48 651.704 172.333 652.003 172.984 652.6C173.634 653.197 173.96 653.997 173.96 655C173.96 656.12 173.613 656.952 172.92 657.496C172.226 658.029 171.288 658.296 170.104 658.296L170.056 659.816H168.792L168.728 657.288H169.192C170.248 657.288 171.074 657.128 171.672 656.808C172.269 656.488 172.568 655.885 172.568 655C172.568 654.36 172.376 653.853 171.992 653.48C171.608 653.107 171.09 652.92 170.44 652.92C169.778 652.92 169.256 653.101 168.872 653.464C168.498 653.816 168.312 654.301 168.312 654.92H166.936C166.936 654.28 167.08 653.72 167.368 653.24C167.656 652.749 168.061 652.371 168.584 652.104C169.117 651.837 169.73 651.704 170.424 651.704ZM169.416 663.096C169.138 663.096 168.904 663 168.712 662.808C168.52 662.616 168.424 662.381 168.424 662.104C168.424 661.827 168.52 661.592 168.712 661.4C168.904 661.208 169.138 661.112 169.416 661.112C169.682 661.112 169.906 661.208 170.088 661.4C170.28 661.592 170.376 661.827 170.376 662.104C170.376 662.381 170.28 662.616 170.088 662.808C169.906 663 169.682 663.096 169.416 663.096Z" fill="#000407"/>
<rect x="36" y="768" width="350" height="70" rx="10" fill="#EDB518"/>
<path d="M188.843 809.144C187.943 809.144 187.079 809.012 186.251 808.748C185.435 808.472 184.781 808.106 184.289 807.65C184.109 807.482 184.019 807.272 184.019 807.02C184.019 806.852 184.067 806.708 184.163 806.588C184.259 806.456 184.373 806.39 184.505 806.39C184.661 806.39 184.829 806.456 185.009 806.588C186.125 807.452 187.397 807.884 188.825 807.884C189.857 807.884 190.649 807.686 191.201 807.29C191.753 806.894 192.029 806.33 192.029 805.598C192.029 805.178 191.897 804.842 191.633 804.59C191.369 804.326 191.021 804.116 190.589 803.96C190.157 803.804 189.575 803.642 188.843 803.474C187.859 803.246 187.049 803.006 186.413 802.754C185.789 802.502 185.279 802.142 184.883 801.674C184.499 801.206 184.307 800.594 184.307 799.838C184.307 799.118 184.499 798.482 184.883 797.93C185.279 797.366 185.825 796.934 186.521 796.634C187.229 796.322 188.033 796.166 188.933 796.166C189.773 796.166 190.553 796.298 191.273 796.562C192.005 796.814 192.617 797.18 193.109 797.66C193.301 797.852 193.397 798.062 193.397 798.29C193.397 798.458 193.349 798.608 193.253 798.74C193.157 798.86 193.043 798.92 192.911 798.92C192.779 798.92 192.605 798.854 192.389 798.722C191.801 798.242 191.255 797.906 190.751 797.714C190.247 797.522 189.641 797.426 188.933 797.426C187.937 797.426 187.163 797.636 186.611 798.056C186.059 798.464 185.783 799.04 185.783 799.784C185.783 800.42 186.023 800.9 186.503 801.224C186.995 801.536 187.745 801.812 188.753 802.052C189.845 802.316 190.703 802.562 191.327 802.79C191.951 803.006 192.467 803.336 192.875 803.78C193.295 804.224 193.505 804.818 193.505 805.562C193.505 806.27 193.307 806.894 192.911 807.434C192.527 807.974 191.981 808.394 191.273 808.694C190.565 808.994 189.755 809.144 188.843 809.144ZM196.424 809.09C196.208 809.09 196.028 809.03 195.884 808.91C195.752 808.778 195.686 808.598 195.686 808.37V800.774C195.686 800.546 195.752 800.372 195.884 800.252C196.028 800.12 196.208 800.054 196.424 800.054C196.64 800.054 196.814 800.12 196.946 800.252C197.078 800.372 197.144 800.546 197.144 800.774V808.37C197.144 808.61 197.078 808.79 196.946 808.91C196.814 809.03 196.64 809.09 196.424 809.09ZM196.424 798.164C196.136 798.164 195.902 798.08 195.722 797.912C195.542 797.744 195.452 797.522 195.452 797.246C195.452 796.982 195.542 796.766 195.722 796.598C195.902 796.43 196.136 796.346 196.424 796.346C196.712 796.346 196.946 796.43 197.126 796.598C197.306 796.766 197.396 796.982 197.396 797.246C197.396 797.522 197.306 797.744 197.126 797.912C196.946 798.08 196.712 798.164 196.424 798.164ZM206.98 800.054C207.208 800.054 207.388 800.12 207.52 800.252C207.652 800.384 207.718 800.558 207.718 800.774V808.406C207.718 809.714 207.382 810.698 206.71 811.358C206.038 812.03 205.042 812.366 203.722 812.366C202.438 812.366 201.37 812.114 200.518 811.61C200.086 811.37 199.87 811.094 199.87 810.782C199.87 810.614 199.912 810.476 199.996 810.368C200.092 810.26 200.212 810.206 200.356 810.206C200.476 810.206 200.692 810.29 201.004 810.458C201.424 810.674 201.838 810.848 202.246 810.98C202.654 811.112 203.14 811.178 203.704 811.178C204.556 811.178 205.198 810.95 205.63 810.494C206.062 810.05 206.278 809.396 206.278 808.532V806.984C206.026 807.548 205.636 807.98 205.108 808.28C204.592 808.58 203.98 808.73 203.272 808.73C202.504 808.73 201.82 808.55 201.22 808.19C200.632 807.83 200.17 807.32 199.834 806.66C199.51 806 199.348 805.238 199.348 804.374C199.348 803.51 199.51 802.748 199.834 802.088C200.17 801.428 200.632 800.918 201.22 800.558C201.82 800.198 202.504 800.018 203.272 800.018C203.968 800.018 204.574 800.168 205.09 800.468C205.606 800.768 205.996 801.194 206.26 801.746V800.774C206.26 800.558 206.32 800.384 206.44 800.252C206.572 800.12 206.752 800.054 206.98 800.054ZM203.56 807.524C204.4 807.524 205.06 807.248 205.54 806.696C206.02 806.132 206.26 805.358 206.26 804.374C206.26 803.402 206.02 802.64 205.54 802.088C205.072 801.524 204.412 801.242 203.56 801.242C202.708 801.242 202.036 801.524 201.544 802.088C201.064 802.64 200.824 803.402 200.824 804.374C200.824 805.358 201.064 806.132 201.544 806.696C202.036 807.248 202.708 807.524 203.56 807.524ZM214.826 800.018C216.926 800.018 217.976 801.176 217.976 803.492V808.37C217.976 808.598 217.91 808.778 217.778 808.91C217.658 809.03 217.484 809.09 217.256 809.09C217.028 809.09 216.848 809.03 216.716 808.91C216.584 808.778 216.518 808.598 216.518 808.37V803.582C216.518 802.766 216.356 802.172 216.032 801.8C215.72 801.428 215.216 801.242 214.52 801.242C213.716 801.242 213.074 801.488 212.594 801.98C212.114 802.472 211.874 803.138 211.874 803.978V808.37C211.874 808.598 211.808 808.778 211.676 808.91C211.556 809.03 211.382 809.09 211.154 809.09C210.926 809.09 210.746 809.03 210.614 808.91C210.482 808.778 210.416 808.598 210.416 808.37V800.774C210.416 800.558 210.482 800.384 210.614 800.252C210.746 800.12 210.926 800.054 211.154 800.054C211.37 800.054 211.538 800.12 211.658 800.252C211.79 800.384 211.856 800.552 211.856 800.756V801.674C212.144 801.134 212.546 800.726 213.062 800.45C213.578 800.162 214.166 800.018 214.826 800.018ZM226.242 809.09C226.014 809.09 225.834 809.024 225.702 808.892C225.57 808.748 225.504 808.562 225.504 808.334V796.976C225.504 796.748 225.57 796.568 225.702 796.436C225.834 796.292 226.014 796.22 226.242 796.22C226.47 796.22 226.65 796.292 226.782 796.436C226.914 796.568 226.98 796.748 226.98 796.976V808.334C226.98 808.562 226.914 808.748 226.782 808.892C226.65 809.024 226.47 809.09 226.242 809.09ZM234.303 800.018C236.403 800.018 237.453 801.176 237.453 803.492V808.37C237.453 808.598 237.387 808.778 237.255 808.91C237.135 809.03 236.961 809.09 236.733 809.09C236.505 809.09 236.325 809.03 236.193 808.91C236.061 808.778 235.995 808.598 235.995 808.37V803.582C235.995 802.766 235.833 802.172 235.509 801.8C235.197 801.428 234.693 801.242 233.997 801.242C233.193 801.242 232.551 801.488 232.071 801.98C231.591 802.472 231.351 803.138 231.351 803.978V808.37C231.351 808.598 231.285 808.778 231.153 808.91C231.033 809.03 230.859 809.09 230.631 809.09C230.403 809.09 230.223 809.03 230.091 808.91C229.959 808.778 229.893 808.598 229.893 808.37V800.774C229.893 800.558 229.959 800.384 230.091 800.252C230.223 800.12 230.403 800.054 230.631 800.054C230.847 800.054 231.015 800.12 231.135 800.252C231.267 800.384 231.333 800.552 231.333 800.756V801.674C231.621 801.134 232.023 800.726 232.539 800.45C233.055 800.162 233.643 800.018 234.303 800.018Z" fill="white"/>
<rect x="144" y="883" width="134" height="5" rx="2.5" fill="black"/>
<circle cx="141" cy="127" r="211" fill="url(#paint0_linear)"/>
<path d="M46.62 182.8C46.8733 182.8 47.0667 182.88 47.2 183.04C47.3467 183.187 47.42 183.387 47.42 183.64V196.26C47.42 196.513 47.3467 196.72 47.2 196.88C47.0667 197.027 46.8733 197.1 46.62 197.1C46.3667 197.1 46.1667 197.027 46.02 196.88C45.8733 196.72 45.8 196.513 45.8 196.26V190.54H37.36V196.26C37.36 196.513 37.2867 196.72 37.14 196.88C36.9933 197.027 36.7933 197.1 36.54 197.1C36.2867 197.1 36.0867 197.027 35.94 196.88C35.8067 196.72 35.74 196.513 35.74 196.26V183.64C35.74 183.387 35.8067 183.187 35.94 183.04C36.0867 182.88 36.2867 182.8 36.54 182.8C36.7933 182.8 36.9933 182.88 37.14 183.04C37.2867 183.187 37.36 183.387 37.36 183.64V189.14H45.8V183.64C45.8 183.387 45.8733 183.187 46.02 183.04C46.1667 182.88 46.3667 182.8 46.62 182.8ZM58.1963 194.74C58.3429 194.74 58.4696 194.8 58.5763 194.92C58.6829 195.04 58.7363 195.193 58.7363 195.38C58.7363 195.713 58.5029 196.02 58.0363 196.3C57.5563 196.58 57.0496 196.793 56.5163 196.94C55.9829 197.073 55.4629 197.14 54.9563 197.14C53.4496 197.14 52.2563 196.693 51.3763 195.8C50.5096 194.907 50.0763 193.673 50.0763 192.1C50.0763 191.1 50.2696 190.22 50.6563 189.46C51.0429 188.687 51.5829 188.087 52.2763 187.66C52.9829 187.233 53.7829 187.02 54.6763 187.02C55.9429 187.02 56.9496 187.433 57.6963 188.26C58.4429 189.087 58.8163 190.207 58.8163 191.62C58.8163 191.887 58.7629 192.08 58.6563 192.2C58.5496 192.32 58.3763 192.38 58.1363 192.38H51.6963C51.8163 194.673 52.9029 195.82 54.9563 195.82C55.4763 195.82 55.9229 195.753 56.2963 195.62C56.6696 195.473 57.0696 195.28 57.4963 195.04C57.8429 194.84 58.0763 194.74 58.1963 194.74ZM54.6963 188.28C53.8429 188.28 53.1563 188.547 52.6363 189.08C52.1296 189.613 51.8296 190.367 51.7363 191.34H57.3963C57.3696 190.353 57.1229 189.6 56.6563 189.08C56.1896 188.547 55.5363 188.28 54.6963 188.28ZM62.0231 197.1C61.7831 197.1 61.5831 197.033 61.4231 196.9C61.2765 196.753 61.2031 196.553 61.2031 196.3V183.6C61.2031 183.347 61.2765 183.153 61.4231 183.02C61.5831 182.873 61.7831 182.8 62.0231 182.8C62.2498 182.8 62.4365 182.873 62.5831 183.02C62.7431 183.153 62.8231 183.347 62.8231 183.6V196.3C62.8231 196.553 62.7431 196.753 62.5831 196.9C62.4365 197.033 62.2498 197.1 62.0231 197.1ZM66.6716 197.1C66.4316 197.1 66.2316 197.033 66.0716 196.9C65.9249 196.753 65.8516 196.553 65.8516 196.3V183.6C65.8516 183.347 65.9249 183.153 66.0716 183.02C66.2316 182.873 66.4316 182.8 66.6716 182.8C66.8982 182.8 67.0849 182.873 67.2316 183.02C67.3916 183.153 67.4716 183.347 67.4716 183.6V196.3C67.4716 196.553 67.3916 196.753 67.2316 196.9C67.0849 197.033 66.8982 197.1 66.6716 197.1ZM74.54 197.14C73.62 197.14 72.8067 196.933 72.1 196.52C71.4067 196.107 70.8667 195.52 70.48 194.76C70.1067 193.987 69.92 193.093 69.92 192.08C69.92 191.067 70.1067 190.18 70.48 189.42C70.8667 188.647 71.4067 188.053 72.1 187.64C72.8067 187.227 73.62 187.02 74.54 187.02C75.46 187.02 76.2733 187.227 76.98 187.64C77.6867 188.053 78.2267 188.647 78.6 189.42C78.9867 190.18 79.18 191.067 79.18 192.08C79.18 193.093 78.9867 193.987 78.6 194.76C78.2267 195.52 77.6867 196.107 76.98 196.52C76.2733 196.933 75.46 197.14 74.54 197.14ZM74.54 195.8C75.5 195.8 76.2333 195.487 76.74 194.86C77.26 194.22 77.52 193.293 77.52 192.08C77.52 190.893 77.26 189.98 76.74 189.34C76.22 188.687 75.4867 188.36 74.54 188.36C73.5933 188.36 72.86 188.687 72.34 189.34C71.82 189.98 71.56 190.893 71.56 192.08C71.56 193.28 71.8133 194.2 72.32 194.84C72.84 195.48 73.58 195.8 74.54 195.8ZM91.23 197.1C90.9767 197.1 90.77 197.027 90.61 196.88C90.4633 196.72 90.39 196.513 90.39 196.26V184.3H86.09C85.85 184.3 85.6633 184.24 85.53 184.12C85.3967 184 85.33 183.827 85.33 183.6C85.33 183.373 85.3967 183.2 85.53 183.08C85.6633 182.96 85.85 182.9 86.09 182.9H96.35C96.59 182.9 96.7767 182.96 96.91 183.08C97.0433 183.2 97.11 183.373 97.11 183.6C97.11 183.827 97.0433 184 96.91 184.12C96.7767 184.24 96.59 184.3 96.35 184.3H92.05V196.26C92.05 196.513 91.9767 196.72 91.83 196.88C91.6833 197.027 91.4833 197.1 91.23 197.1ZM104.756 187.02C105.903 187.02 106.769 187.347 107.356 188C107.943 188.64 108.236 189.6 108.236 190.88V196.3C108.236 196.553 108.163 196.753 108.016 196.9C107.869 197.033 107.676 197.1 107.436 197.1C107.183 197.1 106.983 197.033 106.836 196.9C106.689 196.753 106.616 196.553 106.616 196.3V190.92C106.616 190.053 106.436 189.413 106.076 189C105.729 188.587 105.169 188.38 104.396 188.38C103.503 188.38 102.789 188.653 102.256 189.2C101.723 189.747 101.456 190.487 101.456 191.42V196.3C101.456 196.553 101.383 196.753 101.236 196.9C101.103 197.033 100.909 197.1 100.656 197.1C100.403 197.1 100.203 197.033 100.056 196.9C99.9093 196.753 99.8359 196.553 99.8359 196.3V183.58C99.8359 183.353 99.9093 183.167 100.056 183.02C100.216 182.873 100.416 182.8 100.656 182.8C100.909 182.8 101.103 182.873 101.236 183.02C101.383 183.153 101.456 183.34 101.456 183.58V188.82C101.776 188.233 102.223 187.787 102.796 187.48C103.369 187.173 104.023 187.02 104.756 187.02ZM118.743 194.74C118.89 194.74 119.016 194.8 119.123 194.92C119.23 195.04 119.283 195.193 119.283 195.38C119.283 195.713 119.05 196.02 118.583 196.3C118.103 196.58 117.596 196.793 117.063 196.94C116.53 197.073 116.01 197.14 115.503 197.14C113.996 197.14 112.803 196.693 111.923 195.8C111.056 194.907 110.623 193.673 110.623 192.1C110.623 191.1 110.816 190.22 111.203 189.46C111.59 188.687 112.13 188.087 112.823 187.66C113.53 187.233 114.33 187.02 115.223 187.02C116.49 187.02 117.496 187.433 118.243 188.26C118.99 189.087 119.363 190.207 119.363 191.62C119.363 191.887 119.31 192.08 119.203 192.2C119.096 192.32 118.923 192.38 118.683 192.38H112.243C112.363 194.673 113.45 195.82 115.503 195.82C116.023 195.82 116.47 195.753 116.843 195.62C117.216 195.473 117.616 195.28 118.043 195.04C118.39 194.84 118.623 194.74 118.743 194.74ZM115.243 188.28C114.39 188.28 113.703 188.547 113.183 189.08C112.676 189.613 112.376 190.367 112.283 191.34H117.943C117.916 190.353 117.67 189.6 117.203 189.08C116.736 188.547 116.083 188.28 115.243 188.28ZM126.57 187.06C127.13 187.02 127.41 187.247 127.41 187.74C127.41 187.953 127.35 188.127 127.23 188.26C127.11 188.38 126.903 188.453 126.61 188.48L126.01 188.54C125.117 188.62 124.45 188.94 124.01 189.5C123.583 190.047 123.37 190.693 123.37 191.44V196.3C123.37 196.567 123.297 196.767 123.15 196.9C123.003 197.033 122.81 197.1 122.57 197.1C122.33 197.1 122.13 197.033 121.97 196.9C121.823 196.753 121.75 196.553 121.75 196.3V187.86C121.75 187.607 121.83 187.413 121.99 187.28C122.15 187.133 122.343 187.06 122.57 187.06C122.783 187.06 122.963 187.133 123.11 187.28C123.257 187.413 123.33 187.6 123.33 187.84V188.96C123.61 188.373 124.003 187.927 124.51 187.62C125.03 187.313 125.623 187.133 126.29 187.08L126.57 187.06ZM136.145 194.74C136.292 194.74 136.419 194.8 136.525 194.92C136.632 195.04 136.685 195.193 136.685 195.38C136.685 195.713 136.452 196.02 135.985 196.3C135.505 196.58 134.999 196.793 134.465 196.94C133.932 197.073 133.412 197.14 132.905 197.14C131.399 197.14 130.205 196.693 129.325 195.8C128.459 194.907 128.025 193.673 128.025 192.1C128.025 191.1 128.219 190.22 128.605 189.46C128.992 188.687 129.532 188.087 130.225 187.66C130.932 187.233 131.732 187.02 132.625 187.02C133.892 187.02 134.899 187.433 135.645 188.26C136.392 189.087 136.765 190.207 136.765 191.62C136.765 191.887 136.712 192.08 136.605 192.2C136.499 192.32 136.325 192.38 136.085 192.38H129.645C129.765 194.673 130.852 195.82 132.905 195.82C133.425 195.82 133.872 195.753 134.245 195.62C134.619 195.473 135.019 195.28 135.445 195.04C135.792 194.84 136.025 194.74 136.145 194.74ZM132.645 188.28C131.792 188.28 131.105 188.547 130.585 189.08C130.079 189.613 129.779 190.367 129.685 191.34H135.345C135.319 190.353 135.072 189.6 134.605 189.08C134.139 188.547 133.485 188.28 132.645 188.28ZM139.932 193.42C139.799 193.42 139.686 193.373 139.592 193.28C139.499 193.173 139.446 193.033 139.432 192.86L138.952 183.8C138.926 183.493 139.006 183.253 139.192 183.08C139.379 182.893 139.626 182.8 139.932 182.8C140.239 182.8 140.486 182.893 140.672 183.08C140.859 183.253 140.939 183.493 140.912 183.8L140.432 192.86C140.419 193.047 140.366 193.187 140.272 193.28C140.179 193.373 140.066 193.42 139.932 193.42ZM139.952 197.1C139.632 197.1 139.366 197 139.152 196.8C138.939 196.587 138.832 196.313 138.832 195.98C138.832 195.647 138.939 195.373 139.152 195.16C139.366 194.947 139.632 194.84 139.952 194.84C140.259 194.84 140.512 194.947 140.712 195.16C140.926 195.373 141.032 195.647 141.032 195.98C141.032 196.313 140.926 196.587 140.712 196.8C140.512 197 140.259 197.1 139.952 197.1ZM36.56 224.1C36.3067 224.1 36.1067 224.027 35.96 223.88C35.8133 223.72 35.74 223.513 35.74 223.26V210.7C35.74 210.46 35.8133 210.267 35.96 210.12C36.12 209.973 36.3267 209.9 36.58 209.9H41.32C42.8 209.9 43.9467 210.26 44.76 210.98C45.5867 211.7 46 212.72 46 214.04C46 215.36 45.5867 216.387 44.76 217.12C43.9333 217.853 42.7867 218.22 41.32 218.22H37.38V223.26C37.38 223.513 37.3067 223.72 37.16 223.88C37.0133 224.027 36.8133 224.1 36.56 224.1ZM41.16 216.86C43.3067 216.86 44.38 215.92 44.38 214.04C44.38 212.187 43.3067 211.26 41.16 211.26H37.38V216.86H41.16ZM49.2106 224.1C48.9706 224.1 48.7706 224.033 48.6106 223.9C48.464 223.753 48.3906 223.553 48.3906 223.3V210.6C48.3906 210.347 48.464 210.153 48.6106 210.02C48.7706 209.873 48.9706 209.8 49.2106 209.8C49.4373 209.8 49.624 209.873 49.7706 210.02C49.9306 210.153 50.0106 210.347 50.0106 210.6V223.3C50.0106 223.553 49.9306 223.753 49.7706 223.9C49.624 224.033 49.4373 224.1 49.2106 224.1ZM60.5791 221.74C60.7257 221.74 60.8524 221.8 60.9591 221.92C61.0657 222.04 61.1191 222.193 61.1191 222.38C61.1191 222.713 60.8857 223.02 60.4191 223.3C59.9391 223.58 59.4324 223.793 58.8991 223.94C58.3657 224.073 57.8457 224.14 57.3391 224.14C55.8324 224.14 54.6391 223.693 53.7591 222.8C52.8924 221.907 52.4591 220.673 52.4591 219.1C52.4591 218.1 52.6524 217.22 53.0391 216.46C53.4257 215.687 53.9657 215.087 54.6591 214.66C55.3657 214.233 56.1657 214.02 57.0591 214.02C58.3257 214.02 59.3324 214.433 60.0791 215.26C60.8257 216.087 61.1991 217.207 61.1991 218.62C61.1991 218.887 61.1457 219.08 61.0391 219.2C60.9324 219.32 60.7591 219.38 60.5191 219.38H54.0791C54.1991 221.673 55.2857 222.82 57.3391 222.82C57.8591 222.82 58.3057 222.753 58.6791 222.62C59.0524 222.473 59.4524 222.28 59.8791 222.04C60.2257 221.84 60.4591 221.74 60.5791 221.74ZM57.0791 215.28C56.2257 215.28 55.5391 215.547 55.0191 216.08C54.5124 216.613 54.2124 217.367 54.1191 218.34H59.7791C59.7524 217.353 59.5057 216.6 59.0391 216.08C58.5724 215.547 57.9191 215.28 57.0791 215.28ZM67.5659 214.02C70.0059 214.02 71.2259 215.3 71.2259 217.86V223.3C71.2259 223.54 71.1526 223.733 71.0059 223.88C70.8726 224.027 70.6859 224.1 70.4459 224.1C70.2059 224.1 70.0126 224.027 69.8659 223.88C69.7193 223.733 69.6459 223.54 69.6459 223.3V222.34C69.3926 222.913 69.0059 223.36 68.4859 223.68C67.9659 223.987 67.3659 224.14 66.6859 224.14C66.0593 224.14 65.4793 224.013 64.9459 223.76C64.4259 223.507 64.0126 223.153 63.7059 222.7C63.3993 222.247 63.2459 221.747 63.2459 221.2C63.2459 220.467 63.4326 219.9 63.8059 219.5C64.1793 219.087 64.7926 218.793 65.6459 218.62C66.4993 218.433 67.6859 218.34 69.2059 218.34H69.6459V217.68C69.6459 216.88 69.4793 216.293 69.1459 215.92C68.8259 215.547 68.2993 215.36 67.5659 215.36C66.6593 215.36 65.7393 215.607 64.8059 216.1C64.4459 216.327 64.1926 216.44 64.0459 216.44C63.8859 216.44 63.7526 216.38 63.6459 216.26C63.5393 216.14 63.4859 215.987 63.4859 215.8C63.4859 215.613 63.5393 215.453 63.6459 215.32C63.7659 215.173 63.9526 215.027 64.2059 214.88C64.6726 214.613 65.1993 214.407 65.7859 214.26C66.3859 214.1 66.9793 214.02 67.5659 214.02ZM66.9059 222.86C67.7059 222.86 68.3593 222.593 68.8659 222.06C69.3859 221.513 69.6459 220.813 69.6459 219.96V219.38H69.2859C68.1126 219.38 67.2193 219.433 66.6059 219.54C65.9926 219.633 65.5526 219.8 65.2859 220.04C65.0326 220.267 64.9059 220.607 64.9059 221.06C64.9059 221.58 65.0926 222.013 65.4659 222.36C65.8526 222.693 66.3326 222.86 66.9059 222.86ZM77.4714 224.14C76.8581 224.14 76.2714 224.067 75.7114 223.92C75.1647 223.773 74.6781 223.567 74.2514 223.3C74.0114 223.14 73.8381 222.993 73.7314 222.86C73.6381 222.713 73.5914 222.54 73.5914 222.34C73.5914 222.167 73.6381 222.027 73.7314 221.92C73.8381 221.8 73.9714 221.74 74.1314 221.74C74.2914 221.74 74.5247 221.84 74.8314 222.04C75.2314 222.28 75.6247 222.473 76.0114 222.62C76.4114 222.753 76.9047 222.82 77.4914 222.82C78.2114 222.82 78.7714 222.693 79.1714 222.44C79.5714 222.187 79.7714 221.82 79.7714 221.34C79.7714 221.047 79.6981 220.813 79.5514 220.64C79.4047 220.453 79.1514 220.293 78.7914 220.16C78.4314 220.013 77.9047 219.867 77.2114 219.72C76.0381 219.467 75.1981 219.127 74.6914 218.7C74.1847 218.273 73.9314 217.693 73.9314 216.96C73.9314 216.387 74.0914 215.88 74.4114 215.44C74.7314 215 75.1714 214.653 75.7314 214.4C76.3047 214.147 76.9514 214.02 77.6714 214.02C78.1914 214.02 78.6914 214.093 79.1714 214.24C79.6647 214.373 80.0981 214.567 80.4714 214.82C80.9247 215.14 81.1514 215.473 81.1514 215.82C81.1514 215.993 81.0981 216.14 80.9914 216.26C80.8847 216.38 80.7581 216.44 80.6114 216.44C80.4514 216.44 80.2114 216.327 79.8914 216.1C79.5181 215.86 79.1647 215.673 78.8314 215.54C78.4981 215.407 78.0847 215.34 77.5914 215.34C76.9647 215.34 76.4581 215.48 76.0714 215.76C75.6981 216.04 75.5114 216.413 75.5114 216.88C75.5114 217.173 75.5781 217.413 75.7114 217.6C75.8581 217.773 76.0914 217.933 76.4114 218.08C76.7447 218.213 77.2181 218.347 77.8314 218.48C78.7381 218.68 79.4381 218.9 79.9314 219.14C80.4381 219.38 80.7981 219.673 81.0114 220.02C81.2247 220.367 81.3314 220.807 81.3314 221.34C81.3314 222.18 80.9781 222.86 80.2714 223.38C79.5647 223.887 78.6314 224.14 77.4714 224.14ZM91.3408 221.74C91.4874 221.74 91.6141 221.8 91.7208 221.92C91.8274 222.04 91.8808 222.193 91.8808 222.38C91.8808 222.713 91.6474 223.02 91.1808 223.3C90.7008 223.58 90.1941 223.793 89.6608 223.94C89.1274 224.073 88.6074 224.14 88.1008 224.14C86.5941 224.14 85.4008 223.693 84.5208 222.8C83.6541 221.907 83.2208 220.673 83.2208 219.1C83.2208 218.1 83.4141 217.22 83.8008 216.46C84.1874 215.687 84.7274 215.087 85.4208 214.66C86.1274 214.233 86.9274 214.02 87.8208 214.02C89.0874 214.02 90.0941 214.433 90.8408 215.26C91.5874 216.087 91.9608 217.207 91.9608 218.62C91.9608 218.887 91.9074 219.08 91.8008 219.2C91.6941 219.32 91.5208 219.38 91.2808 219.38H84.8408C84.9608 221.673 86.0474 222.82 88.1008 222.82C88.6208 222.82 89.0674 222.753 89.4408 222.62C89.8141 222.473 90.2141 222.28 90.6408 222.04C90.9874 221.84 91.2208 221.74 91.3408 221.74ZM87.8408 215.28C86.9874 215.28 86.3008 215.547 85.7808 216.08C85.2741 216.613 84.9741 217.367 84.8808 218.34H90.5408C90.5141 217.353 90.2674 216.6 89.8008 216.08C89.3341 215.547 88.6808 215.28 87.8408 215.28ZM104.244 224.16C103.244 224.16 102.284 224.013 101.364 223.72C100.457 223.413 99.7306 223.007 99.1839 222.5C98.9839 222.313 98.8839 222.08 98.8839 221.8C98.8839 221.613 98.9372 221.453 99.0439 221.32C99.1506 221.173 99.2772 221.1 99.4239 221.1C99.5972 221.1 99.7839 221.173 99.9839 221.32C101.224 222.28 102.637 222.76 104.224 222.76C105.371 222.76 106.251 222.54 106.864 222.1C107.477 221.66 107.784 221.033 107.784 220.22C107.784 219.753 107.637 219.38 107.344 219.1C107.051 218.807 106.664 218.573 106.184 218.4C105.704 218.227 105.057 218.047 104.244 217.86C103.151 217.607 102.251 217.34 101.544 217.06C100.851 216.78 100.284 216.38 99.8439 215.86C99.4172 215.34 99.2039 214.66 99.2039 213.82C99.2039 213.02 99.4172 212.313 99.8439 211.7C100.284 211.073 100.891 210.593 101.664 210.26C102.451 209.913 103.344 209.74 104.344 209.74C105.277 209.74 106.144 209.887 106.944 210.18C107.757 210.46 108.437 210.867 108.984 211.4C109.197 211.613 109.304 211.847 109.304 212.1C109.304 212.287 109.251 212.453 109.144 212.6C109.037 212.733 108.911 212.8 108.764 212.8C108.617 212.8 108.424 212.727 108.184 212.58C107.531 212.047 106.924 211.673 106.364 211.46C105.804 211.247 105.131 211.14 104.344 211.14C103.237 211.14 102.377 211.373 101.764 211.84C101.151 212.293 100.844 212.933 100.844 213.76C100.844 214.467 101.111 215 101.644 215.36C102.191 215.707 103.024 216.013 104.144 216.28C105.357 216.573 106.311 216.847 107.004 217.1C107.697 217.34 108.271 217.707 108.724 218.2C109.191 218.693 109.424 219.353 109.424 220.18C109.424 220.967 109.204 221.66 108.764 222.26C108.337 222.86 107.731 223.327 106.944 223.66C106.157 223.993 105.257 224.16 104.244 224.16ZM112.668 224.1C112.428 224.1 112.228 224.033 112.068 223.9C111.921 223.753 111.848 223.553 111.848 223.3V214.86C111.848 214.607 111.921 214.413 112.068 214.28C112.228 214.133 112.428 214.06 112.668 214.06C112.908 214.06 113.101 214.133 113.248 214.28C113.394 214.413 113.468 214.607 113.468 214.86V223.3C113.468 223.567 113.394 223.767 113.248 223.9C113.101 224.033 112.908 224.1 112.668 224.1ZM112.668 211.96C112.348 211.96 112.088 211.867 111.888 211.68C111.688 211.493 111.588 211.247 111.588 210.94C111.588 210.647 111.688 210.407 111.888 210.22C112.088 210.033 112.348 209.94 112.668 209.94C112.988 209.94 113.248 210.033 113.448 210.22C113.648 210.407 113.748 210.647 113.748 210.94C113.748 211.247 113.648 211.493 113.448 211.68C113.248 211.867 112.988 211.96 112.668 211.96ZM124.396 214.06C124.649 214.06 124.849 214.133 124.996 214.28C125.143 214.427 125.216 214.62 125.216 214.86V223.34C125.216 224.793 124.843 225.887 124.096 226.62C123.349 227.367 122.243 227.74 120.776 227.74C119.349 227.74 118.163 227.46 117.216 226.9C116.736 226.633 116.496 226.327 116.496 225.98C116.496 225.793 116.543 225.64 116.636 225.52C116.743 225.4 116.876 225.34 117.036 225.34C117.169 225.34 117.409 225.433 117.756 225.62C118.223 225.86 118.683 226.053 119.136 226.2C119.589 226.347 120.129 226.42 120.756 226.42C121.703 226.42 122.416 226.167 122.896 225.66C123.376 225.167 123.616 224.44 123.616 223.48V221.76C123.336 222.387 122.903 222.867 122.316 223.2C121.743 223.533 121.063 223.7 120.276 223.7C119.423 223.7 118.663 223.5 117.996 223.1C117.343 222.7 116.829 222.133 116.456 221.4C116.096 220.667 115.916 219.82 115.916 218.86C115.916 217.9 116.096 217.053 116.456 216.32C116.829 215.587 117.343 215.02 117.996 214.62C118.663 214.22 119.423 214.02 120.276 214.02C121.049 214.02 121.723 214.187 122.296 214.52C122.869 214.853 123.303 215.327 123.596 215.94V214.86C123.596 214.62 123.663 214.427 123.796 214.28C123.943 214.133 124.143 214.06 124.396 214.06ZM120.596 222.36C121.529 222.36 122.263 222.053 122.796 221.44C123.329 220.813 123.596 219.953 123.596 218.86C123.596 217.78 123.329 216.933 122.796 216.32C122.276 215.693 121.543 215.38 120.596 215.38C119.649 215.38 118.903 215.693 118.356 216.32C117.823 216.933 117.556 217.78 117.556 218.86C117.556 219.953 117.823 220.813 118.356 221.44C118.903 222.053 119.649 222.36 120.596 222.36ZM133.115 214.02C135.448 214.02 136.615 215.307 136.615 217.88V223.3C136.615 223.553 136.542 223.753 136.395 223.9C136.262 224.033 136.068 224.1 135.815 224.1C135.562 224.1 135.362 224.033 135.215 223.9C135.068 223.753 134.995 223.553 134.995 223.3V217.98C134.995 217.073 134.815 216.413 134.455 216C134.108 215.587 133.548 215.38 132.775 215.38C131.882 215.38 131.168 215.653 130.635 216.2C130.102 216.747 129.835 217.487 129.835 218.42V223.3C129.835 223.553 129.762 223.753 129.615 223.9C129.482 224.033 129.288 224.1 129.035 224.1C128.782 224.1 128.582 224.033 128.435 223.9C128.288 223.753 128.215 223.553 128.215 223.3V214.86C128.215 214.62 128.288 214.427 128.435 214.28C128.582 214.133 128.782 214.06 129.035 214.06C129.275 214.06 129.462 214.133 129.595 214.28C129.742 214.427 129.815 214.613 129.815 214.84V215.86C130.135 215.26 130.582 214.807 131.155 214.5C131.728 214.18 132.382 214.02 133.115 214.02ZM145.798 224.1C145.545 224.1 145.345 224.027 145.198 223.88C145.052 223.72 144.978 223.513 144.978 223.26V210.64C144.978 210.387 145.052 210.187 145.198 210.04C145.345 209.88 145.545 209.8 145.798 209.8C146.052 209.8 146.252 209.88 146.398 210.04C146.545 210.187 146.618 210.387 146.618 210.64V223.26C146.618 223.513 146.545 223.72 146.398 223.88C146.252 224.027 146.052 224.1 145.798 224.1ZM154.755 214.02C157.089 214.02 158.255 215.307 158.255 217.88V223.3C158.255 223.553 158.182 223.753 158.035 223.9C157.902 224.033 157.709 224.1 157.455 224.1C157.202 224.1 157.002 224.033 156.855 223.9C156.709 223.753 156.635 223.553 156.635 223.3V217.98C156.635 217.073 156.455 216.413 156.095 216C155.749 215.587 155.189 215.38 154.415 215.38C153.522 215.38 152.809 215.653 152.275 216.2C151.742 216.747 151.475 217.487 151.475 218.42V223.3C151.475 223.553 151.402 223.753 151.255 223.9C151.122 224.033 150.929 224.1 150.675 224.1C150.422 224.1 150.222 224.033 150.075 223.9C149.929 223.753 149.855 223.553 149.855 223.3V214.86C149.855 214.62 149.929 214.427 150.075 214.28C150.222 214.133 150.422 214.06 150.675 214.06C150.915 214.06 151.102 214.133 151.235 214.28C151.382 214.427 151.455 214.613 151.455 214.84V215.86C151.775 215.26 152.222 214.807 152.795 214.5C153.369 214.18 154.022 214.02 154.755 214.02ZM170.879 222.82C171.346 222.86 171.579 223.073 171.579 223.46C171.579 223.687 171.492 223.86 171.319 223.98C171.159 224.087 170.912 224.127 170.579 224.1L170.039 224.06C168.972 223.98 168.186 223.66 167.679 223.1C167.172 222.54 166.919 221.693 166.919 220.56V215.54H165.579C165.352 215.54 165.172 215.487 165.039 215.38C164.919 215.26 164.859 215.107 164.859 214.92C164.859 214.72 164.919 214.56 165.039 214.44C165.172 214.32 165.352 214.26 165.579 214.26H166.919V212C166.919 211.747 166.992 211.553 167.139 211.42C167.286 211.273 167.486 211.2 167.739 211.2C167.979 211.2 168.172 211.273 168.319 211.42C168.466 211.553 168.539 211.747 168.539 212V214.26H170.759C170.972 214.26 171.139 214.32 171.259 214.44C171.392 214.56 171.459 214.72 171.459 214.92C171.459 215.107 171.392 215.26 171.259 215.38C171.139 215.487 170.972 215.54 170.759 215.54H168.539V220.64C168.539 221.373 168.686 221.907 168.979 222.24C169.286 222.56 169.739 222.74 170.339 222.78L170.879 222.82ZM177.216 224.14C176.296 224.14 175.482 223.933 174.776 223.52C174.082 223.107 173.542 222.52 173.156 221.76C172.782 220.987 172.596 220.093 172.596 219.08C172.596 218.067 172.782 217.18 173.156 216.42C173.542 215.647 174.082 215.053 174.776 214.64C175.482 214.227 176.296 214.02 177.216 214.02C178.136 214.02 178.949 214.227 179.656 214.64C180.362 215.053 180.902 215.647 181.276 216.42C181.662 217.18 181.856 218.067 181.856 219.08C181.856 220.093 181.662 220.987 181.276 221.76C180.902 222.52 180.362 223.107 179.656 223.52C178.949 223.933 178.136 224.14 177.216 224.14ZM177.216 222.8C178.176 222.8 178.909 222.487 179.416 221.86C179.936 221.22 180.196 220.293 180.196 219.08C180.196 217.893 179.936 216.98 179.416 216.34C178.896 215.687 178.162 215.36 177.216 215.36C176.269 215.36 175.536 215.687 175.016 216.34C174.496 216.98 174.236 217.893 174.236 219.08C174.236 220.28 174.489 221.2 174.996 221.84C175.516 222.48 176.256 222.8 177.216 222.8ZM195.646 224.16C194.312 224.16 193.159 223.873 192.186 223.3C191.212 222.713 190.459 221.88 189.926 220.8C189.406 219.707 189.146 218.42 189.146 216.94C189.146 215.473 189.406 214.2 189.926 213.12C190.459 212.027 191.212 211.193 192.186 210.62C193.159 210.033 194.312 209.74 195.646 209.74C196.539 209.74 197.379 209.887 198.166 210.18C198.966 210.46 199.659 210.867 200.246 211.4C200.459 211.6 200.566 211.833 200.566 212.1C200.566 212.287 200.512 212.453 200.406 212.6C200.299 212.733 200.172 212.8 200.026 212.8C199.866 212.8 199.672 212.727 199.446 212.58C198.766 212.047 198.146 211.673 197.586 211.46C197.039 211.247 196.406 211.14 195.686 211.14C194.139 211.14 192.946 211.647 192.106 212.66C191.279 213.66 190.866 215.087 190.866 216.94C190.866 218.807 191.279 220.247 192.106 221.26C192.946 222.26 194.139 222.76 195.686 222.76C196.392 222.76 197.026 222.653 197.586 222.44C198.146 222.227 198.766 221.853 199.446 221.32C199.672 221.173 199.866 221.1 200.026 221.1C200.172 221.1 200.299 221.167 200.406 221.3C200.512 221.433 200.566 221.6 200.566 221.8C200.566 222.067 200.459 222.3 200.246 222.5C199.659 223.033 198.966 223.447 198.166 223.74C197.379 224.02 196.539 224.16 195.646 224.16ZM206.806 224.14C205.886 224.14 205.072 223.933 204.366 223.52C203.672 223.107 203.132 222.52 202.746 221.76C202.372 220.987 202.186 220.093 202.186 219.08C202.186 218.067 202.372 217.18 202.746 216.42C203.132 215.647 203.672 215.053 204.366 214.64C205.072 214.227 205.886 214.02 206.806 214.02C207.726 214.02 208.539 214.227 209.246 214.64C209.952 215.053 210.492 215.647 210.866 216.42C211.252 217.18 211.446 218.067 211.446 219.08C211.446 220.093 211.252 220.987 210.866 221.76C210.492 222.52 209.952 223.107 209.246 223.52C208.539 223.933 207.726 224.14 206.806 224.14ZM206.806 222.8C207.766 222.8 208.499 222.487 209.006 221.86C209.526 221.22 209.786 220.293 209.786 219.08C209.786 217.893 209.526 216.98 209.006 216.34C208.486 215.687 207.752 215.36 206.806 215.36C205.859 215.36 205.126 215.687 204.606 216.34C204.086 216.98 203.826 217.893 203.826 219.08C203.826 220.28 204.079 221.2 204.586 221.84C205.106 222.48 205.846 222.8 206.806 222.8ZM218.759 214.02C221.093 214.02 222.259 215.307 222.259 217.88V223.3C222.259 223.553 222.186 223.753 222.039 223.9C221.906 224.033 221.713 224.1 221.459 224.1C221.206 224.1 221.006 224.033 220.859 223.9C220.713 223.753 220.639 223.553 220.639 223.3V217.98C220.639 217.073 220.459 216.413 220.099 216C219.753 215.587 219.193 215.38 218.419 215.38C217.526 215.38 216.813 215.653 216.279 216.2C215.746 216.747 215.479 217.487 215.479 218.42V223.3C215.479 223.553 215.406 223.753 215.259 223.9C215.126 224.033 214.933 224.1 214.679 224.1C214.426 224.1 214.226 224.033 214.079 223.9C213.933 223.753 213.859 223.553 213.859 223.3V214.86C213.859 214.62 213.933 214.427 214.079 214.28C214.226 214.133 214.426 214.06 214.679 214.06C214.919 214.06 215.106 214.133 215.239 214.28C215.386 214.427 215.459 214.613 215.459 214.84V215.86C215.779 215.26 216.226 214.807 216.799 214.5C217.373 214.18 218.026 214.02 218.759 214.02ZM229.727 222.82C230.193 222.86 230.427 223.073 230.427 223.46C230.427 223.687 230.34 223.86 230.167 223.98C230.007 224.087 229.76 224.127 229.427 224.1L228.887 224.06C227.82 223.98 227.033 223.66 226.527 223.1C226.02 222.54 225.767 221.693 225.767 220.56V215.54H224.427C224.2 215.54 224.02 215.487 223.887 215.38C223.767 215.26 223.707 215.107 223.707 214.92C223.707 214.72 223.767 214.56 223.887 214.44C224.02 214.32 224.2 214.26 224.427 214.26H225.767V212C225.767 211.747 225.84 211.553 225.987 211.42C226.133 211.273 226.333 211.2 226.587 211.2C226.827 211.2 227.02 211.273 227.167 211.42C227.313 211.553 227.387 211.747 227.387 212V214.26H229.607C229.82 214.26 229.987 214.32 230.107 214.44C230.24 214.56 230.307 214.72 230.307 214.92C230.307 215.107 230.24 215.26 230.107 215.38C229.987 215.487 229.82 215.54 229.607 215.54H227.387V220.64C227.387 221.373 227.533 221.907 227.827 222.24C228.133 222.56 228.587 222.74 229.187 222.78L229.727 222.82ZM232.843 224.1C232.603 224.1 232.403 224.033 232.243 223.9C232.097 223.753 232.023 223.553 232.023 223.3V214.86C232.023 214.607 232.097 214.413 232.243 214.28C232.403 214.133 232.603 214.06 232.843 214.06C233.083 214.06 233.277 214.133 233.423 214.28C233.57 214.413 233.643 214.607 233.643 214.86V223.3C233.643 223.567 233.57 223.767 233.423 223.9C233.277 224.033 233.083 224.1 232.843 224.1ZM232.843 211.96C232.523 211.96 232.263 211.867 232.063 211.68C231.863 211.493 231.763 211.247 231.763 210.94C231.763 210.647 231.863 210.407 232.063 210.22C232.263 210.033 232.523 209.94 232.843 209.94C233.163 209.94 233.423 210.033 233.623 210.22C233.823 210.407 233.923 210.647 233.923 210.94C233.923 211.247 233.823 211.493 233.623 211.68C233.423 211.867 233.163 211.96 232.843 211.96ZM241.572 214.02C243.905 214.02 245.072 215.307 245.072 217.88V223.3C245.072 223.553 244.999 223.753 244.852 223.9C244.719 224.033 244.525 224.1 244.272 224.1C244.019 224.1 243.819 224.033 243.672 223.9C243.525 223.753 243.452 223.553 243.452 223.3V217.98C243.452 217.073 243.272 216.413 242.912 216C242.565 215.587 242.005 215.38 241.232 215.38C240.339 215.38 239.625 215.653 239.092 216.2C238.559 216.747 238.292 217.487 238.292 218.42V223.3C238.292 223.553 238.219 223.753 238.072 223.9C237.939 224.033 237.745 224.1 237.492 224.1C237.239 224.1 237.039 224.033 236.892 223.9C236.745 223.753 236.672 223.553 236.672 223.3V214.86C236.672 214.62 236.745 214.427 236.892 214.28C237.039 214.133 237.239 214.06 237.492 214.06C237.732 214.06 237.919 214.133 238.052 214.28C238.199 214.427 238.272 214.613 238.272 214.84V215.86C238.592 215.26 239.039 214.807 239.612 214.5C240.185 214.18 240.839 214.02 241.572 214.02ZM255.439 214.06C255.692 214.06 255.886 214.133 256.019 214.28C256.166 214.427 256.239 214.62 256.239 214.86V223.32C256.239 223.547 256.166 223.733 256.019 223.88C255.886 224.027 255.692 224.1 255.439 224.1C255.199 224.1 255.006 224.033 254.859 223.9C254.726 223.753 254.659 223.567 254.659 223.34V222.34C254.352 222.927 253.919 223.373 253.359 223.68C252.812 223.987 252.192 224.14 251.499 224.14C250.339 224.14 249.466 223.82 248.879 223.18C248.292 222.527 247.999 221.567 247.999 220.3V214.86C247.999 214.62 248.072 214.427 248.219 214.28C248.366 214.133 248.566 214.06 248.819 214.06C249.072 214.06 249.266 214.133 249.399 214.28C249.546 214.427 249.619 214.62 249.619 214.86V220.26C249.619 221.127 249.792 221.767 250.139 222.18C250.486 222.58 251.032 222.78 251.779 222.78C252.632 222.78 253.319 222.507 253.839 221.96C254.359 221.4 254.619 220.667 254.619 219.76V214.86C254.619 214.62 254.692 214.427 254.839 214.28C254.986 214.133 255.186 214.06 255.439 214.06ZM266.79 221.74C266.937 221.74 267.063 221.8 267.17 221.92C267.277 222.04 267.33 222.193 267.33 222.38C267.33 222.713 267.097 223.02 266.63 223.3C266.15 223.58 265.643 223.793 265.11 223.94C264.577 224.073 264.057 224.14 263.55 224.14C262.043 224.14 260.85 223.693 259.97 222.8C259.103 221.907 258.67 220.673 258.67 219.1C258.67 218.1 258.863 217.22 259.25 216.46C259.637 215.687 260.177 215.087 260.87 214.66C261.577 214.233 262.377 214.02 263.27 214.02C264.537 214.02 265.543 214.433 266.29 215.26C267.037 216.087 267.41 217.207 267.41 218.62C267.41 218.887 267.357 219.08 267.25 219.2C267.143 219.32 266.97 219.38 266.73 219.38H260.29C260.41 221.673 261.497 222.82 263.55 222.82C264.07 222.82 264.517 222.753 264.89 222.62C265.263 222.473 265.663 222.28 266.09 222.04C266.437 221.84 266.67 221.74 266.79 221.74ZM263.29 215.28C262.437 215.28 261.75 215.547 261.23 216.08C260.723 216.613 260.423 217.367 260.33 218.34H265.99C265.963 217.353 265.717 216.6 265.25 216.08C264.783 215.547 264.13 215.28 263.29 215.28Z" fill="white"/>
<path d="M89.8796 61.6573C89.8796 71.3318 85.3331 76.5127 67.3057 91.4739C54.8293 81.0592 48.8025 75.4025 46.265 69.6401H59.5344L61.279 72.1777C61.4904 72.442 61.8076 72.6006 62.1248 72.4949C62.442 72.442 62.7064 72.1248 62.7592 71.8076L64.1866 62.6618L67.4115 82.2752C67.4643 82.6981 67.8344 82.9624 68.2045 82.9624C68.6274 82.9624 68.9446 82.6981 68.9974 82.2752L71.6936 68.0013L72.0108 69.0057C72.1166 69.3229 72.4337 69.5873 72.8038 69.5873H80.4166C80.7866 70.4331 81.5796 71.0147 82.5841 71.0147C83.9057 71.0147 84.9102 69.9573 84.9102 68.6885C84.9102 67.3669 83.8529 66.3624 82.5841 66.3624C81.5267 66.3624 80.6809 67.0497 80.3637 68.0013H73.4382L72.2751 64.5121C72.1694 64.142 71.8522 63.8777 71.4293 63.9306C71.0592 63.9306 70.742 64.2478 70.6892 64.6178L68.2573 77.4643L64.9796 57.3752C64.9267 56.9522 64.5567 56.6879 64.1866 56.6879C63.7637 56.6879 63.4465 57.0051 63.3936 57.3752L61.4904 69.5344L60.6974 68.3713C60.5388 68.1599 60.2745 68.0013 60.0102 68.0013H45.6834C45.049 65.9924 44.7847 63.9306 44.7847 61.6573C44.7847 51.4541 50.7057 46.8019 56.1509 46.8019C61.7548 46.8019 66.1955 52.2471 66.2484 52.3C66.5127 52.6172 66.9357 52.8287 67.3586 52.8287C67.7815 52.8287 68.2045 52.6172 68.4688 52.3C68.5216 52.2471 72.9095 46.8019 78.5662 46.8019C83.9586 46.8019 89.8796 51.4541 89.8796 61.6573ZM92.6815 61.6573C92.6815 50.0796 85.5446 44 78.5134 44C73.3325 44 69.2089 47.4363 67.3057 49.3924C65.4025 47.4892 61.279 44 56.0981 44C49.0669 44 41.9299 50.0796 41.9299 61.6573C41.9299 73.1822 47.9038 79.1032 66.407 94.4344C66.6713 94.6459 66.9885 94.7516 67.3057 94.7516C67.6229 94.7516 67.9401 94.6459 68.2045 94.4344C86.7076 79.1032 92.6815 73.1822 92.6815 61.6573Z" fill="white"/>
<path d="M44.5394 119.098C44.765 119.312 44.8778 119.555 44.8778 119.825C44.8778 120.085 44.7763 120.316 44.5732 120.519C44.3815 120.711 44.1503 120.806 43.8796 120.806C43.5977 120.806 43.3383 120.688 43.1015 120.451L37.468 115.173V119.741C37.468 120.068 37.3665 120.333 37.1635 120.536C36.9718 120.739 36.7068 120.84 36.3684 120.84C36.0413 120.84 35.7763 120.739 35.5733 120.536C35.3816 120.333 35.2857 120.068 35.2857 119.741V109.81C35.2857 109.483 35.3816 109.224 35.5733 109.032C35.7763 108.829 36.0413 108.728 36.3684 108.728C36.7068 108.728 36.9718 108.829 37.1635 109.032C37.3665 109.224 37.468 109.483 37.468 109.81V114.158L42.9154 109.049C43.1184 108.846 43.3496 108.745 43.609 108.745C43.8684 108.745 44.0939 108.846 44.2857 109.049C44.4887 109.241 44.5902 109.466 44.5902 109.726C44.5902 109.985 44.4774 110.222 44.2518 110.436L39.7011 114.598L44.5394 119.098ZM52.732 118.472C52.9237 118.472 53.0759 118.545 53.1887 118.692C53.3128 118.838 53.3748 119.036 53.3748 119.284C53.3748 119.634 53.1662 119.927 52.7489 120.164C52.3654 120.378 51.9312 120.553 51.4463 120.688C50.9613 120.812 50.4989 120.874 50.059 120.874C48.7282 120.874 47.6737 120.491 46.8955 119.724C46.1173 118.957 45.7282 117.908 45.7282 116.577C45.7282 115.731 45.8974 114.981 46.2358 114.327C46.5741 113.673 47.0478 113.166 47.6568 112.805C48.2771 112.444 48.9763 112.263 49.7545 112.263C50.4989 112.263 51.1474 112.427 51.7 112.754C52.2526 113.081 52.6812 113.543 52.9857 114.141C53.2902 114.739 53.4425 115.444 53.4425 116.256C53.4425 116.741 53.2282 116.983 52.7996 116.983H47.8091C47.8767 117.761 48.0967 118.337 48.4688 118.709C48.841 119.07 49.3824 119.25 50.0929 119.25C50.4538 119.25 50.7696 119.205 51.0402 119.115C51.3222 119.025 51.638 118.9 51.9876 118.743C52.3259 118.562 52.5741 118.472 52.732 118.472ZM49.8053 113.752C49.2301 113.752 48.7677 113.932 48.4181 114.293C48.0797 114.654 47.8767 115.173 47.8091 115.85H51.6323C51.6098 115.162 51.4406 114.643 51.1248 114.293C50.809 113.932 50.3692 113.752 49.8053 113.752ZM61.7192 118.472C61.911 118.472 62.0632 118.545 62.176 118.692C62.3 118.838 62.3621 119.036 62.3621 119.284C62.3621 119.634 62.1534 119.927 61.7361 120.164C61.3527 120.378 60.9185 120.553 60.4335 120.688C59.9486 120.812 59.4862 120.874 59.0463 120.874C57.7155 120.874 56.661 120.491 55.8828 119.724C55.1046 118.957 54.7155 117.908 54.7155 116.577C54.7155 115.731 54.8847 114.981 55.223 114.327C55.5614 113.673 56.035 113.166 56.6441 112.805C57.2644 112.444 57.9636 112.263 58.7418 112.263C59.4862 112.263 60.1346 112.427 60.6873 112.754C61.2399 113.081 61.6685 113.543 61.973 114.141C62.2775 114.739 62.4297 115.444 62.4297 116.256C62.4297 116.741 62.2155 116.983 61.7869 116.983H56.7963C56.864 117.761 57.0839 118.337 57.4561 118.709C57.8283 119.07 58.3696 119.25 59.0801 119.25C59.441 119.25 59.7568 119.205 60.0275 119.115C60.3095 119.025 60.6252 118.9 60.9749 118.743C61.3132 118.562 61.5613 118.472 61.7192 118.472ZM58.7925 113.752C58.2174 113.752 57.755 113.932 57.4053 114.293C57.067 114.654 56.864 115.173 56.7963 115.85H60.6196C60.597 115.162 60.4279 114.643 60.1121 114.293C59.7963 113.932 59.3565 113.752 58.7925 113.752ZM68.9133 112.263C69.6238 112.263 70.2554 112.444 70.808 112.805C71.3719 113.166 71.8061 113.679 72.1106 114.344C72.4264 114.998 72.5843 115.754 72.5843 116.611C72.5843 117.468 72.4264 118.218 72.1106 118.861C71.8061 119.504 71.3775 120 70.8249 120.35C70.2723 120.699 69.6351 120.874 68.9133 120.874C68.3268 120.874 67.8024 120.75 67.34 120.502C66.8776 120.254 66.5223 119.91 66.2742 119.47V122.921C66.2742 123.214 66.1783 123.446 65.9866 123.615C65.7949 123.784 65.5411 123.869 65.2253 123.869C64.9095 123.869 64.6501 123.778 64.4471 123.598C64.2554 123.417 64.1595 123.181 64.1595 122.887V113.295C64.1595 112.991 64.2498 112.748 64.4302 112.568C64.6219 112.387 64.8757 112.297 65.1915 112.297C65.5073 112.297 65.761 112.387 65.9528 112.568C66.1445 112.748 66.2403 112.991 66.2403 113.295V113.718C66.4885 113.256 66.8437 112.901 67.3061 112.652C67.7798 112.393 68.3155 112.263 68.9133 112.263ZM68.355 119.233C69.0204 119.233 69.5392 119.008 69.9114 118.557C70.2836 118.094 70.4696 117.446 70.4696 116.611C70.4696 115.754 70.2836 115.088 69.9114 114.615C69.5392 114.141 69.0204 113.904 68.355 113.904C67.6783 113.904 67.1539 114.135 66.7817 114.598C66.4208 115.06 66.2403 115.72 66.2403 116.577C66.2403 117.423 66.4208 118.077 66.7817 118.54C67.1539 119.002 67.6783 119.233 68.355 119.233ZM75.5885 120.84C75.2615 120.84 74.9964 120.739 74.7934 120.536C74.6017 120.333 74.5058 120.068 74.5058 119.741V109.844C74.5058 109.517 74.5961 109.263 74.7765 109.083C74.9683 108.902 75.2276 108.812 75.5547 108.812H81.4927C82.1806 108.812 82.5246 109.105 82.5246 109.692C82.5246 110.267 82.1806 110.555 81.4927 110.555H76.6543V113.803H81.1543C81.8423 113.803 82.1863 114.096 82.1863 114.682C82.1863 115.258 81.8423 115.545 81.1543 115.545H76.6543V119.741C76.6543 120.068 76.5585 120.333 76.3667 120.536C76.175 120.739 75.9156 120.84 75.5885 120.84ZM85.628 120.84C85.3235 120.84 85.0697 120.756 84.8667 120.587C84.675 120.406 84.5791 120.152 84.5791 119.825V113.295C84.5791 112.968 84.675 112.72 84.8667 112.551C85.0697 112.382 85.3235 112.297 85.628 112.297C85.9325 112.297 86.1862 112.382 86.3893 112.551C86.5923 112.72 86.6938 112.968 86.6938 113.295V119.825C86.6938 120.152 86.5923 120.406 86.3893 120.587C86.1862 120.756 85.9325 120.84 85.628 120.84ZM85.628 110.792C85.2445 110.792 84.94 110.69 84.7145 110.487C84.4889 110.273 84.3761 109.996 84.3761 109.658C84.3761 109.32 84.4889 109.049 84.7145 108.846C84.94 108.643 85.2445 108.542 85.628 108.542C86.0002 108.542 86.299 108.643 86.5246 108.846C86.7614 109.049 86.8799 109.32 86.8799 109.658C86.8799 109.996 86.7671 110.273 86.5415 110.487C86.3159 110.69 86.0114 110.792 85.628 110.792ZM93.5349 119.267C94.0988 119.301 94.3808 119.555 94.3808 120.028C94.3808 120.299 94.268 120.508 94.0424 120.654C93.8281 120.79 93.518 120.846 93.112 120.823L92.6552 120.79C90.7605 120.654 89.8131 119.639 89.8131 117.744V114.057H88.9673C88.6628 114.057 88.4259 113.989 88.2568 113.854C88.0989 113.718 88.0199 113.521 88.0199 113.261C88.0199 113.002 88.0989 112.805 88.2568 112.669C88.4259 112.534 88.6628 112.466 88.9673 112.466H89.8131V110.91C89.8131 110.605 89.909 110.363 90.1007 110.182C90.2925 110.002 90.5519 109.912 90.8789 109.912C91.1947 109.912 91.4485 110.002 91.6402 110.182C91.8319 110.363 91.9278 110.605 91.9278 110.91V112.466H93.3657C93.6703 112.466 93.9015 112.534 94.0594 112.669C94.2285 112.805 94.3131 113.002 94.3131 113.261C94.3131 113.521 94.2285 113.718 94.0594 113.854C93.9015 113.989 93.6703 114.057 93.3657 114.057H91.9278V117.897C91.9278 118.731 92.3112 119.177 93.0782 119.233L93.5349 119.267ZM99.6641 119.267C100.228 119.301 100.51 119.555 100.51 120.028C100.51 120.299 100.397 120.508 100.172 120.654C99.9573 120.79 99.6472 120.846 99.2412 120.823L98.7844 120.79C96.8897 120.654 95.9423 119.639 95.9423 117.744V114.057H95.0965C94.7919 114.057 94.5551 113.989 94.3859 113.854C94.228 113.718 94.1491 113.521 94.1491 113.261C94.1491 113.002 94.228 112.805 94.3859 112.669C94.5551 112.534 94.7919 112.466 95.0965 112.466H95.9423V110.91C95.9423 110.605 96.0382 110.363 96.2299 110.182C96.4216 110.002 96.681 109.912 97.0081 109.912C97.3239 109.912 97.5776 110.002 97.7694 110.182C97.9611 110.363 98.057 110.605 98.057 110.91V112.466H99.4949C99.7994 112.466 100.031 112.534 100.189 112.669C100.358 112.805 100.442 113.002 100.442 113.261C100.442 113.521 100.358 113.718 100.189 113.854C100.031 113.989 99.7994 114.057 99.4949 114.057H98.057V117.897C98.057 118.731 98.4404 119.177 99.2073 119.233L99.6641 119.267Z" fill="white"/>
</g>
</g>
<defs>
<filter id="filter0_d" x="0" y="0" width="422" height="904" filterUnits="userSpaceOnUse" color-interpolation-filters="sRGB">
<feFlood flood-opacity="0" result="BackgroundImageFix"/>
<feColorMatrix in="SourceAlpha" type="matrix" values="0 0 0 0 0 0 0 0 0 0 0 0 0 0 0 0 0 0 127 0" result="hardAlpha"/>
<feOffset dy="4"/>
<feGaussianBlur stdDeviation="2"/>
<feComposite in2="hardAlpha" operator="out"/>
<feColorMatrix type="matrix" values="0 0 0 0 0 0 0 0 0 0 0 0 0 0 0 0 0 0 0.25 0"/>
<feBlend mode="normal" in2="BackgroundImageFix" result="effect1_dropShadow"/>
<feBlend mode="normal" in="SourceGraphic" in2="effect1_dropShadow" result="shape"/>
</filter>
<linearGradient id="paint0_linear" x1="-56" y1="-132" x2="326" y2="328" gradientUnits="userSpaceOnUse">
<stop stop-color="#79031D"/>
<stop offset="0.932292" stop-color="#FBBC04"/>
</linearGradient>
<clipPath id="clip0">
<rect x="4" width="414" height="896" rx="30" fill="white"/>
</clipPath>
<clipPath id="clip1">
<rect width="18" height="13" fill="white" transform="translate(351 507)"/>
</clipPath>
<clipPath id="clip2">
<rect width="18" height="12" fill="white" transform="translate(347 597)"/>
</clipPath>
</defs>
</svg>
