<svg width="428" height="910" viewBox="0 0 428 910" fill="none" xmlns="http://www.w3.org/2000/svg">
<g clip-path="url(#clip0)">
<rect x="3.5" y="3.5" width="421" height="903" rx="33.5" fill="#313131"/>
<rect opacity="0.35" x="379.833" y="25.5" width="21" height="10.3333" rx="2.16667" stroke="black"/>
<path opacity="0.4" d="M402.333 28.6667V32.6667C403.138 32.328 403.661 31.5399 403.661 30.6667C403.661 29.7936 403.138 29.0055 402.333 28.6667" fill="black"/>
<rect x="381.333" y="27" width="18" height="7.33333" rx="1.33333" fill="black"/>
<path fill-rule="evenodd" clip-rule="evenodd" d="M361.016 29.2845C363.473 29.2846 365.835 30.1387 367.615 31.6703C367.749 31.7885 367.963 31.787 368.095 31.6669L369.376 30.4966C369.443 30.4357 369.481 30.3532 369.48 30.2673C369.479 30.1815 369.441 30.0994 369.373 30.0392C364.701 25.9869 357.331 25.9869 352.659 30.0392C352.591 30.0993 352.553 30.1814 352.552 30.2673C352.551 30.3531 352.589 30.4356 352.655 30.4966L353.937 31.6669C354.069 31.7872 354.283 31.7887 354.417 31.6703C356.198 30.1386 358.56 29.2845 361.016 29.2845ZM361.016 33.0921C362.366 33.092 363.667 33.5459 364.668 34.3657C364.803 34.4821 365.016 34.4795 365.148 34.36L366.428 33.1897C366.495 33.1283 366.532 33.045 366.532 32.9585C366.531 32.872 366.491 32.7894 366.423 32.7293C363.376 30.1648 358.659 30.1648 355.613 32.7293C355.544 32.7894 355.505 32.872 355.504 32.9586C355.503 33.0451 355.541 33.1284 355.608 33.1897L356.888 34.36C357.02 34.4795 357.233 34.4821 357.368 34.3657C358.368 33.5465 359.668 33.0926 361.016 33.0921ZM363.58 35.6539C363.582 35.7407 363.544 35.8243 363.476 35.8851L361.262 37.9071C361.197 37.9666 361.109 38 361.016 38C360.924 38 360.836 37.9666 360.771 37.9071L358.557 35.8851C358.488 35.8243 358.451 35.7406 358.453 35.6538C358.455 35.567 358.496 35.4849 358.567 35.4267C359.981 34.3444 362.052 34.3444 363.466 35.4267C363.537 35.4849 363.578 35.5671 363.58 35.6539Z" fill="black"/>
<path fill-rule="evenodd" clip-rule="evenodd" d="M345.928 26H344.824C344.214 26 343.72 26.4477 343.72 27V35.6667C343.72 36.219 344.214 36.6667 344.824 36.6667H345.928C346.538 36.6667 347.032 36.219 347.032 35.6667V27C347.032 26.4477 346.538 26 345.928 26ZM339.672 28.3333H340.776C341.386 28.3333 341.88 28.781 341.88 29.3333V35.6667C341.88 36.219 341.386 36.6667 340.776 36.6667H339.672C339.062 36.6667 338.568 36.219 338.568 35.6667V29.3333C338.568 28.781 339.062 28.3333 339.672 28.3333ZM335.624 30.6667H334.52C333.91 30.6667 333.416 31.1144 333.416 31.6667V35.6667C333.416 36.219 333.91 36.6667 334.52 36.6667H335.624C336.234 36.6667 336.728 36.219 336.728 35.6667V31.6667C336.728 31.1144 336.234 30.6667 335.624 30.6667ZM330.472 32.6667H329.368C328.758 32.6667 328.264 33.1144 328.264 33.6667V35.6667C328.264 36.219 328.758 36.6667 329.368 36.6667H330.472C331.082 36.6667 331.576 36.219 331.576 35.6667V33.6667C331.576 33.1144 331.082 32.6667 330.472 32.6667Z" fill="black"/>
<path d="M29.6861 24.9211C31.1973 24.9211 32.359 25.4343 33.171 26.4606C33.9943 27.4756 34.406 28.9305 34.406 30.8252C34.406 32.1222 34.2142 33.25 33.8308 34.2087C33.4473 35.156 32.8947 35.8835 32.1729 36.391C31.4624 36.8985 30.6221 37.1523 29.6522 37.1523C29.0094 37.1523 28.3609 37.0395 27.7068 36.8139C27.0639 36.5771 26.5169 36.2613 26.0658 35.8665C25.9192 35.7425 25.812 35.6241 25.7444 35.5113C25.688 35.3872 25.6598 35.2406 25.6598 35.0714C25.6598 34.8233 25.7274 34.6147 25.8628 34.4455C26.0094 34.2651 26.1786 34.1748 26.3703 34.1748C26.4831 34.1748 26.5902 34.1974 26.6917 34.2425C26.7932 34.2763 26.9173 34.3384 27.0639 34.4286C28 35.0827 28.8346 35.4098 29.5676 35.4098C30.3909 35.4098 31.0394 35.032 31.5131 34.2763C31.9868 33.5094 32.2349 32.438 32.2575 31.0621C31.9981 31.5696 31.609 31.9756 31.0902 32.2801C30.5714 32.5733 29.9906 32.7199 29.3477 32.7199C28.6372 32.7199 28.0056 32.5621 27.453 32.2463C26.9004 31.9192 26.4662 31.4681 26.1504 30.8929C25.8459 30.3064 25.6936 29.641 25.6936 28.8967C25.6936 28.1297 25.8628 27.4474 26.2011 26.8497C26.5507 26.2407 27.0244 25.767 27.6222 25.4286C28.2312 25.0903 28.9192 24.9211 29.6861 24.9211ZM29.8045 30.9944C30.4361 30.9944 30.9436 30.797 31.327 30.4023C31.7218 29.9963 31.9191 29.4718 31.9191 28.829C31.9191 28.1749 31.7218 27.6504 31.327 27.2557C30.9436 26.8497 30.4361 26.6467 29.8045 26.6467C29.1842 26.6467 28.6879 26.8497 28.3158 27.2557C27.9436 27.6504 27.7575 28.1749 27.7575 28.829C27.7575 29.4831 27.9436 30.0076 28.3158 30.4023C28.6879 30.797 29.1842 30.9944 29.8045 30.9944ZM37.2414 31.079C36.8805 31.079 36.5817 30.9606 36.3448 30.7237C36.108 30.4756 35.9896 30.1711 35.9896 29.8102C35.9896 29.4493 36.108 29.1504 36.3448 28.9136C36.5817 28.6767 36.8805 28.5583 37.2414 28.5583C37.6023 28.5583 37.9012 28.6767 38.1381 28.9136C38.3749 29.1504 38.4933 29.4493 38.4933 29.8102C38.4933 30.1711 38.3749 30.4756 38.1381 30.7237C37.9012 30.9606 37.6023 31.079 37.2414 31.079ZM37.2414 37.1015C36.8805 37.1015 36.5817 36.9831 36.3448 36.7462C36.108 36.4981 35.9896 36.1936 35.9896 35.8327C35.9896 35.4718 36.108 35.1729 36.3448 34.9361C36.5817 34.688 36.8805 34.5639 37.2414 34.5639C37.6023 34.5639 37.9012 34.688 38.1381 34.9361C38.3749 35.1729 38.4933 35.4718 38.4933 35.8327C38.4933 36.1936 38.3749 36.4981 38.1381 36.7462C37.9012 36.9831 37.6023 37.1015 37.2414 37.1015ZM48.2215 32.9737C48.5598 32.9737 48.8136 33.047 48.9828 33.1936C49.1519 33.3402 49.2365 33.5489 49.2365 33.8196C49.2365 34.3835 48.8982 34.6654 48.2215 34.6654H47.3587V36.0019C47.3587 36.3515 47.2572 36.6222 47.0542 36.8139C46.8625 37.0056 46.6087 37.1015 46.2929 37.1015C45.9771 37.1015 45.7178 37.0056 45.5147 36.8139C45.323 36.6222 45.2272 36.3515 45.2272 36.0019V34.6654H40.7948C40.4903 34.6654 40.2535 34.5808 40.0843 34.4117C39.9152 34.2312 39.8306 34.0113 39.8306 33.7519C39.8306 33.4812 39.9208 33.2218 40.1012 32.9737L45.3287 25.4625C45.4414 25.3046 45.5824 25.1862 45.7516 25.1072C45.9208 25.017 46.0956 24.9719 46.276 24.9719C46.5692 24.9719 46.823 25.0677 47.0373 25.2595C47.2516 25.4512 47.3587 25.7219 47.3587 26.0715V32.9737H48.2215ZM42.0806 32.9737H45.2272V28.423L42.0806 32.9737ZM57.9592 35.2406C58.6359 35.2406 58.9742 35.5282 58.9742 36.1034C58.9742 36.7011 58.6359 37 57.9592 37H52.2412C51.5532 37 51.2092 36.7011 51.2092 36.1034C51.2092 35.5282 51.5532 35.2406 52.2412 35.2406H54.0006V27.5264L52.3765 28.5245C52.2186 28.6147 52.0776 28.6598 51.9536 28.6598C51.7167 28.6598 51.5137 28.5583 51.3446 28.3553C51.1867 28.1523 51.1077 27.9267 51.1077 27.6786C51.1077 27.3516 51.2543 27.0978 51.5476 26.9174L54.1697 25.2933C54.5081 25.0903 54.8295 24.9888 55.134 24.9888C55.4498 24.9888 55.7036 25.0847 55.8953 25.2764C56.087 25.4681 56.1829 25.7331 56.1829 26.0715V35.2406H57.9592Z" fill="black"/>
<path d="M169 7H259V7C259 10.3137 256.314 13 253 13H175C171.686 13 169 10.3137 169 7V7Z" fill="#644B05"/>
<g opacity="0.7" filter="url(#filter0_f)">
<ellipse cx="361.5" cy="20.5" rx="113.5" ry="104.5" fill="url(#paint0_angular)" fill-opacity="0.4"/>
</g>
<g opacity="0.5" filter="url(#filter1_f)">
<ellipse rx="174.5" ry="161" transform="matrix(-1 0 0 1 475.5 742)" fill="url(#paint1_angular)" fill-opacity="0.5"/>
</g>
<g opacity="0.5" filter="url(#filter2_f)">
<ellipse rx="83" ry="76.5" transform="matrix(0.707107 -0.707107 -0.707107 -0.707107 11.7836 854.783)" fill="url(#paint2_angular)" fill-opacity="0.5"/>
</g>
<path d="M267.706 348.617C267.706 371.42 256.99 383.631 214.5 418.894C185.094 394.347 170.889 381.014 164.908 367.433H196.183L200.295 373.413C200.794 374.036 201.541 374.41 202.289 374.161C203.037 374.036 203.66 373.289 203.784 372.541L207.148 350.985L214.749 397.213C214.874 398.21 215.746 398.833 216.618 398.833C217.615 398.833 218.363 398.21 218.487 397.213L224.842 363.57L225.59 365.937C225.839 366.685 226.587 367.308 227.459 367.308H245.402C246.274 369.302 248.143 370.672 250.51 370.672C253.625 370.672 255.993 368.18 255.993 365.19C255.993 362.075 253.501 359.707 250.51 359.707C248.018 359.707 246.025 361.327 245.277 363.57H228.954L226.213 355.346C225.963 354.474 225.216 353.851 224.219 353.975C223.347 353.975 222.599 354.723 222.475 355.595L216.743 385.874L209.017 338.525C208.893 337.528 208.021 336.905 207.148 336.905C206.152 336.905 205.404 337.652 205.279 338.525L200.794 367.183L198.925 364.442C198.551 363.944 197.928 363.57 197.305 363.57H163.537C162.042 358.835 161.419 353.975 161.419 348.617C161.419 324.569 175.375 313.604 188.209 313.604C201.417 313.604 211.883 326.438 212.008 326.563C212.631 327.31 213.628 327.809 214.625 327.809C215.621 327.809 216.618 327.31 217.241 326.563C217.366 326.438 227.708 313.604 241.04 313.604C253.75 313.604 267.706 324.569 267.706 348.617ZM274.31 348.617C274.31 321.329 257.488 307 240.916 307C228.705 307 218.986 315.099 214.5 319.71C210.014 315.224 200.295 307 188.084 307C171.512 307 154.69 321.329 154.69 348.617C154.69 375.781 168.771 389.736 212.382 425.871C213.005 426.37 213.752 426.619 214.5 426.619C215.248 426.619 215.995 426.37 216.618 425.871C260.229 389.736 274.31 375.781 274.31 348.617Z" fill="url(#paint3_linear)"/>
<path d="M160.841 483.934C161.373 484.439 161.638 485.01 161.638 485.648C161.638 486.26 161.399 486.804 160.921 487.283C160.469 487.735 159.924 487.961 159.286 487.961C158.621 487.961 158.01 487.682 157.452 487.123L144.174 474.683V485.449C144.174 486.22 143.935 486.844 143.456 487.323C143.004 487.801 142.38 488.041 141.582 488.041C140.811 488.041 140.187 487.801 139.708 487.323C139.256 486.844 139.03 486.22 139.03 485.449V462.043C139.03 461.272 139.256 460.661 139.708 460.209C140.187 459.731 140.811 459.491 141.582 459.491C142.38 459.491 143.004 459.731 143.456 460.209C143.935 460.661 144.174 461.272 144.174 462.043V472.291L157.013 460.249C157.492 459.771 158.036 459.531 158.648 459.531C159.259 459.531 159.791 459.771 160.243 460.249C160.721 460.701 160.961 461.233 160.961 461.844C160.961 462.455 160.695 463.014 160.163 463.519L149.437 473.327L160.841 483.934ZM180.15 482.458C180.602 482.458 180.961 482.631 181.227 482.977C181.519 483.322 181.666 483.787 181.666 484.372C181.666 485.196 181.174 485.887 180.19 486.446C179.286 486.951 178.263 487.363 177.12 487.682C175.977 487.974 174.887 488.12 173.85 488.12C170.714 488.12 168.228 487.216 166.394 485.409C164.56 483.601 163.643 481.129 163.643 477.993C163.643 475.999 164.042 474.231 164.839 472.689C165.637 471.148 166.753 469.951 168.188 469.101C169.65 468.25 171.299 467.825 173.133 467.825C174.887 467.825 176.416 468.21 177.718 468.981C179.021 469.752 180.031 470.842 180.748 472.251C181.466 473.66 181.825 475.321 181.825 477.235C181.825 478.378 181.32 478.949 180.31 478.949H168.547C168.707 480.784 169.225 482.139 170.102 483.017C170.98 483.867 172.255 484.292 173.93 484.292C174.781 484.292 175.525 484.186 176.163 483.973C176.828 483.761 177.572 483.468 178.396 483.096C179.193 482.671 179.778 482.458 180.15 482.458ZM173.252 471.334C171.897 471.334 170.807 471.759 169.983 472.61C169.185 473.46 168.707 474.683 168.547 476.278H177.559C177.505 474.656 177.107 473.434 176.362 472.61C175.618 471.759 174.581 471.334 173.252 471.334ZM201.333 482.458C201.785 482.458 202.144 482.631 202.409 482.977C202.702 483.322 202.848 483.787 202.848 484.372C202.848 485.196 202.356 485.887 201.373 486.446C200.469 486.951 199.446 487.363 198.303 487.682C197.159 487.974 196.07 488.12 195.033 488.12C191.896 488.12 189.411 487.216 187.577 485.409C185.743 483.601 184.825 481.129 184.825 477.993C184.825 475.999 185.224 474.231 186.022 472.689C186.819 471.148 187.936 469.951 189.371 469.101C190.833 468.25 192.481 467.825 194.315 467.825C196.07 467.825 197.598 468.21 198.901 468.981C200.203 469.752 201.213 470.842 201.931 472.251C202.649 473.66 203.008 475.321 203.008 477.235C203.008 478.378 202.502 478.949 201.492 478.949H189.73C189.889 480.784 190.408 482.139 191.285 483.017C192.162 483.867 193.438 484.292 195.113 484.292C195.963 484.292 196.708 484.186 197.346 483.973C198.01 483.761 198.754 483.468 199.578 483.096C200.376 482.671 200.961 482.458 201.333 482.458ZM194.435 471.334C193.079 471.334 191.989 471.759 191.165 472.61C190.368 473.46 189.889 474.683 189.73 476.278H198.741C198.688 474.656 198.289 473.434 197.545 472.61C196.801 471.759 195.764 471.334 194.435 471.334ZM218.289 467.825C219.964 467.825 221.452 468.25 222.755 469.101C224.084 469.951 225.107 471.161 225.825 472.729C226.569 474.271 226.941 476.052 226.941 478.072C226.941 480.092 226.569 481.86 225.825 483.375C225.107 484.891 224.097 486.06 222.795 486.884C221.492 487.708 219.99 488.12 218.289 488.12C216.907 488.12 215.671 487.828 214.581 487.243C213.491 486.658 212.653 485.847 212.069 484.811V492.945C212.069 493.636 211.843 494.181 211.391 494.58C210.939 494.978 210.341 495.178 209.597 495.178C208.852 495.178 208.241 494.965 207.762 494.54C207.31 494.114 207.085 493.556 207.085 492.865V470.257C207.085 469.539 207.297 468.968 207.723 468.543C208.174 468.117 208.773 467.905 209.517 467.905C210.261 467.905 210.859 468.117 211.311 468.543C211.763 468.968 211.989 469.539 211.989 470.257V471.254C212.574 470.164 213.411 469.327 214.501 468.742C215.617 468.131 216.88 467.825 218.289 467.825ZM216.973 484.253C218.541 484.253 219.764 483.721 220.641 482.658C221.519 481.568 221.957 480.039 221.957 478.072C221.957 476.052 221.519 474.484 220.641 473.367C219.764 472.251 218.541 471.693 216.973 471.693C215.378 471.693 214.142 472.238 213.265 473.327C212.414 474.417 211.989 475.972 211.989 477.993C211.989 479.986 212.414 481.528 213.265 482.618C214.142 483.708 215.378 484.253 216.973 484.253ZM234.022 488.041C233.251 488.041 232.627 487.801 232.148 487.323C231.696 486.844 231.47 486.22 231.47 485.449V462.123C231.47 461.352 231.683 460.754 232.108 460.329C232.56 459.903 233.172 459.691 233.942 459.691H247.938C249.559 459.691 250.37 460.382 250.37 461.764C250.37 463.12 249.559 463.798 247.938 463.798H236.534V471.453H247.14C248.762 471.453 249.573 472.144 249.573 473.527C249.573 474.882 248.762 475.56 247.14 475.56H236.534V485.449C236.534 486.22 236.308 486.844 235.856 487.323C235.404 487.801 234.793 488.041 234.022 488.041ZM257.685 488.041C256.967 488.041 256.369 487.841 255.89 487.442C255.438 487.017 255.213 486.419 255.213 485.648V470.257C255.213 469.486 255.438 468.901 255.89 468.503C256.369 468.104 256.967 467.905 257.685 467.905C258.402 467.905 259 468.104 259.479 468.503C259.957 468.901 260.197 469.486 260.197 470.257V485.648C260.197 486.419 259.957 487.017 259.479 487.442C259 487.841 258.402 488.041 257.685 488.041ZM257.685 464.356C256.781 464.356 256.063 464.117 255.532 463.638C255 463.133 254.734 462.482 254.734 461.684C254.734 460.887 255 460.249 255.532 459.771C256.063 459.292 256.781 459.053 257.685 459.053C258.562 459.053 259.266 459.292 259.798 459.771C260.356 460.249 260.635 460.887 260.635 461.684C260.635 462.482 260.369 463.133 259.838 463.638C259.306 464.117 258.588 464.356 257.685 464.356ZM276.321 484.332C277.65 484.412 278.315 485.01 278.315 486.127C278.315 486.765 278.049 487.256 277.517 487.602C277.012 487.921 276.281 488.054 275.324 488.001L274.248 487.921C269.782 487.602 267.549 485.21 267.549 480.744V472.051H265.555C264.837 472.051 264.279 471.892 263.881 471.573C263.508 471.254 263.322 470.789 263.322 470.177C263.322 469.566 263.508 469.101 263.881 468.782C264.279 468.463 264.837 468.303 265.555 468.303H267.549V464.635C267.549 463.917 267.775 463.346 268.227 462.921C268.679 462.495 269.29 462.283 270.061 462.283C270.805 462.283 271.403 462.495 271.855 462.921C272.307 463.346 272.533 463.917 272.533 464.635V468.303H275.922C276.64 468.303 277.185 468.463 277.557 468.782C277.956 469.101 278.155 469.566 278.155 470.177C278.155 470.789 277.956 471.254 277.557 471.573C277.185 471.892 276.64 472.051 275.922 472.051H272.533V481.103C272.533 483.07 273.437 484.12 275.244 484.253L276.321 484.332ZM290.767 484.332C292.096 484.412 292.761 485.01 292.761 486.127C292.761 486.765 292.495 487.256 291.963 487.602C291.458 487.921 290.727 488.054 289.77 488.001L288.694 487.921C284.228 487.602 281.995 485.21 281.995 480.744V472.051H280.001C279.284 472.051 278.725 471.892 278.327 471.573C277.955 471.254 277.768 470.789 277.768 470.177C277.768 469.566 277.955 469.101 278.327 468.782C278.725 468.463 279.284 468.303 280.001 468.303H281.995V464.635C281.995 463.917 282.221 463.346 282.673 462.921C283.125 462.495 283.736 462.283 284.507 462.283C285.251 462.283 285.849 462.495 286.301 462.921C286.753 463.346 286.979 463.917 286.979 464.635V468.303H290.368C291.086 468.303 291.631 468.463 292.003 468.782C292.402 469.101 292.601 469.566 292.601 470.177C292.601 470.789 292.402 471.254 292.003 471.573C291.631 471.892 291.086 472.051 290.368 472.051H286.979V481.103C286.979 483.07 287.883 484.12 289.691 484.253L290.767 484.332Z" fill="url(#paint4_linear)"/>
</g>
<rect x="3.5" y="3.5" width="421" height="903" rx="33.5" stroke="#846307" stroke-width="7"/>
<defs>
<filter id="filter0_f" x="148" y="-184" width="427" height="409" filterUnits="userSpaceOnUse" color-interpolation-filters="sRGB">
<feFlood flood-opacity="0" result="BackgroundImageFix"/>
<feBlend mode="normal" in="SourceGraphic" in2="BackgroundImageFix" result="shape"/>
<feGaussianBlur stdDeviation="50" result="effect1_foregroundBlur"/>
</filter>
<filter id="filter1_f" x="201" y="481" width="549" height="522" filterUnits="userSpaceOnUse" color-interpolation-filters="sRGB">
<feFlood flood-opacity="0" result="BackgroundImageFix"/>
<feBlend mode="normal" in="SourceGraphic" in2="BackgroundImageFix" result="shape"/>
<feGaussianBlur stdDeviation="50" result="effect1_foregroundBlur"/>
</filter>
<filter id="filter2_f" x="-168.033" y="674.967" width="359.633" height="359.633" filterUnits="userSpaceOnUse" color-interpolation-filters="sRGB">
<feFlood flood-opacity="0" result="BackgroundImageFix"/>
<feBlend mode="normal" in="SourceGraphic" in2="BackgroundImageFix" result="shape"/>
<feGaussianBlur stdDeviation="50" result="effect1_foregroundBlur"/>
</filter>
<radialGradient id="paint0_angular" cx="0" cy="0" r="1" gradientUnits="userSpaceOnUse" gradientTransform="translate(361.5 20.5) rotate(90) scale(182.757 198.497)">
<stop stop-color="#EDB518"/>
<stop offset="0.0001" stop-color="#9895EE"/>
<stop offset="0.0002" stop-color="#C55492"/>
<stop offset="0.266645" stop-color="#79031D"/>
</radialGradient>
<radialGradient id="paint1_angular" cx="0" cy="0" r="1" gradientUnits="userSpaceOnUse" gradientTransform="translate(174.5 161) rotate(90) scale(224.561 243.391)">
<stop stop-color="#79031D"/>
<stop offset="0.266645" stop-color="#FBBC04"/>
<stop offset="0.572917" stop-color="#CB3153"/>
<stop offset="0.8125" stop-color="#FBBC04"/>
<stop offset="1" stop-color="#C55492"/>
</radialGradient>
<radialGradient id="paint2_angular" cx="0" cy="0" r="1" gradientUnits="userSpaceOnUse" gradientTransform="translate(83 76.5) rotate(90) scale(106.701 115.767)">
<stop stop-color="#79031D"/>
<stop offset="0.266645" stop-color="#FBBC04"/>
<stop offset="0.572917" stop-color="#C02A4B"/>
<stop offset="0.8125" stop-color="#C49716"/>
<stop offset="1" stop-color="#79031D"/>
</radialGradient>
<linearGradient id="paint3_linear" x1="154.69" y1="236.599" x2="324.774" y2="510.103" gradientUnits="userSpaceOnUse">
<stop offset="0.03125" stop-color="#79031D"/>
<stop offset="0.75" stop-color="#FBBC04"/>
</linearGradient>
<linearGradient id="paint4_linear" x1="214.5" y1="447.801" x2="214.5" y2="502.627" gradientUnits="userSpaceOnUse">
<stop stop-color="#79031D"/>
<stop offset="0.822917" stop-color="#FBBC04"/>
</linearGradient>
<clipPath id="clip0">
</clipPath>
</defs>
</svg>
