<svg width="123" height="24" viewBox="0 0 123 24" fill="none" xmlns="http://www.w3.org/2000/svg">
<path d="M7 12L17 12M7 12L11 8M7 12L11 16" stroke="#344955" stroke-width="1.5" stroke-linecap="round" stroke-linejoin="round"/>
<path d="M31.112 11.692C31.416 11.74 31.692 11.864 31.94 12.064C32.196 12.264 32.396 12.512 32.54 12.808C32.692 13.104 32.768 13.42 32.768 13.756C32.768 14.18 32.66 14.564 32.444 14.908C32.228 15.244 31.912 15.512 31.496 15.712C31.088 15.904 30.604 16 30.044 16H26.924V7.636H29.924C30.492 7.636 30.976 7.732 31.376 7.924C31.776 8.108 32.076 8.36 32.276 8.68C32.476 9 32.576 9.36 32.576 9.76C32.576 10.256 32.44 10.668 32.168 10.996C31.904 11.316 31.552 11.548 31.112 11.692ZM28.016 11.248H29.852C30.364 11.248 30.76 11.128 31.04 10.888C31.32 10.648 31.46 10.316 31.46 9.892C31.46 9.468 31.32 9.136 31.04 8.896C30.76 8.656 30.356 8.536 29.828 8.536H28.016V11.248ZM29.948 15.1C30.492 15.1 30.916 14.972 31.22 14.716C31.524 14.46 31.676 14.104 31.676 13.648C31.676 13.184 31.516 12.82 31.196 12.556C30.876 12.284 30.448 12.148 29.912 12.148H28.016V15.1H29.948ZM33.8754 12.688C33.8754 12.016 34.0114 11.428 34.2834 10.924C34.5554 10.412 34.9274 10.016 35.3994 9.736C35.8794 9.456 36.4114 9.316 36.9954 9.316C37.5714 9.316 38.0714 9.44 38.4954 9.688C38.9194 9.936 39.2354 10.248 39.4434 10.624V9.424H40.5474V16H39.4434V14.776C39.2274 15.16 38.9034 15.48 38.4714 15.736C38.0474 15.984 37.5514 16.108 36.9834 16.108C36.3994 16.108 35.8714 15.964 35.3994 15.676C34.9274 15.388 34.5554 14.984 34.2834 14.464C34.0114 13.944 33.8754 13.352 33.8754 12.688ZM39.4434 12.7C39.4434 12.204 39.3434 11.772 39.1434 11.404C38.9434 11.036 38.6714 10.756 38.3274 10.564C37.9914 10.364 37.6194 10.264 37.2114 10.264C36.8034 10.264 36.4314 10.36 36.0954 10.552C35.7594 10.744 35.4914 11.024 35.2914 11.392C35.0914 11.76 34.9914 12.192 34.9914 12.688C34.9914 13.192 35.0914 13.632 35.2914 14.008C35.4914 14.376 35.7594 14.66 36.0954 14.86C36.4314 15.052 36.8034 15.148 37.2114 15.148C37.6194 15.148 37.9914 15.052 38.3274 14.86C38.6714 14.66 38.9434 14.376 39.1434 14.008C39.3434 13.632 39.4434 13.196 39.4434 12.7ZM41.9848 12.7C41.9848 12.02 42.1208 11.428 42.3928 10.924C42.6648 10.412 43.0408 10.016 43.5208 9.736C44.0088 9.456 44.5648 9.316 45.1888 9.316C45.9968 9.316 46.6608 9.512 47.1808 9.904C47.7088 10.296 48.0568 10.84 48.2248 11.536H47.0488C46.9368 11.136 46.7168 10.82 46.3888 10.588C46.0688 10.356 45.6688 10.24 45.1888 10.24C44.5648 10.24 44.0608 10.456 43.6768 10.888C43.2928 11.312 43.1008 11.916 43.1008 12.7C43.1008 13.492 43.2928 14.104 43.6768 14.536C44.0608 14.968 44.5648 15.184 45.1888 15.184C45.6688 15.184 46.0688 15.072 46.3888 14.848C46.7088 14.624 46.9288 14.304 47.0488 13.888H48.2248C48.0488 14.56 47.6968 15.1 47.1688 15.508C46.6408 15.908 45.9808 16.108 45.1888 16.108C44.5648 16.108 44.0088 15.968 43.5208 15.688C43.0408 15.408 42.6648 15.012 42.3928 14.5C42.1208 13.988 41.9848 13.388 41.9848 12.7ZM53.3538 16L50.7738 13.096V16H49.6818V7.12H50.7738V12.34L53.3058 9.424H54.8298L51.7338 12.7L54.8418 16H53.3538ZM64.2048 7.636V8.524H61.9248V16H60.8328V8.524H58.5408V7.636H64.2048ZM68.417 16.108C67.801 16.108 67.241 15.968 66.737 15.688C66.241 15.408 65.849 15.012 65.561 14.5C65.281 13.98 65.141 13.38 65.141 12.7C65.141 12.028 65.285 11.436 65.573 10.924C65.869 10.404 66.269 10.008 66.773 9.736C67.277 9.456 67.841 9.316 68.465 9.316C69.089 9.316 69.653 9.456 70.157 9.736C70.661 10.008 71.057 10.4 71.345 10.912C71.641 11.424 71.789 12.02 71.789 12.7C71.789 13.38 71.637 13.98 71.333 14.5C71.037 15.012 70.633 15.408 70.121 15.688C69.609 15.968 69.041 16.108 68.417 16.108ZM68.417 15.148C68.809 15.148 69.177 15.056 69.521 14.872C69.865 14.688 70.141 14.412 70.349 14.044C70.565 13.676 70.673 13.228 70.673 12.7C70.673 12.172 70.569 11.724 70.361 11.356C70.153 10.988 69.881 10.716 69.545 10.54C69.209 10.356 68.845 10.264 68.453 10.264C68.053 10.264 67.685 10.356 67.349 10.54C67.021 10.716 66.757 10.988 66.557 11.356C66.357 11.724 66.257 12.172 66.257 12.7C66.257 13.236 66.353 13.688 66.545 14.056C66.745 14.424 67.009 14.7 67.337 14.884C67.665 15.06 68.025 15.148 68.417 15.148ZM82.016 10.084C82.016 10.78 81.776 11.36 81.296 11.824C80.824 12.28 80.1 12.508 79.124 12.508H77.516V16H76.424V7.636H79.124C80.068 7.636 80.784 7.864 81.272 8.32C81.768 8.776 82.016 9.364 82.016 10.084ZM79.124 11.608C79.732 11.608 80.18 11.476 80.468 11.212C80.756 10.948 80.9 10.572 80.9 10.084C80.9 9.052 80.308 8.536 79.124 8.536H77.516V11.608H79.124ZM84.4652 10.492C84.6572 10.116 84.9292 9.824 85.2812 9.616C85.6412 9.408 86.0772 9.304 86.5892 9.304V10.432H86.3012C85.0772 10.432 84.4652 11.096 84.4652 12.424V16H83.3732V9.424H84.4652V10.492ZM90.7178 16.108C90.1018 16.108 89.5418 15.968 89.0378 15.688C88.5418 15.408 88.1498 15.012 87.8618 14.5C87.5818 13.98 87.4418 13.38 87.4418 12.7C87.4418 12.028 87.5858 11.436 87.8738 10.924C88.1698 10.404 88.5698 10.008 89.0738 9.736C89.5778 9.456 90.1418 9.316 90.7658 9.316C91.3898 9.316 91.9538 9.456 92.4578 9.736C92.9618 10.008 93.3578 10.4 93.6458 10.912C93.9418 11.424 94.0898 12.02 94.0898 12.7C94.0898 13.38 93.9378 13.98 93.6338 14.5C93.3378 15.012 92.9338 15.408 92.4218 15.688C91.9098 15.968 91.3418 16.108 90.7178 16.108ZM90.7178 15.148C91.1098 15.148 91.4778 15.056 91.8218 14.872C92.1658 14.688 92.4418 14.412 92.6498 14.044C92.8658 13.676 92.9738 13.228 92.9738 12.7C92.9738 12.172 92.8698 11.724 92.6618 11.356C92.4538 10.988 92.1818 10.716 91.8458 10.54C91.5098 10.356 91.1458 10.264 90.7538 10.264C90.3538 10.264 89.9858 10.356 89.6498 10.54C89.3218 10.716 89.0578 10.988 88.8578 11.356C88.6578 11.724 88.5578 12.172 88.5578 12.7C88.5578 13.236 88.6538 13.688 88.8458 14.056C89.0458 14.424 89.3098 14.7 89.6378 14.884C89.9658 15.06 90.3258 15.148 90.7178 15.148ZM96.1136 8.356C95.9056 8.356 95.7296 8.284 95.5856 8.14C95.4496 7.996 95.3816 7.82 95.3816 7.612C95.3816 7.404 95.4496 7.228 95.5856 7.084C95.7296 6.94 95.9056 6.868 96.1136 6.868C96.3216 6.868 96.4936 6.94 96.6296 7.084C96.7736 7.228 96.8456 7.404 96.8456 7.612C96.8456 7.82 96.7736 7.996 96.6296 8.14C96.4936 8.284 96.3216 8.356 96.1136 8.356ZM96.6536 17.428C96.6536 18.012 96.5056 18.44 96.2096 18.712C95.9136 18.984 95.4816 19.12 94.9136 19.12H94.2776V18.196H94.7336C95.0376 18.196 95.2496 18.136 95.3696 18.016C95.4976 17.896 95.5616 17.692 95.5616 17.404V9.424H96.6536V17.428ZM104.502 12.46C104.502 12.668 104.49 12.888 104.466 13.12H99.2101C99.2501 13.768 99.4701 14.276 99.8701 14.644C100.278 15.004 100.77 15.184 101.346 15.184C101.818 15.184 102.21 15.076 102.522 14.86C102.842 14.636 103.066 14.34 103.194 13.972H104.37C104.194 14.604 103.842 15.12 103.314 15.52C102.786 15.912 102.13 16.108 101.346 16.108C100.722 16.108 100.162 15.968 99.6661 15.688C99.1781 15.408 98.7941 15.012 98.5141 14.5C98.2341 13.98 98.0941 13.38 98.0941 12.7C98.0941 12.02 98.2301 11.424 98.5021 10.912C98.7741 10.4 99.1541 10.008 99.6421 9.736C100.138 9.456 100.706 9.316 101.346 9.316C101.97 9.316 102.522 9.452 103.002 9.724C103.482 9.996 103.85 10.372 104.106 10.852C104.37 11.324 104.502 11.86 104.502 12.46ZM103.374 12.232C103.374 11.816 103.282 11.46 103.098 11.164C102.914 10.86 102.662 10.632 102.342 10.48C102.03 10.32 101.682 10.24 101.298 10.24C100.746 10.24 100.274 10.416 99.8821 10.768C99.4981 11.12 99.2781 11.608 99.2221 12.232H103.374ZM105.536 12.7C105.536 12.02 105.672 11.428 105.944 10.924C106.216 10.412 106.592 10.016 107.072 9.736C107.56 9.456 108.116 9.316 108.74 9.316C109.548 9.316 110.212 9.512 110.732 9.904C111.26 10.296 111.608 10.84 111.776 11.536H110.6C110.488 11.136 110.268 10.82 109.94 10.588C109.62 10.356 109.22 10.24 108.74 10.24C108.116 10.24 107.612 10.456 107.228 10.888C106.844 11.312 106.652 11.916 106.652 12.7C106.652 13.492 106.844 14.104 107.228 14.536C107.612 14.968 108.116 15.184 108.74 15.184C109.22 15.184 109.62 15.072 109.94 14.848C110.26 14.624 110.48 14.304 110.6 13.888H111.776C111.6 14.56 111.248 15.1 110.72 15.508C110.192 15.908 109.532 16.108 108.74 16.108C108.116 16.108 107.56 15.968 107.072 15.688C106.592 15.408 106.216 15.012 105.944 14.5C105.672 13.988 105.536 13.388 105.536 12.7ZM114.565 10.324V14.2C114.565 14.52 114.633 14.748 114.769 14.884C114.905 15.012 115.141 15.076 115.477 15.076H116.281V16H115.297C114.689 16 114.233 15.86 113.929 15.58C113.625 15.3 113.473 14.84 113.473 14.2V10.324H112.621V9.424H113.473V7.768H114.565V9.424H116.281V10.324H114.565ZM119.932 16.108C119.428 16.108 118.976 16.024 118.576 15.856C118.176 15.68 117.86 15.44 117.628 15.136C117.396 14.824 117.268 14.468 117.244 14.068H118.372C118.404 14.396 118.556 14.664 118.828 14.872C119.108 15.08 119.472 15.184 119.92 15.184C120.336 15.184 120.664 15.092 120.904 14.908C121.144 14.724 121.264 14.492 121.264 14.212C121.264 13.924 121.136 13.712 120.88 13.576C120.624 13.432 120.228 13.292 119.692 13.156C119.204 13.028 118.804 12.9 118.492 12.772C118.188 12.636 117.924 12.44 117.7 12.184C117.484 11.92 117.376 11.576 117.376 11.152C117.376 10.816 117.476 10.508 117.676 10.228C117.876 9.948 118.16 9.728 118.528 9.568C118.896 9.4 119.316 9.316 119.788 9.316C120.516 9.316 121.104 9.5 121.552 9.868C122 10.236 122.24 10.74 122.272 11.38H121.18C121.156 11.036 121.016 10.76 120.76 10.552C120.512 10.344 120.176 10.24 119.752 10.24C119.36 10.24 119.048 10.324 118.816 10.492C118.584 10.66 118.468 10.88 118.468 11.152C118.468 11.368 118.536 11.548 118.672 11.692C118.816 11.828 118.992 11.94 119.2 12.028C119.416 12.108 119.712 12.2 120.088 12.304C120.56 12.432 120.944 12.56 121.24 12.688C121.536 12.808 121.788 12.992 121.996 13.24C122.212 13.488 122.324 13.812 122.332 14.212C122.332 14.572 122.232 14.896 122.032 15.184C121.832 15.472 121.548 15.7 121.18 15.868C120.82 16.028 120.404 16.108 119.932 16.108Z" fill="#344955"/>
</svg>
