<svg width="280" height="67" viewBox="0 0 280 67" fill="none" xmlns="http://www.w3.org/2000/svg">
<rect width="280" height="67" rx="10" fill="#FDC435"/>
<path d="M40.8223 33.718C40.8223 32.494 41.1043 31.396 41.6683 30.424C42.2443 29.452 43.0183 28.696 43.9903 28.156C44.9743 27.604 46.0483 27.328 47.2123 27.328C48.5443 27.328 49.7263 27.658 50.7583 28.318C51.8023 28.966 52.5583 29.89 53.0263 31.09H50.5603C50.2363 30.43 49.7863 29.938 49.2103 29.614C48.6343 29.29 47.9683 29.128 47.2123 29.128C46.3843 29.128 45.6463 29.314 44.9983 29.686C44.3503 30.058 43.8403 30.592 43.4683 31.288C43.1083 31.984 42.9283 32.794 42.9283 33.718C42.9283 34.642 43.1083 35.452 43.4683 36.148C43.8403 36.844 44.3503 37.384 44.9983 37.768C45.6463 38.14 46.3843 38.326 47.2123 38.326C47.9683 38.326 48.6343 38.164 49.2103 37.84C49.7863 37.516 50.2363 37.024 50.5603 36.364H53.0263C52.5583 37.564 51.8023 38.488 50.7583 39.136C49.7263 39.784 48.5443 40.108 47.2123 40.108C46.0363 40.108 44.9623 39.838 43.9903 39.298C43.0183 38.746 42.2443 37.984 41.6683 37.012C41.1043 36.04 40.8223 34.942 40.8223 33.718ZM60.5581 29.92C61.3141 29.92 61.9861 30.082 62.5741 30.406C63.1741 30.73 63.6421 31.21 63.9781 31.846C64.3261 32.482 64.5001 33.25 64.5001 34.15V40H62.4661V34.456C62.4661 33.568 62.2441 32.89 61.8001 32.422C61.3561 31.942 60.7501 31.702 59.9821 31.702C59.2141 31.702 58.6021 31.942 58.1461 32.422C57.7021 32.89 57.4801 33.568 57.4801 34.456V40H55.4281V26.68H57.4801V31.234C57.8281 30.814 58.2661 30.49 58.7941 30.262C59.3341 30.034 59.9221 29.92 60.5581 29.92ZM76.2076 34.798C76.2076 35.17 76.1836 35.506 76.1356 35.806H68.5576C68.6176 36.598 68.9116 37.234 69.4396 37.714C69.9676 38.194 70.6156 38.434 71.3836 38.434C72.4876 38.434 73.2676 37.972 73.7236 37.048H75.9376C75.6376 37.96 75.0916 38.71 74.2996 39.298C73.5196 39.874 72.5476 40.162 71.3836 40.162C70.4356 40.162 69.5836 39.952 68.8276 39.532C68.0836 39.1 67.4956 38.5 67.0636 37.732C66.6436 36.952 66.4336 36.052 66.4336 35.032C66.4336 34.012 66.6376 33.118 67.0456 32.35C67.4656 31.57 68.0476 30.97 68.7916 30.55C69.5476 30.13 70.4116 29.92 71.3836 29.92C72.3196 29.92 73.1536 30.124 73.8856 30.532C74.6176 30.94 75.1876 31.516 75.5956 32.26C76.0036 32.992 76.2076 33.838 76.2076 34.798ZM74.0656 34.15C74.0536 33.394 73.7836 32.788 73.2556 32.332C72.7276 31.876 72.0736 31.648 71.2936 31.648C70.5856 31.648 69.9796 31.876 69.4756 32.332C68.9716 32.776 68.6716 33.382 68.5756 34.15H74.0656ZM77.543 35.032C77.543 34.012 77.747 33.118 78.155 32.35C78.575 31.57 79.151 30.97 79.883 30.55C80.615 30.13 81.455 29.92 82.403 29.92C83.603 29.92 84.593 30.208 85.373 30.784C86.165 31.348 86.699 32.158 86.975 33.214H84.761C84.581 32.722 84.293 32.338 83.897 32.062C83.501 31.786 83.003 31.648 82.403 31.648C81.563 31.648 80.891 31.948 80.387 32.548C79.895 33.136 79.649 33.964 79.649 35.032C79.649 36.1 79.895 36.934 80.387 37.534C80.891 38.134 81.563 38.434 82.403 38.434C83.591 38.434 84.377 37.912 84.761 36.868H86.975C86.687 37.876 86.147 38.68 85.355 39.28C84.563 39.868 83.579 40.162 82.403 40.162C81.455 40.162 80.615 39.952 79.883 39.532C79.151 39.1 78.575 38.5 78.155 37.732C77.747 36.952 77.543 36.052 77.543 35.032ZM92.9439 35.05L97.5159 40H94.7439L91.0719 35.734V40H89.0199V26.68H91.0719V34.42L94.6719 30.082H97.5159L92.9439 35.05ZM107.965 40.162C107.029 40.162 106.183 39.952 105.427 39.532C104.671 39.1 104.077 38.5 103.645 37.732C103.213 36.952 102.997 36.052 102.997 35.032C102.997 34.024 103.219 33.13 103.663 32.35C104.107 31.57 104.713 30.97 105.481 30.55C106.249 30.13 107.107 29.92 108.055 29.92C109.003 29.92 109.861 30.13 110.629 30.55C111.397 30.97 112.003 31.57 112.447 32.35C112.891 33.13 113.113 34.024 113.113 35.032C113.113 36.04 112.885 36.934 112.429 37.714C111.973 38.494 111.349 39.1 110.557 39.532C109.777 39.952 108.913 40.162 107.965 40.162ZM107.965 38.38C108.493 38.38 108.985 38.254 109.441 38.002C109.909 37.75 110.287 37.372 110.575 36.868C110.863 36.364 111.007 35.752 111.007 35.032C111.007 34.312 110.869 33.706 110.593 33.214C110.317 32.71 109.951 32.332 109.495 32.08C109.039 31.828 108.547 31.702 108.019 31.702C107.491 31.702 106.999 31.828 106.543 32.08C106.099 32.332 105.745 32.71 105.481 33.214C105.217 33.706 105.085 34.312 105.085 35.032C105.085 36.1 105.355 36.928 105.895 37.516C106.447 38.092 107.137 38.38 107.965 38.38ZM124.123 30.082V40H122.071V38.83C121.747 39.238 121.321 39.562 120.793 39.802C120.277 40.03 119.725 40.144 119.137 40.144C118.357 40.144 117.655 39.982 117.031 39.658C116.419 39.334 115.933 38.854 115.573 38.218C115.225 37.582 115.051 36.814 115.051 35.914V30.082H117.085V35.608C117.085 36.496 117.307 37.18 117.751 37.66C118.195 38.128 118.801 38.362 119.569 38.362C120.337 38.362 120.943 38.128 121.387 37.66C121.843 37.18 122.071 36.496 122.071 35.608V30.082H124.123ZM129.224 31.756V37.246C129.224 37.618 129.308 37.888 129.476 38.056C129.656 38.212 129.956 38.29 130.376 38.29H131.636V40H130.016C129.092 40 128.384 39.784 127.892 39.352C127.4 38.92 127.154 38.218 127.154 37.246V31.756H125.984V30.082H127.154V27.616H129.224V30.082H131.636V31.756H129.224ZM150.21 29.92C150.99 29.92 151.686 30.082 152.298 30.406C152.922 30.73 153.408 31.21 153.756 31.846C154.116 32.482 154.296 33.25 154.296 34.15V40H152.262V34.456C152.262 33.568 152.04 32.89 151.596 32.422C151.152 31.942 150.546 31.702 149.778 31.702C149.01 31.702 148.398 31.942 147.942 32.422C147.498 32.89 147.276 33.568 147.276 34.456V40H145.242V34.456C145.242 33.568 145.02 32.89 144.576 32.422C144.132 31.942 143.526 31.702 142.758 31.702C141.99 31.702 141.378 31.942 140.922 32.422C140.478 32.89 140.256 33.568 140.256 34.456V40H138.204V30.082H140.256V31.216C140.592 30.808 141.018 30.49 141.534 30.262C142.05 30.034 142.602 29.92 143.19 29.92C143.982 29.92 144.69 30.088 145.314 30.424C145.938 30.76 146.418 31.246 146.754 31.882C147.054 31.282 147.522 30.808 148.158 30.46C148.794 30.1 149.478 29.92 150.21 29.92ZM165.835 30.082L159.751 44.662H157.627L159.643 39.838L155.737 30.082H158.023L160.813 37.642L163.711 30.082H165.835ZM174.111 31.522C174.411 31.018 174.807 30.628 175.299 30.352C175.803 30.064 176.397 29.92 177.081 29.92V32.044H176.559C175.755 32.044 175.143 32.248 174.723 32.656C174.315 33.064 174.111 33.772 174.111 34.78V40H172.059V30.082H174.111V31.522ZM188.057 34.798C188.057 35.17 188.033 35.506 187.985 35.806H180.407C180.467 36.598 180.761 37.234 181.289 37.714C181.817 38.194 182.465 38.434 183.233 38.434C184.337 38.434 185.117 37.972 185.573 37.048H187.787C187.487 37.96 186.941 38.71 186.149 39.298C185.369 39.874 184.397 40.162 183.233 40.162C182.285 40.162 181.433 39.952 180.677 39.532C179.933 39.1 179.345 38.5 178.913 37.732C178.493 36.952 178.283 36.052 178.283 35.032C178.283 34.012 178.487 33.118 178.895 32.35C179.315 31.57 179.897 30.97 180.641 30.55C181.397 30.13 182.261 29.92 183.233 29.92C184.169 29.92 185.003 30.124 185.735 30.532C186.467 30.94 187.037 31.516 187.445 32.26C187.853 32.992 188.057 33.838 188.057 34.798ZM185.915 34.15C185.903 33.394 185.633 32.788 185.105 32.332C184.577 31.876 183.923 31.648 183.143 31.648C182.435 31.648 181.829 31.876 181.325 32.332C180.821 32.776 180.521 33.382 180.425 34.15H185.915ZM193.677 40.162C192.897 40.162 192.195 40.024 191.571 39.748C190.959 39.46 190.473 39.076 190.113 38.596C189.753 38.104 189.561 37.558 189.537 36.958H191.661C191.697 37.378 191.895 37.732 192.255 38.02C192.627 38.296 193.089 38.434 193.641 38.434C194.217 38.434 194.661 38.326 194.973 38.11C195.297 37.882 195.459 37.594 195.459 37.246C195.459 36.874 195.279 36.598 194.919 36.418C194.571 36.238 194.013 36.04 193.245 35.824C192.501 35.62 191.895 35.422 191.427 35.23C190.959 35.038 190.551 34.744 190.203 34.348C189.867 33.952 189.699 33.43 189.699 32.782C189.699 32.254 189.855 31.774 190.167 31.342C190.479 30.898 190.923 30.55 191.499 30.298C192.087 30.046 192.759 29.92 193.515 29.92C194.643 29.92 195.549 30.208 196.233 30.784C196.929 31.348 197.301 32.122 197.349 33.106H195.297C195.261 32.662 195.081 32.308 194.757 32.044C194.433 31.78 193.995 31.648 193.443 31.648C192.903 31.648 192.489 31.75 192.201 31.954C191.913 32.158 191.769 32.428 191.769 32.764C191.769 33.028 191.865 33.25 192.057 33.43C192.249 33.61 192.483 33.754 192.759 33.862C193.035 33.958 193.443 34.084 193.983 34.24C194.703 34.432 195.291 34.63 195.747 34.834C196.215 35.026 196.617 35.314 196.953 35.698C197.289 36.082 197.463 36.592 197.475 37.228C197.475 37.792 197.319 38.296 197.007 38.74C196.695 39.184 196.251 39.532 195.675 39.784C195.111 40.036 194.445 40.162 193.677 40.162ZM208.674 30.082V40H206.622V38.83C206.298 39.238 205.872 39.562 205.344 39.802C204.828 40.03 204.276 40.144 203.688 40.144C202.908 40.144 202.206 39.982 201.582 39.658C200.97 39.334 200.484 38.854 200.124 38.218C199.776 37.582 199.602 36.814 199.602 35.914V30.082H201.636V35.608C201.636 36.496 201.858 37.18 202.302 37.66C202.746 38.128 203.352 38.362 204.12 38.362C204.888 38.362 205.494 38.128 205.938 37.66C206.394 37.18 206.622 36.496 206.622 35.608V30.082H208.674ZM223.387 29.92C224.167 29.92 224.863 30.082 225.475 30.406C226.099 30.73 226.585 31.21 226.933 31.846C227.293 32.482 227.473 33.25 227.473 34.15V40H225.439V34.456C225.439 33.568 225.217 32.89 224.773 32.422C224.329 31.942 223.723 31.702 222.955 31.702C222.187 31.702 221.575 31.942 221.119 32.422C220.675 32.89 220.453 33.568 220.453 34.456V40H218.419V34.456C218.419 33.568 218.197 32.89 217.753 32.422C217.309 31.942 216.703 31.702 215.935 31.702C215.167 31.702 214.555 31.942 214.099 32.422C213.655 32.89 213.433 33.568 213.433 34.456V40H211.381V30.082H213.433V31.216C213.769 30.808 214.195 30.49 214.711 30.262C215.227 30.034 215.779 29.92 216.367 29.92C217.159 29.92 217.867 30.088 218.491 30.424C219.115 30.76 219.595 31.246 219.931 31.882C220.231 31.282 220.699 30.808 221.335 30.46C221.971 30.1 222.655 29.92 223.387 29.92ZM239.174 34.798C239.174 35.17 239.15 35.506 239.102 35.806H231.524C231.584 36.598 231.878 37.234 232.406 37.714C232.934 38.194 233.582 38.434 234.35 38.434C235.454 38.434 236.234 37.972 236.69 37.048H238.904C238.604 37.96 238.058 38.71 237.266 39.298C236.486 39.874 235.514 40.162 234.35 40.162C233.402 40.162 232.55 39.952 231.794 39.532C231.05 39.1 230.462 38.5 230.03 37.732C229.61 36.952 229.4 36.052 229.4 35.032C229.4 34.012 229.604 33.118 230.012 32.35C230.432 31.57 231.014 30.97 231.758 30.55C232.514 30.13 233.378 29.92 234.35 29.92C235.286 29.92 236.12 30.124 236.852 30.532C237.584 30.94 238.154 31.516 238.562 32.26C238.97 32.992 239.174 33.838 239.174 34.798ZM237.032 34.15C237.02 33.394 236.75 32.788 236.222 32.332C235.694 31.876 235.04 31.648 234.26 31.648C233.552 31.648 232.946 31.876 232.442 32.332C231.938 32.776 231.638 33.382 231.542 34.15H237.032Z" fill="white"/>
</svg>
