<svg width="300" height="255" viewBox="0 0 300 255" fill="none" xmlns="http://www.w3.org/2000/svg">
<path d="M85.7071 245.75C85.7071 251.926 82.0304 254.082 77.4944 254.082C77.3894 254.082 77.2845 254.081 77.1797 254.079C76.9695 254.074 76.7614 254.064 76.5557 254.05C72.4621 253.761 69.2817 251.494 69.2817 245.75C69.2817 239.806 76.889 232.306 77.4604 231.751L77.4614 231.75C77.4834 231.729 77.4944 231.718 77.4944 231.718C77.4944 231.718 85.7071 239.574 85.7071 245.75Z" fill="#FDC435"/>
<path d="M77.195 253.137L80.1988 248.947L77.1875 253.597L77.1795 254.079C76.9694 254.074 76.7612 254.064 76.5556 254.05L76.8793 247.871L76.8768 247.823L76.8823 247.814L76.9128 247.231L73.894 242.569L76.9223 246.793L76.9293 246.917L77.174 242.249L74.5896 237.431L77.2056 241.429L77.4602 231.751L77.4612 231.718V231.75L77.4187 239.382L79.9917 236.356L77.4082 240.04L77.3402 244.219L79.7425 240.208L77.3301 244.834L77.2921 247.158L80.7798 241.575L77.2791 247.969L77.195 253.137Z" fill="#3F3D56"/>
<path d="M261.778 167.282C261.778 215.706 239.758 253.907 212.641 254.961C177.277 256.336 131.059 221.13 163.503 167.282C188.503 125.788 185.503 79.6029 212.641 79.6029C239.779 79.6029 261.778 118.858 261.778 167.282Z" fill="#F2F2F2"/>
<path d="M233.251 193.025H163.188V253.775H233.251V193.025Z" fill="#FDC435"/>
<path d="M59.9727 253.775H292.866" stroke="#3F3D56" stroke-width="0.550814" stroke-miterlimit="10"/>
<path d="M239.601 4.98999C238.061 4.99013 236.568 5.51945 235.372 6.48906C234.177 7.45868 233.352 8.80951 233.036 10.3147C232.72 11.8199 232.933 13.3877 233.638 14.7548C234.343 16.1219 235.498 17.2051 236.909 17.8224C236.881 17.3072 236.92 16.7906 237.026 16.2856C237.155 15.7414 237.888 12.635 237.888 12.635C237.742 12.3016 237.668 11.9407 237.673 11.5766C237.673 10.584 238.248 9.8425 238.966 9.8425C239.577 9.8425 239.871 10.2999 239.871 10.8471C239.871 11.46 239.478 12.3749 239.278 13.224C239.238 13.3813 239.235 13.5458 239.271 13.7042C239.306 13.8626 239.378 14.0104 239.482 14.1358C239.585 14.2612 239.716 14.3607 239.865 14.4261C240.013 14.4916 240.175 14.5212 240.338 14.5126C241.607 14.5126 242.464 12.8832 242.464 10.9517C242.464 9.48372 241.473 8.38645 239.673 8.38645C239.242 8.36955 238.813 8.4403 238.41 8.59438C238.008 8.74847 237.641 8.98267 237.332 9.28275C237.023 9.58284 236.778 9.94253 236.613 10.3399C236.448 10.7374 236.365 11.1642 236.37 11.5945C236.35 12.0717 236.508 12.5394 236.813 12.9071C236.867 12.9512 236.905 13.0112 236.922 13.0784C236.939 13.1455 236.935 13.2164 236.909 13.2808C236.876 13.4034 236.804 13.6994 236.771 13.819C236.766 13.8551 236.751 13.8894 236.73 13.919C236.708 13.9485 236.68 13.9724 236.647 13.9888C236.614 14.0052 236.578 14.0135 236.541 14.0131C236.504 14.0127 236.468 14.0035 236.436 13.9864C235.499 13.6037 235.062 12.5812 235.062 11.4271C235.062 9.52557 236.67 7.24433 239.856 7.24433C242.416 7.24433 244.102 9.09504 244.102 11.0803C244.102 13.7084 242.638 15.6697 240.482 15.6697C239.757 15.6697 239.077 15.278 238.844 14.8355C238.844 14.8355 238.454 16.3783 238.37 16.6773C238.216 17.1853 237.989 17.6685 237.697 18.1124C238.619 18.3845 239.59 18.4552 240.542 18.32C241.494 18.1847 242.406 17.8465 243.216 17.3283C244.026 16.8101 244.715 16.1241 245.236 15.3167C245.757 14.5093 246.098 13.5995 246.236 12.649C246.374 11.6984 246.306 10.7294 246.036 9.80753C245.766 8.8857 245.3 8.03264 244.671 7.30622C244.042 6.5798 243.263 5.997 242.388 5.59736C241.514 5.19772 240.563 4.99058 239.601 4.98999L239.601 4.98999Z" fill="#3F3D56"/>
<path d="M300 150.062C299.471 150.296 298.91 150.45 298.335 150.52C298.941 150.158 299.394 149.588 299.611 148.917C299.042 149.255 298.419 149.493 297.769 149.62C297.372 149.195 296.856 148.9 296.288 148.773C295.72 148.645 295.127 148.691 294.586 148.904C294.045 149.118 293.581 149.489 293.254 149.97C292.927 150.45 292.753 151.018 292.753 151.599C292.752 151.822 292.777 152.043 292.828 152.26C291.675 152.203 290.546 151.904 289.516 151.382C288.487 150.86 287.578 150.127 286.851 149.231C286.48 149.869 286.367 150.625 286.535 151.344C286.702 152.063 287.138 152.691 287.753 153.1C287.29 153.089 286.838 152.964 286.435 152.738V152.774C286.435 153.443 286.667 154.091 287.091 154.609C287.515 155.127 288.105 155.482 288.762 155.614C288.513 155.682 288.256 155.716 287.998 155.716C287.815 155.716 287.633 155.698 287.453 155.662C287.638 156.238 287.999 156.741 288.485 157.102C288.971 157.463 289.558 157.663 290.163 157.674C289.136 158.48 287.867 158.918 286.561 158.915C286.33 158.915 286.099 158.901 285.869 158.873C287.189 159.731 288.732 160.186 290.307 160.183C295.646 160.183 298.563 155.767 298.563 151.937C298.563 151.811 298.56 151.686 298.554 151.563C299.121 151.153 299.611 150.644 300 150.062V150.062Z" fill="#3F3D56"/>
<path d="M169.791 0H159.562C159.394 8.59383e-05 159.232 0.0668942 159.113 0.185745C158.994 0.304595 158.927 0.465765 158.927 0.633845V10.8471C158.927 11.0152 158.994 11.1764 159.113 11.2952C159.232 11.4141 159.394 11.4809 159.562 11.481H164.677V6.93642H163.302V5.26211H164.677V4.02432C164.677 2.54136 165.707 1.73411 167.033 1.73411C167.668 1.73411 168.351 1.78193 168.51 1.80287V3.35161H167.453C166.731 3.35161 166.593 3.69245 166.593 4.19474V5.26211H168.312L168.087 6.93642H166.593V11.481H169.791C169.96 11.4809 170.121 11.4141 170.24 11.2952C170.359 11.1764 170.426 11.0152 170.426 10.8471V0.633845C170.426 0.465761 170.359 0.304588 170.24 0.185736C170.121 0.0668851 169.96 7.9384e-05 169.791 0Z" fill="#3F3D56"/>
<path d="M38.1312 169.619C38.766 169.621 39.3743 169.873 39.8231 170.321C40.272 170.769 40.525 171.377 40.5268 172.011V176.794C40.525 177.428 40.272 178.035 39.8231 178.484C39.3743 178.932 38.766 179.184 38.1312 179.186H33.3401C32.7053 179.184 32.0971 178.932 31.6482 178.484C31.1994 178.035 30.9464 177.428 30.9446 176.794V172.011C30.9464 171.377 31.1994 170.769 31.6482 170.321C32.0971 169.873 32.7053 169.621 33.3401 169.619H38.1312ZM38.1312 168.662H33.3401C32.4514 168.665 31.5999 169.018 30.9715 169.646C30.3431 170.273 29.9889 171.123 29.9863 172.011V176.794C29.9889 177.682 30.3431 178.532 30.9715 179.159C31.5999 179.787 32.4514 180.14 33.3401 180.143H38.1312C39.0199 180.14 39.8715 179.787 40.4999 179.159C41.1283 178.532 41.4824 177.682 41.485 176.794V172.011C41.4824 171.123 41.1283 170.273 40.4999 169.646C39.8715 169.018 39.0199 168.665 38.1312 168.662V168.662Z" fill="#3F3D56"/>
<path d="M38.8503 172.011C38.7081 172.011 38.5692 171.968 38.451 171.89C38.3328 171.811 38.2407 171.699 38.1863 171.568C38.1319 171.436 38.1177 171.292 38.1454 171.153C38.1731 171.014 38.2416 170.886 38.3421 170.786C38.4426 170.685 38.5707 170.617 38.7101 170.589C38.8495 170.562 38.994 170.576 39.1253 170.63C39.2566 170.684 39.3689 170.776 39.4478 170.894C39.5268 171.012 39.5689 171.151 39.5689 171.293C39.5692 171.387 39.5507 171.481 39.5147 171.568C39.4787 171.655 39.4257 171.734 39.359 171.801C39.2922 171.868 39.2129 171.92 39.1256 171.956C39.0383 171.992 38.9447 172.011 38.8503 172.011ZM35.736 172.489C36.1151 172.489 36.4856 172.601 36.8008 172.811C37.1159 173.022 37.3616 173.32 37.5066 173.67C37.6517 174.02 37.6896 174.405 37.6157 174.776C37.5417 175.147 37.3592 175.488 37.0912 175.755C36.8231 176.023 36.4817 176.205 36.1099 176.279C35.7382 176.353 35.3528 176.315 35.0026 176.17C34.6524 176.025 34.3531 175.78 34.1426 175.465C33.932 175.151 33.8196 174.781 33.8196 174.402C33.82 173.895 34.0221 173.409 34.3814 173.05C34.7407 172.691 35.2279 172.489 35.736 172.489ZM35.736 171.532C35.1675 171.532 34.6117 171.7 34.1389 172.016C33.6662 172.331 33.2977 172.78 33.0802 173.304C32.8626 173.828 32.8056 174.406 32.9166 174.962C33.0275 175.519 33.3013 176.031 33.7033 176.432C34.1053 176.833 34.6175 177.107 35.1752 177.217C35.7328 177.328 36.3108 177.271 36.8361 177.054C37.3614 176.837 37.8103 176.469 38.1262 175.997C38.4421 175.525 38.6107 174.97 38.6107 174.402C38.6105 173.641 38.3076 172.911 37.7685 172.373C37.2294 171.835 36.4984 171.532 35.736 171.532Z" fill="#3F3D56"/>
<path d="M119.527 79.8411H109.932C109.809 79.8351 109.686 79.8535 109.57 79.8953C109.453 79.937 109.347 80.0013 109.255 80.0843C109.164 80.1674 109.09 80.2676 109.038 80.3793C108.985 80.491 108.956 80.6118 108.95 80.735V90.3354C108.957 90.5937 109.062 90.8396 109.245 91.0226C109.428 91.2055 109.674 91.3116 109.932 91.319H119.524C119.776 91.3092 120.014 91.2004 120.187 91.0163C120.36 90.8321 120.453 90.5875 120.446 90.3354V80.735C120.448 80.615 120.425 80.4959 120.38 80.385C120.334 80.274 120.266 80.1736 120.18 80.0899C120.093 80.0061 119.991 79.9409 119.879 79.8981C119.767 79.8553 119.647 79.8359 119.527 79.8411V79.8411ZM112.514 89.4085H110.867V84.2959H112.514V89.4085ZM111.747 83.5185H111.735C111.498 83.517 111.271 83.4217 111.105 83.2535C110.938 83.0854 110.845 82.8581 110.846 82.6215C110.846 82.3849 110.941 82.1583 111.109 81.9913C111.277 81.8243 111.504 81.7305 111.741 81.7305C111.978 81.7305 112.205 81.8243 112.373 81.9913C112.541 82.1583 112.636 82.3849 112.636 82.6215C112.637 82.8581 112.544 83.0854 112.377 83.2535C112.211 83.4217 111.984 83.517 111.747 83.5185V83.5185ZM118.532 89.4085H116.886V86.613C116.886 85.9433 116.646 85.4859 116.05 85.4859C115.864 85.4874 115.682 85.5466 115.531 85.6553C115.38 85.764 115.266 85.9169 115.206 86.0928C115.162 86.2227 115.143 86.3595 115.149 86.4964V89.4085H113.502V84.2959H115.149V85.0075C115.299 84.7485 115.516 84.5346 115.777 84.3883C116.038 84.2421 116.334 84.1688 116.634 84.1763C117.715 84.1763 118.532 84.8879 118.532 86.4217V89.4085Z" fill="#3F3D56"/>
<path d="M207.921 132.576C207.921 132.576 219.578 132.892 221.503 133.592C223.429 134.291 224.29 139.292 224.29 139.292L215.239 142.133L208.469 141.75L203.374 142.109L206.219 134.67L207.921 132.576Z" fill="#2F2E41"/>
<path d="M208.424 128.757C208.424 128.757 209.191 131.714 207.489 133.809C205.787 135.903 214.806 143.365 214.806 143.365L219.565 142.549C219.565 142.549 218.516 133.461 219.925 131.16C221.333 128.858 208.424 128.757 208.424 128.757Z" fill="#9F616A"/>
<path opacity="0.1" d="M208.424 128.757C208.424 128.757 209.191 131.714 207.489 133.809C205.787 135.903 214.806 143.365 214.806 143.365L219.565 142.549C219.565 142.549 218.516 133.461 219.925 131.16C221.333 128.858 208.424 128.757 208.424 128.757Z" fill="black"/>
<path d="M240.07 215.232L229.571 229.133L236.736 233.31L246.597 217.201L240.07 215.232Z" fill="#9F616A"/>
<path d="M232.705 229.368C232.705 229.368 228.839 224.882 229.011 225.883C229.184 226.883 226.261 235.365 228.98 236.186C231.7 237.006 255.022 239.182 255.343 236.553C255.664 233.923 248.385 232.083 248.385 232.083C248.385 232.083 244.061 227.934 243.103 228.356C242.144 228.778 232.705 229.368 232.705 229.368Z" fill="#2F2E41"/>
<path d="M237.714 228.508L246.1 242.773L252.431 239.112L243.975 227.434L237.714 228.508Z" fill="#9F616A"/>
<path d="M250.953 194.571L248.464 198.088C248.464 198.088 236.599 214.54 237.859 215.869C239.119 217.197 244.367 222.218 247.036 221.245C249.704 220.272 259.186 203.456 259.186 203.456L256.713 193.583L250.953 194.571Z" fill="#2F2E41"/>
<path d="M199.843 191.243C199.843 191.243 202.5 196.193 209.235 197.869C215.969 199.545 223.005 202.972 223.255 202.929C223.506 202.886 224.214 202.507 224.386 203.507C224.558 204.507 226.405 206.25 226.405 206.25C226.405 206.25 233.844 231.489 236.685 231.517C239.526 231.544 245.365 229.512 245.486 228.719C245.607 227.926 236.787 202.151 236.701 201.651L235.668 195.65C235.668 195.65 247.333 197.509 248.421 197.838C249.508 198.166 259.186 203.456 259.186 203.456C259.186 203.456 269.05 196.357 259.823 189.187C250.596 182.018 234.736 176.759 234.736 176.759L229.047 175.161L224.088 174.866L223.358 172.07L211.614 172.747L199.358 177.939L199.843 191.243Z" fill="#2F2E41"/>
<path d="M215.343 134.644C220.395 134.644 224.491 130.555 224.491 125.51C224.491 120.466 220.395 116.376 215.343 116.376C210.291 116.376 206.195 120.466 206.195 125.51C206.195 130.555 210.291 134.644 215.343 134.644Z" fill="#9F616A"/>
<path d="M207.066 132.851L208.167 132.663C208.167 132.663 210.154 140.302 216.301 141.564C216.301 141.564 219.335 137.936 219.205 137.324C219.076 136.712 221.608 133.445 222.954 135.274C224.3 137.102 222.625 169.312 223.756 169.89C224.887 170.469 227.313 171.082 225.36 173.219C223.408 175.356 215.652 178.232 213.934 177.24C212.216 176.247 208.706 167.839 207.188 165.011C205.67 162.182 203.239 152.559 203.239 152.559C203.239 152.559 200.136 142.021 202.046 139.634C203.956 137.247 207.066 132.851 207.066 132.851Z" fill="#D0CDE1"/>
<path d="M215.822 172.505C215.617 174.749 215.267 176.977 214.774 179.175C214.325 180.964 213.803 182.044 213.207 181.998C211.686 181.885 210.994 184.112 210.638 186.68C210.257 189.405 210.257 192.513 210.048 193.611C209.771 195.062 208.001 196.17 204.464 195.845C202.358 195.606 200.29 195.099 198.312 194.338C193.537 192.605 193.678 178.546 194.477 168.115C194.966 161.72 195.7 156.686 195.7 156.686C195.7 156.686 194.25 152.366 193.786 149.405C193.693 148.865 193.647 148.317 193.647 147.769C193.718 145.183 198.447 138.194 201.305 133.84C204.166 129.486 208.069 132.68 208.069 132.68L206.71 136.773C206.71 136.773 208.815 140.016 208.831 143.103C208.846 146.189 213.87 148.417 215.674 149.911C216.808 150.85 216.78 163.383 215.822 172.505Z" fill="#2F2E41"/>
<path d="M219.794 134.143C219.794 134.143 220.124 134.532 221.633 134.342C223.444 134.114 225.933 134.74 226.511 136.465C227.571 139.63 230.561 152.504 230.561 152.504C230.561 152.504 231.806 167.222 232.365 170.473C232.925 173.723 232.647 176.603 233.199 178.31C233.75 180.018 227.752 175.126 225.541 175.763C223.33 176.4 221.909 168.148 222.187 165.268C222.465 162.389 222.7 159.259 221.933 156.302C221.166 153.344 222.526 145.516 222.475 143.723C222.424 141.929 217.6 137.41 219.794 134.143Z" fill="#2F2E41"/>
<path d="M226.267 179.886C226.267 179.886 235.953 185.162 236.88 192.671C237.807 200.181 223.924 185.4 223.924 185.4L226.267 179.886Z" fill="#9F616A"/>
<path d="M231.796 174.56C231.796 174.56 234.764 189.497 239.387 188.704C244.011 187.911 236.805 173.701 236.805 173.701L231.796 174.56Z" fill="#9F616A"/>
<path d="M247.63 239.678C247.63 239.678 245.263 242.402 244.676 241.988C244.089 241.573 242.739 247.211 243.956 248.29C245.173 249.368 249.861 251.138 249.912 252.931C249.962 254.725 262.535 254.369 262.985 252.49C263.435 250.61 261.408 246.324 259.984 245.539C258.559 244.754 253.293 237.526 253.293 237.526C253.293 237.526 249.168 238.127 247.63 239.678Z" fill="#2F2E41"/>
<path opacity="0.1" d="M224.724 189.021C222.478 187.438 216.206 187.045 210.638 186.68C208.195 186.524 205.887 186.37 204.114 186.122C202.405 185.885 200.869 184.327 199.504 182.004C197.436 178.485 195.765 173.208 194.477 168.115C194.966 161.72 195.7 156.686 195.7 156.686C195.7 156.686 194.25 152.366 193.786 149.405C194.113 148.95 194.534 148.571 195.021 148.294C200.927 145.763 206.566 170.673 207.282 174.582C207.294 174.647 207.303 174.708 207.313 174.76C207.66 176.773 211.412 178.494 214.774 179.175C216.845 179.596 218.772 179.623 219.66 179.077C221.992 177.647 229.164 183.37 229.708 183.532C230.252 183.698 227.95 191.301 224.724 189.021Z" fill="black"/>
<path d="M195.022 146.761C195.022 146.761 190.729 148.785 192.615 158.244C194.501 167.703 198.301 183.784 204.112 184.589C209.923 185.394 221.494 185.21 224.722 187.488C227.951 189.766 230.252 182.163 229.708 181.998C229.164 181.834 221.991 176.114 219.659 177.544C217.327 178.974 207.873 176.478 207.313 173.227C206.753 169.976 201.024 144.186 195.022 146.761Z" fill="#2F2E41"/>
<path d="M225.955 142.224L230.673 153.155C230.673 153.155 231.148 152.918 231.7 154.625C232.251 156.333 232.51 157.833 233.476 158.955C234.443 160.076 238.743 176.071 238.872 176.822C239.001 177.572 232.933 180.158 231.577 178.074C230.22 175.989 225.955 142.224 225.955 142.224Z" fill="#2F2E41"/>
<path d="M210.138 125.383C210.488 125.289 210.54 124.825 210.551 124.463C210.614 122.523 211.784 120.533 213.643 119.969C214.356 119.774 215.103 119.733 215.834 119.849C216.877 119.987 217.884 120.323 218.801 120.837C219.285 121.109 219.76 121.436 220.309 121.519C220.672 121.574 222.243 122.03 222.604 122.094C223.398 122.235 224.136 122.944 224.898 122.681C225.627 122.428 225.788 121.485 225.806 120.715C225.846 118.96 224.512 116.532 223.337 115.226C222.445 114.235 221.102 113.778 219.789 113.54C218.256 113.294 216.702 113.2 215.15 113.259C213.05 113.296 210.891 113.458 208.996 114.365C207.102 115.273 205.511 117.079 205.42 119.175C205.401 119.612 205.446 120.05 205.41 120.485C205.32 121.548 204.755 122.507 204.49 123.54C204.3 124.298 204.272 125.087 204.407 125.856C204.541 126.625 204.836 127.358 205.272 128.006C205.975 129.039 207.08 129.974 207.039 131.222L208.563 129.645C208.791 129.472 208.952 129.225 209.02 128.947C209.088 128.669 209.058 128.377 208.936 128.118L208.396 126.017C208.257 125.642 208.241 125.232 208.349 124.847C208.928 123.42 209.553 125.539 210.138 125.383Z" fill="#2F2E41"/>
<path d="M140.515 187.771C140.515 216.892 123.176 227.06 101.788 227.06C80.4001 227.06 63.0615 216.892 63.0615 187.771C63.0615 158.651 101.788 121.605 101.788 121.605C101.788 121.605 140.515 158.651 140.515 187.771Z" fill="#F2F2F2"/>
<path d="M100.378 222.605L100.775 198.234L117.281 168.083L100.837 194.411L101.015 183.452L112.391 161.639L101.062 180.553L101.383 160.843L113.565 143.477L101.433 157.744L101.634 121.605L100.375 169.447L100.478 167.473L88.0927 148.545L100.279 171.262L99.1254 193.274L99.091 192.689L84.813 172.77L99.0478 194.753L98.9035 197.506L98.8776 197.547L98.8895 197.773L95.9616 253.619H99.8733L100.343 224.774L114.543 202.844L100.378 222.605Z" fill="#3F3D56"/>
<g clip-path="url(#clip0)">
<path d="M4.78718 51.6105C4.78718 51.0504 4.40536 51.0504 4.40536 51.0504H4.20318H2.83447V52.2523H4.30798C4.56262 52.2522 4.78718 52.1709 4.78718 51.6105Z" fill="black"/>
<path d="M4.40548 53.0824H2.83447V54.5219H4.33293C4.55836 54.5155 4.97439 54.445 4.97439 53.8222C4.97439 53.0749 4.40548 53.0824 4.40548 53.0824Z" fill="black"/>
<path d="M8.42498 52.2522C7.59134 52.2522 7.4751 53.0824 7.4751 53.0824H9.24791C9.24803 53.0824 9.25862 52.2522 8.42498 52.2522Z" fill="black"/>
<path d="M5.94621 46.906C2.6622 46.906 0 49.5642 0 52.843C0 56.1218 2.6622 58.78 5.94621 58.78C9.23023 58.78 11.8924 56.1218 11.8924 52.843C11.8924 49.5642 9.23023 46.906 5.94621 46.906ZM7.24264 50.4103H9.46832V51.0735H7.24264V50.4103ZM6.11776 53.889C6.11776 55.5329 4.40427 55.4789 4.40427 55.4789H2.83399H2.78788H1.59717V50.093H2.78788H2.83399H4.40415C5.25724 50.093 5.93064 50.5632 5.93064 51.527C5.93064 52.4909 5.10748 52.552 5.10748 52.552C6.19258 52.552 6.11776 53.889 6.11776 53.889ZM8.4348 54.7385C9.33145 54.7385 9.2997 54.1591 9.2997 54.1591H10.249C10.249 55.6968 8.40317 55.5915 8.40317 55.5915C6.18808 55.5915 6.33054 53.5325 6.33054 53.5325C6.33054 53.5325 6.32884 51.4633 8.40293 51.4633C10.5864 51.4633 10.2807 53.8011 10.2807 53.8011H7.48548C7.48548 54.8019 8.4348 54.7385 8.4348 54.7385Z" fill="black"/>
</g>
<defs>
<clipPath id="clip0">
<rect width="11.8924" height="11.8741" fill="white" transform="translate(0 46.906)"/>
</clipPath>
</defs>
</svg>
