<svg width="24" height="24" viewBox="0 0 24 24" fill="none" xmlns="http://www.w3.org/2000/svg">
<path d="M8.24428 9.27187C9.39731 9.04682 10.5224 8.73749 11.5911 8.39999C10.1708 5.79838 8.41303 3.44994 6.34579 1.46718C3.30834 3.09838 0.99731 6.00937 0.252045 9.48276C2.48803 9.93276 5.24897 9.87655 8.24428 9.27187Z" fill="black"/>
<path d="M19.6207 2.81714L19.4239 3.59058C19.1145 4.82808 16.4989 6.59995 13.0677 7.87969L12.9129 7.93589C11.5207 5.3062 9.76292 2.91558 7.70984 0.848438C9.03172 0.328125 10.4801 0 11.9848 0C14.6707 0 17.1739 0.946875 19.1707 2.45152C19.3254 2.56402 19.4802 2.67656 19.6207 2.81714Z" fill="black"/>
<path d="M13.4613 12.5765C13.0957 11.5781 12.6878 10.6078 12.2378 9.66557C11.0566 10.0594 9.80508 10.3969 8.52535 10.6499C7.13316 10.9312 5.31914 11.1843 3.40664 11.1843C2.30972 11.1843 1.13785 11.0999 0.0269549 10.889C-0.00121699 11.2546 0.0315955 11.6203 0.0315955 11.9999C0.0315955 15.6984 1.7191 19.003 4.34878 21.1968C4.36285 21.1124 4.37695 21.028 4.39092 20.9437C4.92535 17.7094 8.66602 14.2922 13.4613 12.5765Z" fill="black"/>
<path d="M13.9254 13.8984C14.8816 16.9078 15.416 20.175 15.4722 23.4797C14.3754 23.8172 13.1941 24 11.9848 24C9.72069 24 7.59726 23.3203 5.79721 22.2234C5.7269 21.8859 5.7269 21.5343 5.78324 21.1687C6.21918 18.5109 9.70663 15.4313 13.9254 13.8984Z" fill="black"/>
<path d="M23.858 13.7015C23.2674 17.8219 20.5346 21.2671 16.8502 22.9125C16.7518 19.65 16.1892 16.4718 15.2471 13.4765C18.3971 12.6047 21.3831 12.7031 23.858 13.7015Z" fill="black"/>
<path d="M23.9846 12V12.2531C21.2987 11.2546 18.1158 11.2125 14.7971 12.1547C14.4314 11.1422 14.0096 10.1579 13.5596 9.20161C15.871 8.33372 20.1847 6.33629 20.7877 3.92818C22.7424 6.05152 23.9846 8.89215 23.9846 12Z" fill="black"/>
</svg>
