<svg width="670" height="410" viewBox="0 0 670 410" fill="none" xmlns="http://www.w3.org/2000/svg">
<g filter="url(#filter0_d)">
<g clip-path="url(#clip0)">
<rect x="30" y="30" width="610" height="350" rx="10" fill="white"/>
<g clip-path="url(#clip1)">
<rect width="414" height="896" transform="translate(30 30)" fill="white"/>
<path d="M30 30H444V202.4C444 239.363 444 257.845 436.806 271.963C430.479 284.382 420.382 294.479 407.963 300.806C393.845 308 375.363 308 338.4 308H135.6C98.6365 308 80.1548 308 66.0366 300.806C53.6179 294.479 43.5212 284.382 37.1936 271.963C30 257.845 30 239.363 30 202.4V30Z" fill="url(#paint0_linear)"/>
<path opacity="0.35" fill-rule="evenodd" clip-rule="evenodd" d="M404.088 47.8333C402.978 47.8333 402.539 47.9103 402.086 48.1304C401.704 48.3162 401.407 48.5859 401.202 48.9333C400.96 49.3449 400.875 49.7436 400.875 50.7518V55.2481C400.875 56.2564 400.96 56.6551 401.202 57.0667C401.407 57.4141 401.704 57.6838 402.086 57.8696C402.539 58.0897 402.978 58.1667 404.088 58.1667H420.784C421.894 58.1667 422.333 58.0897 422.786 57.8696C423.169 57.6838 423.466 57.4141 423.67 57.0667C423.912 56.6551 423.997 56.2564 423.997 55.2481V50.7518C423.997 49.7436 423.912 49.3449 423.67 48.9333C423.466 48.5859 423.169 48.3162 422.786 48.1304C422.333 47.9103 421.894 47.8333 420.784 47.8333H404.088Z" stroke="white"/>
<path opacity="0.4" d="M425.649 51V55C426.535 54.6612 427.111 53.8731 427.111 53C427.111 52.1269 426.535 51.3388 425.649 51Z" fill="white"/>
<path d="M404.408 49.3333H420.464C421.118 49.3333 421.355 49.3952 421.595 49.5114C421.834 49.6276 422.022 49.7981 422.15 50.0154C422.278 50.2327 422.346 50.4482 422.346 51.0426V54.9574C422.346 55.5518 422.278 55.7673 422.15 55.9846C422.022 56.2018 421.834 56.3724 421.595 56.4886C421.355 56.6048 421.118 56.6667 420.464 56.6667H404.408C403.754 56.6667 403.517 56.6048 403.278 56.4886C403.038 56.3724 402.851 56.2018 402.723 55.9846C402.595 55.7673 402.526 55.5518 402.526 54.9574V51.0426C402.526 50.4482 402.595 50.2327 402.723 50.0154C402.851 49.7981 403.038 49.6276 403.278 49.5114C403.517 49.3952 403.754 49.3333 404.408 49.3333Z" fill="white"/>
<path d="M386.378 49.6151C388.828 49.6152 391.184 50.4694 392.959 52.0009C393.093 52.1192 393.306 52.1177 393.438 51.9976L394.716 50.8273C394.782 50.7664 394.82 50.6839 394.819 50.598C394.819 50.5122 394.78 50.43 394.713 50.3698C390.053 46.3176 382.702 46.3176 378.043 50.3698C377.975 50.43 377.937 50.5121 377.936 50.5979C377.936 50.6838 377.973 50.7663 378.039 50.8273L379.318 51.9976C379.449 52.1179 379.663 52.1194 379.797 52.0009C381.572 50.4693 383.928 49.6151 386.378 49.6151ZM386.378 53.4227C387.724 53.4227 389.022 53.8766 390.019 54.6964C390.154 54.8127 390.367 54.8102 390.498 54.6907L391.775 53.5204C391.842 53.459 391.879 53.3757 391.878 53.2892C391.877 53.2026 391.838 53.1201 391.77 53.0599C388.732 50.4955 384.027 50.4955 380.989 53.0599C380.92 53.1201 380.881 53.2027 380.88 53.2892C380.879 53.3758 380.917 53.4591 380.984 53.5204L382.26 54.6907C382.392 54.8102 382.604 54.8127 382.739 54.6964C383.736 53.8772 385.033 53.4232 386.378 53.4227ZM388.831 56.2158C388.899 56.155 388.937 56.0713 388.935 55.9846C388.933 55.8978 388.892 55.8156 388.821 55.7574C387.411 54.6751 385.345 54.6751 383.935 55.7574C383.864 55.8155 383.823 55.8977 383.821 55.9845C383.819 56.0713 383.856 56.155 383.925 56.2158L386.133 58.2378C386.198 58.2972 386.286 58.3307 386.378 58.3307C386.47 58.3307 386.558 58.2972 386.623 58.2378L388.831 56.2158Z" fill="white"/>
<path d="M354.814 54.3333H355.915C356.523 54.3333 357.016 54.7811 357.016 55.3333V57.3333C357.016 57.8856 356.523 58.3333 355.915 58.3333H354.814C354.206 58.3333 353.713 57.8856 353.713 57.3333V55.3333C353.713 54.7811 354.206 54.3333 354.814 54.3333ZM359.952 52.3333H361.053C361.661 52.3333 362.154 52.7811 362.154 53.3333V57.3333C362.154 57.8856 361.661 58.3333 361.053 58.3333H359.952C359.344 58.3333 358.851 57.8856 358.851 57.3333V53.3333C358.851 52.7811 359.344 52.3333 359.952 52.3333ZM365.09 50H366.191C366.799 50 367.292 50.4477 367.292 51V57.3333C367.292 57.8856 366.799 58.3333 366.191 58.3333H365.09C364.482 58.3333 363.989 57.8856 363.989 57.3333V51C363.989 50.4477 364.482 50 365.09 50ZM370.229 47.6667H371.33C371.938 47.6667 372.431 48.1144 372.431 48.6667V57.3333C372.431 57.8856 371.938 58.3333 371.33 58.3333H370.229C369.62 58.3333 369.128 57.8856 369.128 57.3333V48.6667C369.128 48.1144 369.62 47.6667 370.229 47.6667Z" fill="white"/>
<path d="M71.849 52.3125C71.5658 52.6494 71.2264 52.9204 70.8309 53.1255C70.4403 53.3306 70.0106 53.4331 69.5419 53.4331C68.9266 53.4331 68.3895 53.2817 67.9305 52.979C67.4764 52.6763 67.1249 52.2515 66.8759 51.7046C66.6268 51.1528 66.5023 50.5449 66.5023 49.8809C66.5023 49.168 66.6366 48.5259 66.9052 47.9546C67.1786 47.3833 67.5643 46.9463 68.0624 46.6436C68.5604 46.3408 69.1415 46.1895 69.8055 46.1895C70.8602 46.1895 71.6903 46.585 72.2958 47.376C72.9061 48.1621 73.2113 49.2363 73.2113 50.5986V50.9941C73.2113 53.0693 72.8011 54.5854 71.9808 55.5425C71.1605 56.4946 69.9227 56.9829 68.2675 57.0073H68.0038V55.8647H68.2894C69.4076 55.8452 70.267 55.5547 70.8676 54.9932C71.4681 54.4268 71.7953 53.5332 71.849 52.3125ZM69.7616 52.3125C70.2157 52.3125 70.6332 52.1733 71.014 51.895C71.3998 51.6167 71.6805 51.2725 71.8563 50.8623V50.3203C71.8563 49.4316 71.6635 48.709 71.2777 48.1523C70.892 47.5957 70.4037 47.3174 69.8129 47.3174C69.2172 47.3174 68.7386 47.5469 68.3773 48.0059C68.016 48.46 67.8353 49.0605 67.8353 49.8076C67.8353 50.5352 68.0087 51.1357 68.3553 51.6094C68.7069 52.0781 69.1757 52.3125 69.7616 52.3125ZM75.1742 56.2896C75.1742 56.0552 75.2426 55.8599 75.3793 55.7036C75.5209 55.5474 75.7308 55.4692 76.0092 55.4692C76.2875 55.4692 76.4974 55.5474 76.639 55.7036C76.7855 55.8599 76.8588 56.0552 76.8588 56.2896C76.8588 56.5142 76.7855 56.7021 76.639 56.8535C76.4974 57.0049 76.2875 57.0806 76.0092 57.0806C75.7308 57.0806 75.5209 57.0049 75.3793 56.8535C75.2426 56.7021 75.1742 56.5142 75.1742 56.2896ZM75.1815 49.8223C75.1815 49.5879 75.2499 49.3926 75.3866 49.2363C75.5282 49.0801 75.7382 49.002 76.0165 49.002C76.2948 49.002 76.5048 49.0801 76.6464 49.2363C76.7928 49.3926 76.8661 49.5879 76.8661 49.8223C76.8661 50.0469 76.7928 50.2349 76.6464 50.3862C76.5048 50.5376 76.2948 50.6133 76.0165 50.6133C75.7382 50.6133 75.5282 50.5376 75.3866 50.3862C75.2499 50.2349 75.1815 50.0469 75.1815 49.8223ZM84.432 53.4185H85.9115V54.5244H84.432V57H83.0697V54.5244H78.2137V53.7261L82.9891 46.3359H84.432V53.4185ZM79.7518 53.4185H83.0697V48.189L82.9086 48.4819L79.7518 53.4185ZM91.5878 57H90.2255V47.9692L87.4935 48.9727V47.7422L91.3754 46.2847H91.5878V57Z" fill="white"/>
<path d="M70.056 169.048V175H66.168V169L59.664 158.2H63.792L68.28 165.664L72.768 158.2H76.584L70.056 169.048ZM82.6611 175.192C81.3011 175.192 80.0771 174.912 78.9891 174.352C77.9171 173.776 77.0771 172.984 76.4691 171.976C75.8611 170.968 75.5571 169.824 75.5571 168.544C75.5571 167.264 75.8611 166.12 76.4691 165.112C77.0771 164.104 77.9171 163.32 78.9891 162.76C80.0771 162.184 81.3011 161.896 82.6611 161.896C84.0211 161.896 85.2371 162.184 86.3091 162.76C87.3811 163.32 88.2211 164.104 88.8291 165.112C89.4371 166.12 89.7411 167.264 89.7411 168.544C89.7411 169.824 89.4371 170.968 88.8291 171.976C88.2211 172.984 87.3811 173.776 86.3091 174.352C85.2371 174.912 84.0211 175.192 82.6611 175.192ZM82.6611 172.12C83.6211 172.12 84.4051 171.8 85.0131 171.16C85.6371 170.504 85.9491 169.632 85.9491 168.544C85.9491 167.456 85.6371 166.592 85.0131 165.952C84.4051 165.296 83.6211 164.968 82.6611 164.968C81.7011 164.968 80.9091 165.296 80.2851 165.952C79.6611 166.592 79.3491 167.456 79.3491 168.544C79.3491 169.632 79.6611 170.504 80.2851 171.16C80.9091 171.8 81.7011 172.12 82.6611 172.12ZM105.252 162.088V175H101.7V173.464C101.204 174.024 100.612 174.456 99.9236 174.76C99.2356 175.048 98.4916 175.192 97.6916 175.192C95.9956 175.192 94.6516 174.704 93.6596 173.728C92.6676 172.752 92.1716 171.304 92.1716 169.384V162.088H95.9156V168.832C95.9156 170.912 96.7876 171.952 98.5316 171.952C99.4276 171.952 100.148 171.664 100.692 171.088C101.236 170.496 101.508 169.624 101.508 168.472V162.088H105.252ZM121.757 175.192C120.381 175.192 119.141 174.912 118.037 174.352C116.949 173.776 116.093 172.984 115.469 171.976C114.861 170.968 114.557 169.824 114.557 168.544C114.557 167.264 114.861 166.12 115.469 165.112C116.093 164.104 116.949 163.32 118.037 162.76C119.141 162.184 120.381 161.896 121.757 161.896C123.117 161.896 124.301 162.184 125.309 162.76C126.333 163.32 127.077 164.128 127.541 165.184L124.637 166.744C123.965 165.56 122.997 164.968 121.733 164.968C120.757 164.968 119.949 165.288 119.309 165.928C118.669 166.568 118.349 167.44 118.349 168.544C118.349 169.648 118.669 170.52 119.309 171.16C119.949 171.8 120.757 172.12 121.733 172.12C123.013 172.12 123.981 171.528 124.637 170.344L127.541 171.928C127.077 172.952 126.333 173.752 125.309 174.328C124.301 174.904 123.117 175.192 121.757 175.192ZM134.905 161.896C136.905 161.896 138.441 162.376 139.513 163.336C140.585 164.28 141.121 165.712 141.121 167.632V175H137.617V173.392C136.913 174.592 135.601 175.192 133.681 175.192C132.689 175.192 131.825 175.024 131.089 174.688C130.369 174.352 129.817 173.888 129.433 173.296C129.049 172.704 128.857 172.032 128.857 171.28C128.857 170.08 129.305 169.136 130.201 168.448C131.113 167.76 132.513 167.416 134.401 167.416H137.377C137.377 166.6 137.129 165.976 136.633 165.544C136.137 165.096 135.393 164.872 134.401 164.872C133.713 164.872 133.033 164.984 132.361 165.208C131.705 165.416 131.145 165.704 130.681 166.072L129.337 163.456C130.041 162.96 130.881 162.576 131.857 162.304C132.849 162.032 133.865 161.896 134.905 161.896ZM134.617 172.672C135.257 172.672 135.825 172.528 136.321 172.24C136.817 171.936 137.169 171.496 137.377 170.92V169.6H134.809C133.273 169.6 132.505 170.104 132.505 171.112C132.505 171.592 132.689 171.976 133.057 172.264C133.441 172.536 133.961 172.672 134.617 172.672ZM152.357 161.896C153.957 161.896 155.245 162.376 156.221 163.336C157.213 164.296 157.709 165.72 157.709 167.608V175H153.965V168.184C153.965 167.16 153.741 166.4 153.293 165.904C152.845 165.392 152.197 165.136 151.349 165.136C150.405 165.136 149.653 165.432 149.093 166.024C148.533 166.6 148.253 167.464 148.253 168.616V175H144.509V162.088H148.085V163.6C148.581 163.056 149.197 162.64 149.933 162.352C150.669 162.048 151.477 161.896 152.357 161.896ZM174.14 175.192C172.764 175.192 171.524 174.912 170.42 174.352C169.332 173.776 168.476 172.984 167.852 171.976C167.244 170.968 166.94 169.824 166.94 168.544C166.94 167.264 167.244 166.12 167.852 165.112C168.476 164.104 169.332 163.32 170.42 162.76C171.524 162.184 172.764 161.896 174.14 161.896C175.5 161.896 176.684 162.184 177.692 162.76C178.716 163.32 179.46 164.128 179.924 165.184L177.02 166.744C176.348 165.56 175.38 164.968 174.116 164.968C173.14 164.968 172.332 165.288 171.692 165.928C171.052 166.568 170.732 167.44 170.732 168.544C170.732 169.648 171.052 170.52 171.692 171.16C172.332 171.8 173.14 172.12 174.116 172.12C175.396 172.12 176.364 171.528 177.02 170.344L179.924 171.928C179.46 172.952 178.716 173.752 177.692 174.328C176.684 174.904 175.5 175.192 174.14 175.192ZM189.834 161.896C191.434 161.896 192.722 162.376 193.698 163.336C194.69 164.296 195.186 165.72 195.186 167.608V175H191.442V168.184C191.442 167.16 191.218 166.4 190.77 165.904C190.322 165.392 189.674 165.136 188.826 165.136C187.882 165.136 187.13 165.432 186.57 166.024C186.01 166.6 185.73 167.464 185.73 168.616V175H181.986V157.192H185.73V163.432C186.226 162.936 186.826 162.56 187.53 162.304C188.234 162.032 189.002 161.896 189.834 161.896ZM211.368 168.592C211.368 168.64 211.344 168.976 211.296 169.6H201.528C201.704 170.4 202.12 171.032 202.776 171.496C203.432 171.96 204.248 172.192 205.224 172.192C205.896 172.192 206.488 172.096 207 171.904C207.528 171.696 208.016 171.376 208.464 170.944L210.456 173.104C209.24 174.496 207.464 175.192 205.128 175.192C203.672 175.192 202.384 174.912 201.264 174.352C200.144 173.776 199.28 172.984 198.672 171.976C198.064 170.968 197.76 169.824 197.76 168.544C197.76 167.28 198.056 166.144 198.648 165.136C199.256 164.112 200.08 163.32 201.12 162.76C202.176 162.184 203.352 161.896 204.648 161.896C205.912 161.896 207.056 162.168 208.08 162.712C209.104 163.256 209.904 164.04 210.48 165.064C211.072 166.072 211.368 167.248 211.368 168.592ZM204.672 164.728C203.824 164.728 203.112 164.968 202.536 165.448C201.96 165.928 201.608 166.584 201.48 167.416H207.84C207.712 166.6 207.36 165.952 206.784 165.472C206.208 164.976 205.504 164.728 204.672 164.728ZM220.101 175.192C218.725 175.192 217.485 174.912 216.381 174.352C215.293 173.776 214.437 172.984 213.813 171.976C213.205 170.968 212.901 169.824 212.901 168.544C212.901 167.264 213.205 166.12 213.813 165.112C214.437 164.104 215.293 163.32 216.381 162.76C217.485 162.184 218.725 161.896 220.101 161.896C221.461 161.896 222.645 162.184 223.653 162.76C224.677 163.32 225.421 164.128 225.885 165.184L222.981 166.744C222.309 165.56 221.341 164.968 220.077 164.968C219.101 164.968 218.293 165.288 217.653 165.928C217.013 166.568 216.693 167.44 216.693 168.544C216.693 169.648 217.013 170.52 217.653 171.16C218.293 171.8 219.101 172.12 220.077 172.12C221.357 172.12 222.325 171.528 222.981 170.344L225.885 171.928C225.421 172.952 224.677 173.752 223.653 174.328C222.645 174.904 221.461 175.192 220.101 175.192ZM233.491 169.936L231.691 171.712V175H227.947V157.192H231.691V167.272L237.163 162.088H241.627L236.251 167.56L242.107 175H237.571L233.491 169.936ZM263.403 162.088L257.571 175.792C256.979 177.28 256.243 178.328 255.363 178.936C254.499 179.544 253.451 179.848 252.219 179.848C251.547 179.848 250.883 179.744 250.227 179.536C249.571 179.328 249.035 179.04 248.619 178.672L249.987 176.008C250.275 176.264 250.603 176.464 250.971 176.608C251.355 176.752 251.731 176.824 252.099 176.824C252.611 176.824 253.027 176.696 253.347 176.44C253.667 176.2 253.955 175.792 254.211 175.216L254.259 175.096L248.667 162.088H252.531L256.155 170.848L259.803 162.088H263.403ZM270.724 175.192C269.364 175.192 268.14 174.912 267.052 174.352C265.98 173.776 265.14 172.984 264.532 171.976C263.924 170.968 263.62 169.824 263.62 168.544C263.62 167.264 263.924 166.12 264.532 165.112C265.14 164.104 265.98 163.32 267.052 162.76C268.14 162.184 269.364 161.896 270.724 161.896C272.084 161.896 273.3 162.184 274.372 162.76C275.444 163.32 276.284 164.104 276.892 165.112C277.5 166.12 277.804 167.264 277.804 168.544C277.804 169.824 277.5 170.968 276.892 171.976C276.284 172.984 275.444 173.776 274.372 174.352C273.3 174.912 272.084 175.192 270.724 175.192ZM270.724 172.12C271.684 172.12 272.468 171.8 273.076 171.16C273.7 170.504 274.012 169.632 274.012 168.544C274.012 167.456 273.7 166.592 273.076 165.952C272.468 165.296 271.684 164.968 270.724 164.968C269.764 164.968 268.972 165.296 268.348 165.952C267.724 166.592 267.412 167.456 267.412 168.544C267.412 169.632 267.724 170.504 268.348 171.16C268.972 171.8 269.764 172.12 270.724 172.12ZM293.314 162.088V175H289.762V173.464C289.266 174.024 288.674 174.456 287.986 174.76C287.298 175.048 286.554 175.192 285.754 175.192C284.058 175.192 282.714 174.704 281.722 173.728C280.73 172.752 280.234 171.304 280.234 169.384V162.088H283.978V168.832C283.978 170.912 284.85 171.952 286.594 171.952C287.49 171.952 288.21 171.664 288.754 171.088C289.298 170.496 289.57 169.624 289.57 168.472V162.088H293.314ZM300.359 163.792C300.807 163.168 301.407 162.696 302.159 162.376C302.927 162.056 303.807 161.896 304.799 161.896V165.352C304.383 165.32 304.103 165.304 303.959 165.304C302.887 165.304 302.047 165.608 301.439 166.216C300.831 166.808 300.527 167.704 300.527 168.904V175H296.783V162.088H300.359V163.792ZM67.968 199.192C66.592 199.192 65.352 198.912 64.248 198.352C63.16 197.776 62.304 196.984 61.68 195.976C61.072 194.968 60.768 193.824 60.768 192.544C60.768 191.264 61.072 190.12 61.68 189.112C62.304 188.104 63.16 187.32 64.248 186.76C65.352 186.184 66.592 185.896 67.968 185.896C69.328 185.896 70.512 186.184 71.52 186.76C72.544 187.32 73.288 188.128 73.752 189.184L70.848 190.744C70.176 189.56 69.208 188.968 67.944 188.968C66.968 188.968 66.16 189.288 65.52 189.928C64.88 190.568 64.56 191.44 64.56 192.544C64.56 193.648 64.88 194.52 65.52 195.16C66.16 195.8 66.968 196.12 67.944 196.12C69.224 196.12 70.192 195.528 70.848 194.344L73.752 195.928C73.288 196.952 72.544 197.752 71.52 198.328C70.512 198.904 69.328 199.192 67.968 199.192ZM81.1157 185.896C83.1157 185.896 84.6517 186.376 85.7237 187.336C86.7957 188.28 87.3317 189.712 87.3317 191.632V199H83.8277V197.392C83.1237 198.592 81.8117 199.192 79.8917 199.192C78.8997 199.192 78.0357 199.024 77.2997 198.688C76.5797 198.352 76.0277 197.888 75.6437 197.296C75.2597 196.704 75.0677 196.032 75.0677 195.28C75.0677 194.08 75.5157 193.136 76.4117 192.448C77.3237 191.76 78.7237 191.416 80.6117 191.416H83.5877C83.5877 190.6 83.3397 189.976 82.8437 189.544C82.3477 189.096 81.6037 188.872 80.6117 188.872C79.9237 188.872 79.2437 188.984 78.5717 189.208C77.9157 189.416 77.3557 189.704 76.8917 190.072L75.5477 187.456C76.2517 186.96 77.0917 186.576 78.0677 186.304C79.0597 186.032 80.0757 185.896 81.1157 185.896ZM80.8277 196.672C81.4677 196.672 82.0357 196.528 82.5317 196.24C83.0277 195.936 83.3797 195.496 83.5877 194.92V193.6H81.0197C79.4837 193.6 78.7157 194.104 78.7157 195.112C78.7157 195.592 78.8997 195.976 79.2677 196.264C79.6517 196.536 80.1717 196.672 80.8277 196.672ZM94.2962 187.792C94.7442 187.168 95.3442 186.696 96.0962 186.376C96.8642 186.056 97.7442 185.896 98.7362 185.896V189.352C98.3202 189.32 98.0402 189.304 97.8962 189.304C96.8242 189.304 95.9842 189.608 95.3762 190.216C94.7682 190.808 94.4642 191.704 94.4642 192.904V199H90.7202V186.088H94.2962V187.792ZM113.997 181.192V199H110.421V197.512C109.493 198.632 108.149 199.192 106.389 199.192C105.173 199.192 104.069 198.92 103.077 198.376C102.101 197.832 101.333 197.056 100.773 196.048C100.213 195.04 99.9332 193.872 99.9332 192.544C99.9332 191.216 100.213 190.048 100.773 189.04C101.333 188.032 102.101 187.256 103.077 186.712C104.069 186.168 105.173 185.896 106.389 185.896C108.037 185.896 109.325 186.416 110.253 187.456V181.192H113.997ZM107.037 196.12C107.981 196.12 108.765 195.8 109.389 195.16C110.013 194.504 110.325 193.632 110.325 192.544C110.325 191.456 110.013 190.592 109.389 189.952C108.765 189.296 107.981 188.968 107.037 188.968C106.077 188.968 105.285 189.296 104.661 189.952C104.037 190.592 103.725 191.456 103.725 192.544C103.725 193.632 104.037 194.504 104.661 195.16C105.285 195.8 106.077 196.12 107.037 196.12ZM121.806 199.192C120.734 199.192 119.686 199.064 118.662 198.808C117.638 198.536 116.822 198.2 116.214 197.8L117.462 195.112C118.038 195.48 118.734 195.784 119.55 196.024C120.366 196.248 121.166 196.36 121.95 196.36C123.534 196.36 124.326 195.968 124.326 195.184C124.326 194.816 124.11 194.552 123.678 194.392C123.246 194.232 122.582 194.096 121.686 193.984C120.63 193.824 119.758 193.64 119.07 193.432C118.382 193.224 117.782 192.856 117.27 192.328C116.774 191.8 116.526 191.048 116.526 190.072C116.526 189.256 116.758 188.536 117.222 187.912C117.702 187.272 118.39 186.776 119.286 186.424C120.198 186.072 121.27 185.896 122.502 185.896C123.414 185.896 124.318 186 125.214 186.208C126.126 186.4 126.878 186.672 127.47 187.024L126.222 189.688C125.086 189.048 123.846 188.728 122.502 188.728C121.702 188.728 121.102 188.84 120.702 189.064C120.302 189.288 120.102 189.576 120.102 189.928C120.102 190.328 120.318 190.608 120.75 190.768C121.182 190.928 121.87 191.08 122.814 191.224C123.87 191.4 124.734 191.592 125.406 191.8C126.078 191.992 126.662 192.352 127.158 192.88C127.654 193.408 127.902 194.144 127.902 195.088C127.902 195.888 127.662 196.6 127.182 197.224C126.702 197.848 125.998 198.336 125.07 198.688C124.158 199.024 123.07 199.192 121.806 199.192ZM144.857 185.896C146.457 185.896 147.745 186.376 148.721 187.336C149.713 188.296 150.209 189.72 150.209 191.608V199H146.465V192.184C146.465 191.16 146.241 190.4 145.793 189.904C145.345 189.392 144.697 189.136 143.849 189.136C142.905 189.136 142.153 189.432 141.593 190.024C141.033 190.6 140.753 191.464 140.753 192.616V199H137.009V181.192H140.753V187.432C141.249 186.936 141.849 186.56 142.553 186.304C143.257 186.032 144.025 185.896 144.857 185.896ZM166.392 192.592C166.392 192.64 166.368 192.976 166.32 193.6H156.552C156.728 194.4 157.144 195.032 157.8 195.496C158.456 195.96 159.272 196.192 160.248 196.192C160.92 196.192 161.512 196.096 162.024 195.904C162.552 195.696 163.04 195.376 163.488 194.944L165.48 197.104C164.264 198.496 162.488 199.192 160.152 199.192C158.696 199.192 157.408 198.912 156.288 198.352C155.168 197.776 154.304 196.984 153.696 195.976C153.088 194.968 152.784 193.824 152.784 192.544C152.784 191.28 153.08 190.144 153.672 189.136C154.28 188.112 155.104 187.32 156.144 186.76C157.2 186.184 158.376 185.896 159.672 185.896C160.936 185.896 162.08 186.168 163.104 186.712C164.128 187.256 164.928 188.04 165.504 189.064C166.096 190.072 166.392 191.248 166.392 192.592ZM159.696 188.728C158.848 188.728 158.136 188.968 157.56 189.448C156.984 189.928 156.632 190.584 156.504 191.416H162.864C162.736 190.6 162.384 189.952 161.808 189.472C161.232 188.976 160.528 188.728 159.696 188.728ZM172.46 187.792C172.908 187.168 173.508 186.696 174.26 186.376C175.028 186.056 175.908 185.896 176.9 185.896V189.352C176.484 189.32 176.204 189.304 176.06 189.304C174.988 189.304 174.148 189.608 173.54 190.216C172.932 190.808 172.628 191.704 172.628 192.904V199H168.884V186.088H172.46V187.792ZM191.657 192.592C191.657 192.64 191.633 192.976 191.585 193.6H181.817C181.993 194.4 182.409 195.032 183.065 195.496C183.721 195.96 184.537 196.192 185.513 196.192C186.185 196.192 186.777 196.096 187.289 195.904C187.817 195.696 188.305 195.376 188.753 194.944L190.745 197.104C189.529 198.496 187.753 199.192 185.417 199.192C183.961 199.192 182.673 198.912 181.553 198.352C180.433 197.776 179.569 196.984 178.961 195.976C178.353 194.968 178.049 193.824 178.049 192.544C178.049 191.28 178.345 190.144 178.937 189.136C179.545 188.112 180.369 187.32 181.409 186.76C182.465 186.184 183.641 185.896 184.937 185.896C186.201 185.896 187.345 186.168 188.369 186.712C189.393 187.256 190.193 188.04 190.769 189.064C191.361 190.072 191.657 191.248 191.657 192.592ZM184.961 188.728C184.113 188.728 183.401 188.968 182.825 189.448C182.249 189.928 181.897 190.584 181.769 191.416H188.129C188.001 190.6 187.649 189.952 187.073 189.472C186.497 188.976 185.793 188.728 184.961 188.728Z" fill="white"/>
<g clip-path="url(#clip2)">
<path d="M60.4863 94.8145C60.4863 95.0742 60.5957 95.3066 60.8008 95.498L70.002 104.727C70.207 104.918 70.4258 105.014 70.6719 105.014C71.1914 105.014 71.5879 104.631 71.5879 104.111C71.5879 103.865 71.4922 103.619 71.3418 103.455L67.2402 99.3262L63.207 95.5801L66.3789 95.7305H84.9727C85.4922 95.7305 85.875 95.3477 85.875 94.8145C85.875 94.2812 85.4922 93.8984 84.9727 93.8984H66.3789L63.207 94.0488L67.2402 90.3027L71.3418 86.1738C71.5059 85.9961 71.5879 85.7637 71.5879 85.5176C71.5879 84.998 71.1914 84.6152 70.6719 84.6152C70.4258 84.6152 70.1934 84.7109 69.9336 84.9707L60.8008 94.1309C60.5957 94.3223 60.4863 94.5547 60.4863 94.8145Z" fill="white"/>
</g>
<g filter="url(#filter1_d)">
<rect x="60" y="222" width="209" height="305" rx="40" fill="white"/>
<rect x="60" y="222" width="209" height="305" rx="40" fill="url(#paint1_radial)"/>
<rect x="60" y="222" width="209" height="305" rx="40" fill="url(#paint2_radial)"/>
<rect x="60" y="222" width="209" height="305" rx="40" fill="url(#paint3_radial)"/>
</g>
<path d="M98.64 277.08C98.64 278.392 98.16 279.52 97.2 280.464C96.24 281.392 94.856 281.968 93.048 282.192V284.88H90.648V282.264C89.464 282.2 88.336 281.992 87.264 281.64C86.192 281.288 85.328 280.856 84.672 280.344L85.992 277.416C86.6 277.864 87.312 278.24 88.128 278.544C88.944 278.848 89.784 279.04 90.648 279.12V275.112C89.512 274.84 88.552 274.536 87.768 274.2C86.984 273.864 86.328 273.376 85.8 272.736C85.272 272.08 85.008 271.216 85.008 270.144C85.008 268.816 85.488 267.68 86.448 266.736C87.424 265.776 88.824 265.192 90.648 264.984V262.32H93.048V264.936C95.016 265.096 96.64 265.584 97.92 266.4L96.72 269.352C95.52 268.664 94.296 268.248 93.048 268.104V272.184C94.168 272.44 95.112 272.736 95.88 273.072C96.664 273.392 97.32 273.88 97.848 274.536C98.376 275.176 98.64 276.024 98.64 277.08ZM88.872 269.952C88.872 270.352 89.024 270.68 89.328 270.936C89.632 271.192 90.072 271.408 90.648 271.584V268.176C90.04 268.32 89.592 268.552 89.304 268.872C89.016 269.176 88.872 269.536 88.872 269.952ZM93.048 279.024C93.624 278.896 94.056 278.688 94.344 278.4C94.632 278.112 94.776 277.768 94.776 277.368C94.776 276.968 94.624 276.64 94.32 276.384C94.032 276.128 93.608 275.904 93.048 275.712V279.024ZM115.859 278.472H113.123V282H109.331V278.472H100.283V275.856L108.203 265.2H112.283L104.939 275.304H109.451V272.16H113.123V275.304H115.859V278.472ZM122.735 271.512C125.103 271.512 126.847 271.984 127.967 272.928C129.103 273.872 129.671 275.136 129.671 276.72C129.671 277.744 129.415 278.68 128.903 279.528C128.391 280.36 127.607 281.032 126.551 281.544C125.511 282.04 124.223 282.288 122.687 282.288C121.503 282.288 120.335 282.136 119.183 281.832C118.047 281.512 117.079 281.064 116.279 280.488L117.815 277.512C118.455 277.992 119.191 278.368 120.023 278.64C120.855 278.896 121.711 279.024 122.591 279.024C123.567 279.024 124.335 278.832 124.895 278.448C125.455 278.064 125.735 277.528 125.735 276.84C125.735 276.12 125.439 275.576 124.847 275.208C124.271 274.84 123.263 274.656 121.823 274.656H117.527L118.391 265.2H128.639V268.32H121.631L121.367 271.512H122.735ZM138.449 282.288C137.057 282.288 135.817 281.944 134.729 281.256C133.641 280.568 132.785 279.576 132.161 278.28C131.553 276.968 131.249 275.408 131.249 273.6C131.249 271.792 131.553 270.24 132.161 268.944C132.785 267.632 133.641 266.632 134.729 265.944C135.817 265.256 137.057 264.912 138.449 264.912C139.841 264.912 141.081 265.256 142.169 265.944C143.257 266.632 144.105 267.632 144.713 268.944C145.337 270.24 145.649 271.792 145.649 273.6C145.649 275.408 145.337 276.968 144.713 278.28C144.105 279.576 143.257 280.568 142.169 281.256C141.081 281.944 139.841 282.288 138.449 282.288ZM138.449 279C139.473 279 140.273 278.56 140.849 277.68C141.441 276.8 141.737 275.44 141.737 273.6C141.737 271.76 141.441 270.4 140.849 269.52C140.273 268.64 139.473 268.2 138.449 268.2C137.441 268.2 136.641 268.64 136.049 269.52C135.473 270.4 135.185 271.76 135.185 273.6C135.185 275.44 135.473 276.8 136.049 277.68C136.641 278.56 137.441 279 138.449 279ZM154.738 282.288C153.346 282.288 152.106 281.944 151.018 281.256C149.93 280.568 149.074 279.576 148.45 278.28C147.842 276.968 147.538 275.408 147.538 273.6C147.538 271.792 147.842 270.24 148.45 268.944C149.074 267.632 149.93 266.632 151.018 265.944C152.106 265.256 153.346 264.912 154.738 264.912C156.13 264.912 157.37 265.256 158.458 265.944C159.546 266.632 160.394 267.632 161.002 268.944C161.626 270.24 161.938 271.792 161.938 273.6C161.938 275.408 161.626 276.968 161.002 278.28C160.394 279.576 159.546 280.568 158.458 281.256C157.37 281.944 156.13 282.288 154.738 282.288ZM154.738 279C155.762 279 156.562 278.56 157.138 277.68C157.73 276.8 158.026 275.44 158.026 273.6C158.026 271.76 157.73 270.4 157.138 269.52C156.562 268.64 155.762 268.2 154.738 268.2C153.73 268.2 152.93 268.64 152.338 269.52C151.762 270.4 151.474 271.76 151.474 273.6C151.474 275.44 151.762 276.8 152.338 277.68C152.93 278.56 153.73 279 154.738 279ZM165.73 282.192C165.074 282.192 164.522 281.968 164.074 281.52C163.626 281.072 163.402 280.512 163.402 279.84C163.402 279.152 163.626 278.6 164.074 278.184C164.522 277.752 165.074 277.536 165.73 277.536C166.386 277.536 166.938 277.752 167.386 278.184C167.834 278.6 168.058 279.152 168.058 279.84C168.058 280.512 167.834 281.072 167.386 281.52C166.938 281.968 166.386 282.192 165.73 282.192ZM176.699 282.288C175.307 282.288 174.067 281.944 172.979 281.256C171.891 280.568 171.035 279.576 170.411 278.28C169.803 276.968 169.499 275.408 169.499 273.6C169.499 271.792 169.803 270.24 170.411 268.944C171.035 267.632 171.891 266.632 172.979 265.944C174.067 265.256 175.307 264.912 176.699 264.912C178.091 264.912 179.331 265.256 180.419 265.944C181.507 266.632 182.355 267.632 182.963 268.944C183.587 270.24 183.899 271.792 183.899 273.6C183.899 275.408 183.587 276.968 182.963 278.28C182.355 279.576 181.507 280.568 180.419 281.256C179.331 281.944 178.091 282.288 176.699 282.288ZM176.699 279C177.723 279 178.523 278.56 179.099 277.68C179.691 276.8 179.987 275.44 179.987 273.6C179.987 271.76 179.691 270.4 179.099 269.52C178.523 268.64 177.723 268.2 176.699 268.2C175.691 268.2 174.891 268.64 174.299 269.52C173.723 270.4 173.435 271.76 173.435 273.6C173.435 275.44 173.723 276.8 174.299 277.68C174.891 278.56 175.691 279 176.699 279ZM192.988 282.288C191.596 282.288 190.356 281.944 189.268 281.256C188.18 280.568 187.324 279.576 186.7 278.28C186.092 276.968 185.788 275.408 185.788 273.6C185.788 271.792 186.092 270.24 186.7 268.944C187.324 267.632 188.18 266.632 189.268 265.944C190.356 265.256 191.596 264.912 192.988 264.912C194.38 264.912 195.62 265.256 196.708 265.944C197.796 266.632 198.644 267.632 199.252 268.944C199.876 270.24 200.188 271.792 200.188 273.6C200.188 275.408 199.876 276.968 199.252 278.28C198.644 279.576 197.796 280.568 196.708 281.256C195.62 281.944 194.38 282.288 192.988 282.288ZM192.988 279C194.012 279 194.812 278.56 195.388 277.68C195.98 276.8 196.276 275.44 196.276 273.6C196.276 271.76 195.98 270.4 195.388 269.52C194.812 268.64 194.012 268.2 192.988 268.2C191.98 268.2 191.18 268.64 190.588 269.52C190.012 270.4 189.724 271.76 189.724 273.6C189.724 275.44 190.012 276.8 190.588 277.68C191.18 278.56 191.98 279 192.988 279Z" fill="white"/>
<path d="M91.596 303.216C90.288 303.216 89.106 302.934 88.05 302.37C87.006 301.806 86.184 301.032 85.584 300.048C84.996 299.052 84.702 297.936 84.702 296.7C84.702 295.464 84.996 294.354 85.584 293.37C86.184 292.374 87.006 291.594 88.05 291.03C89.106 290.466 90.288 290.184 91.596 290.184C92.904 290.184 94.08 290.466 95.124 291.03C96.168 291.594 96.99 292.374 97.59 293.37C98.19 294.354 98.49 295.464 98.49 296.7C98.49 297.936 98.19 299.052 97.59 300.048C96.99 301.032 96.168 301.806 95.124 302.37C94.08 302.934 92.904 303.216 91.596 303.216ZM91.596 300.732C92.34 300.732 93.012 300.564 93.612 300.228C94.212 299.88 94.68 299.4 95.016 298.788C95.364 298.176 95.538 297.48 95.538 296.7C95.538 295.92 95.364 295.224 95.016 294.612C94.68 294 94.212 293.526 93.612 293.19C93.012 292.842 92.34 292.668 91.596 292.668C90.852 292.668 90.18 292.842 89.58 293.19C88.98 293.526 88.506 294 88.158 294.612C87.822 295.224 87.654 295.92 87.654 296.7C87.654 297.48 87.822 298.176 88.158 298.788C88.506 299.4 88.98 299.88 89.58 300.228C90.18 300.564 90.852 300.732 91.596 300.732ZM106.817 302.532C106.541 302.736 106.199 302.892 105.791 303C105.395 303.096 104.975 303.144 104.531 303.144C103.379 303.144 102.485 302.85 101.849 302.262C101.225 301.674 100.913 300.81 100.913 299.67V295.692H99.4194V293.532H100.913V291.174H103.721V293.532H106.133V295.692H103.721V299.634C103.721 300.042 103.823 300.36 104.027 300.588C104.243 300.804 104.543 300.912 104.927 300.912C105.371 300.912 105.749 300.792 106.061 300.552L106.817 302.532ZM112.703 303.144C111.683 303.144 110.765 302.934 109.949 302.514C109.145 302.082 108.515 301.488 108.059 300.732C107.603 299.976 107.375 299.118 107.375 298.158C107.375 297.198 107.603 296.34 108.059 295.584C108.515 294.828 109.145 294.24 109.949 293.82C110.765 293.388 111.683 293.172 112.703 293.172C113.723 293.172 114.635 293.388 115.439 293.82C116.243 294.24 116.873 294.828 117.329 295.584C117.785 296.34 118.013 297.198 118.013 298.158C118.013 299.118 117.785 299.976 117.329 300.732C116.873 301.488 116.243 302.082 115.439 302.514C114.635 302.934 113.723 303.144 112.703 303.144ZM112.703 300.84C113.423 300.84 114.011 300.6 114.467 300.12C114.935 299.628 115.169 298.974 115.169 298.158C115.169 297.342 114.935 296.694 114.467 296.214C114.011 295.722 113.423 295.476 112.703 295.476C111.983 295.476 111.389 295.722 110.921 296.214C110.453 296.694 110.219 297.342 110.219 298.158C110.219 298.974 110.453 299.628 110.921 300.12C111.389 300.6 111.983 300.84 112.703 300.84ZM122.572 294.594C122.908 294.126 123.358 293.772 123.922 293.532C124.498 293.292 125.158 293.172 125.902 293.172V295.764C125.59 295.74 125.38 295.728 125.272 295.728C124.468 295.728 123.838 295.956 123.382 296.412C122.926 296.856 122.698 297.528 122.698 298.428V303H119.89V293.316H122.572V294.594ZM135.259 303.216C134.407 303.216 133.621 303.06 132.901 302.748C132.193 302.424 131.611 301.968 131.155 301.38L132.775 299.436C133.459 300.36 134.239 300.822 135.115 300.822C136.303 300.822 136.897 300.126 136.897 298.734V292.74H132.469V290.4H139.795V298.572C139.795 300.12 139.411 301.284 138.643 302.064C137.875 302.832 136.747 303.216 135.259 303.216ZM147.086 303.144C146.066 303.144 145.148 302.934 144.332 302.514C143.528 302.082 142.898 301.488 142.442 300.732C141.986 299.976 141.758 299.118 141.758 298.158C141.758 297.198 141.986 296.34 142.442 295.584C142.898 294.828 143.528 294.24 144.332 293.82C145.148 293.388 146.066 293.172 147.086 293.172C148.106 293.172 149.018 293.388 149.822 293.82C150.626 294.24 151.256 294.828 151.712 295.584C152.168 296.34 152.396 297.198 152.396 298.158C152.396 299.118 152.168 299.976 151.712 300.732C151.256 301.488 150.626 302.082 149.822 302.514C149.018 302.934 148.106 303.144 147.086 303.144ZM147.086 300.84C147.806 300.84 148.394 300.6 148.85 300.12C149.318 299.628 149.552 298.974 149.552 298.158C149.552 297.342 149.318 296.694 148.85 296.214C148.394 295.722 147.806 295.476 147.086 295.476C146.366 295.476 145.772 295.722 145.304 296.214C144.836 296.694 144.602 297.342 144.602 298.158C144.602 298.974 144.836 299.628 145.304 300.12C145.772 300.6 146.366 300.84 147.086 300.84ZM160.159 293.172C161.359 293.172 162.325 293.532 163.057 294.252C163.801 294.972 164.173 296.04 164.173 297.456V303H161.365V297.888C161.365 297.12 161.197 296.55 160.861 296.178C160.525 295.794 160.039 295.602 159.403 295.602C158.695 295.602 158.131 295.824 157.711 296.268C157.291 296.7 157.081 297.348 157.081 298.212V303H154.273V289.644H157.081V294.324C157.453 293.952 157.903 293.67 158.431 293.478C158.959 293.274 159.535 293.172 160.159 293.172ZM172.604 293.172C173.804 293.172 174.77 293.532 175.502 294.252C176.246 294.972 176.618 296.04 176.618 297.456V303H173.81V297.888C173.81 297.12 173.642 296.55 173.306 296.178C172.97 295.794 172.484 295.602 171.848 295.602C171.14 295.602 170.576 295.824 170.156 296.268C169.736 296.7 169.526 297.348 169.526 298.212V303H166.718V293.316H169.4V294.45C169.772 294.042 170.234 293.73 170.786 293.514C171.338 293.286 171.944 293.172 172.604 293.172ZM188.599 303.216C187.603 303.216 186.637 303.084 185.701 302.82C184.777 302.544 184.033 302.19 183.469 301.758L184.459 299.562C184.999 299.958 185.641 300.276 186.385 300.516C187.129 300.756 187.873 300.876 188.617 300.876C189.445 300.876 190.057 300.756 190.453 300.516C190.849 300.264 191.047 299.934 191.047 299.526C191.047 299.226 190.927 298.98 190.687 298.788C190.459 298.584 190.159 298.422 189.787 298.302C189.427 298.182 188.935 298.05 188.311 297.906C187.351 297.678 186.565 297.45 185.953 297.222C185.341 296.994 184.813 296.628 184.369 296.124C183.937 295.62 183.721 294.948 183.721 294.108C183.721 293.376 183.919 292.716 184.315 292.128C184.711 291.528 185.305 291.054 186.097 290.706C186.901 290.358 187.879 290.184 189.031 290.184C189.835 290.184 190.621 290.28 191.389 290.472C192.157 290.664 192.829 290.94 193.405 291.3L192.505 293.514C191.341 292.854 190.177 292.524 189.013 292.524C188.197 292.524 187.591 292.656 187.195 292.92C186.811 293.184 186.619 293.532 186.619 293.964C186.619 294.396 186.841 294.72 187.285 294.936C187.741 295.14 188.431 295.344 189.355 295.548C190.315 295.776 191.101 296.004 191.713 296.232C192.325 296.46 192.847 296.82 193.279 297.312C193.723 297.804 193.945 298.47 193.945 299.31C193.945 300.03 193.741 300.69 193.333 301.29C192.937 301.878 192.337 302.346 191.533 302.694C190.729 303.042 189.751 303.216 188.599 303.216ZM201.985 302.532C201.709 302.736 201.367 302.892 200.959 303C200.563 303.096 200.143 303.144 199.699 303.144C198.547 303.144 197.653 302.85 197.017 302.262C196.393 301.674 196.081 300.81 196.081 299.67V295.692H194.587V293.532H196.081V291.174H198.889V293.532H201.301V295.692H198.889V299.634C198.889 300.042 198.991 300.36 199.195 300.588C199.411 300.804 199.711 300.912 200.095 300.912C200.539 300.912 200.917 300.792 201.229 300.552L201.985 302.532ZM212.749 298.194C212.749 298.23 212.731 298.482 212.695 298.95H205.369C205.501 299.55 205.813 300.024 206.305 300.372C206.797 300.72 207.409 300.894 208.141 300.894C208.645 300.894 209.089 300.822 209.473 300.678C209.869 300.522 210.235 300.282 210.571 299.958L212.065 301.578C211.153 302.622 209.821 303.144 208.069 303.144C206.977 303.144 206.011 302.934 205.171 302.514C204.331 302.082 203.683 301.488 203.227 300.732C202.771 299.976 202.543 299.118 202.543 298.158C202.543 297.21 202.765 296.358 203.209 295.602C203.665 294.834 204.283 294.24 205.063 293.82C205.855 293.388 206.737 293.172 207.709 293.172C208.657 293.172 209.515 293.376 210.283 293.784C211.051 294.192 211.651 294.78 212.083 295.548C212.527 296.304 212.749 297.186 212.749 298.194ZM207.727 295.296C207.091 295.296 206.557 295.476 206.125 295.836C205.693 296.196 205.429 296.688 205.333 297.312H210.103C210.007 296.7 209.743 296.214 209.311 295.854C208.879 295.482 208.351 295.296 207.727 295.296ZM220.342 293.172C221.242 293.172 222.058 293.382 222.79 293.802C223.534 294.21 224.116 294.792 224.536 295.548C224.956 296.292 225.166 297.162 225.166 298.158C225.166 299.154 224.956 300.03 224.536 300.786C224.116 301.53 223.534 302.112 222.79 302.532C222.058 302.94 221.242 303.144 220.342 303.144C219.106 303.144 218.134 302.754 217.426 301.974V306.492H214.618V293.316H217.3V294.432C217.996 293.592 219.01 293.172 220.342 293.172ZM219.856 300.84C220.576 300.84 221.164 300.6 221.62 300.12C222.088 299.628 222.322 298.974 222.322 298.158C222.322 297.342 222.088 296.694 221.62 296.214C221.164 295.722 220.576 295.476 219.856 295.476C219.136 295.476 218.542 295.722 218.074 296.214C217.618 296.694 217.39 297.342 217.39 298.158C217.39 298.974 217.618 299.628 218.074 300.12C218.542 300.6 219.136 300.84 219.856 300.84ZM232.932 293.172C234.132 293.172 235.098 293.532 235.83 294.252C236.574 294.972 236.946 296.04 236.946 297.456V303H234.138V297.888C234.138 297.12 233.97 296.55 233.634 296.178C233.298 295.794 232.812 295.602 232.176 295.602C231.468 295.602 230.904 295.824 230.484 296.268C230.064 296.7 229.854 297.348 229.854 298.212V303H227.046V289.644H229.854V294.324C230.226 293.952 230.676 293.67 231.204 293.478C231.732 293.274 232.308 293.172 232.932 293.172ZM249.083 298.194C249.083 298.23 249.065 298.482 249.029 298.95H241.703C241.835 299.55 242.147 300.024 242.639 300.372C243.131 300.72 243.743 300.894 244.475 300.894C244.979 300.894 245.423 300.822 245.807 300.678C246.203 300.522 246.569 300.282 246.905 299.958L248.399 301.578C247.487 302.622 246.155 303.144 244.403 303.144C243.311 303.144 242.345 302.934 241.505 302.514C240.665 302.082 240.017 301.488 239.561 300.732C239.105 299.976 238.877 299.118 238.877 298.158C238.877 297.21 239.099 296.358 239.543 295.602C239.999 294.834 240.617 294.24 241.397 293.82C242.189 293.388 243.071 293.172 244.043 293.172C244.991 293.172 245.849 293.376 246.617 293.784C247.385 294.192 247.985 294.78 248.417 295.548C248.861 296.304 249.083 297.186 249.083 298.194ZM244.061 295.296C243.425 295.296 242.891 295.476 242.459 295.836C242.027 296.196 241.763 296.688 241.667 297.312H246.437C246.341 296.7 246.077 296.214 245.645 295.854C245.213 295.482 244.685 295.296 244.061 295.296ZM256.838 293.172C258.038 293.172 259.004 293.532 259.736 294.252C260.48 294.972 260.852 296.04 260.852 297.456V303H258.044V297.888C258.044 297.12 257.876 296.55 257.54 296.178C257.204 295.794 256.718 295.602 256.082 295.602C255.374 295.602 254.81 295.824 254.39 296.268C253.97 296.7 253.76 297.348 253.76 298.212V303H250.952V293.316H253.634V294.45C254.006 294.042 254.468 293.73 255.02 293.514C255.572 293.286 256.178 293.172 256.838 293.172Z" fill="white"/>
<g filter="url(#filter2_d)">
<rect x="324" y="250" width="177" height="249" rx="32.6557" fill="white"/>
</g>
<path d="M356.277 294.823C356.277 295.894 355.886 296.815 355.102 297.585C354.318 298.343 353.188 298.813 351.712 298.996V301.191H349.753V299.055C348.786 299.003 347.865 298.833 346.99 298.545C346.115 298.258 345.41 297.905 344.874 297.487L345.952 295.097C346.448 295.463 347.029 295.77 347.696 296.018C348.362 296.266 349.047 296.423 349.753 296.488V293.216C348.825 292.994 348.042 292.746 347.402 292.471C346.762 292.197 346.226 291.799 345.795 291.276C345.364 290.741 345.148 290.035 345.148 289.16C345.148 288.076 345.54 287.149 346.324 286.378C347.121 285.594 348.264 285.117 349.753 284.948V282.773H351.712V284.908C353.319 285.039 354.645 285.437 355.69 286.104L354.71 288.514C353.73 287.952 352.731 287.612 351.712 287.495V290.826C352.627 291.035 353.397 291.276 354.024 291.551C354.664 291.812 355.2 292.21 355.631 292.746C356.062 293.268 356.277 293.961 356.277 294.823ZM348.303 289.003C348.303 289.33 348.427 289.598 348.675 289.807C348.923 290.016 349.283 290.192 349.753 290.336V287.554C349.256 287.671 348.891 287.86 348.656 288.122C348.42 288.37 348.303 288.664 348.303 289.003ZM351.712 296.41C352.182 296.305 352.535 296.135 352.77 295.9C353.005 295.665 353.123 295.384 353.123 295.058C353.123 294.731 352.999 294.463 352.751 294.254C352.515 294.045 352.169 293.863 351.712 293.706V296.41ZM363.915 290.708C365.116 290.904 366.037 291.355 366.677 292.06C367.317 292.752 367.638 293.614 367.638 294.646C367.638 295.443 367.429 296.181 367.011 296.86C366.593 297.527 365.952 298.062 365.09 298.467C364.241 298.872 363.196 299.074 361.955 299.074C360.989 299.074 360.035 298.95 359.095 298.702C358.167 298.441 357.377 298.075 356.724 297.605L357.958 295.175C358.481 295.567 359.082 295.874 359.761 296.096C360.453 296.305 361.159 296.41 361.877 296.41C362.674 296.41 363.301 296.26 363.758 295.959C364.215 295.646 364.444 295.208 364.444 294.646C364.444 293.523 363.588 292.961 361.877 292.961H360.427V290.865L363.249 287.671H357.41V285.124H367.011V287.181L363.915 290.708ZM373.614 290.277C375.547 290.277 376.971 290.662 377.885 291.433C378.813 292.204 379.277 293.236 379.277 294.529C379.277 295.365 379.068 296.129 378.65 296.821C378.232 297.5 377.592 298.049 376.729 298.467C375.88 298.872 374.829 299.074 373.575 299.074C372.608 299.074 371.655 298.95 370.714 298.702C369.787 298.441 368.997 298.075 368.343 297.605L369.597 295.175C370.12 295.567 370.721 295.874 371.4 296.096C372.079 296.305 372.778 296.41 373.497 296.41C374.293 296.41 374.92 296.253 375.378 295.94C375.835 295.626 376.063 295.188 376.063 294.627C376.063 294.039 375.822 293.595 375.338 293.294C374.868 292.994 374.045 292.844 372.87 292.844H369.362L370.068 285.124H378.434V287.671H372.713L372.497 290.277H373.614ZM386.442 299.074C385.306 299.074 384.294 298.794 383.405 298.232C382.517 297.67 381.818 296.86 381.309 295.802C380.813 294.731 380.564 293.458 380.564 291.982C380.564 290.506 380.813 289.239 381.309 288.181C381.818 287.109 382.517 286.293 383.405 285.731C384.294 285.17 385.306 284.889 386.442 284.889C387.579 284.889 388.591 285.17 389.479 285.731C390.368 286.293 391.06 287.109 391.556 288.181C392.066 289.239 392.32 290.506 392.32 291.982C392.32 293.458 392.066 294.731 391.556 295.802C391.06 296.86 390.368 297.67 389.479 298.232C388.591 298.794 387.579 299.074 386.442 299.074ZM386.442 296.39C387.278 296.39 387.932 296.031 388.402 295.313C388.885 294.594 389.127 293.484 389.127 291.982C389.127 290.479 388.885 289.369 388.402 288.651C387.932 287.932 387.278 287.573 386.442 287.573C385.62 287.573 384.966 287.932 384.483 288.651C384.013 289.369 383.778 290.479 383.778 291.982C383.778 293.484 384.013 294.594 384.483 295.313C384.966 296.031 385.62 296.39 386.442 296.39ZM399.741 299.074C398.604 299.074 397.592 298.794 396.704 298.232C395.816 297.67 395.117 296.86 394.607 295.802C394.111 294.731 393.863 293.458 393.863 291.982C393.863 290.506 394.111 289.239 394.607 288.181C395.117 287.109 395.816 286.293 396.704 285.731C397.592 285.17 398.604 284.889 399.741 284.889C400.877 284.889 401.889 285.17 402.778 285.731C403.666 286.293 404.358 287.109 404.855 288.181C405.364 289.239 405.619 290.506 405.619 291.982C405.619 293.458 405.364 294.731 404.855 295.802C404.358 296.86 403.666 297.67 402.778 298.232C401.889 298.794 400.877 299.074 399.741 299.074ZM399.741 296.39C400.577 296.39 401.23 296.031 401.7 295.313C402.183 294.594 402.425 293.484 402.425 291.982C402.425 290.479 402.183 289.369 401.7 288.651C401.23 287.932 400.577 287.573 399.741 287.573C398.918 287.573 398.265 287.932 397.781 288.651C397.311 289.369 397.076 290.479 397.076 291.982C397.076 293.484 397.311 294.594 397.781 295.313C398.265 296.031 398.918 296.39 399.741 296.39ZM408.715 298.996C408.179 298.996 407.729 298.813 407.363 298.447C406.997 298.082 406.814 297.625 406.814 297.076C406.814 296.514 406.997 296.064 407.363 295.724C407.729 295.371 408.179 295.195 408.715 295.195C409.25 295.195 409.701 295.371 410.067 295.724C410.433 296.064 410.615 296.514 410.615 297.076C410.615 297.625 410.433 298.082 410.067 298.447C409.701 298.813 409.25 298.996 408.715 298.996ZM417.67 299.074C416.533 299.074 415.521 298.794 414.633 298.232C413.744 297.67 413.045 296.86 412.536 295.802C412.04 294.731 411.791 293.458 411.791 291.982C411.791 290.506 412.04 289.239 412.536 288.181C413.045 287.109 413.744 286.293 414.633 285.731C415.521 285.17 416.533 284.889 417.67 284.889C418.806 284.889 419.818 285.17 420.706 285.731C421.595 286.293 422.287 287.109 422.783 288.181C423.293 289.239 423.548 290.506 423.548 291.982C423.548 293.458 423.293 294.731 422.783 295.802C422.287 296.86 421.595 297.67 420.706 298.232C419.818 298.794 418.806 299.074 417.67 299.074ZM417.67 296.39C418.506 296.39 419.159 296.031 419.629 295.313C420.112 294.594 420.354 293.484 420.354 291.982C420.354 290.479 420.112 289.369 419.629 288.651C419.159 287.932 418.506 287.573 417.67 287.573C416.847 287.573 416.193 287.932 415.71 288.651C415.24 289.369 415.005 290.479 415.005 291.982C415.005 293.484 415.24 294.594 415.71 295.313C416.193 296.031 416.847 296.39 417.67 296.39ZM430.968 299.074C429.831 299.074 428.819 298.794 427.931 298.232C427.043 297.67 426.344 296.86 425.834 295.802C425.338 294.731 425.09 293.458 425.09 291.982C425.09 290.506 425.338 289.239 425.834 288.181C426.344 287.109 427.043 286.293 427.931 285.731C428.819 285.17 429.831 284.889 430.968 284.889C432.104 284.889 433.117 285.17 434.005 285.731C434.893 286.293 435.585 287.109 436.082 288.181C436.591 289.239 436.846 290.506 436.846 291.982C436.846 293.458 436.591 294.731 436.082 295.802C435.585 296.86 434.893 297.67 434.005 298.232C433.117 298.794 432.104 299.074 430.968 299.074ZM430.968 296.39C431.804 296.39 432.457 296.031 432.927 295.313C433.41 294.594 433.652 293.484 433.652 291.982C433.652 290.479 433.41 289.369 432.927 288.651C432.457 287.932 431.804 287.573 430.968 287.573C430.145 287.573 429.492 287.932 429.008 288.651C428.538 289.369 428.303 290.479 428.303 291.982C428.303 293.484 428.538 294.594 429.008 295.313C429.492 296.031 430.145 296.39 430.968 296.39Z" fill="#3A3A3A"/>
<path d="M350.527 317.058C349.459 317.058 348.494 316.828 347.632 316.368C346.78 315.907 346.108 315.275 345.619 314.472C345.139 313.659 344.899 312.748 344.899 311.739C344.899 310.73 345.139 309.823 345.619 309.02C346.108 308.207 346.78 307.57 347.632 307.11C348.494 306.649 349.459 306.419 350.527 306.419C351.595 306.419 352.555 306.649 353.407 307.11C354.259 307.57 354.93 308.207 355.42 309.02C355.91 309.823 356.155 310.73 356.155 311.739C356.155 312.748 355.91 313.659 355.42 314.472C354.93 315.275 354.259 315.907 353.407 316.368C352.555 316.828 351.595 317.058 350.527 317.058ZM350.527 315.03C351.134 315.03 351.683 314.893 352.173 314.619C352.662 314.335 353.045 313.943 353.319 313.443C353.603 312.944 353.745 312.375 353.745 311.739C353.745 311.102 353.603 310.534 353.319 310.034C353.045 309.534 352.662 309.147 352.173 308.873C351.683 308.589 351.134 308.447 350.527 308.447C349.919 308.447 349.371 308.589 348.881 308.873C348.391 309.147 348.004 309.534 347.72 310.034C347.446 310.534 347.309 311.102 347.309 311.739C347.309 312.375 347.446 312.944 347.72 313.443C348.004 313.943 348.391 314.335 348.881 314.619C349.371 314.893 349.919 315.03 350.527 315.03ZM362.953 316.5C362.728 316.666 362.449 316.794 362.116 316.882C361.792 316.96 361.45 317 361.087 317C360.147 317 359.417 316.759 358.898 316.279C358.388 315.799 358.133 315.094 358.133 314.163V310.916H356.914V309.152H358.133V307.227H360.426V309.152H362.395V310.916H360.426V314.134C360.426 314.467 360.509 314.727 360.676 314.913C360.852 315.089 361.097 315.177 361.41 315.177C361.773 315.177 362.081 315.079 362.336 314.883L362.953 316.5ZM367.758 317C366.926 317 366.176 316.828 365.51 316.485C364.854 316.133 364.339 315.648 363.967 315.03C363.595 314.413 363.408 313.713 363.408 312.929C363.408 312.145 363.595 311.445 363.967 310.828C364.339 310.21 364.854 309.73 365.51 309.387C366.176 309.035 366.926 308.858 367.758 308.858C368.591 308.858 369.336 309.035 369.992 309.387C370.648 309.73 371.163 310.21 371.535 310.828C371.907 311.445 372.093 312.145 372.093 312.929C372.093 313.713 371.907 314.413 371.535 315.03C371.163 315.648 370.648 316.133 369.992 316.485C369.336 316.828 368.591 317 367.758 317ZM367.758 315.119C368.346 315.119 368.826 314.923 369.198 314.531C369.58 314.129 369.771 313.595 369.771 312.929C369.771 312.263 369.58 311.734 369.198 311.342C368.826 310.94 368.346 310.739 367.758 310.739C367.17 310.739 366.685 310.94 366.303 311.342C365.921 311.734 365.73 312.263 365.73 312.929C365.73 313.595 365.921 314.129 366.303 314.531C366.685 314.923 367.17 315.119 367.758 315.119ZM375.815 310.019C376.089 309.637 376.457 309.348 376.917 309.152C377.388 308.956 377.926 308.858 378.534 308.858V310.975C378.279 310.955 378.108 310.945 378.019 310.945C377.363 310.945 376.849 311.131 376.476 311.504C376.104 311.866 375.918 312.415 375.918 313.149V316.882H373.626V308.976H375.815V310.019ZM386.173 317.058C385.478 317.058 384.836 316.931 384.248 316.676C383.67 316.412 383.195 316.039 382.823 315.559L384.145 313.972C384.704 314.727 385.341 315.104 386.056 315.104C387.026 315.104 387.51 314.536 387.51 313.399V308.506H383.896V306.595H389.876V313.267C389.876 314.531 389.563 315.481 388.936 316.118C388.309 316.745 387.388 317.058 386.173 317.058ZM395.828 317C394.995 317 394.246 316.828 393.58 316.485C392.923 316.133 392.409 315.648 392.037 315.03C391.665 314.413 391.478 313.713 391.478 312.929C391.478 312.145 391.665 311.445 392.037 310.828C392.409 310.21 392.923 309.73 393.58 309.387C394.246 309.035 394.995 308.858 395.828 308.858C396.661 308.858 397.405 309.035 398.062 309.387C398.718 309.73 399.233 310.21 399.605 310.828C399.977 311.445 400.163 312.145 400.163 312.929C400.163 313.713 399.977 314.413 399.605 315.03C399.233 315.648 398.718 316.133 398.062 316.485C397.405 316.828 396.661 317 395.828 317ZM395.828 315.119C396.416 315.119 396.896 314.923 397.268 314.531C397.65 314.129 397.841 313.595 397.841 312.929C397.841 312.263 397.65 311.734 397.268 311.342C396.896 310.94 396.416 310.739 395.828 310.739C395.24 310.739 394.755 310.94 394.373 311.342C393.991 311.734 393.8 312.263 393.8 312.929C393.8 313.595 393.991 314.129 394.373 314.531C394.755 314.923 395.24 315.119 395.828 315.119ZM406.501 308.858C407.48 308.858 408.269 309.152 408.867 309.74C409.474 310.328 409.778 311.2 409.778 312.356V316.882H407.485V312.709C407.485 312.082 407.348 311.616 407.074 311.313C406.8 310.999 406.403 310.842 405.884 310.842C405.306 310.842 404.845 311.024 404.502 311.386C404.159 311.739 403.988 312.268 403.988 312.973V316.882H401.695V305.978H403.988V309.799C404.292 309.495 404.659 309.265 405.09 309.108C405.521 308.942 405.991 308.858 406.501 308.858ZM416.661 308.858C417.641 308.858 418.429 309.152 419.027 309.74C419.634 310.328 419.938 311.2 419.938 312.356V316.882H417.646V312.709C417.646 312.082 417.508 311.616 417.234 311.313C416.96 310.999 416.563 310.842 416.044 310.842C415.466 310.842 415.005 311.024 414.663 311.386C414.32 311.739 414.148 312.268 414.148 312.973V316.882H411.856V308.976H414.045V309.902C414.349 309.569 414.726 309.314 415.177 309.138C415.628 308.952 416.122 308.858 416.661 308.858ZM429.719 317.058C428.906 317.058 428.117 316.951 427.353 316.735C426.599 316.51 425.992 316.221 425.531 315.868L426.339 314.075C426.78 314.398 427.304 314.658 427.912 314.854C428.519 315.05 429.127 315.148 429.734 315.148C430.41 315.148 430.91 315.05 431.233 314.854C431.556 314.648 431.718 314.379 431.718 314.046C431.718 313.801 431.62 313.6 431.424 313.443C431.238 313.277 430.993 313.145 430.689 313.047C430.395 312.949 429.994 312.841 429.484 312.723C428.7 312.537 428.059 312.351 427.559 312.165C427.059 311.979 426.628 311.68 426.266 311.268C425.913 310.857 425.737 310.308 425.737 309.623C425.737 309.025 425.899 308.486 426.222 308.006C426.545 307.516 427.03 307.129 427.677 306.845C428.333 306.561 429.131 306.419 430.072 306.419C430.728 306.419 431.37 306.497 431.997 306.654C432.624 306.811 433.173 307.036 433.643 307.33L432.908 309.138C431.958 308.599 431.008 308.329 430.057 308.329C429.391 308.329 428.896 308.437 428.573 308.653C428.26 308.868 428.103 309.152 428.103 309.505C428.103 309.858 428.284 310.122 428.647 310.299C429.019 310.465 429.582 310.632 430.336 310.798C431.12 310.984 431.762 311.17 432.262 311.357C432.761 311.543 433.187 311.837 433.54 312.238C433.902 312.64 434.084 313.184 434.084 313.869C434.084 314.457 433.917 314.996 433.584 315.486C433.261 315.966 432.771 316.348 432.115 316.632C431.458 316.916 430.66 317.058 429.719 317.058ZM440.648 316.5C440.423 316.666 440.143 316.794 439.81 316.882C439.487 316.96 439.144 317 438.782 317C437.841 317 437.111 316.759 436.592 316.279C436.083 315.799 435.828 315.094 435.828 314.163V310.916H434.608V309.152H435.828V307.227H438.12V309.152H440.09V310.916H438.12V314.134C438.12 314.467 438.204 314.727 438.37 314.913C438.547 315.089 438.791 315.177 439.105 315.177C439.467 315.177 439.776 315.079 440.031 314.883L440.648 316.5ZM449.435 312.958C449.435 312.988 449.42 313.193 449.391 313.576H443.41C443.518 314.065 443.773 314.452 444.174 314.736C444.576 315.021 445.076 315.163 445.673 315.163C446.085 315.163 446.447 315.104 446.761 314.986C447.084 314.859 447.383 314.663 447.657 314.398L448.877 315.721C448.132 316.573 447.045 317 445.614 317C444.723 317 443.934 316.828 443.248 316.485C442.563 316.133 442.034 315.648 441.661 315.03C441.289 314.413 441.103 313.713 441.103 312.929C441.103 312.155 441.284 311.459 441.647 310.842C442.019 310.215 442.524 309.73 443.16 309.387C443.807 309.035 444.527 308.858 445.32 308.858C446.094 308.858 446.795 309.025 447.422 309.358C448.049 309.691 448.539 310.171 448.891 310.798C449.254 311.415 449.435 312.135 449.435 312.958ZM445.335 310.592C444.816 310.592 444.38 310.739 444.027 311.033C443.675 311.327 443.459 311.729 443.381 312.238H447.275C447.197 311.739 446.981 311.342 446.628 311.048C446.276 310.744 445.845 310.592 445.335 310.592ZM455.634 308.858C456.369 308.858 457.035 309.03 457.633 309.373C458.24 309.706 458.715 310.181 459.058 310.798C459.401 311.406 459.573 312.116 459.573 312.929C459.573 313.742 459.401 314.457 459.058 315.074C458.715 315.682 458.24 316.157 457.633 316.5C457.035 316.833 456.369 317 455.634 317C454.625 317 453.832 316.681 453.254 316.044V319.733H450.961V308.976H453.151V309.887C453.719 309.201 454.547 308.858 455.634 308.858ZM455.238 315.119C455.825 315.119 456.305 314.923 456.678 314.531C457.06 314.129 457.251 313.595 457.251 312.929C457.251 312.263 457.06 311.734 456.678 311.342C456.305 310.94 455.825 310.739 455.238 310.739C454.65 310.739 454.165 310.94 453.783 311.342C453.411 311.734 453.224 312.263 453.224 312.929C453.224 313.595 453.411 314.129 453.783 314.531C454.165 314.923 454.65 315.119 455.238 315.119ZM465.913 308.858C466.892 308.858 467.681 309.152 468.278 309.74C468.886 310.328 469.19 311.2 469.19 312.356V316.882H466.897V312.709C466.897 312.082 466.76 311.616 466.486 311.313C466.211 310.999 465.815 310.842 465.295 310.842C464.717 310.842 464.257 311.024 463.914 311.386C463.571 311.739 463.4 312.268 463.4 312.973V316.882H461.107V305.978H463.4V309.799C463.703 309.495 464.071 309.265 464.502 309.108C464.933 308.942 465.403 308.858 465.913 308.858ZM479.098 312.958C479.098 312.988 479.083 313.193 479.054 313.576H473.073C473.181 314.065 473.435 314.452 473.837 314.736C474.239 315.021 474.738 315.163 475.336 315.163C475.747 315.163 476.11 315.104 476.423 314.986C476.747 314.859 477.046 314.663 477.32 314.398L478.54 315.721C477.795 316.573 476.708 317 475.277 317C474.386 317 473.597 316.828 472.911 316.485C472.226 316.133 471.697 315.648 471.324 315.03C470.952 314.413 470.766 313.713 470.766 312.929C470.766 312.155 470.947 311.459 471.31 310.842C471.682 310.215 472.186 309.73 472.823 309.387C473.47 309.035 474.19 308.858 474.983 308.858C475.757 308.858 476.458 309.025 477.085 309.358C477.712 309.691 478.202 310.171 478.554 310.798C478.917 311.415 479.098 312.135 479.098 312.958ZM474.998 310.592C474.479 310.592 474.043 310.739 473.69 311.033C473.337 311.327 473.122 311.729 473.044 312.238H476.938C476.859 311.739 476.644 311.342 476.291 311.048C475.938 310.744 475.507 310.592 474.998 310.592ZM485.429 308.858C486.409 308.858 487.198 309.152 487.795 309.74C488.403 310.328 488.706 311.2 488.706 312.356V316.882H486.414V312.709C486.414 312.082 486.277 311.616 486.003 311.313C485.728 310.999 485.331 310.842 484.812 310.842C484.234 310.842 483.774 311.024 483.431 311.386C483.088 311.739 482.917 312.268 482.917 312.973V316.882H480.624V308.976H482.814V309.902C483.117 309.569 483.495 309.314 483.945 309.138C484.396 308.952 484.891 308.858 485.429 308.858Z" fill="#3A3A3A"/>
</g>
<path fill-rule="evenodd" clip-rule="evenodd" d="M544.171 61.7254L536.894 69.7203L529.617 61.7254C526.798 58.6277 522.84 56.84 518.571 56.84C510.325 56.84 503.641 63.5244 503.641 71.7701V107.091C503.641 115.336 510.325 122.021 518.571 122.021C522.84 122.021 526.798 120.233 529.617 117.135L536.894 109.14L544.171 117.135C546.991 120.233 550.949 122.021 555.218 122.021C563.463 122.021 570.148 115.336 570.148 107.091V71.7701C570.148 63.5244 563.463 56.84 555.218 56.84C550.949 56.84 546.991 58.6277 544.171 61.7254Z" stroke="url(#paint4_linear)" stroke-width="19.6805"/>
<path d="M459.243 181.823C458.466 181.823 458 181.337 458 180.521V154.883C458 153.892 458.66 153.251 459.651 153.251C460.544 153.251 461.069 153.678 461.477 154.63L471.441 178.054H471.557L481.483 154.63C481.891 153.678 482.454 153.251 483.347 153.251C484.338 153.251 484.998 153.892 484.998 154.883V180.521C484.998 181.337 484.532 181.823 483.755 181.823C482.978 181.823 482.512 181.337 482.512 180.521V158.554H482.396L473.111 180.308C472.762 181.123 472.276 181.473 471.499 181.473C470.722 181.473 470.217 181.123 469.887 180.346L460.603 158.554H460.486V180.521C460.486 181.337 460.001 181.823 459.243 181.823ZM508.468 181.997C500.66 181.997 495.746 176.423 495.746 167.547C495.746 158.67 500.66 153.076 508.468 153.076C516.276 153.076 521.21 158.67 521.21 167.547C521.21 176.423 516.295 181.997 508.468 181.997ZM508.468 179.531C514.606 179.531 518.49 174.888 518.49 167.547C518.49 160.185 514.606 155.543 508.468 155.543C502.33 155.543 498.465 160.185 498.465 167.547C498.465 174.888 502.33 179.531 508.468 179.531ZM533.258 181.823C532.462 181.823 531.957 181.298 531.957 180.444V154.786C531.957 153.853 532.559 153.251 533.472 153.251C534.171 153.251 534.54 153.465 535.006 154.145L551.011 176.928H551.147V154.63C551.147 153.775 551.652 153.251 552.468 153.251C553.264 153.251 553.769 153.775 553.769 154.63V180.405C553.769 181.298 553.225 181.823 552.312 181.823C551.613 181.823 551.283 181.648 550.817 180.987L534.715 158.126H534.579V180.444C534.579 181.298 534.074 181.823 533.258 181.823ZM566.964 181.551C566.148 181.551 565.643 181.026 565.643 180.172V154.902C565.643 154.047 566.148 153.523 566.964 153.523H581.551C582.308 153.523 582.833 154.009 582.833 154.727C582.833 155.426 582.308 155.931 581.551 155.931H568.285V166.012H580.852C581.609 166.012 582.114 166.498 582.114 167.197C582.114 167.896 581.609 168.382 580.852 168.382H568.285V179.142H581.551C582.308 179.142 582.833 179.647 582.833 180.346C582.833 181.065 582.308 181.551 581.551 181.551H566.964ZM602.942 181.823C602.126 181.823 601.602 181.298 601.602 180.444V169.431L592.221 155.31C592.007 154.98 591.949 154.727 591.949 154.416C591.949 153.756 592.512 153.251 593.231 153.251C593.775 153.251 594.085 153.445 594.415 153.95L602.884 166.828H602.981L611.45 153.95C611.78 153.445 612.091 153.251 612.634 153.251C613.353 153.251 613.916 153.756 613.916 154.416C613.916 154.727 613.839 154.98 613.625 155.31L604.263 169.431V180.444C604.263 181.298 603.739 181.823 602.942 181.823Z" fill="#1D1D1D"/>
<path d="M459.243 181.823C458.466 181.823 458 181.337 458 180.521V154.883C458 153.892 458.66 153.251 459.651 153.251C460.544 153.251 461.069 153.678 461.477 154.63L471.441 178.054H471.557L481.483 154.63C481.891 153.678 482.454 153.251 483.347 153.251C484.338 153.251 484.998 153.892 484.998 154.883V180.521C484.998 181.337 484.532 181.823 483.755 181.823C482.978 181.823 482.512 181.337 482.512 180.521V158.554H482.396L473.111 180.308C472.762 181.123 472.276 181.473 471.499 181.473C470.722 181.473 470.217 181.123 469.887 180.346L460.603 158.554H460.486V180.521C460.486 181.337 460.001 181.823 459.243 181.823ZM508.468 181.997C500.66 181.997 495.746 176.423 495.746 167.547C495.746 158.67 500.66 153.076 508.468 153.076C516.276 153.076 521.21 158.67 521.21 167.547C521.21 176.423 516.295 181.997 508.468 181.997ZM508.468 179.531C514.606 179.531 518.49 174.888 518.49 167.547C518.49 160.185 514.606 155.543 508.468 155.543C502.33 155.543 498.465 160.185 498.465 167.547C498.465 174.888 502.33 179.531 508.468 179.531ZM533.258 181.823C532.462 181.823 531.957 181.298 531.957 180.444V154.786C531.957 153.853 532.559 153.251 533.472 153.251C534.171 153.251 534.54 153.465 535.006 154.145L551.011 176.928H551.147V154.63C551.147 153.775 551.652 153.251 552.468 153.251C553.264 153.251 553.769 153.775 553.769 154.63V180.405C553.769 181.298 553.225 181.823 552.312 181.823C551.613 181.823 551.283 181.648 550.817 180.987L534.715 158.126H534.579V180.444C534.579 181.298 534.074 181.823 533.258 181.823ZM566.964 181.551C566.148 181.551 565.643 181.026 565.643 180.172V154.902C565.643 154.047 566.148 153.523 566.964 153.523H581.551C582.308 153.523 582.833 154.009 582.833 154.727C582.833 155.426 582.308 155.931 581.551 155.931H568.285V166.012H580.852C581.609 166.012 582.114 166.498 582.114 167.197C582.114 167.896 581.609 168.382 580.852 168.382H568.285V179.142H581.551C582.308 179.142 582.833 179.647 582.833 180.346C582.833 181.065 582.308 181.551 581.551 181.551H566.964ZM602.942 181.823C602.126 181.823 601.602 181.298 601.602 180.444V169.431L592.221 155.31C592.007 154.98 591.949 154.727 591.949 154.416C591.949 153.756 592.512 153.251 593.231 153.251C593.775 153.251 594.085 153.445 594.415 153.95L602.884 166.828H602.981L611.45 153.95C611.78 153.445 612.091 153.251 612.634 153.251C613.353 153.251 613.916 153.756 613.916 154.416C613.916 154.727 613.839 154.98 613.625 155.31L604.263 169.431V180.444C604.263 181.298 603.739 181.823 602.942 181.823Z" fill="url(#paint5_linear)"/>
</g>
</g>
<defs>
<filter id="filter0_d" x="0" y="0" width="670" height="410" filterUnits="userSpaceOnUse" color-interpolation-filters="sRGB">
<feFlood flood-opacity="0" result="BackgroundImageFix"/>
<feColorMatrix in="SourceAlpha" type="matrix" values="0 0 0 0 0 0 0 0 0 0 0 0 0 0 0 0 0 0 127 0" result="hardAlpha"/>
<feOffset/>
<feGaussianBlur stdDeviation="15"/>
<feComposite in2="hardAlpha" operator="out"/>
<feColorMatrix type="matrix" values="0 0 0 0 0 0 0 0 0 0 0 0 0 0 0 0 0 0 0.05 0"/>
<feBlend mode="normal" in2="BackgroundImageFix" result="effect1_dropShadow"/>
<feBlend mode="normal" in="SourceGraphic" in2="effect1_dropShadow" result="shape"/>
</filter>
<filter id="filter1_d" x="11" y="182" width="307" height="403" filterUnits="userSpaceOnUse" color-interpolation-filters="sRGB">
<feFlood flood-opacity="0" result="BackgroundImageFix"/>
<feColorMatrix in="SourceAlpha" type="matrix" values="0 0 0 0 0 0 0 0 0 0 0 0 0 0 0 0 0 0 127 0" result="hardAlpha"/>
<feOffset dy="9"/>
<feGaussianBlur stdDeviation="24.5"/>
<feColorMatrix type="matrix" values="0 0 0 0 0.34902 0 0 0 0 0.533333 0 0 0 0 0.972549 0 0 0 0.2 0"/>
<feBlend mode="normal" in2="BackgroundImageFix" result="effect1_dropShadow"/>
<feBlend mode="normal" in="SourceGraphic" in2="effect1_dropShadow" result="shape"/>
</filter>
<filter id="filter2_d" x="283.997" y="217.344" width="257.007" height="329.007" filterUnits="userSpaceOnUse" color-interpolation-filters="sRGB">
<feFlood flood-opacity="0" result="BackgroundImageFix"/>
<feColorMatrix in="SourceAlpha" type="matrix" values="0 0 0 0 0 0 0 0 0 0 0 0 0 0 0 0 0 0 127 0" result="hardAlpha"/>
<feOffset dy="7.34754"/>
<feGaussianBlur stdDeviation="20.0016"/>
<feColorMatrix type="matrix" values="0 0 0 0 0 0 0 0 0 0 0 0 0 0 0 0 0 0 0.1 0"/>
<feBlend mode="normal" in2="BackgroundImageFix" result="effect1_dropShadow"/>
<feBlend mode="normal" in="SourceGraphic" in2="effect1_dropShadow" result="shape"/>
</filter>
<linearGradient id="paint0_linear" x1="0.499991" y1="39.1529" x2="48.0708" y2="350.506" gradientUnits="userSpaceOnUse">
<stop stop-color="#4960F9"/>
<stop offset="1" stop-color="#1937FE"/>
</linearGradient>
<radialGradient id="paint1_radial" cx="0" cy="0" r="1" gradientUnits="userSpaceOnUse" gradientTransform="translate(116 432.5) rotate(-49.1849) scale(305.223 209.153)">
<stop stop-color="#40D3F2"/>
<stop offset="1" stop-color="#40D3F2" stop-opacity="0"/>
</radialGradient>
<radialGradient id="paint2_radial" cx="0" cy="0" r="1" gradientUnits="userSpaceOnUse" gradientTransform="translate(231.5 270) rotate(-45.8138) scale(248.927 260.538)">
<stop stop-color="#E100FF"/>
<stop offset="1" stop-color="#E100FF" stop-opacity="0"/>
</radialGradient>
<radialGradient id="paint3_radial" cx="0" cy="0" r="1" gradientUnits="userSpaceOnUse" gradientTransform="translate(291 477) rotate(90) scale(129 202.501)">
<stop stop-color="#2B47FC"/>
<stop offset="1" stop-color="#2B47FC" stop-opacity="0"/>
</radialGradient>
<linearGradient id="paint4_linear" x1="482.111" y1="50.8062" x2="581.362" y2="125.306" gradientUnits="userSpaceOnUse">
<stop stop-color="#00DBDE"/>
<stop offset="1" stop-color="#F407FE"/>
</linearGradient>
<linearGradient id="paint5_linear" x1="449.551" y1="166.824" x2="633.14" y2="200.884" gradientUnits="userSpaceOnUse">
<stop stop-color="#C432F8"/>
<stop offset="1" stop-color="#42A2E7"/>
</linearGradient>
<clipPath id="clip0">
<rect x="30" y="30" width="610" height="350" rx="10" fill="white"/>
</clipPath>
<clipPath id="clip1">
<rect width="414" height="896" fill="white" transform="translate(30 30)"/>
</clipPath>
<clipPath id="clip2">
<rect width="26" height="21" fill="white" transform="translate(60 84)"/>
</clipPath>
</defs>
</svg>
