<svg width="345" height="287" viewBox="0 0 345 287" fill="none" xmlns="http://www.w3.org/2000/svg">
<g clip-path="url(#clip0)">
<path opacity="0.1" d="M344.352 94.3292H312.521V132.916H342.026C342.102 133.314 342.175 133.712 342.261 134.107H312.521V165.219L312.669 165.17C313.51 164.875 314.344 164.561 315.173 164.229L315.706 164.011C316.555 163.662 317.39 163.289 318.209 162.892C318.503 162.757 318.794 162.615 319.081 162.47C323.659 160.216 327.879 157.3 331.604 153.814C331.712 153.721 331.812 153.624 331.909 153.53C332.418 153.039 332.917 152.544 333.401 152.035L333.935 151.467C334.506 150.847 335.056 150.207 335.593 149.559L335.828 149.275C337.986 146.63 339.798 143.722 341.223 140.62C341.268 140.526 341.306 140.429 341.347 140.336C341.78 139.359 342.171 138.369 342.511 137.362C342.656 136.936 342.794 136.51 342.916 136.084C342.957 135.956 342.995 135.831 343.03 135.707C344.796 129.526 345 123.104 345 116.716C345 115.972 345 115.224 345 114.483C345 111.904 344.962 109.29 344.913 106.71C344.913 106.039 344.882 105.37 344.865 104.695C344.823 102.98 344.761 101.268 344.678 99.5572C344.657 99.0794 344.636 98.6051 344.605 98.1342C344.605 97.8607 344.578 97.5872 344.56 97.3136C344.491 96.2992 344.429 95.3159 344.352 94.3292Z" fill="#FDC435"/>
<path opacity="0.1" d="M312.521 51.373H329.981C327.118 47.3958 324.014 43.5986 320.685 40.0029C318.088 37.1708 315.363 34.4079 312.51 31.7489L312.521 51.373Z" fill="#FDC435"/>
<path opacity="0.1" d="M312.521 52.564V93.1382H344.252C344.252 93.0204 344.231 92.8993 344.221 92.7919C344.193 92.4734 344.166 92.1549 344.134 91.8329C344.103 91.5109 344.062 91.085 344.02 90.7076C343.979 90.3303 343.937 89.894 343.889 89.4924C343.84 89.0908 343.799 88.6788 343.747 88.2737C343.695 87.8686 343.646 87.4635 343.591 87.0619C343.535 86.6603 343.483 86.2517 343.421 85.8501C343.373 85.5039 343.328 85.1854 343.276 84.8495C343.203 84.3786 343.127 83.9043 343.047 83.4369C343.038 83.367 343.025 83.2977 343.009 83.2292C342.436 79.789 341.657 76.3864 340.676 73.0398C339.638 69.4942 338.322 66.0361 336.739 62.698C335.032 59.167 333.052 55.7752 330.815 52.5536L312.521 52.564Z" fill="#FDC435"/>
<path opacity="0.1" d="M236.926 94.3291V132.916H304.918V94.3291H236.926ZM236.926 134.107V160.237C244.84 157.706 253.891 158.727 262.096 160.804C268.45 162.418 274.64 164.613 280.983 166.192C283.816 166.915 286.692 167.459 289.594 167.819L290.307 167.895C290.653 167.93 290.999 167.964 291.345 167.992L292.384 168.065H292.491H292.955C293.008 168.068 293.062 168.068 293.115 168.065L293.676 168.086H293.693C293.959 168.086 294.23 168.086 294.5 168.106H294.846C295.112 168.106 295.382 168.106 295.653 168.106H296.245H296.722C296.927 168.106 297.127 168.106 297.328 168.086C297.654 168.086 297.979 168.058 298.308 168.034L298.914 167.996L299.662 167.937C300.192 167.895 300.7 167.84 301.237 167.777C301.445 167.753 301.656 167.729 301.864 167.698L302.172 167.66C302.695 167.59 303.211 167.507 303.733 167.421C304.118 167.362 304.502 167.289 304.89 167.22V134.107H236.926ZM287.495 51.3591V52.5501H236.926V93.1381H304.918V52.564H301.507V51.3729H304.918V25.1498C291.692 14.4964 276.233 6.15241 259.015 2.29892C251.763 0.693797 244.352 -0.0786645 236.926 -0.00348119V51.3729L287.495 51.3591ZM132.04 51.1306L132.279 51.3591H229.319V0.353131C212.042 1.78997 195.195 7.59271 181.613 17.2074C175.086 21.8226 169.225 27.2929 161.902 30.8348C158.06 32.7415 153.862 33.8264 149.576 34.0201L132.04 51.1306ZM131.372 30.2047V41.7513L140.748 32.6006C137.261 31.3957 134.512 30.5717 131.358 30.2186L131.372 30.2047ZM131.06 175.467H131.372V200.776C134.91 200.513 138.435 200.151 141.946 199.689C157.645 197.666 173.027 193.681 187.734 187.827V187.827C189.313 187.195 190.88 186.542 192.436 185.868C193.472 185.418 194.503 184.956 195.528 184.483C197.065 183.777 198.59 183.051 200.105 182.305C206.805 179.012 213.269 175.257 219.448 171.067C219.833 170.807 220.22 170.544 220.601 170.277C221.367 169.746 222.128 169.211 222.883 168.671C223.26 168.397 223.638 168.124 224.011 167.847L224.78 167.258C225.556 166.68 226.328 166.098 227.11 165.527C227.834 165.008 228.564 164.488 229.305 164.004V134.09H151.353C151.408 133.913 151.46 133.743 151.519 133.557C151.456 133.737 151.401 133.903 151.349 134.09H131.358V175.46L131.06 175.467ZM131.372 52.557V93.1381H229.319V52.564L131.372 52.557ZM131.372 94.3222V132.916H229.319V94.3291L131.372 94.3222ZM111.789 31.3923L123.755 43.0704V30.1528C119.746 30.4021 115.757 30.8152 111.789 31.3923ZM28.4702 94.3291V132.916H123.755V94.3291H28.4702ZM51.5011 189.628C65.9436 195.126 81.0439 198.709 96.417 200.285H96.4827C99.3887 200.592 102.303 200.829 105.225 200.998H105.332C111.457 201.344 117.606 201.424 123.745 201.195V134.107H28.4702L28.8164 178.535L51.5011 189.628ZM2.07739 132.916H20.8705V94.3291H13.4371C12.665 95.6863 11.9171 97.0505 11.2074 98.4354C10.8265 99.1717 10.4561 99.9161 10.096 100.669C5.20381 110.823 2.0947 121.986 2.07739 132.916ZM2.07739 134.107C2.22973 141.946 3.99548 149.639 7.86975 156.747C11.0896 162.65 15.5629 167.826 20.8567 172.327V134.107H2.07739ZM14.1191 93.1381H20.8567V83.0976C18.4283 86.3152 16.1835 89.6674 14.133 93.1381H14.1191ZM56.3344 51.3729H121.508L121.743 51.1444L121.397 50.7982L103.071 32.9226C97.6321 34.0579 92.2607 35.497 86.9823 37.2331C86.4837 37.3958 85.9852 37.5793 85.4901 37.7351C75.2984 41.192 65.5203 45.7658 56.3344 51.3729V51.3729ZM28.4702 74.0057V93.1381H112.035H112.053H123.765V53.6684L122.429 52.5813H54.4163C44.8811 58.5757 36.1603 65.7768 28.4702 74.0057V74.0057Z" fill="#FDC435"/>
<path opacity="0.1" d="M312.521 73.0294V93.1382H344.252C344.252 93.0204 344.231 92.8993 344.221 92.7919C344.193 92.4734 344.166 92.1549 344.134 91.8329C344.103 91.5109 344.062 91.085 344.02 90.7076C343.979 90.3303 343.937 89.894 343.889 89.4924C343.84 89.0908 343.799 88.6788 343.747 88.2737C343.695 87.8686 343.646 87.4635 343.591 87.0619C343.535 86.6603 343.483 86.2517 343.421 85.8501C343.373 85.5039 343.328 85.1853 343.276 84.8495C343.203 84.3786 343.127 83.9043 343.047 83.4369C343.038 83.367 343.025 83.2977 343.009 83.2292C342.436 79.789 341.657 76.3864 340.676 73.0397L312.521 73.0294Z" fill="#FDC435"/>
<path opacity="0.1" d="M344.352 94.3292H312.521V132.916H342.026C342.102 133.314 342.175 133.712 342.261 134.107H312.521V165.219L312.669 165.17C313.51 164.875 314.344 164.561 315.173 164.229L315.706 164.011C316.555 163.662 317.39 163.289 318.209 162.892C318.503 162.757 318.794 162.615 319.081 162.47C323.659 160.216 327.879 157.3 331.604 153.814C331.712 153.721 331.812 153.624 331.909 153.53C332.418 153.039 332.917 152.544 333.401 152.035L333.935 151.467C334.506 150.847 335.056 150.207 335.593 149.559L335.828 149.275C337.986 146.63 339.798 143.722 341.223 140.62C341.268 140.526 341.306 140.429 341.347 140.336C341.78 139.359 342.171 138.369 342.511 137.362C342.656 136.936 342.794 136.51 342.916 136.084C342.957 135.956 342.995 135.831 343.03 135.707C344.796 129.526 345 123.104 345 116.716C345 115.972 345 115.224 345 114.483C345 111.904 344.962 109.29 344.913 106.71C344.913 106.039 344.882 105.37 344.865 104.695C344.823 102.98 344.761 101.268 344.678 99.5572C344.657 99.0794 344.636 98.6051 344.605 98.1342C344.605 97.8607 344.578 97.5872 344.56 97.3136C344.491 96.2992 344.429 95.3159 344.352 94.3292Z" fill="#FDC435"/>
<path opacity="0.1" d="M280.983 58.3737V93.1382H304.917V58.3737H301.507V46.602H287.495V58.3737H280.983Z" fill="#FDC435"/>
<path opacity="0.1" d="M304.917 94.3292H280.983V132.913H304.917V94.3292Z" fill="#FDC435"/>
<path opacity="0.1" d="M304.917 134.107H280.986V166.192C283.818 166.914 286.693 167.458 289.593 167.819L290.307 167.895C290.653 167.933 290.999 167.964 291.345 167.992L292.384 168.065C292.419 168.065 292.457 168.065 292.491 168.065C292.644 168.065 292.8 168.065 292.955 168.086H293.115C293.302 168.086 293.489 168.086 293.679 168.106C293.946 168.106 294.216 168.106 294.486 168.127H294.832C295.102 168.127 295.369 168.127 295.639 168.127H296.231H296.708L297.318 168.106C297.64 168.106 297.969 168.079 298.294 168.054L298.897 168.016L299.648 167.958C300.174 167.913 300.687 167.861 301.22 167.798L301.846 167.719L302.155 167.681C302.677 167.608 303.193 167.532 303.716 167.442C304.104 167.383 304.485 167.31 304.872 167.241L304.917 134.107Z" fill="#FDC435"/>
<path opacity="0.1" d="M151.096 54.2674H131.358V93.1347H151.096V54.2674Z" fill="#FDC435"/>
<path opacity="0.1" d="M131.358 94.3292V132.916H229.319V116.273H177.139V126.092H151.093V94.3292H131.358Z" fill="#FDC435"/>
<path opacity="0.1" d="M131.046 175.481H131.358V200.794C134.896 200.526 138.421 200.164 141.932 199.706C157.635 197.676 173.023 193.685 187.734 187.827C191.944 186.138 196.068 184.298 200.105 182.309C206.805 179.014 213.269 175.258 219.448 171.067C220.992 170.019 222.512 168.947 224.008 167.85C225.047 167.085 226.085 166.306 227.124 165.548C227.848 165.029 228.578 164.509 229.319 164.021V134.107H151.356C151.411 133.931 151.463 133.761 151.519 133.577C151.46 133.754 151.401 133.924 151.349 134.107H131.358V175.464L131.046 175.481Z" fill="#FDC435"/>
<path opacity="0.1" d="M79.8845 51.373H92.7433V47.8103H86.9821V37.2332C86.4836 37.3959 85.985 37.5794 85.4899 37.7352V47.8103H79.8845V51.373Z" fill="#FDC435"/>
<path opacity="0.1" d="M48.8975 93.1381H112.035H112.014H112.046H123.755V54.2674H120.438V83.0041H105.273V65.9975H92.7435V52.564H79.8847V65.9975H67.3582V83.0007H48.8975V93.1381Z" fill="#FDC435"/>
<path opacity="0.1" d="M48.8975 94.3292V132.916H123.755V94.3292H48.8975ZM51.5115 189.628C65.954 195.126 81.0544 198.709 96.4274 200.285H96.4932C99.3991 200.592 102.313 200.829 105.235 200.998H105.343C111.467 201.344 117.616 201.424 123.755 201.195V134.107H48.8975V147.786H28.4702L28.5775 178.327" fill="#FDC435"/>
<path opacity="0.1" d="M19.5515 134.107H2.09131C2.24365 141.946 4.01286 149.639 7.88366 156.747C11.1036 162.653 15.5803 167.826 20.8706 172.327V147.786H19.5515V134.107Z" fill="#FDC435"/>
<path opacity="0.1" d="M2.07739 132.916H19.5514V100.669H10.096C5.20381 110.823 2.0947 121.986 2.07739 132.916Z" fill="#FDC435"/>
<path opacity="0.1" d="M141.932 65.0731H131.358V77.2603H141.932V65.0731Z" fill="#FDC435"/>
<path opacity="0.1" d="M141.932 90.3337H131.358V93.1382H141.932V90.3337Z" fill="#FDC435"/>
<path opacity="0.1" d="M141.932 94.3292H131.358V102.517H141.932V94.3292Z" fill="#FDC435"/>
<path opacity="0.1" d="M141.932 115.591H131.358V127.778H141.932V115.591Z" fill="#FDC435"/>
<path opacity="0.1" d="M141.932 140.852H131.358V153.039H141.932V140.852Z" fill="#FDC435"/>
<path opacity="0.1" d="M131.358 175.464H131.046H131.358V178.292H141.932V166.105H131.358V175.464Z" fill="#FDC435"/>
<path opacity="0.1" d="M131.358 191.366V200.78C134.896 200.512 138.421 200.15 141.932 199.693V191.383L131.358 191.366Z" fill="#FDC435"/>
<path opacity="0.1" d="M229.319 132.019H184.005V132.913H229.319V132.019Z" fill="#FDC435"/>
<path opacity="0.1" d="M229.319 134.107H184.005V137.538H229.319V134.107Z" fill="#FDC435"/>
<path opacity="0.1" d="M229.319 148.784H184.005V154.302H229.319V148.784Z" fill="#FDC435"/>
<path opacity="0.1" d="M184.005 165.548V171.067H219.452C220.991 170.021 222.511 168.948 224.012 167.847C225.05 167.085 226.089 166.306 227.128 165.551L184.005 165.548Z" fill="#FDC435"/>
<path opacity="0.1" d="M184.005 182.309V187.827H187.734C191.942 186.142 196.064 184.303 200.101 182.309H184.005Z" fill="#FDC435"/>
<path opacity="0.1" d="M96.4238 106.004H105.343V98.0719H96.4238V106.004Z" fill="#FDC435"/>
<path opacity="0.1" d="M289.569 69.0409H298.488V61.1089H289.569V69.0409Z" fill="#FDC435"/>
<path opacity="0.1" d="M289.569 87.467H298.488V79.535H289.569V87.467Z" fill="#FDC435"/>
<path opacity="0.1" d="M289.569 105.89H298.488V97.9576H289.569V105.89Z" fill="#FDC435"/>
<path opacity="0.1" d="M289.569 124.316H298.488V116.384H289.569V124.316Z" fill="#FDC435"/>
<path opacity="0.1" d="M289.569 142.745H298.488V134.813H289.569V142.745Z" fill="#FDC435"/>
<path opacity="0.1" d="M289.569 161.168H298.488V153.236H289.569V161.168Z" fill="#FDC435"/>
<path opacity="0.1" d="M62.3691 106.004H71.2878V98.0719H62.3691V106.004Z" fill="#FDC435"/>
<path opacity="0.1" d="M96.4238 125.566H105.343V117.634H96.4238V125.566Z" fill="#FDC435"/>
<path opacity="0.1" d="M62.3691 125.566H71.2878V117.634H62.3691V125.566Z" fill="#FDC435"/>
<path opacity="0.1" d="M96.4238 145.131H105.343V137.199H96.4238V145.131Z" fill="#FDC435"/>
<path opacity="0.1" d="M62.3691 145.131H71.2878V137.199H62.3691V145.131Z" fill="#FDC435"/>
<path opacity="0.1" d="M96.4238 164.696H105.343V156.764H96.4238V164.696Z" fill="#FDC435"/>
<path opacity="0.1" d="M62.3691 164.696H71.2878V156.764H62.3691V164.696Z" fill="#FDC435"/>
<path opacity="0.1" d="M96.4238 184.265H105.343V176.333H96.4238V184.265Z" fill="#FDC435"/>
<path opacity="0.1" d="M62.3691 184.265H71.2878V176.333H62.3691V184.265Z" fill="#FDC435"/>
<path opacity="0.1" d="M105.339 201.012V195.898H96.4238V200.285L105.339 201.012Z" fill="#FDC435"/>
<path opacity="0.1" d="M312.521 83.2153V87.7543H343.047V83.2153H312.521ZM340.007 83.5027H342.497V87.4704H339.994L340.007 83.5027ZM336.968 83.5027H339.471V87.4704H336.957L336.968 83.5027ZM333.935 83.5027H336.438V87.4704H333.935V83.5027ZM330.895 83.5027H333.398V87.4704H330.895V83.5027ZM327.858 83.5027H330.379V87.4704H327.876L327.858 83.5027ZM324.818 83.5027H327.322V87.4704H324.818V83.5027ZM321.779 83.5027H324.282V87.4704H321.779V83.5027ZM318.742 83.5027H321.245V87.4704H318.742V83.5027ZM315.706 83.5027H318.209V87.4704H315.706V83.5027ZM312.669 83.5027H315.173V87.4704H312.669V83.5027Z" fill="#FDC435"/>
<path opacity="0.1" d="M312.521 96.4273V100.966H343.047V96.4273H312.521ZM340.007 96.7147H342.497V100.679H339.994L340.007 96.7147ZM336.968 96.7147H339.471V100.679H336.957L336.968 96.7147ZM333.935 96.7147H336.438V100.679H333.935V96.7147ZM330.895 96.7147H333.398V100.679H330.895V96.7147ZM327.858 96.7147H330.379V100.679H327.876L327.858 96.7147ZM324.818 96.7147H327.322V100.679H324.818V96.7147ZM321.779 96.7147H324.282V100.679H321.779V96.7147ZM318.742 96.7147H321.245V100.679H318.742V96.7147ZM315.706 96.7147H318.209V100.679H315.706V96.7147ZM312.669 96.7147H315.173V100.679H312.669V96.7147Z" fill="#FDC435"/>
<path opacity="0.1" d="M312.521 109.636V114.171H343.047V109.636H312.521ZM340.007 109.92H342.497V113.888H339.994L340.007 109.92ZM336.968 109.92H339.471V113.888H336.957L336.968 109.92ZM333.935 109.92H336.438V113.888H333.935V109.92ZM330.895 109.92H333.398V113.888H330.895V109.92ZM327.858 109.92H330.379V113.888H327.876L327.858 109.92ZM324.818 109.92H327.322V113.888H324.818V109.92ZM321.779 109.92H324.282V113.888H321.779V109.92ZM318.742 109.92H321.245V113.888H318.742V109.92ZM315.706 109.92H318.209V113.888H315.706V109.92ZM312.669 109.92H315.173V113.888H312.669V109.92Z" fill="#FDC435"/>
<path opacity="0.1" d="M312.521 122.844V127.38H343.047V122.844H312.521ZM340.007 123.128H342.497V127.096H339.994L340.007 123.128ZM336.968 123.128H339.471V127.096H336.957L336.968 123.128ZM333.935 123.128H336.438V127.096H333.935V123.128ZM330.895 123.128H333.398V127.096H330.895V123.128ZM327.858 123.128H330.379V127.096H327.876L327.858 123.128ZM324.818 123.128H327.322V127.096H324.818V123.128ZM321.779 123.128H324.282V127.096H321.779V123.128ZM318.742 123.128H321.245V127.096H318.742V123.128ZM315.706 123.128H318.209V127.096H315.706V123.128ZM312.669 123.128H315.173V127.096H312.669V123.128Z" fill="#FDC435"/>
<path opacity="0.1" d="M312.521 136.053V140.599H341.223C341.264 140.505 341.306 140.408 341.344 140.315H340.007V136.34H342.497V137.327C342.642 136.905 342.781 136.482 342.902 136.053H312.521ZM336.968 136.34H339.471V140.305H336.957L336.968 136.34ZM333.935 136.34H336.438V140.305H333.935V136.34ZM330.895 136.34H333.398V140.305H330.895V136.34ZM327.858 136.34H330.379V140.305H327.876L327.858 136.34ZM324.818 136.34H327.322V140.305H324.818V136.34ZM321.779 136.34H324.282V140.305H321.779V136.34ZM318.742 136.34H321.245V140.305H318.742V136.34ZM315.706 136.34H318.209V140.305H315.706V136.34ZM312.669 136.34H315.173V140.305H312.669V136.34Z" fill="#FDC435"/>
<path opacity="0.1" d="M312.521 149.254V153.79H331.601C331.712 153.696 331.809 153.596 331.909 153.506H330.895V149.549H333.398V152.024L333.935 151.453V149.549H335.593C335.673 149.452 335.749 149.355 335.828 149.265L312.521 149.254ZM327.858 149.538H330.379V153.506H327.876L327.858 149.538ZM324.818 149.538H327.322V153.506H324.818V149.538ZM321.779 149.538H324.282V153.506H321.779V149.538ZM318.742 149.538H321.245V153.506H318.742V149.538ZM315.706 149.538H318.209V153.506H315.706V149.538ZM312.669 149.538H315.173V153.506H312.669V149.538Z" fill="#FDC435"/>
<path opacity="0.1" d="M312.521 162.473V165.219C312.571 165.205 312.621 165.188 312.669 165.167V162.743H315.173V164.218L315.706 164V162.757H318.209V162.896C318.503 162.761 318.794 162.619 319.081 162.477L312.521 162.473Z" fill="#FDC435"/>
<path opacity="0.1" d="M112.025 93.1451H112.042H112.025ZM131.047 175.481H131.358H131.047ZM151.349 134.107C151.405 133.93 151.457 133.761 151.515 133.574C151.457 133.754 151.401 133.93 151.349 134.107ZM112.025 93.1451H112.042H112.025ZM287.496 51.373V52.564H301.507V51.373H287.496ZM131.047 175.481H131.358H131.047ZM151.349 134.107C151.405 133.93 151.457 133.761 151.515 133.574C151.457 133.754 151.401 133.93 151.349 134.107ZM112.025 93.1451H112.042H112.025ZM131.047 175.481H131.358H131.047ZM151.349 134.107C151.405 133.93 151.457 133.761 151.515 133.574C151.457 133.754 151.401 133.93 151.349 134.107Z" fill="#FDC435"/>
<path opacity="0.1" d="M312.625 285.435C319.237 285.435 324.597 284.842 324.597 284.109C324.597 283.377 319.237 282.783 312.625 282.783C306.012 282.783 300.652 283.377 300.652 284.109C300.652 284.842 306.012 285.435 312.625 285.435Z" fill="#FDC435"/>
<path d="M231.39 185.317L225.407 184.988L225.002 167.805L224.908 163.713L231.22 162.549L231.261 167.826L231.39 185.317Z" fill="#D48A9B"/>
<path d="M226.733 182.326L195.988 201.441L195.323 207.258L198.647 207.424V203.269L218.756 191.968L194.492 222.048V226.702H198.481L198.148 221.55L226.234 189.642L229.724 189.974L259.309 223.544L259.974 229.198L263.962 229.364L263.298 223.544L239.865 194.295L255.487 205.097L255.819 209.75L258.977 209.917L258.644 204.266L228.893 181.329L226.733 182.326Z" fill="#D48A9B"/>
<path d="M188.108 149.632C191.011 146.019 193.445 142.053 195.351 137.829C197.466 133.148 199.786 127.743 199.963 126.144C200.309 123.152 208.771 117.17 218.077 116.837C224.147 116.619 233.602 111.883 239.453 108.611C244.957 105.482 251.078 103.591 257.388 103.071C264.233 102.556 270.669 103.899 267.428 111.841L223.908 164.544C223.908 164.544 186.792 171.084 184.504 160.569C184.376 160.039 184.198 159.522 183.974 159.025C183.541 158.031 183.427 155.438 188.108 149.632Z" fill="#FDC435"/>
<path opacity="0.2" d="M191.376 150.677C194.299 147.026 196.756 143.025 198.692 138.767C200.665 134.391 202.76 129.485 202.926 128C203.245 125.143 211.353 119.427 220.258 119.109C226.064 118.901 235.111 114.379 240.706 111.253C245.977 108.268 251.835 106.467 257.872 105.976C264.419 105.485 270.579 106.769 267.49 114.355L232.968 164.904C232.968 164.904 190.382 170.945 188.129 160.95C187.995 160.419 187.818 159.901 187.599 159.399C187.204 158.409 187.149 155.982 191.376 150.677Z" fill="#DDA2A6"/>
<path opacity="0.1" d="M231.261 167.826C229.26 167.826 227.152 167.826 225.002 167.805L224.908 163.713L231.22 162.553L231.261 167.826Z" fill="black"/>
<g opacity="0.1">
<path opacity="0.1" d="M255.487 204.1L239.865 193.298L241.655 195.531L255.487 205.097L255.819 209.75L258.977 209.917L258.918 208.916L255.819 208.753L255.487 204.1Z" fill="black"/>
<path opacity="0.1" d="M198.647 202.272V203.269L217.284 192.796L218.756 190.971L198.647 202.272Z" fill="black"/>
<path opacity="0.1" d="M194.492 225.705V226.702H198.481L198.415 225.705H194.492Z" fill="black"/>
<path opacity="0.1" d="M198.647 206.427L195.434 206.267L195.323 207.258L198.647 207.424V206.427Z" fill="black"/>
<path opacity="0.1" d="M259.974 228.201L259.309 222.547L229.724 188.977L226.234 188.645L198.148 220.553L198.207 221.484L226.234 189.642L229.724 189.974L259.309 223.544L259.974 229.198L263.962 229.364L263.848 228.36L259.974 228.201Z" fill="black"/>
</g>
<path opacity="0.1" d="M227.73 135.08C227.73 135.08 235.513 140.772 232.106 140.838C228.699 140.903 227.73 135.08 227.73 135.08Z" fill="black"/>
<path d="M195.074 166.219C195.074 166.219 207.954 165.222 212.773 155.916C212.773 155.916 222.578 136.468 230.559 134.308C238.539 132.147 253.326 127.328 259.475 119.849C265.624 112.371 268.204 106.638 268.204 106.638C268.204 106.638 269.789 112.69 264.793 119.825C259.797 126.961 257.98 137.95 254.49 149.601C251 161.251 249.67 165.873 243.355 166.566C238.595 167.068 213.424 166.815 201.389 166.566C197.453 166.458 195.074 166.219 195.074 166.219Z" fill="#FDC435"/>
<path opacity="0.2" d="M195.074 166.219C195.074 166.219 207.954 165.222 212.773 155.916C212.773 155.916 222.578 136.468 230.559 134.308C238.539 132.147 253.326 127.328 259.475 119.849C265.624 112.371 268.204 106.638 268.204 106.638C268.204 106.638 269.789 112.69 264.793 119.825C259.797 126.961 257.98 137.95 254.49 149.601C251 161.251 249.67 165.873 243.355 166.566C238.595 167.068 213.424 166.815 201.389 166.566C197.453 166.458 195.074 166.219 195.074 166.219Z" fill="#DDA2A6"/>
<path d="M198.315 166.219C198.315 166.219 210.626 165.253 215.231 156.241C215.231 156.241 224.607 137.413 232.231 135.322C239.855 133.231 253.995 128.561 259.874 121.321C265.753 114.081 268.214 108.528 268.214 108.528C268.214 108.528 269.72 114.414 264.956 121.321C260.192 128.228 258.444 138.861 255.106 150.127C251.768 161.393 250.501 165.897 244.463 166.541C239.914 167.026 215.854 166.78 204.349 166.541C200.589 166.469 198.315 166.219 198.315 166.219Z" fill="#FDC435"/>
<path opacity="0.1" d="M188.343 161.372C188.343 161.372 195.074 163.948 198.896 162.536C202.719 161.123 212.191 156.968 212.191 156.968C212.191 156.968 196.237 157.979 188.343 161.372Z" fill="black"/>
<path d="M233.346 282.326C233.346 282.326 213.999 281.288 209.283 278.518C204.567 275.748 197.892 275.748 197.858 275.748L120.822 258.956L88.7965 251.339L83.0837 250.588L101.953 228.997L102.528 228.748L130.344 216.716C130.344 216.716 142.808 217.409 145.269 225.531C145.438 226.104 145.554 226.69 145.616 227.283C145.874 229.816 145.172 232.354 143.649 234.395C142.666 235.738 141.457 237.646 141.077 239.325C140.862 240.274 140.91 241.15 141.423 241.818C142.461 242.849 143.608 243.765 144.843 244.55C151.626 249.05 168.771 256.467 198.723 245.107C198.723 245.107 211.533 232.47 221.228 237.836C230.922 243.203 233.346 282.326 233.346 282.326Z" fill="#E1DEE5"/>
<path opacity="0.1" d="M141.09 239.325C140.876 240.274 140.924 241.15 141.437 241.818C142.475 242.849 143.622 243.765 144.857 244.55L86.5459 248.915L102.528 228.748L130.343 216.716C130.343 216.716 142.808 217.409 145.269 225.531C145.438 226.104 145.554 226.69 145.615 227.283C145.874 229.816 145.172 232.354 143.649 234.395C142.679 235.738 141.471 237.646 141.09 239.325Z" fill="black"/>
<path d="M84.1224 159.935L131.902 160.974V218.167L86.546 248.915L75.6399 238.875L77.8904 205.637L75.6399 174.65L84.1224 159.935Z" fill="#A36468"/>
<path d="M56.9436 150.587L112.727 133.397C113.73 133.091 114.781 132.973 115.826 133.051L249.088 142.777C260.487 143.559 271.457 147.428 280.823 153.97C289.448 160.053 297.989 169.391 301.943 183.531C304.803 193.965 304.605 205 301.372 215.325L289.6 253.41C289.6 253.41 298.429 170.662 210.315 166.507L56.9436 150.587Z" fill="#D9D6DF"/>
<path d="M86.546 158.724V250.588C86.546 250.588 71.2602 248.438 68.5423 245.453C66.3126 243.005 53.3949 236.105 47.7895 228.997C46.5604 227.439 45.681 225.881 45.3452 224.333C43.4686 215.789 35.824 195.597 35.824 195.597L37.9013 175.862L46.557 163.052L63.3489 155.435H76.3324L86.546 158.724Z" fill="#B8797D"/>
<path d="M62.3102 159.935C62.3102 159.935 37.4651 175.516 42.9008 200.586C43.344 202.629 43.7283 204.682 43.981 206.759C44.9747 214.868 50.9367 238.169 86.546 248.915V251.339L71.4402 247.125L61.185 241.472L53.3568 234.45L43.7871 222.775L39.3451 213.254L37.7178 200.714L36.7795 186.397L39.0681 174.117L44.4657 166.126L51.044 161.012L62.3102 159.935Z" fill="#D9D6DF"/>
<path opacity="0.1" d="M86.5461 158.724V173.338C75.7092 174.515 42.1565 181.301 48.115 220.078L47.7861 228.983C46.557 227.425 45.6776 225.867 45.3418 224.32C43.4652 215.775 35.8206 195.583 35.8206 195.583L37.8979 175.848L46.5536 163.038L63.3455 155.421H76.329L86.5461 158.724Z" fill="black"/>
<path opacity="0.1" d="M143.663 234.395C142.68 235.738 141.471 237.646 141.091 239.325C139.581 237.594 139.256 235.603 141.437 234.028C144.169 232.04 145.079 228.592 145.283 225.531C145.452 226.104 145.568 226.69 145.63 227.283C145.888 229.816 145.186 232.354 143.663 234.395V234.395Z" fill="white"/>
<path d="M283.548 243.722L276.97 266.054L262.082 280.595L243.386 284.404L214.303 279.21V175.862C214.303 175.862 219.323 172.573 219.843 172.573C220.362 172.573 234.384 174.823 234.384 174.823L266.133 197.594L267.449 198.54L281.644 219.659L283.548 243.722Z" fill="#B8797D"/>
<path d="M214.303 171.534V279.21L217.108 279.712V171.534H214.303Z" fill="#A36468"/>
<path opacity="0.1" d="M266.756 204.772C245.983 187.703 222.89 185.193 214.303 184.881V175.879C214.303 175.879 219.323 172.59 219.843 172.59C220.362 172.59 234.384 174.84 234.384 174.84L266.133 197.612L266.756 204.772Z" fill="black"/>
<path d="M209.916 164.61L79.7945 150.414L65.17 149.639C60.6125 149.375 56.0548 150.153 51.8429 151.914C47.631 153.675 43.8755 156.372 40.8614 159.8C33.2445 168.56 27.4868 184.012 35.8966 210.543C35.8966 210.543 44.6665 244.934 87.138 252.322L210.547 280.287C213.282 280.907 215.982 281.672 218.648 282.541C229.852 286.221 267.812 295.756 285.695 263.343C291.823 252.229 293.658 239.27 291.297 226.795C286.993 203.979 270.745 165.26 209.916 164.61ZM273.667 261.861C256.979 289.046 222.592 280.955 212.254 277.763C209.723 276.981 207.161 276.298 204.567 275.744L90.5691 251.356C51.2932 244.906 43.1812 214.878 43.1812 214.878C36.5509 195.143 39.4488 182.409 44.8084 174.349C50.4207 165.911 60.1912 161.192 70.3149 161.705L83.79 162.397L200.177 177.946C202.532 178.261 204.903 178.469 207.278 178.549C259.036 180.304 275.138 208.764 279.231 228.377C281.634 239.841 279.806 251.869 273.667 261.861Z" fill="#E1DEE5"/>
<path d="M1.46457 222.467C5.72661 225.32 12.1976 223.963 12.1976 223.963C12.1976 223.963 21.9577 219.341 24.8417 219.341C27.7258 219.341 34.7403 216.485 34.7403 216.485L34.5014 214.56L33.7882 208.76C38.2303 212.223 43.1675 211.028 45.598 210.775C48.2085 210.505 62.1579 202.213 63.5013 201.666C63.8648 201.521 64.2907 201.046 64.7235 200.434C65.622 199.059 66.4115 197.617 67.0847 196.12V196.12C67.9572 195.351 68.5943 194.735 68.5493 194.6C68.5042 194.465 68.8955 193.454 69.4044 192.315C71.3848 191.968 73.0917 191.234 73.6353 190.791C74.082 190.434 74.4396 189.978 74.6799 189.458C74.9202 188.939 75.0367 188.372 75.0202 187.8C75.0202 187.8 88.6303 174.072 86.8404 168.363C85.0504 162.653 91.2409 162.515 91.2409 162.515C91.2409 162.515 100.724 158.436 102.043 155.992C102.857 154.486 109.972 151.179 115.324 148.86L115.982 148.576C118.06 153.129 128.612 149.615 130.69 147.7C132.888 145.661 139.345 144.709 139.345 144.709C139.345 144.709 139.622 118.049 141.682 114.663C142.662 113.053 142.898 107.79 142.874 102.708C142.874 102.528 142.874 102.362 142.874 102.168C145.761 101.603 152.63 100.298 155.819 99.9831C157.841 99.7823 159.949 98.522 161.566 97.2964L161.757 97.5353C162.312 97.7634 162.913 97.8617 163.512 97.8226C164.043 97.8821 164.579 97.782 165.053 97.5353C166.292 96.8428 170.828 95.496 172.476 94.8174C174.124 94.1388 172.202 89.2432 170.966 88.291C169.73 87.3389 168.889 86.1167 169.581 85.5732C170.274 85.0296 167.933 83.6689 166.559 83.3954C165.184 83.1219 161.061 81.2211 161.061 81.2211C161.061 81.2211 159.548 78.1051 157.076 78.1051C154.604 78.1051 151.301 75.6573 151.301 75.6573C151.166 74.5701 148.552 74.4351 148.552 74.4351C148.552 74.4351 138.656 66.8181 137.005 67.7737C135.353 68.7293 130.821 66.278 130.821 66.278C130.821 66.278 125.258 66.9012 123.949 65.8764C123.937 65.5399 123.815 65.2165 123.603 64.9554C123.308 64.0345 121.871 62.7742 120.487 61.7252C120.592 61.075 120.646 60.4173 120.646 59.7586C120.646 59.4747 120.646 59.1908 120.615 58.9103C120.615 58.8619 120.615 58.8169 120.615 58.7684L120.812 56.8538C120.826 56.2241 120.989 55.6069 121.29 55.0534C121.522 54.7072 121.865 54.4129 122.124 54.0701C122.185 53.9894 122.24 53.905 122.29 53.8174L122.332 53.7447C122.37 53.6784 122.405 53.6102 122.436 53.5404L122.467 53.4711C122.543 53.2831 122.603 53.0883 122.644 52.8895V52.8445C122.661 52.7544 122.675 52.6644 122.685 52.5709C122.684 52.5583 122.684 52.5455 122.685 52.5329C122.742 51.7419 122.636 50.9477 122.373 50.1993C121.961 48.9148 121.317 47.6753 121.248 46.3354C121.214 45.6707 121.324 44.9921 121.179 44.3412C120.833 42.8559 119.32 41.9176 117.848 41.2944C115.816 40.4427 114.791 39.5113 113.16 38.2441C111.776 37.1708 109.484 37.7109 107.739 37.8217C103.75 38.0779 99.8134 39.2793 96.0603 40.5188C94.6027 41.0036 93.1174 41.5575 91.9818 42.5443C91.2173 43.1945 90.692 44.0817 90.4896 45.0648V45.0648C90.4502 45.2934 90.4352 45.5255 90.4446 45.7572C90.4446 45.778 90.4446 45.7988 90.4446 45.8161C90.4446 45.9061 90.4446 45.9927 90.4757 46.0792C90.4738 46.108 90.4738 46.137 90.4757 46.1658C90.4929 46.2715 90.5184 46.3757 90.5519 46.4774C90.7112 46.9794 91.0054 47.433 91.1751 47.9315C91.2135 48.0449 91.2447 48.1605 91.2686 48.2778C91.2686 48.2778 91.2686 48.302 91.2686 48.3124C91.2928 48.4232 91.3101 48.5305 91.324 48.6586C91.4763 49.8946 91.0193 51.186 90.8185 52.4463C90.7908 52.6229 90.77 52.7925 90.7562 52.9864C90.6961 53.7156 90.7605 54.4497 90.9466 55.1573C90.9451 55.1653 90.9451 55.1735 90.9466 55.1815C90.9674 55.268 90.9985 55.3546 91.0262 55.4377C91.0357 55.4752 91.0472 55.5122 91.0608 55.5485C91.0851 55.6212 91.1162 55.6939 91.1439 55.7631L91.2028 55.9086C91.2305 55.9709 91.2617 56.0332 91.2928 56.0955C91.324 56.1578 91.3447 56.1994 91.3724 56.2479C91.4008 56.3048 91.432 56.3603 91.4659 56.4141C91.4971 56.4694 91.5317 56.5214 91.5663 56.5733C91.601 56.6252 91.6321 56.6737 91.6702 56.7222C91.7083 56.7707 91.7498 56.8295 91.7914 56.8815L91.8987 57.013L92.0441 57.1654L92.1584 57.2796L92.328 57.425C92.3696 57.4562 92.4042 57.4908 92.4457 57.5185C92.4873 57.5462 92.5877 57.6189 92.6604 57.6639L92.7608 57.7332C92.8716 57.799 92.9893 57.8578 93.107 57.9132C93.8964 58.2594 94.8936 58.4014 95.3679 59.0973C95.481 59.2598 95.5599 59.4435 95.5999 59.6374C95.5999 59.6824 95.5999 59.7309 95.5999 59.7759V59.8971C95.5999 60.2987 95.6276 60.6969 95.6691 61.0881C95.6661 61.3034 95.6788 61.5186 95.7072 61.7321C95.7303 61.893 95.7745 62.0502 95.8388 62.1995C96.3929 64.9354 97.8574 67.4031 99.9935 69.2002C100.035 69.4114 100.083 69.6572 100.135 69.9342C98.9258 70.8418 97.5747 71.5437 96.1365 72.0115C92.837 72.9775 88.1733 77.4334 88.1733 77.4334C88.1733 77.4334 85.8536 94.1526 85.2962 96.1919C84.7388 98.2312 84.3267 106.118 84.3267 106.118C84.3267 106.118 83.7763 109.38 82.9418 111.01C82.3567 112.16 82.4641 117.1 84.0913 120.102C83.826 120.692 83.4863 121.246 83.0803 121.75C79.7808 125.559 69.8822 125.42 66.5827 125.42C63.5463 125.42 62.608 127.262 62.4799 127.553C56.4383 129.284 36.8765 134.851 34.5568 135.862C31.8078 137.064 30.2948 148.936 30.2948 148.936C30.2948 148.936 24.5509 168.643 24.8244 171.226C25.0979 173.809 22.8994 181.003 22.8994 181.003C22.8994 181.003 22.8994 189.136 21.9681 189.687C21.96 189.694 21.9506 189.7 21.9404 189.704C20.9778 190.113 21.1129 194.056 21.1129 194.056C21.1129 194.056 21.8226 194.26 22.9271 194.541C22.6328 196.532 21.5422 199.319 20.7009 201.299C20.2715 200.756 19.8526 200.53 19.6033 201.161C18.9109 202.892 8.60721 215.127 5.99321 215.127C4.75026 215.127 2.69368 216.145 1.33993 217.52C-0.141913 219.033 -0.772043 220.975 1.46457 222.467ZM48.7417 151.64C60.4268 152.727 72.9359 150.812 72.9359 150.812C72.9359 150.812 71.9734 154.223 71.1494 155.583C70.3254 156.944 67.9849 164.693 67.9849 166.316C67.9849 167.94 64.2734 181.949 63.1758 182.627C62.7153 182.915 62.3033 183.628 61.9779 184.358C61.6889 185.034 61.446 185.728 61.2508 186.436C61.267 186.789 61.2981 187.125 61.3443 187.443C60.5237 188.194 59.6547 188.984 58.8826 189.683C58.8826 189.683 53.9662 192.418 52.3043 193.914C50.6425 195.41 42.9563 197.245 42.9563 197.245C41.0505 198.064 39.2001 199.007 37.4166 200.067C35.0311 201.503 32.6457 203.331 32.0224 205.135C32.2925 202.095 32.7322 198.436 33.0265 196.109L33.4627 196.092C37.3162 195.853 36.7415 192.176 36.5372 191.265C36.5095 191.134 36.4888 191.061 36.4888 191.061C39.2378 188.07 45.4214 165.787 44.5974 163.329C43.7733 160.87 45.2898 158.706 45.6118 158.706C45.9338 158.706 46.3839 155.989 45.6984 154.493C45.0128 152.997 48.7417 151.64 48.7417 151.64ZM143.227 91.6667L142.496 91.8468V91.691C142.496 91.691 142.763 91.691 143.227 91.6667V91.6667ZM103.286 71.1529C103.175 71.2914 103.064 71.4229 102.94 71.551L102.798 71.6965C102.798 71.4437 102.798 71.1875 102.798 70.9417C102.964 71.0075 103.123 71.0871 103.286 71.1529ZM89.5167 97.5283L89.5651 98.2935C89.5651 98.2935 89.4924 98.7609 89.354 99.5607L89.5167 97.5283ZM152.686 89.9322L150.286 90.3442C150.632 90.2161 150.961 90.0776 151.287 89.9218C151.528 89.8088 151.787 89.7385 152.052 89.714C152.356 89.7463 152.655 89.8101 152.945 89.9045C152.858 89.9068 152.771 89.9161 152.686 89.9322V89.9322Z" fill="url(#paint0_linear)"/>
<path d="M71.5681 188.08C71.5681 188.08 68.7983 193.796 68.9403 194.201C69.0822 194.607 63.0025 199.457 63.0025 199.457L56.3931 194.738L57.0855 191.497C57.0855 191.497 64.5051 184.812 65.0487 184.04C65.5923 183.268 71.5681 188.08 71.5681 188.08Z" fill="#EFB7B9"/>
<path d="M33.8644 207.42C38.4519 211.873 43.8461 210.536 46.4116 210.256C48.9772 209.976 62.6635 201.756 63.9791 201.216C64.3253 201.071 64.7581 200.6 65.1805 199.99C66.0632 198.625 66.8377 197.193 67.4968 195.708C67.4068 195.732 62.9197 197.016 61.7875 195.708C61.7875 195.708 59.8971 193.391 59.492 193.391C59.087 193.391 59.4609 189.327 59.4609 189.327C59.4609 189.327 54.6345 192.041 53.0176 193.526C51.4007 195.012 43.8426 196.829 43.8426 196.829C41.9735 197.643 40.1599 198.578 38.4138 199.63C34.8408 201.812 31.24 204.89 33.8644 207.42Z" fill="#67647E"/>
<path opacity="0.1" d="M33.8643 207.42C38.4517 211.873 43.8459 210.536 46.4115 210.256C48.977 209.975 62.6633 201.756 63.979 201.216C64.3252 201.071 64.758 200.6 65.1804 199.99C63.5843 199.038 53.1559 205.668 50.2373 206.884C47.3186 208.099 39.9336 207.42 35.7408 205.668C33.6634 204.792 35.7685 202.102 38.4067 199.63C34.8406 201.811 31.2399 204.889 33.8643 207.42Z" fill="black"/>
<path d="M34.4045 193.391C34.4045 193.391 32.483 207.825 32.9711 209.716C33.4593 211.606 20.9121 203.241 20.9121 203.241C20.9121 203.241 25.3023 194.195 24.0281 192.117C22.754 190.04 34.4045 193.391 34.4045 193.391Z" fill="#EFB7B9"/>
<path d="M22.3973 193.661C22.3973 193.661 30.222 195.953 34.5359 195.683C38.3167 195.448 37.7524 191.799 37.555 190.895C37.5273 190.767 37.5065 190.694 37.5065 190.694C40.2036 187.724 46.2764 165.6 45.4697 163.173C44.663 160.746 46.1276 158.602 46.4738 158.602C46.82 158.602 47.232 155.902 46.5569 154.42C45.8817 152.938 49.5275 151.588 49.5275 151.588C60.9945 152.665 73.2716 150.764 73.2716 150.764C73.2716 150.764 72.3264 154.15 71.5163 155.5C70.7061 156.851 68.4002 164.537 68.4002 166.157C68.4002 167.777 64.758 181.671 63.6777 182.347C63.2276 182.631 62.8226 183.337 62.504 184.078C62.2195 184.753 61.9812 185.447 61.7908 186.155C62.1959 195.195 72.4476 191.695 73.9329 190.473C74.1443 190.297 74.3369 190.099 74.5077 189.884C75.0286 189.201 75.301 188.361 75.2798 187.502C75.2798 187.502 88.6371 173.878 86.8818 168.21C85.1264 162.543 91.1992 162.411 91.1992 162.411C91.1992 162.411 100.509 158.364 101.804 155.933C102.604 154.441 109.584 151.162 114.839 148.856C118.132 147.412 120.746 146.356 120.746 146.356L118.558 138.511L116.827 132.324L113.579 131.105L103.192 127.2L84.5586 124.586L82.8517 124.807L64.7476 127.151C64.7476 127.151 38.3167 134.713 35.6161 135.897C32.9156 137.081 31.4337 148.87 31.4337 148.87C31.4337 148.87 25.7695 168.432 26.0465 171.008C26.3235 173.584 24.1561 180.702 24.1561 180.702C24.1561 180.702 24.1561 188.773 23.2386 189.32C23.2295 189.322 23.2199 189.322 23.2109 189.32C22.2622 189.763 22.3973 193.661 22.3973 193.661Z" fill="#444053"/>
<path opacity="0.1" d="M49.5137 151.571C60.9807 152.647 73.2578 150.747 73.2578 150.747C74.068 148.195 85.4069 141.18 85.4069 141.18C76.1038 138.888 49.5137 151.571 49.5137 151.571Z" fill="black"/>
<path d="M61.7908 186.107C62.1959 195.147 72.4476 191.646 73.9329 190.424C74.1443 190.248 74.3369 190.051 74.5076 189.836C70.9242 191.155 64.571 192.176 62.504 184.043C62.2201 184.714 61.9818 185.404 61.7908 186.107V186.107Z" fill="#444053"/>
<path d="M22.3973 193.661C22.3973 193.661 30.222 195.953 34.536 195.683C38.3168 195.448 37.7524 191.799 37.5551 190.895C33.5943 190.77 26.7736 190.4 23.2317 189.327C23.2227 189.329 23.2131 189.329 23.204 189.327C22.2623 189.763 22.3973 193.661 22.3973 193.661Z" fill="#444053"/>
<path opacity="0.1" d="M61.7908 186.107C62.1959 195.147 72.4476 191.646 73.9329 190.424C74.1443 190.248 74.3369 190.051 74.5076 189.836C70.9242 191.155 64.571 192.176 62.504 184.043C62.2201 184.714 61.9818 185.404 61.7908 186.107V186.107Z" fill="black"/>
<path opacity="0.1" d="M22.3973 193.661C22.3973 193.661 30.222 195.953 34.536 195.683C38.3168 195.448 37.7524 191.799 37.5551 190.895C33.5943 190.77 26.7736 190.4 23.2317 189.327C23.2227 189.329 23.2131 189.329 23.204 189.327C22.2623 189.763 22.3973 193.661 22.3973 193.661Z" fill="black"/>
<path d="M3.10217 221.858C7.28457 224.69 13.6274 223.34 13.6274 223.34C13.6274 223.34 23.204 218.756 26.0396 218.756C28.8752 218.756 35.7409 215.92 35.7409 215.92L35.5089 214.012L34.394 204.858C34.394 204.858 23.8861 204.588 23.4637 203.643C23.4637 203.643 21.5768 198.997 20.9016 200.714C20.2265 202.431 10.1098 214.563 7.54424 214.563C6.32206 214.563 4.30357 215.574 2.97753 216.938C1.53377 218.451 0.914022 220.376 3.10217 221.858Z" fill="#67647E"/>
<path opacity="0.1" d="M39.3936 142.126C39.3936 142.126 48.1634 147.665 45.7364 148.87C43.3094 150.075 39.3936 142.126 39.3936 142.126Z" fill="black"/>
<path opacity="0.1" d="M35.741 152.782C35.741 152.782 43.2956 159.956 40.4635 160.147C37.6314 160.337 35.741 152.782 35.741 152.782Z" fill="black"/>
<path opacity="0.1" d="M27.6565 175.568C27.6565 175.568 31.4927 182.779 30.0489 184.029C28.6052 185.279 27.6565 175.568 27.6565 175.568Z" fill="black"/>
<path opacity="0.1" d="M69.8855 182.869C68.5352 184.216 82.6959 178.417 79.4621 178.147C76.2284 177.877 69.8855 182.869 69.8855 182.869Z" fill="black"/>
<path d="M98.2139 81.685L98.6674 81.6192C100.343 81.363 106.426 80.4074 111.883 79.2233C113.212 78.9325 114.5 78.6313 115.691 78.3197C119.87 77.2256 122.675 76.045 120.885 75.0756C118.517 73.7911 117.27 71.4575 116.612 69.4494C116.55 69.252 116.491 69.0616 116.436 68.8712C116.145 67.8546 115.963 66.8101 115.892 65.7552C115.892 65.7552 100.658 60.3575 103.615 65.7552C105.073 68.4038 104.093 70.5642 102.718 72.0772C101.773 73.0775 100.661 73.9058 99.4326 74.5251L98.2139 81.685Z" fill="#EFB7B9"/>
<path opacity="0.1" d="M114.538 77.5026C114.538 77.5026 109.085 81.415 103.515 78.1778C97.9438 74.9405 90.6593 106.779 90.6593 106.779L83.1046 125.396C83.1046 125.396 78.2124 129.443 84.3026 131.199C90.3927 132.954 103.902 129.443 107.333 134.571C110.765 139.699 117.26 140.505 117.925 140.505C118.589 140.505 121.158 121.21 121.158 121.21L121.826 93.2836L114.538 77.5026Z" fill="black"/>
<path d="M84.5588 130.118C90.6489 131.87 104.162 128.363 107.593 133.491C109.039 135.58 111.057 137.207 113.406 138.175C114.923 138.856 116.54 139.284 118.195 139.442C118.281 139.442 118.409 139.096 118.558 138.476C119.507 134.571 121.428 120.147 121.428 120.147L122.093 92.2206L115.684 78.3197L114.808 76.4224C113.95 76.9952 113.018 77.4505 112.039 77.7761C109.93 78.4893 106.88 78.8909 103.792 77.0836C102.157 76.135 100.374 78.2054 98.6744 81.6054C94.5751 89.7901 90.9362 105.685 90.9362 105.685L83.3747 124.326C83.1949 124.48 83.0238 124.645 82.8623 124.818C81.789 125.94 79.7774 128.741 84.5588 130.118Z" fill="#F3F5F9"/>
<path opacity="0.1" d="M113.586 131.057C113.288 133.413 113.228 135.793 113.406 138.161C113.625 141.531 114.048 144.884 114.673 148.202C114.712 148.41 114.768 148.615 114.84 148.815C118.132 147.371 120.746 146.315 120.746 146.315L118.558 138.47C119.507 134.564 121.428 120.14 121.428 120.14L122.093 92.2138L115.684 78.3197C119.863 77.2256 122.668 76.045 120.878 75.0756C118.281 73.6664 117.031 70.9936 116.429 68.8712C115.331 70.4014 114.046 71.7879 112.603 72.9982L112.52 73.0675L112.035 77.7761L111.886 79.2234L111.575 82.2251C111.575 82.2251 113.06 117.706 114.137 119.732C115.214 121.757 114.677 125.666 113.735 130.254C113.676 130.513 113.642 130.78 113.586 131.057Z" fill="black"/>
<path d="M114.268 129.713C113.327 134.301 114.133 141.856 115.214 147.655C116.294 153.454 127.761 149.68 129.921 147.655C132.082 145.629 138.418 144.688 138.418 144.688C138.418 144.688 138.688 118.246 140.713 114.874C141.672 113.275 141.904 108.054 141.88 103.009C141.863 98.4804 141.637 94.0938 141.554 92.6223C141.534 92.2761 141.523 92.0857 141.523 92.0857C141.523 92.0857 150.29 77.2464 150.155 76.1593C150.02 75.0721 147.458 74.9475 147.458 74.9475C147.458 74.9475 137.763 67.3928 136.126 68.3346C134.488 69.2763 130.053 66.8527 130.053 66.8527C130.053 66.8527 124.413 67.4932 123.246 66.4026C123.175 66.3421 123.119 66.2658 123.083 66.1798C123.047 66.0938 123.032 66.0006 123.038 65.9075C123.17 64.1764 117.291 60.4926 117.107 60.3679C122.065 64.8273 114.05 71.6999 113.14 72.4547L113.057 72.5239L112.111 81.6816C112.111 81.6816 113.597 117.163 114.673 119.188C115.75 121.214 115.214 125.126 114.268 129.713Z" fill="#67647E"/>
<path d="M114.791 91.8467C115.164 91.8467 115.466 91.5445 115.466 91.1716C115.466 90.7987 115.164 90.4965 114.791 90.4965C114.418 90.4965 114.116 90.7987 114.116 91.1716C114.116 91.5445 114.418 91.8467 114.791 91.8467Z" fill="#444053"/>
<path opacity="0.1" d="M113.41 72.9982L117.509 76.9625L123.516 66.922C123.445 66.8615 123.389 66.7852 123.353 66.6992C123.317 66.6132 123.302 66.5199 123.308 66.4269C123.44 64.6957 117.557 61.0119 117.377 60.8873C122.335 65.3709 114.334 72.2435 113.41 72.9982Z" fill="black"/>
<path opacity="0.1" d="M116.141 113.43C116.514 113.43 116.817 113.128 116.817 112.755C116.817 112.382 116.514 112.08 116.141 112.08C115.769 112.08 115.466 112.382 115.466 112.755C115.466 113.128 115.769 113.43 116.141 113.43Z" fill="black"/>
<path d="M116.141 113.16C116.514 113.16 116.817 112.858 116.817 112.485C116.817 112.112 116.514 111.81 116.141 111.81C115.769 111.81 115.466 112.112 115.466 112.485C115.466 112.858 115.769 113.16 116.141 113.16Z" fill="#444053"/>
<path d="M113.14 72.4581L117.239 76.4224L123.246 66.3819C123.175 66.3214 123.119 66.2451 123.083 66.1591C123.047 66.0731 123.032 65.9798 123.038 65.8868C123.17 64.1556 117.291 60.4718 117.107 60.3472C122.065 64.8308 114.05 71.6999 113.14 72.4581Z" fill="#67647E"/>
<path d="M109.478 110.237L117.688 110.424C118.013 110.432 118.282 110.174 118.29 109.849L118.716 91.1928C118.724 90.8678 118.466 90.5983 118.141 90.5909L109.931 90.4031C109.606 90.3957 109.337 90.6531 109.329 90.9781L108.903 109.635C108.895 109.96 109.153 110.229 109.478 110.237Z" fill="#D1D9EC"/>
<path d="M109.526 110.675L117.736 110.863C118.061 110.871 118.33 110.613 118.338 110.288L118.765 91.6314C118.772 91.3064 118.515 91.0369 118.19 91.0295L109.979 90.8418C109.654 90.8343 109.385 91.0918 109.377 91.4167L108.951 110.073C108.943 110.398 109.201 110.668 109.526 110.675Z" fill="#DFE6F5"/>
<path d="M114.102 98.2208C114.917 98.2208 115.577 97.5604 115.577 96.7458C115.577 95.9313 114.917 95.2709 114.102 95.2709C113.288 95.2709 112.627 95.9313 112.627 96.7458C112.627 97.5604 113.288 98.2208 114.102 98.2208Z" fill="white"/>
<path opacity="0.1" d="M63.2727 128.498C66.6449 129.984 88.7722 126.075 92.0094 125.126C95.2466 124.177 99.9726 116.896 97.6771 111.623C95.3817 106.35 98.4838 101.236 98.4838 101.236C98.4838 101.236 103.331 90.8496 104.422 88.8242C105.512 86.7988 107.752 80.9095 108.064 79.9227C108.077 79.8119 108.066 79.6996 108.033 79.593C108.001 79.4863 107.946 79.3876 107.873 79.303C106.994 77.9769 103.601 75.6157 103.601 75.6157C102.649 75.9619 102.531 73.2302 102.562 71.2255C102.583 70.1038 102.649 69.2105 102.649 69.2105C102.649 69.2105 102.202 69.6641 101.472 70.2838C101.205 70.5089 100.901 70.7581 100.561 71.0143C99.2961 72.0279 97.8645 72.814 96.3303 73.3375C93.0931 74.2966 88.5056 78.7179 88.5056 78.7179L89.8559 99.436C89.8559 99.436 86.7399 118.922 83.5131 122.699C80.2862 126.476 70.5608 126.341 67.3235 126.341C64.0863 126.341 63.2727 128.498 63.2727 128.498Z" fill="black"/>
<path d="M63.0027 127.691C66.3749 129.173 88.5022 125.268 91.7394 124.316C94.9766 123.364 99.7026 116.086 97.4071 110.813C95.1117 105.54 98.2138 100.426 98.2138 100.426C98.2138 100.426 103.061 90.0394 104.152 88.014C105.242 85.9886 107.482 80.0993 107.794 79.1125C107.806 79.0017 107.796 78.8895 107.763 78.7829C107.73 78.6763 107.676 78.5775 107.603 78.4928C106.717 77.1702 103.341 74.8159 103.341 74.8159C102.389 75.1621 102.272 72.4338 102.303 70.4292C102.324 69.304 102.389 68.4107 102.389 68.4107C102.389 68.4107 101.943 68.8643 101.212 69.4875C100.946 69.7091 100.641 69.9583 100.302 70.2145C99.0302 71.2302 97.5914 72.0163 96.0499 72.5377C92.8127 73.4968 88.2252 77.9181 88.2252 77.9181L89.5755 98.6362C89.5755 98.6362 86.4595 118.122 83.2327 121.899C80.0058 125.676 70.2838 125.541 67.0431 125.541C63.8025 125.541 63.0027 127.691 63.0027 127.691Z" fill="#67647E"/>
<path opacity="0.1" d="M99.6992 68.9301C99.6992 68.9301 99.8273 69.6398 100.045 70.7339C100.773 74.4385 102.504 82.5263 103.754 82.2147C104.65 81.9897 106.177 80.404 107.34 79.0329C106.464 77.6965 103.078 75.3352 103.078 75.3352C102.126 75.6815 102.009 72.9532 102.04 70.9485L100.949 70.0068L99.6992 68.9301Z" fill="black"/>
<path d="M99.9692 68.4004C99.9692 68.4004 100.097 69.1102 100.315 70.2042C101.043 73.9088 102.774 81.9967 104.024 81.6851C104.92 81.46 106.447 79.8743 107.61 78.5032C106.717 77.1703 103.341 74.8159 103.341 74.8159C102.389 75.1622 102.272 72.4339 102.303 70.4293L101.212 69.4875L99.9692 68.4004Z" fill="#67647E"/>
<path d="M91.3344 108.126C91.3344 108.126 98.0823 106.779 99.9692 103.812C101.856 100.845 114.708 98.2727 113.126 101.389C111.544 104.505 99.9692 114.646 99.9692 114.646L94.9455 121.837L88.2356 120.133L85.407 114.632L91.3344 108.126Z" fill="#EFB7B9"/>
<path opacity="0.1" d="M107.295 115.826C107.295 115.826 100.762 118.25 99.7789 121.491C98.7956 124.731 107.295 115.826 107.295 115.826Z" fill="black"/>
<path opacity="0.1" d="M111.301 119.597C111.301 119.597 111.897 122.965 103.708 122.713L111.301 119.597Z" fill="black"/>
<path opacity="0.1" d="M146.647 76.4224L149.618 76.1523C149.618 76.1523 152.855 78.5759 155.282 78.5759C157.709 78.5759 159.194 81.6919 159.194 81.6919C159.194 81.6919 163.242 83.5823 164.592 83.8524C165.942 84.1225 168.234 85.4693 167.559 86.0094C166.884 86.5495 167.694 87.7648 168.91 88.7065C170.125 89.6482 172.026 94.5092 170.391 95.1844C168.757 95.8595 164.322 97.2063 163.121 97.8815C161.919 98.5566 160.424 97.8815 160.424 97.8815C160.424 97.8815 153.277 88.5715 149.632 90.3268C145.986 92.0822 140.993 92.0718 140.993 92.0718L137.081 83.8455L146.647 76.4224Z" fill="black"/>
<path d="M84.5586 120.815C85.1957 121.764 86.0197 122.429 87.0757 122.564C89.7164 122.873 92.3924 122.625 94.9315 121.837C94.9315 121.837 81.3422 117.519 94.4261 107.022H90.9292L89.752 106.579L90.2852 103.785L91.0538 78.5829L88.2217 77.9077C88.2217 77.9077 85.9401 94.5023 85.3965 96.5243C84.8529 98.5462 84.4444 106.374 84.4444 106.374C84.4444 106.374 83.9043 109.612 83.0941 111.222C82.4813 112.447 82.6509 117.935 84.5586 120.815Z" fill="#67647E"/>
<path opacity="0.1" d="M85.1091 120.815C85.7427 121.764 86.5702 122.429 87.6262 122.564C90.2669 122.873 92.9429 122.625 95.482 121.837C95.482 121.837 81.8927 117.519 94.9766 107.015H91.4831L90.3164 106.572C88.3671 109.982 85.355 116.038 85.1091 120.815Z" fill="black"/>
<path d="M84.5586 120.815C85.1956 121.764 86.0197 122.429 87.0757 122.564C89.7163 122.873 92.3924 122.625 94.9315 121.837C94.9315 121.837 81.3422 117.519 94.426 107.022H90.9291L89.752 106.579C87.8408 109.982 84.8148 116.037 84.5586 120.815Z" fill="#67647E"/>
<path opacity="0.1" d="M102.715 72.0876C105.02 73.1336 107.593 73.4415 110.08 72.9693C112.567 72.497 114.847 71.2676 116.609 69.4494C116.547 69.252 116.488 69.0616 116.432 68.8712C116.142 67.8546 115.96 66.8101 115.889 65.7552C115.889 65.7552 100.655 60.3575 103.612 65.7552C105.069 68.4142 104.089 70.5746 102.715 72.0876Z" fill="black"/>
<path d="M95.5166 60.3679V60.4891C95.5166 60.8873 95.5443 61.282 95.5859 61.6697C95.6274 62.0575 95.6828 62.4106 95.752 62.7742C96.2815 65.4195 97.6673 67.8168 99.6953 69.5959C101.723 71.3749 104.281 72.4367 106.972 72.6171C109.664 72.7976 112.34 72.0867 114.588 70.5942C116.835 69.1018 118.528 66.9108 119.406 64.3599C119.489 64.121 119.562 63.8821 119.628 63.6397C119.924 62.5744 120.073 61.4736 120.071 60.3679C120.071 60.0875 120.071 59.8036 120.04 59.5266C119.814 56.357 118.367 53.3985 116.005 51.2732C113.643 49.1479 110.549 48.0213 107.373 48.1302C104.197 48.2392 101.187 49.5752 98.9761 51.8574C96.765 54.1397 95.5249 57.1903 95.5166 60.3679V60.3679Z" fill="#EFB7B9"/>
<path opacity="0.1" d="M95.5166 60.4891C95.5838 60.8788 95.607 61.2748 95.5859 61.6697C95.5817 61.8837 95.5933 62.0978 95.6205 62.3102C95.6435 62.47 95.6878 62.626 95.752 62.7741C96.2471 63.9375 97.8675 64.6922 98.9373 63.9409C99.3492 63.6034 99.6765 63.1742 99.8929 62.6876C101.029 60.5791 102.604 58.1555 105.086 58.1139C106.146 58.0932 107.139 58.5398 108.164 58.8064C109.189 59.073 110.401 59.0972 111.163 58.4013C111.751 57.8647 112.028 56.9506 112.814 56.7637C113.6 56.5767 114.327 57.2969 114.687 58.0032C115.047 58.7095 115.335 59.5404 116.072 59.9074C116.397 60.0667 116.764 60.1151 117.111 60.2882C118.579 61.0915 117.904 63.9063 119.427 64.3633C119.475 64.3781 119.523 64.3897 119.572 64.3979C119.597 64.1487 119.624 63.8925 119.649 63.6432C119.787 62.2721 119.924 60.9011 120.061 59.53C119.834 56.3604 118.388 53.402 116.026 51.2766C113.664 49.1513 110.569 48.0247 107.394 48.1336C104.218 48.2426 101.208 49.5786 98.9969 51.8609C96.7858 54.1431 95.5457 57.1937 95.5374 60.3713L95.5166 60.4891Z" fill="black"/>
<path d="M117.325 42.0422C118.769 42.655 120.272 43.5967 120.594 45.0682C120.736 45.7156 120.628 46.3873 120.663 47.0451C120.732 48.3747 121.355 49.6072 121.767 50.8813C122.179 52.1554 122.318 53.6511 121.508 54.7244C121.255 55.0707 120.919 55.3442 120.691 55.6973C120.393 56.2539 120.231 56.8734 120.22 57.5046L119.552 64.1452C117.841 63.8232 118.603 60.8561 117.087 60.0321C116.771 59.859 116.394 59.8105 116.065 59.6478C115.335 59.3015 115.051 58.4533 114.68 57.747C114.31 57.0407 113.607 56.3171 112.807 56.5075C112.007 56.6979 111.744 57.612 111.159 58.1451C110.394 58.8376 109.179 58.8099 108.157 58.5502C107.136 58.2906 106.139 57.8578 105.083 57.8578C102.597 57.8993 101.018 60.3229 99.8895 62.4314C99.6722 62.9194 99.3438 63.3498 98.9304 63.6882C97.7256 64.533 95.8144 63.4666 95.6171 62.054C95.4993 61.2612 95.7486 60.3783 95.2916 59.7066C94.8346 59.0349 93.8444 58.893 93.0723 58.5329C91.0988 57.6258 90.4895 55.1641 90.8149 53.1006C91.0538 51.6119 91.6459 50.0815 91.1611 48.6482C90.9915 48.1531 90.7041 47.703 90.5483 47.2079C90.1155 45.823 90.8218 44.2857 91.9332 43.299C93.0446 42.3122 94.5022 41.7687 95.9356 41.2909C99.616 40.0549 103.48 38.8673 107.396 38.6111C109.109 38.5003 111.356 37.9636 112.717 39.0335C114.334 40.273 115.331 41.1974 117.325 42.0422Z" fill="#585268"/>
<path opacity="0.1" d="M114.116 81.1865C114.489 81.1865 114.791 80.8842 114.791 80.5113C114.791 80.1385 114.489 79.8362 114.116 79.8362C113.743 79.8362 113.441 80.1385 113.441 80.5113C113.441 80.8842 113.743 81.1865 114.116 81.1865Z" fill="black"/>
<path d="M114.116 80.9164C114.489 80.9164 114.791 80.6142 114.791 80.2413C114.791 79.8684 114.489 79.5662 114.116 79.5662C113.743 79.5662 113.441 79.8684 113.441 80.2413C113.441 80.6142 113.743 80.9164 114.116 80.9164Z" fill="#444053"/>
<path opacity="0.1" d="M118.433 123.551C118.806 123.551 119.109 123.248 119.109 122.875C119.109 122.503 118.806 122.2 118.433 122.2C118.061 122.2 117.758 122.503 117.758 122.875C117.758 123.248 118.061 123.551 118.433 123.551Z" fill="black"/>
<path d="M118.433 123.281C118.806 123.281 119.109 122.978 119.109 122.605C119.109 122.233 118.806 121.93 118.433 121.93C118.061 121.93 117.758 122.233 117.758 122.605C117.758 122.978 118.061 123.281 118.433 123.281Z" fill="#444053"/>
<path opacity="0.1" d="M116.141 134.748C116.514 134.748 116.817 134.445 116.817 134.072C116.817 133.7 116.514 133.397 116.141 133.397C115.769 133.397 115.466 133.7 115.466 134.072C115.466 134.445 115.769 134.748 116.141 134.748Z" fill="black"/>
<path d="M116.141 134.477C116.514 134.477 116.817 134.175 116.817 133.802C116.817 133.429 116.514 133.127 116.141 133.127C115.769 133.127 115.466 133.429 115.466 133.802C115.466 134.175 115.769 134.477 116.141 134.477Z" fill="#444053"/>
<path opacity="0.1" d="M92.9546 91.1716C92.9546 91.1716 91.4693 101.247 92.9546 103.002C94.4399 104.757 92.9546 91.1716 92.9546 91.1716Z" fill="black"/>
<path opacity="0.1" d="M137.071 109.882C137.071 109.882 139.903 115.986 137.071 121.837C134.239 127.688 132.483 130.067 133.428 133.802C134.374 137.538 137.071 109.882 137.071 109.882Z" fill="black"/>
<path opacity="0.1" d="M3.10217 221.858C7.28457 224.69 13.6274 223.34 13.6274 223.34C13.6274 223.34 23.204 218.756 26.0396 218.756C28.8752 218.756 35.7409 215.92 35.7409 215.92L35.5089 214.012C32.7148 214.549 26.3581 215.834 25.6241 216.46C24.6789 217.27 13.0769 221.183 13.0769 221.183C13.0769 221.183 5.17606 220.196 2.97753 216.948C1.53377 218.451 0.914022 220.376 3.10217 221.858Z" fill="black"/>
<g opacity="0.1">
<path opacity="0.1" d="M120.663 45.965C120.663 45.8196 120.663 45.6741 120.663 45.5253C120.663 45.6949 120.663 45.8715 120.663 46.0308C120.67 46.01 120.663 45.9892 120.663 45.965Z" fill="black"/>
<path opacity="0.1" d="M93.0759 57.4423C93.848 57.7886 94.807 57.927 95.2952 58.6126C95.7834 59.2981 95.503 60.1671 95.6207 60.96C95.8249 62.3726 97.7292 63.4424 98.934 62.5942C99.3474 62.2558 99.6758 61.8254 99.8931 61.3374C101.025 59.2289 102.604 56.8053 105.086 56.7637C106.146 56.7464 107.14 57.193 108.164 57.4562C109.189 57.7193 110.401 57.747 111.166 57.0511C111.751 56.5179 112.028 55.6004 112.814 55.4135C113.6 55.2265 114.324 55.9466 114.687 56.6529C115.051 57.3592 115.335 58.1902 116.072 58.5572C116.398 58.7164 116.765 58.7649 117.094 58.938C118.61 59.7655 117.848 62.7465 119.559 63.0512C119.79 60.8353 120.012 58.6218 120.227 56.4106C120.241 55.7863 120.402 55.1742 120.698 54.6241C120.926 54.2778 121.262 53.987 121.515 53.6477C121.821 53.2287 122.012 52.7369 122.069 52.2213C122.212 53.0969 122.014 53.9942 121.515 54.7279C121.262 55.0741 120.926 55.3477 120.698 55.7008C120.398 56.2558 120.234 56.874 120.22 57.5047C119.989 59.7182 119.766 61.9317 119.552 64.1453C117.841 63.8233 118.603 60.8561 117.087 60.0321C116.772 59.859 116.394 59.8105 116.065 59.6478C115.335 59.3016 115.051 58.4533 114.68 57.747C114.31 57.0407 113.607 56.3171 112.807 56.5075C112.008 56.6979 111.744 57.612 111.159 58.1452C110.394 58.8376 109.179 58.8099 108.157 58.5503C107.136 58.2906 106.139 57.8578 105.08 57.8578C102.597 57.8993 101.018 60.3229 99.8862 62.4314C99.6689 62.9194 99.3405 63.3498 98.9271 63.6882C97.7223 64.533 95.8111 63.4667 95.6137 62.0541C95.496 61.2612 95.7453 60.3783 95.2883 59.7066C94.8313 59.035 93.8411 58.893 93.069 58.5329C91.2651 57.702 90.6004 55.5727 90.7527 53.6373C90.8912 55.2196 91.6044 56.7637 93.0759 57.4423Z" fill="black"/>
<path opacity="0.1" d="M90.5519 46.1138C90.7077 46.6089 90.9951 47.0625 91.1647 47.5541C91.3434 48.1282 91.3954 48.7342 91.317 49.3303C91.2901 49.0949 91.239 48.8628 91.1647 48.6378C90.9951 48.1427 90.7077 47.6926 90.5519 47.1975C90.4152 46.7406 90.3879 46.2578 90.4723 45.7884C90.4924 45.8983 90.519 46.007 90.5519 46.1138Z" fill="black"/>
</g>
<path d="M166.663 157.235L138.854 153.755C138.658 153.731 138.472 153.653 138.318 153.529C138.165 153.405 138.048 153.241 137.982 153.055C137.917 152.868 137.904 152.667 137.946 152.474C137.988 152.281 138.083 152.104 138.22 151.962L149.885 139.844C149.998 139.726 150.137 139.636 150.29 139.581C150.444 139.526 150.609 139.507 150.771 139.526L172.033 141.908C172.194 141.926 172.35 141.981 172.487 142.068C172.624 142.156 172.739 142.274 172.823 142.413C172.907 142.552 172.959 142.709 172.973 142.871C172.987 143.033 172.964 143.196 172.905 143.348L167.788 156.57C167.701 156.79 167.543 156.975 167.339 157.095C167.135 157.216 166.897 157.265 166.663 157.235Z" fill="#746D83"/>
<path opacity="0.1" d="M166.663 157.235L138.854 153.755C138.658 153.731 138.472 153.653 138.318 153.529C138.165 153.405 138.048 153.241 137.982 153.055C137.917 152.868 137.904 152.667 137.946 152.474C137.988 152.281 138.083 152.104 138.22 151.962L149.885 139.844C149.998 139.726 150.137 139.636 150.29 139.581C150.444 139.526 150.609 139.507 150.771 139.526L172.033 141.908C172.194 141.926 172.35 141.981 172.487 142.068C172.624 142.156 172.739 142.274 172.823 142.413C172.907 142.552 172.959 142.709 172.973 142.871C172.987 143.033 172.964 143.196 172.905 143.348L167.788 156.57C167.701 156.79 167.543 156.975 167.339 157.095C167.135 157.216 166.897 157.265 166.663 157.235Z" fill="black"/>
<path d="M166.348 156.923L138.542 153.43C138.346 153.405 138.161 153.326 138.007 153.202C137.853 153.077 137.737 152.913 137.672 152.727C137.606 152.54 137.593 152.339 137.635 152.146C137.677 151.953 137.772 151.775 137.909 151.633L149.573 139.515C149.686 139.397 149.825 139.307 149.979 139.252C150.132 139.196 150.297 139.176 150.459 139.193L171.717 141.575C171.88 141.593 172.035 141.648 172.173 141.736C172.31 141.824 172.426 141.942 172.51 142.082C172.595 142.221 172.646 142.378 172.661 142.541C172.675 142.703 172.652 142.867 172.593 143.019L167.473 156.241C167.388 156.464 167.231 156.652 167.027 156.776C166.824 156.899 166.584 156.951 166.348 156.923V156.923Z" fill="#746D83"/>
<path d="M149.777 144.262L158.128 144.933L170.038 144.158H169.834L158.8 143.092C156.272 142.164 158.024 136.7 158.024 136.7L149.573 137.13L148.898 137.164C145.91 144.158 149.777 144.262 149.777 144.262Z" fill="#D1D9EC"/>
<path opacity="0.1" d="M149.777 144.262L158.128 144.934L170.038 144.158H169.834L157.792 144.587L149.725 143.711C147.433 143.109 148.745 139.134 149.573 137.133L148.898 137.168C145.91 144.158 149.777 144.262 149.777 144.262Z" fill="black"/>
<path d="M135.149 94.6027L137.704 131.251L138.051 136.06C138.085 136.591 138.322 137.088 138.712 137.449C139.103 137.811 139.617 138.009 140.149 138.002H140.924L179.39 137.77C179.54 137.768 179.688 137.736 179.825 137.674C179.961 137.612 180.084 137.522 180.184 137.411C180.284 137.299 180.36 137.168 180.407 137.025C180.454 136.883 180.471 136.732 180.456 136.583L180.11 131.77L177.403 99.5433C177.36 99.1231 177.199 98.7237 176.937 98.3924C176.675 98.0611 176.323 97.8117 175.924 97.6737L139.262 92.1757C138.016 91.7429 136.745 91.8952 135.952 92.5565C135.66 92.8049 135.434 93.1218 135.294 93.4788C135.154 93.8358 135.104 94.2218 135.149 94.6027V94.6027Z" fill="#4C4C56"/>
<path d="M137.704 131.251L138.051 136.06C138.085 136.591 138.322 137.088 138.712 137.449C139.103 137.811 139.617 138.009 140.149 138.002H140.924L179.39 137.77C179.54 137.768 179.688 137.736 179.825 137.674C179.961 137.612 180.084 137.522 180.184 137.411C180.284 137.299 180.36 137.168 180.407 137.025C180.454 136.883 180.471 136.732 180.456 136.583L180.11 131.77L137.704 131.251Z" fill="#DFE6F5"/>
<path d="M163.491 136.271C163.776 136.271 164.007 135.809 164.007 135.239C164.007 134.669 163.776 134.207 163.491 134.207C163.206 134.207 162.975 134.669 162.975 135.239C162.975 135.809 163.206 136.271 163.491 136.271Z" fill="white"/>
<path d="M161.996 148.953C161.996 148.953 151.477 144.982 148.642 147.87C148.642 147.87 148.178 148.749 150.085 148.953L157.792 149.573C157.792 149.573 160.964 149.881 161.996 148.953Z" fill="#D1D9EC"/>
<path d="M161.715 147.921C159.638 147.077 153.43 144.892 149.448 147.309C149.448 147.309 153.852 146.82 156.272 148.219C158.692 149.618 161.995 148.953 161.995 148.953L162.044 148.867C162.09 148.784 162.118 148.693 162.127 148.599C162.135 148.504 162.123 148.409 162.092 148.32C162.061 148.231 162.012 148.149 161.946 148.08C161.881 148.011 161.803 147.957 161.715 147.921V147.921Z" fill="#DFE6F5"/>
<path d="M135.149 94.6027L138.037 136.067C138.071 136.598 138.308 137.095 138.698 137.456C139.089 137.818 139.603 138.015 140.135 138.009H140.91C140.379 137.502 139.926 136.918 139.567 136.278C139.567 136.278 136.731 94.6131 136.524 93.5813C136.433 93.1951 136.235 92.8423 135.952 92.5634C135.661 92.8112 135.436 93.1269 135.296 93.4825C135.156 93.8382 135.105 94.2229 135.149 94.6027V94.6027Z" fill="#DFE6F5"/>
<path opacity="0.1" d="M135.149 94.6027L138.037 136.067C138.071 136.598 138.308 137.095 138.698 137.456C139.089 137.818 139.603 138.015 140.135 138.009H140.91C140.379 137.502 139.926 136.918 139.567 136.278C139.567 136.278 136.731 94.6131 136.524 93.5813C136.433 93.1951 136.235 92.8423 135.952 92.5634C135.661 92.8112 135.436 93.1269 135.296 93.4825C135.156 93.8382 135.105 94.2229 135.149 94.6027V94.6027Z" fill="black"/>
<path opacity="0.1" d="M130.188 106.097C133.304 105.405 140.575 103.272 140.575 103.272L141.876 103.009C141.859 98.4805 141.634 94.0938 141.551 92.6223H141.52C141.52 92.6223 135.312 94.6477 133.83 95.7383C132.348 96.829 127.757 96.5451 127.757 96.5451C127.757 96.5451 120.611 96.9294 114.68 103.553C108.749 110.176 127.086 106.779 130.188 106.097Z" fill="black"/>
<path d="M160.514 94.0591C160.791 94.1859 161.032 94.3809 161.213 94.6259C161.395 94.871 161.511 95.158 161.552 95.4603C161.592 95.7625 161.555 96.0701 161.444 96.3542C161.334 96.6384 161.153 96.8898 160.919 97.0851C159.274 98.4458 156.875 100.073 154.583 100.302C150.774 100.686 141.565 102.531 140.651 102.725C140.601 102.733 140.553 102.745 140.505 102.76C139.747 102.981 133.113 104.924 130.188 105.564C127.072 106.257 108.722 109.618 114.673 103.009C120.137 96.9224 126.629 96.0845 127.629 96.0049C127.709 95.998 127.789 95.998 127.868 96.0049C128.56 96.0361 132.48 96.1711 133.833 95.1913C134.539 94.7489 135.285 94.3766 136.063 94.0799C138.997 92.866 142.057 91.9834 145.186 91.4486L151.533 90.3406C151.894 90.2784 152.266 90.3267 152.599 90.4791L160.514 94.0591Z" fill="#EFB7B9"/>
<path d="M147.187 76.4224L150.155 76.1523C150.155 76.1523 153.395 78.5759 155.822 78.5759C158.249 78.5759 159.735 81.6919 159.735 81.6919C159.735 81.6919 163.782 83.5823 165.132 83.8524C166.483 84.1225 168.775 85.4693 168.099 86.0094C167.424 86.5495 168.234 87.7648 169.45 88.7065C170.665 89.6482 172.566 94.5092 170.932 95.1844C169.297 95.8595 164.862 97.2063 163.661 97.8815C162.459 98.5566 160.964 97.8815 160.964 97.8815C160.964 97.8815 153.804 88.5645 150.158 90.3199C146.512 92.0753 141.523 92.0718 141.523 92.0718L137.611 83.8455L147.187 76.4224Z" fill="#67647E"/>
<path d="M324.839 246.073C324.507 246.528 324.242 247.028 324.053 247.558C324.001 247.686 323.956 247.835 323.908 247.977C323.82 247.937 323.728 247.904 323.634 247.88C323.231 247.778 322.813 247.743 322.398 247.776C322.398 247.614 322.398 247.447 322.423 247.267C322.471 245.443 322.256 242.901 320.518 243.978C318.846 245.017 320.037 246.748 321.114 247.856L321.391 248.129C320.411 248.822 320.224 250.46 320.058 252.16C319.892 253.86 318.451 255.719 317.496 256.775C317.399 256.886 317.309 256.979 317.226 257.069C316.84 256.762 316.394 256.54 315.917 256.416C315.44 256.293 314.942 256.271 314.456 256.352L314.328 255.885C313.552 253.084 311.942 248.233 309.889 247.17C309.976 247.063 310.066 246.952 310.159 246.824C311.032 245.685 312.012 243.989 310.561 243.556C309.11 243.123 308.982 245.027 309.062 246.45C309.062 246.63 309.076 246.8 309.103 246.959C308.813 246.972 308.528 247.045 308.267 247.172C308.005 247.3 307.773 247.479 307.583 247.7L307.362 247.434C306.185 246.049 304.024 243.843 303.373 245.509C302.764 247.06 304.665 249.075 306.001 250.241L306.084 250.314C305.184 253.953 309.103 256.92 311.212 258.218L311.482 258.385C308.574 261.812 306.78 268.238 306.78 268.238L314.923 269.692C314.923 269.692 320.321 265.032 319.632 260.656H319.687C325.082 259.576 326.311 253.821 325.469 250.408L325.566 250.366C326.548 249.963 327.408 249.312 328.063 248.476C329.555 246.381 326.387 244.013 324.839 246.073Z" fill="#FDC435"/>
<path opacity="0.1" d="M324.839 246.073C324.507 246.528 324.242 247.028 324.053 247.558C324.001 247.686 323.956 247.835 323.908 247.977C323.82 247.937 323.728 247.904 323.634 247.88C323.231 247.778 322.813 247.743 322.398 247.776C322.398 247.614 322.398 247.447 322.423 247.267C322.471 245.443 322.256 242.901 320.518 243.978C318.846 245.017 320.037 246.748 321.114 247.856L321.391 248.129C320.411 248.822 320.224 250.46 320.058 252.16C319.892 253.86 318.451 255.719 317.496 256.775C317.399 256.886 317.309 256.979 317.226 257.069C316.84 256.762 316.394 256.54 315.917 256.416C315.44 256.293 314.942 256.271 314.456 256.352L314.328 255.885C313.552 253.084 311.942 248.233 309.889 247.17C309.976 247.063 310.066 246.952 310.159 246.824C311.032 245.685 312.012 243.989 310.561 243.556C309.11 243.123 308.982 245.027 309.062 246.45C309.062 246.63 309.076 246.8 309.103 246.959C308.813 246.972 308.528 247.045 308.267 247.172C308.005 247.3 307.773 247.479 307.583 247.7L307.362 247.434C306.185 246.049 304.024 243.843 303.373 245.509C302.764 247.06 304.665 249.075 306.001 250.241L306.084 250.314C305.184 253.953 309.103 256.92 311.212 258.218L311.482 258.385C308.574 261.812 306.78 268.238 306.78 268.238L314.923 269.692C314.923 269.692 320.321 265.032 319.632 260.656H319.687C325.082 259.576 326.311 253.821 325.469 250.408L325.566 250.366C326.548 249.963 327.408 249.312 328.063 248.476C329.555 246.381 326.387 244.013 324.839 246.073Z" fill="black"/>
<path d="M308.625 248.42L307.673 251.208C307.673 251.208 307.147 250.834 306.479 250.245C305.142 249.078 303.242 247.063 303.851 245.512C304.502 243.847 306.662 246.045 307.84 247.437C308.314 247.991 308.625 248.42 308.625 248.42Z" fill="#FDC435"/>
<path d="M310.644 246.828C310.353 247.212 310.041 247.579 309.709 247.929C309.626 247.443 309.569 246.953 309.54 246.461C309.46 245.038 309.609 243.14 311.039 243.566C312.469 243.992 311.51 245.689 310.644 246.828Z" fill="#FDC435"/>
<path d="M322.918 247.267C322.887 248.185 322.797 248.919 322.797 248.919C322.378 248.591 321.981 248.236 321.609 247.856C320.532 246.741 319.341 245.013 321.014 243.978C322.762 242.902 322.966 245.443 322.918 247.267Z" fill="#FDC435"/>
<path d="M328.54 248.469C327.886 249.305 327.026 249.956 326.044 250.359C325.772 250.479 325.492 250.581 325.206 250.664L324.084 249.089C324.202 248.568 324.357 248.057 324.548 247.558C324.737 247.028 325.002 246.528 325.334 246.073C326.885 244.013 330.053 246.381 328.54 248.469Z" fill="#FDC435"/>
<path opacity="0.1" d="M307.84 247.437C308.314 247.991 308.626 248.42 308.626 248.42L307.673 251.208C307.673 251.208 307.147 250.834 306.479 250.245C306.626 249.353 306.994 248.511 307.549 247.797C307.646 247.666 307.746 247.548 307.84 247.437Z" fill="black"/>
<path opacity="0.1" d="M310.644 246.828C310.353 247.211 310.041 247.579 309.709 247.929C309.626 247.443 309.569 246.953 309.54 246.461C309.937 246.466 310.323 246.594 310.644 246.828V246.828Z" fill="black"/>
<path d="M315.318 257.893L312.95 258.932C312.518 258.715 312.097 258.477 311.69 258.218C309.2 256.688 304.194 252.835 307.535 248.292C310.876 243.75 313.687 251.896 314.806 255.881C315.145 257.076 315.318 257.893 315.318 257.893Z" fill="#FDC435"/>
<path opacity="0.1" d="M321.609 247.856C321.955 247.502 322.423 247.291 322.918 247.267C322.886 248.185 322.796 248.919 322.796 248.919C322.377 248.591 321.981 248.236 321.609 247.856Z" fill="black"/>
<path opacity="0.1" d="M326.044 250.352C325.772 250.472 325.492 250.574 325.206 250.657L324.084 249.082C324.202 248.561 324.357 248.05 324.548 247.551C325.272 247.981 325.805 249.033 326.044 250.352Z" fill="black"/>
<path d="M320.165 260.649C320.034 260.677 319.902 260.701 319.767 260.722C311.828 261.927 317.15 257.644 317.15 257.644C317.15 257.644 317.496 257.315 317.991 256.775C318.946 255.736 320.39 253.87 320.553 252.16C320.802 249.587 321.093 247.174 324.129 247.88C327.11 248.58 327.678 259.146 320.165 260.649Z" fill="#FDC435"/>
<path d="M320.017 280.415H304.848V284.404H320.017V280.415Z" fill="#D4DFEC"/>
<path d="M322.256 267.452H302.438V281.371H322.256V267.452Z" fill="#D4DFEC"/>
<path opacity="0.1" d="M320.017 280.415H304.848V284.404H320.017V280.415Z" fill="black"/>
<path opacity="0.1" d="M322.256 267.452H302.438V281.371H322.256V267.452Z" fill="black"/>
<path d="M321.014 280.415H305.845V284.404H321.014V280.415Z" fill="#D4DFEC"/>
<path opacity="0.1" d="M314.799 255.892C315.145 257.083 315.311 257.9 315.311 257.9L312.943 258.939C312.511 258.722 312.09 258.484 311.683 258.226C312.617 257.045 313.663 256.159 314.799 255.892Z" fill="black"/>
<path opacity="0.1" d="M320.165 260.649C320.034 260.677 319.902 260.701 319.767 260.722C311.828 261.927 317.15 257.644 317.15 257.644C317.15 257.644 317.496 257.315 317.991 256.775C319.473 257.969 320.086 259.299 320.165 260.649Z" fill="black"/>
<path d="M307.258 268.242C307.258 268.242 311.704 252.315 317.936 257.232C324.168 262.148 315.401 269.696 315.401 269.696L307.258 268.242Z" fill="#FDC435"/>
<path opacity="0.1" d="M309.501 251.287C309.777 251.287 310 251.064 310 250.788C310 250.513 309.777 250.29 309.501 250.29C309.226 250.29 309.003 250.513 309.003 250.788C309.003 251.064 309.226 251.287 309.501 251.287Z" fill="black"/>
<path opacity="0.1" d="M309.46 253.614C309.735 253.614 309.959 253.391 309.959 253.115C309.959 252.84 309.735 252.617 309.46 252.617C309.185 252.617 308.961 252.84 308.961 253.115C308.961 253.391 309.185 253.614 309.46 253.614Z" fill="black"/>
<path opacity="0.1" d="M323.918 251.744C324.194 251.744 324.417 251.521 324.417 251.246C324.417 250.97 324.194 250.747 323.918 250.747C323.643 250.747 323.42 250.97 323.42 251.246C323.42 251.521 323.643 251.744 323.918 251.744Z" fill="black"/>
<path opacity="0.1" d="M312.285 263.672C312.561 263.672 312.784 263.448 312.784 263.173C312.784 262.898 312.561 262.674 312.285 262.674C312.01 262.674 311.787 262.898 311.787 263.173C311.787 263.448 312.01 263.672 312.285 263.672Z" fill="black"/>
<path opacity="0.1" d="M322.88 255.608C323.155 255.608 323.378 255.385 323.378 255.109C323.378 254.834 323.155 254.611 322.88 254.611C322.604 254.611 322.381 254.834 322.381 255.109C322.381 255.385 322.604 255.608 322.88 255.608Z" fill="black"/>
<path opacity="0.1" d="M317.728 260.763C318.003 260.763 318.226 260.54 318.226 260.265C318.226 259.989 318.003 259.766 317.728 259.766C317.452 259.766 317.229 259.989 317.229 260.265C317.229 260.54 317.452 260.763 317.728 260.763Z" fill="black"/>
<path opacity="0.1" d="M311.205 252.284C311.48 252.284 311.704 252.061 311.704 251.786C311.704 251.51 311.48 251.287 311.205 251.287C310.93 251.287 310.707 251.51 310.707 251.786C310.707 252.061 310.93 252.284 311.205 252.284Z" fill="black"/>
<path opacity="0.1" d="M322.547 253.24C322.822 253.24 323.046 253.017 323.046 252.741C323.046 252.466 322.822 252.243 322.547 252.243C322.272 252.243 322.049 252.466 322.049 252.741C322.049 253.017 322.272 253.24 322.547 253.24Z" fill="black"/>
<path opacity="0.1" d="M320.844 257.104C321.119 257.104 321.342 256.88 321.342 256.605C321.342 256.33 321.119 256.107 320.844 256.107C320.568 256.107 320.345 256.33 320.345 256.605C320.345 256.88 320.568 257.104 320.844 257.104Z" fill="black"/>
<path opacity="0.1" d="M315.609 263.298C315.884 263.298 316.107 263.074 316.107 262.799C316.107 262.524 315.884 262.301 315.609 262.301C315.334 262.301 315.11 262.524 315.11 262.799C315.11 263.074 315.334 263.298 315.609 263.298Z" fill="black"/>
<path opacity="0.1" d="M314.529 260.846C314.804 260.846 315.027 260.623 315.027 260.348C315.027 260.072 314.804 259.849 314.529 259.849C314.253 259.849 314.03 260.072 314.03 260.348C314.03 260.623 314.253 260.846 314.529 260.846Z" fill="black"/>
<path opacity="0.1" d="M311.953 255.317C312.228 255.317 312.451 255.094 312.451 254.819C312.451 254.543 312.228 254.32 311.953 254.32C311.677 254.32 311.454 254.543 311.454 254.819C311.454 255.094 311.677 255.317 311.953 255.317Z" fill="black"/>
<path opacity="0.1" d="M321.014 280.415H305.845V281.873H321.014V280.415Z" fill="black"/>
<path d="M323.254 267.452H303.436V281.371H323.254V267.452Z" fill="#D4DFEC"/>
<path opacity="0.1" d="M316.273 265.541C316.549 265.541 316.772 265.318 316.772 265.043C316.772 264.767 316.549 264.544 316.273 264.544C315.998 264.544 315.775 264.767 315.775 265.043C315.775 265.318 315.998 265.541 316.273 265.541Z" fill="black"/>
<path opacity="0.1" d="M313.282 266.164C313.558 266.164 313.781 265.941 313.781 265.666C313.781 265.39 313.558 265.167 313.282 265.167C313.007 265.167 312.784 265.39 312.784 265.666C312.784 265.941 313.007 266.164 313.282 266.164Z" fill="black"/>
</g>
<defs>
<linearGradient id="paint0_linear" x1="86.5461" y1="224.285" x2="86.5461" y2="37.569" gradientUnits="userSpaceOnUse">
<stop stop-color="#808080" stop-opacity="0.25"/>
<stop offset="0.54" stop-color="#808080" stop-opacity="0.12"/>
<stop offset="1" stop-color="#808080" stop-opacity="0.1"/>
</linearGradient>
<clipPath id="clip0">
<rect width="345" height="286.737" fill="white"/>
</clipPath>
</defs>
</svg>
