<svg width="353" height="324" viewBox="0 0 353 324" fill="none" xmlns="http://www.w3.org/2000/svg">
<path d="M352.533 296.389C352.533 311.486 273.617 323.726 176.267 323.726C78.9162 323.726 0 311.486 0 296.389C0 285.702 39.5576 276.443 97.2081 271.951C120.981 270.094 147.842 269.053 176.267 269.053C187.951 269.053 199.369 269.229 210.411 269.565C291.42 272.034 352.533 283.103 352.533 296.389Z" fill="#D5D5D5" fill-opacity="0.3"/>
<path opacity="0.1" d="M153.522 301.974C190.892 301.974 221.186 298.158 221.186 293.45C221.186 288.742 190.892 284.926 153.522 284.926C116.153 284.926 85.8589 288.742 85.8589 293.45C85.8589 298.158 116.153 301.974 153.522 301.974Z" fill="black"/>
<path d="M153.238 299.623C188.567 299.623 217.206 268.039 217.206 229.077C217.206 190.116 188.567 158.532 153.238 158.532C117.91 158.532 89.2705 190.116 89.2705 229.077C89.2705 268.039 117.91 299.623 153.238 299.623Z" fill="#3F3D56" fill-opacity="0.5"/>
<path d="M173.424 270.817H133.622V308.441H173.424V270.817Z" fill="#FDC435"/>
<path d="M225.451 279.929L223.176 292.863L237.96 295.214L247.626 289.335L247.058 279.929H225.451Z" fill="#575A89"/>
<path d="M150.964 37.135C150.964 37.135 149.826 50.6562 146.983 51.2441C144.14 51.8319 153.238 75.3471 153.238 75.3471H166.884L177.688 72.4077L172.57 59.4744C172.57 59.4744 165.747 50.0683 170.865 42.4259C175.982 34.7834 150.964 37.135 150.964 37.135Z" fill="#A0616A"/>
<path opacity="0.1" d="M150.964 37.135C150.964 37.135 149.826 50.6562 146.983 51.2441C144.14 51.8319 153.238 75.3471 153.238 75.3471H166.884L177.688 72.4077L172.57 59.4744C172.57 59.4744 165.747 50.0683 170.865 42.4259C175.982 34.7834 150.964 37.135 150.964 37.135Z" fill="black"/>
<path d="M122.534 140.602C122.534 140.602 107.75 169.996 119.691 175.874C131.631 181.753 134.474 181.165 134.474 182.929C134.474 184.693 132.2 184.105 133.337 187.044C134.474 189.983 131.063 201.741 134.474 208.796C137.886 215.85 136.749 221.141 136.749 221.141C136.749 221.141 136.749 221.729 137.886 224.08C139.023 226.432 139.592 228.196 139.023 229.371C138.454 230.547 135.043 238.19 138.454 239.953C141.866 241.717 159.493 242.893 161.199 239.953C162.904 237.014 159.493 235.25 161.199 233.486C162.904 231.723 164.042 231.135 162.904 229.959C161.767 228.783 160.63 214.086 160.63 214.086C160.63 214.086 163.473 197.038 162.336 194.686C161.199 192.335 159.493 189.983 160.63 188.22C161.767 186.456 162.904 187.044 163.473 184.693C164.042 182.341 165.179 177.05 165.179 177.05L171.433 176.462L186.217 179.402C186.217 179.402 202.706 198.214 220.902 204.093C220.902 204.093 226.019 209.383 227.725 209.383C229.431 209.383 229.431 209.383 228.862 210.559C228.294 211.735 226.588 211.735 227.725 212.911C228.862 214.086 230.568 212.323 229.431 214.086C228.294 215.85 227.156 215.85 228.294 217.026C229.431 218.202 227.725 224.668 227.725 225.256C227.725 225.844 222.607 281.105 224.313 282.28C226.019 283.456 249.9 286.983 251.606 282.28C253.312 277.577 250.469 271.699 250.469 271.699C250.469 271.699 258.998 201.153 256.724 196.45C254.449 191.747 246.489 170.583 203.844 157.062C203.844 157.062 191.903 154.711 191.903 152.947C191.903 151.183 190.766 140.014 188.491 139.426C186.217 138.838 173.139 138.25 173.139 138.25L156.65 143.541L133.906 139.426L122.534 140.602Z" fill="#2F2E41"/>
<path d="M142.435 239.365L139.592 249.947C139.592 249.947 137.317 266.996 140.16 271.111C142.394 274.343 146.381 278.301 153.775 278.995C155.848 279.192 157.923 278.651 159.658 277.463C161.392 276.274 162.683 274.509 163.316 272.46C163.4 272.214 163.453 271.958 163.473 271.699C163.473 270.523 161.767 256.414 161.767 256.414L158.924 241.717L158.356 237.602L142.435 239.365Z" fill="#2F2E41"/>
<path d="M225.451 289.923C225.451 289.923 222.608 286.984 222.039 289.923C221.471 292.862 219.196 305.208 223.176 305.796C227.157 306.383 265.253 312.262 269.233 309.911C273.213 307.559 280.605 304.032 276.056 302.268C271.507 300.505 258.43 295.214 258.43 295.214C258.43 295.214 251.038 285.22 249.901 284.632C248.763 284.044 242.509 285.22 239.666 287.571C236.823 289.923 225.451 289.923 225.451 289.923Z" fill="#2F2E41"/>
<path d="M164.61 49.4805C174.345 49.4805 182.237 41.3212 182.237 31.2562C182.237 21.1913 174.345 13.032 164.61 13.032C154.875 13.032 146.983 21.1913 146.983 31.2562C146.983 41.3212 154.875 49.4805 164.61 49.4805Z" fill="#A0616A"/>
<path d="M162.904 72.4077L156.081 64.7653L148.518 49.4805C148.518 49.4805 143.003 47.7168 141.866 50.6562C140.729 53.5956 120.259 63.0017 120.259 63.0017C120.259 63.0017 125.376 112.383 123.102 117.087C120.828 121.79 116.847 140.602 120.259 142.365C123.671 144.129 139.592 142.365 144.709 144.717C149.826 147.068 164.61 147.068 168.59 144.129C172.57 141.19 173.708 138.838 177.688 140.602C181.076 142.103 188.998 90.7725 191.278 75.4759C191.471 74.1911 191.311 72.8764 190.818 71.6806C190.325 70.4848 189.517 69.4556 188.488 68.7096C183.386 65.0095 174.197 58.6335 172.57 59.4744C170.296 60.6502 162.904 72.4077 162.904 72.4077Z" fill="#575A89"/>
<path d="M186.217 122.965L198.726 119.438C198.726 119.438 201.001 135.899 203.275 135.899C205.55 135.899 195.315 145.305 190.197 144.129C185.08 142.953 177.688 138.838 177.12 135.899C176.551 132.959 182.237 120.614 182.237 120.614L186.217 122.965Z" fill="#575A89"/>
<path d="M151.304 39.1179C152.502 36.3854 152.294 33.1981 153.285 30.3782C153.816 28.8682 154.677 27.5055 155.801 26.3965C156.925 25.2875 158.282 24.4623 159.766 23.9853C161.25 23.5082 162.82 23.3924 164.355 23.6467C165.889 23.901 167.346 24.5187 168.611 25.4513C169.886 26.391 171.163 27.7112 172.719 27.5318C174.395 27.3387 175.889 25.4061 177.43 26.1144C179.137 26.8994 178.676 30.063 180.406 30.7937C181.316 31.1783 182.392 30.5861 182.917 29.7263C183.377 28.8227 183.627 27.8214 183.648 26.8009C183.887 24.2935 184.103 21.6399 183.051 19.3672C182.609 18.5969 182.223 17.7931 181.898 16.9628C181.714 16.1874 181.64 15.3885 181.679 14.5911C181.669 11.644 181.461 8.56996 180.026 6.02326C178.435 3.19726 175.492 1.39018 172.422 0.601676C169.353 -0.186828 166.136 -0.065926 162.985 0.209942C157.774 0.665983 152.341 1.64353 148.236 4.99233C147.678 5.41374 147.198 5.93535 146.818 6.5323C146.458 7.24145 146.203 8.00282 146.063 8.79063C145.175 12.5273 143.845 16.1362 142.101 19.5354C141.262 20.9764 140.577 22.507 140.057 24.1005C139.621 25.7198 139.651 27.5651 140.562 28.9569C141.304 30.09 142.49 30.6939 143.422 31.6202C144.345 32.5382 144.777 34.3035 145.8 34.9986C146.693 35.6054 147.762 35.1771 148.673 35.8202C149.842 36.6459 149.927 38.4564 151.304 39.1179Z" fill="#2F2E41"/>
<path d="M200.432 137.074L204.981 124.729C204.981 124.729 215.216 111.208 209.529 104.741C203.843 98.2744 197.589 123.553 197.589 123.553L200.432 137.074Z" fill="#A0616A"/>
<path opacity="0.1" d="M123.386 75.641H122.818C122.818 75.641 114.004 64.7653 112.299 79.4623C110.593 94.1592 104.907 142.953 119.69 144.717C134.474 146.48 144.993 137.368 144.993 137.368C144.993 137.368 155.797 120.32 151.816 120.32C149.891 120.32 144.653 119.426 139.876 119.732C134.78 120.059 130.2 121.543 130.494 120.026C131.062 117.087 139.307 79.7562 123.386 75.641Z" fill="black"/>
<path d="M122.534 64.1774L120.259 63.0016C120.259 63.0016 111.162 64.7653 109.456 79.4623C107.75 94.1592 102.064 142.953 116.848 144.717C131.631 146.48 151.532 142.365 151.532 142.365C151.532 142.365 155.513 120.026 151.532 120.026C147.552 120.026 127.082 122.965 127.651 120.026C128.22 117.086 138.454 68.2926 122.534 64.1774Z" fill="#575A89"/>
<path d="M192.188 130.314L198.457 120.378L202.422 136.781L192.188 141.484V130.314Z" fill="#575A89"/>
<path d="M187.354 70.0562C188.69 70.4013 189.891 71.1605 190.796 72.232C191.702 73.3034 192.269 74.6358 192.421 76.05L197.021 118.85C197.021 118.85 185.649 144.129 179.963 127.08C174.277 110.032 187.354 70.0562 187.354 70.0562Z" fill="#575A89"/>
<path d="M165.748 81.2259L167.453 77.6986C167.453 77.6986 192.472 85.341 197.589 92.3956C197.589 92.3956 210.098 84.1653 216.922 85.341L223.745 86.5168L202.707 105.917L175.982 103.565L165.748 81.2259Z" fill="#F2F2F2"/>
<path d="M164.61 77.6986L141.297 111.208L174.845 128.256C174.845 128.256 177.981 130.02 180.393 128.256L202.706 117.674L223.745 86.5168L202.706 97.6865C202.706 97.6865 200.432 92.9835 195.883 95.335L164.61 77.6986Z" fill="#FDC435"/>
<path d="M147.949 135.104L157.874 126.785C157.874 126.785 173.289 120.397 171.509 111.854C169.728 103.311 152.051 121.933 152.051 121.933L147.949 135.104Z" fill="#A0616A"/>
<path d="M63.6711 215.612C63.6711 215.612 64.2022 217.843 67.0245 218.924L64.0251 230.382L63.5404 231.308L61.452 230.094L59.4166 227.881L58.1878 226.8L63.6711 215.612Z" fill="#D5D6DB"/>
<path d="M40.6873 239.905L48.0408 226.865L63.5498 214.655L59.3608 227.027L40.6873 239.905Z" fill="#3A3768"/>
<path d="M40.686 239.907C40.686 239.907 42.0376 242.921 45.1648 243.569L63.605 230.859C63.605 230.859 60.9155 230.289 59.359 227.028L40.686 239.907Z" fill="#3A3768"/>
<path opacity="0.1" d="M40.686 239.907C40.686 239.907 42.0376 242.921 45.1648 243.569L63.605 230.859C63.605 230.859 60.9155 230.289 59.359 227.028L53.529 231.049L40.686 239.907Z" fill="black"/>
<path opacity="0.1" d="M41.8969 240.108C41.8969 240.108 43.0309 242.147 44.6168 242.501L41.8969 240.108Z" fill="black"/>
<path d="M63.6062 230.858L67.1172 217.794C67.1172 217.794 67.6919 217.396 67.8344 218.106C67.9769 218.815 64.1928 231.062 64.1928 231.062L45.166 243.568L63.6062 230.858Z" fill="#3A3768"/>
<path opacity="0.1" d="M63.6062 230.858L67.1172 217.794C67.1172 217.794 67.6919 217.396 67.8344 218.106C67.9769 218.815 64.1928 231.062 64.1928 231.062L45.166 243.568L63.6062 230.858Z" fill="black"/>
<path opacity="0.1" d="M59.1114 228.227C59.1114 228.227 59.5591 230.179 62.1618 230.911L59.1114 228.227Z" fill="black"/>
<path opacity="0.1" d="M62.8312 223.958L60.8882 229.235L60.9486 229.264L62.8917 223.987L62.8312 223.958Z" fill="black"/>
<path opacity="0.1" d="M63.3741 223.035L61.2966 229.596L61.3579 229.622L63.4353 223.062L63.3741 223.035Z" fill="black"/>
<path opacity="0.1" d="M64.0026 222.304L61.801 229.994L61.8627 230.019L64.0643 222.329L64.0026 222.304Z" fill="black"/>
<path opacity="0.1" d="M64.4759 221.323L62.2825 230.304L62.3447 230.327L64.5381 221.345L64.4759 221.323Z" fill="black"/>
<path opacity="0.1" d="M65.0581 220.662L62.5315 230.438L62.5935 230.461L65.1202 220.685L65.0581 220.662Z" fill="black"/>
<path opacity="0.1" d="M66.047 218.963L62.969 230.641L63.031 230.665L66.109 218.987L66.047 218.963Z" fill="black"/>
<path opacity="0.45" d="M44.5305 236.038L49.4467 226.656L54.6298 222.865L51.424 231.277L44.5305 236.038Z" fill="white"/>
<path d="M63.55 214.655C63.55 214.655 64.0876 214.42 64.1695 214.908C64.2514 215.395 59.3605 227.027 59.3605 227.027L63.55 214.655Z" fill="#3A3768"/>
<path d="M295.943 31.1922C295.943 31.1922 294.414 33.3218 295.594 36.568L283.456 42.557L282.293 42.832L281.777 40.1198L282.165 36.7052L282.178 34.8349L295.943 31.1922Z" fill="#D5D6DB"/>
<path d="M257.759 29.5377L274.524 26.1228L296.678 30.3716L282.86 36.0182L257.759 29.5377Z" fill="#3A3768"/>
<path d="M257.756 29.5378C257.756 29.5378 256.166 32.9617 257.947 36.1471L282.729 42.5518C282.729 42.5518 281.208 39.8024 282.857 36.0175L257.756 29.5378Z" fill="#3A3768"/>
<path opacity="0.1" d="M257.756 29.5378C257.756 29.5378 256.166 32.9617 257.947 36.1471L282.729 42.5518C282.729 42.5518 281.208 39.8024 282.857 36.0175L275.021 33.9942L257.756 29.5378Z" fill="black"/>
<path opacity="0.1" d="M258.489 30.7338C258.489 30.7338 257.578 33.2401 258.46 34.8738L258.489 30.7338Z" fill="black"/>
<path d="M282.731 42.5518L296.64 35.8015C296.64 35.8015 297.413 36.0004 296.907 36.6546C296.401 37.3088 282.994 43.2114 282.994 43.2114L257.95 36.1471L282.731 42.5518Z" fill="#3A3768"/>
<path opacity="0.1" d="M282.731 42.5518L296.64 35.8015C296.64 35.8015 297.413 36.0004 296.907 36.6546C296.401 37.3088 282.994 43.2114 282.994 43.2114L257.95 36.1471L282.731 42.5518Z" fill="black"/>
<path opacity="0.1" d="M281.636 36.7014C281.636 36.7014 280.287 38.5491 281.604 41.3443L281.636 36.7014Z" fill="black"/>
<path opacity="0.1" d="M288.108 36.7166L282.097 38.9902L282.117 39.0638L288.128 36.7901L288.108 36.7166Z" fill="black"/>
<path opacity="0.1" d="M289.311 36.4943L282.091 39.6127L282.115 39.6852L289.334 36.5668L289.311 36.4943Z" fill="black"/>
<path opacity="0.1" d="M290.413 36.4899L282.125 40.3466L282.15 40.4184L290.438 36.5617L290.413 36.4899Z" fill="black"/>
<path opacity="0.1" d="M291.615 36.1632L282.218 40.9946L282.245 41.0653L291.642 36.2339L291.615 36.1632Z" fill="black"/>
<path opacity="0.1" d="M292.621 36.171L282.289 41.3095L282.315 41.3806L292.648 36.242L292.621 36.171Z" fill="black"/>
<path opacity="0.1" d="M294.829 35.7532L282.441 41.8398L282.467 41.9111L294.855 35.8244L294.829 35.7532Z" fill="black"/>
<path opacity="0.45" d="M263.975 29.9601L275.757 27.1801L282.911 28.817L273.248 32.3472L263.975 29.9601Z" fill="white"/>
<path d="M296.678 30.3716C296.678 30.3716 297.284 30.6599 296.925 31.0954C296.565 31.5308 282.86 36.0175 282.86 36.0175L296.678 30.3716Z" fill="#3A3768"/>
<path d="M310.22 261.39C310.22 261.39 311.2 263.779 313.144 264.718L309.581 271.924L309.182 272.553L307.769 271.563L306.451 269.867L305.641 269.024L310.22 261.39Z" fill="#D5D6DB"/>
<path d="M292.398 277.294L298.418 268.455L310.193 260.701L306.465 269.254L292.398 277.294Z" fill="#FDC435"/>
<path d="M292.398 277.294C292.398 277.294 293.177 279.522 295.364 280.172L309.255 272.237C309.255 272.237 307.375 271.669 306.464 269.255L292.398 277.294Z" fill="#FDC435"/>
<path opacity="0.1" d="M292.398 277.294C292.398 277.294 293.177 279.522 295.364 280.172L309.255 272.237C309.255 272.237 307.375 271.669 306.464 269.255L292.398 277.294Z" fill="black"/>
<path opacity="0.1" d="M293.247 277.511C293.247 277.511 293.931 279.031 295.038 279.378L293.247 277.511Z" fill="black"/>
<path d="M309.256 272.236L313.279 263.917C313.279 263.917 313.712 263.669 313.771 264.183C313.83 264.696 309.661 272.417 309.661 272.417L295.365 280.17L309.256 272.236Z" fill="#FDC435"/>
<path opacity="0.1" d="M309.256 272.236L313.279 263.917C313.279 263.917 313.712 263.669 313.771 264.183C313.83 264.696 309.661 272.417 309.661 272.417L295.365 280.17L309.256 272.236Z" fill="black"/>
<path opacity="0.1" d="M306.215 270.093C306.215 270.093 306.416 271.509 308.225 272.187L306.215 270.093Z" fill="black"/>
<path opacity="0.1" d="M309.12 267.278L307.419 270.917L307.46 270.941L309.162 267.302L309.12 267.278Z" fill="black"/>
<path opacity="0.1" d="M309.562 266.655L307.688 271.199L307.73 271.221L309.604 266.677L309.562 266.655Z" fill="black"/>
<path opacity="0.1" d="M310.054 266.173L308.023 271.513L308.065 271.534L310.096 266.194L310.054 266.173Z" fill="black"/>
<path opacity="0.1" d="M310.45 265.502L308.347 271.762L308.39 271.782L310.493 265.522L310.45 265.502Z" fill="black"/>
<path opacity="0.1" d="M310.904 265.067L308.517 271.873L308.559 271.893L310.947 265.087L310.904 265.067Z" fill="black"/>
<path opacity="0.1" d="M311.711 263.918L308.816 272.044L308.859 272.065L311.754 263.938L311.711 263.918Z" fill="black"/>
<path opacity="0.3" d="M295.366 274.773L299.431 268.392L303.349 266.006L300.56 271.8L295.366 274.773Z" fill="white"/>
<path d="M310.193 260.701C310.193 260.701 310.59 260.566 310.619 260.918C310.648 261.27 306.465 269.254 306.465 269.254L310.193 260.701Z" fill="#FDC435"/>
<path d="M74.6124 42.9258C74.6124 42.9258 71.3772 44.5388 70.2647 47.3482L59.8386 43.1113L58.9192 42.6181L60.1569 40.5436L62.3903 38.5299L63.4851 37.3135L74.6124 42.9258Z" fill="#D5D6DB"/>
<path d="M50.5826 19.6685L63.5396 27.1699L75.5719 42.8171L63.2479 38.4871L50.5826 19.6685Z" fill="#FDC435"/>
<path d="M50.5827 19.668C50.5827 19.668 47.5519 20.9839 46.8681 24.1036L59.3679 42.6876C59.3679 42.6876 59.9687 40.0044 63.2459 38.4855L50.5827 19.668Z" fill="#FDC435"/>
<path opacity="0.1" d="M50.5827 19.668C50.5827 19.668 47.5519 20.9839 46.8681 24.1036L59.3679 42.6876C59.3679 42.6876 59.9687 40.0044 63.2459 38.4855L50.5827 19.668Z" fill="black"/>
<path opacity="0.1" d="M50.3668 20.8756C50.3668 20.8756 48.3135 21.9865 47.9433 23.5682L50.3668 20.8756Z" fill="black"/>
<path d="M59.3698 42.6892L71.3963 47.4555C71.3963 47.4555 71.7872 48.0351 71.0762 48.1695C70.3652 48.3039 59.1587 43.2735 59.1587 43.2735L46.8701 24.1052L59.3698 42.6892Z" fill="#FDC435"/>
<path opacity="0.1" d="M59.3698 42.6892L71.3963 47.4555C71.3963 47.4555 71.7872 48.0351 71.0762 48.1695C70.3652 48.3039 59.1587 43.2735 59.1587 43.2735L46.8701 24.1052L59.3698 42.6892Z" fill="black"/>
<path opacity="0.1" d="M62.0509 38.2244C62.0509 38.2244 60.0945 38.6499 59.333 41.2441L62.0509 38.2244Z" fill="black"/>
<path opacity="0.1" d="M66.2777 41.9925L61.0229 39.9895L60.9937 40.0497L66.2484 42.0527L66.2777 41.9925Z" fill="black"/>
<path opacity="0.1" d="M67.1936 42.5458L60.6572 40.3938L60.6303 40.4547L67.1667 42.6067L67.1936 42.5458Z" fill="black"/>
<path opacity="0.1" d="M67.9167 43.1827L60.2527 40.8937L60.2272 40.9551L67.8913 43.2441L67.9167 43.1827Z" fill="black"/>
<path opacity="0.1" d="M68.8941 43.6672L59.9377 41.3717L59.9144 41.4337L68.8707 43.7292L68.8941 43.6672Z" fill="black"/>
<path opacity="0.1" d="M69.5483 44.2575L59.8013 41.6197L59.7772 41.6815L69.5243 44.3193L69.5483 44.2575Z" fill="black"/>
<path opacity="0.1" d="M71.2351 45.2661L59.5923 42.0553L59.5679 42.117L71.2107 45.3278L71.2351 45.2661Z" fill="black"/>
<path opacity="0.3" d="M54.4062 23.5549L63.7316 28.5776L67.4631 33.8036L59.0885 30.5022L54.4062 23.5549Z" fill="white"/>
<path d="M75.5712 42.8167C75.5712 42.8167 75.8004 43.3574 75.3115 43.4339C74.8226 43.5103 63.2476 38.4871 63.2476 38.4871L75.5712 42.8167Z" fill="#FDC435"/>
</svg>
